<svg width="440" height="192" viewBox="0 0 440 192" fill="none" xmlns="http://www.w3.org/2000/svg">
<path d="M207.956 122.759C207.956 123.994 207.716 125.161 207.236 126.259C206.79 127.357 206.155 128.318 205.331 129.141C204.508 129.965 203.547 130.617 202.449 131.097C201.351 131.578 200.167 131.818 198.897 131.818C197.628 131.818 196.427 131.578 195.294 131.097C194.196 130.617 193.235 129.965 192.412 129.141C191.588 128.318 190.936 127.357 190.456 126.259C189.976 125.161 189.735 123.994 189.735 122.759C189.735 121.489 189.976 120.305 190.456 119.207C190.936 118.075 191.588 117.097 192.412 116.274C193.235 115.45 194.196 114.798 195.294 114.318C196.427 113.837 197.628 113.597 198.897 113.597C200.167 113.597 201.351 113.837 202.449 114.318C203.547 114.798 204.508 115.45 205.331 116.274C206.155 117.097 206.79 118.075 207.236 119.207C207.716 120.305 207.956 121.489 207.956 122.759ZM206.206 137.016L202.294 186.532L192.36 185.502L191.743 136.244L206.206 137.016Z" fill="#F9FFF5"/>
<path d="M243.111 169.031C240.4 169.031 237.706 168.688 235.03 168.002C232.388 167.281 229.986 166.149 227.824 164.605C227.858 165.943 227.944 167.316 228.081 168.723C228.219 170.129 228.442 171.502 228.751 172.84C229.094 174.144 229.523 175.379 230.037 176.546C230.586 177.713 231.273 178.742 232.096 179.634C232.954 180.492 233.966 181.179 235.133 181.693C236.334 182.208 237.758 182.465 239.405 182.465C240.949 182.465 242.39 182.191 243.729 181.642C245.067 181.058 246.234 180.286 247.229 179.326C248.258 178.365 249.099 177.232 249.751 175.928C250.403 174.625 250.849 173.218 251.089 171.708L263.751 174.539C262.756 176.666 261.349 178.468 259.53 179.943C257.746 181.419 255.756 182.603 253.56 183.495C251.363 184.421 249.064 185.09 246.662 185.502C244.295 185.914 242.013 186.12 239.817 186.12C235.871 186.12 232.354 185.536 229.265 184.37C226.177 183.203 223.569 181.522 221.442 179.326C219.348 177.13 217.736 174.47 216.603 171.348C215.505 168.191 214.956 164.656 214.956 160.745C214.956 156.936 215.608 153.35 216.912 149.987C218.216 146.59 220.035 143.639 222.368 141.134C224.701 138.629 227.498 136.656 230.758 135.215C234.052 133.739 237.672 133.002 241.618 133.002C244.501 133.002 247.366 133.362 250.214 134.083C253.062 134.769 255.618 135.867 257.883 137.377C260.148 138.852 261.966 140.757 263.339 143.09C264.746 145.423 265.449 148.237 265.449 151.531C265.449 154.757 264.797 157.485 263.493 159.715C262.224 161.911 260.542 163.713 258.449 165.12C256.356 166.492 253.971 167.487 251.295 168.105C248.618 168.723 245.89 169.031 243.111 169.031ZM240.898 136.81C239.319 136.81 237.912 137.136 236.677 137.788C235.476 138.406 234.395 139.264 233.434 140.362C232.508 141.46 231.719 142.713 231.067 144.119C230.415 145.526 229.866 147.002 229.42 148.546C228.974 150.09 228.63 151.651 228.39 153.23C228.15 154.808 227.996 156.284 227.927 157.656C229.231 159.887 230.964 161.722 233.126 163.164C235.287 164.571 237.792 165.274 240.64 165.274C242.459 165.274 244.089 164.862 245.53 164.039C246.971 163.181 248.189 162.083 249.185 160.745C250.18 159.406 250.935 157.914 251.449 156.267C251.998 154.619 252.273 152.972 252.273 151.325C252.273 149.678 252.033 147.997 251.552 146.281C251.072 144.531 250.351 142.97 249.39 141.597C248.464 140.19 247.28 139.041 245.839 138.149C244.432 137.257 242.785 136.81 240.898 136.81Z" fill="#F9FFF5"/>
<path d="M298.597 185.09C295.646 185.09 292.695 184.713 289.744 183.958C286.827 183.203 284.151 182.054 281.714 180.509C279.278 178.931 277.219 176.958 275.538 174.59C273.891 172.188 272.878 169.357 272.501 166.098L286.913 166.509C286.844 166.715 286.81 166.938 286.81 167.178C286.81 167.384 286.81 167.59 286.81 167.796C286.81 169.821 287.102 171.639 287.685 173.252C288.303 174.865 289.178 176.237 290.31 177.37C291.442 178.468 292.798 179.308 294.376 179.892C295.955 180.475 297.722 180.767 299.678 180.767C300.844 180.767 301.977 180.647 303.075 180.406C304.207 180.166 305.202 179.772 306.06 179.223C306.952 178.639 307.673 177.884 308.222 176.958C308.771 176.031 309.045 174.865 309.045 173.458C309.045 171.879 308.548 170.524 307.553 169.392C306.558 168.259 305.339 167.316 303.898 166.561C302.491 165.772 300.999 165.137 299.42 164.656C297.876 164.142 296.521 163.747 295.354 163.473C294.153 163.164 292.763 162.821 291.185 162.443C289.641 162.031 288.045 161.568 286.398 161.053C284.751 160.504 283.138 159.87 281.56 159.149C279.981 158.428 278.575 157.57 277.339 156.575C276.104 155.58 275.109 154.448 274.354 153.178C273.599 151.874 273.221 150.382 273.221 148.7C273.221 146.813 273.582 145.097 274.302 143.553C275.023 142.009 275.984 140.637 277.185 139.436C278.42 138.235 279.827 137.205 281.405 136.347C283.018 135.455 284.682 134.734 286.398 134.185C288.114 133.602 289.847 133.173 291.597 132.899C293.347 132.624 294.994 132.487 296.538 132.487C299.146 132.487 301.788 132.796 304.464 133.413C307.175 133.997 309.629 134.958 311.825 136.296C314.055 137.634 315.908 139.367 317.384 141.494C318.893 143.622 319.769 146.195 320.009 149.215L306.009 150.296V149.781C306.043 147.757 305.803 145.921 305.288 144.274C304.808 142.627 304.053 141.22 303.023 140.053C302.028 138.886 300.759 137.994 299.214 137.377C297.705 136.725 295.92 136.399 293.861 136.399C292.935 136.399 291.923 136.536 290.825 136.81C289.727 137.085 288.697 137.514 287.736 138.097C286.81 138.646 286.021 139.35 285.369 140.208C284.717 141.065 284.391 142.078 284.391 143.244C284.391 145.029 284.94 146.47 286.038 147.568C287.17 148.632 288.543 149.49 290.155 150.141C291.768 150.759 293.45 151.24 295.2 151.583C296.95 151.892 298.477 152.2 299.781 152.509C301.187 152.818 302.68 153.213 304.259 153.693C305.871 154.139 307.45 154.705 308.994 155.392C310.572 156.044 312.065 156.833 313.472 157.759C314.913 158.651 316.183 159.698 317.281 160.899C318.379 162.066 319.254 163.404 319.906 164.914C320.558 166.389 320.884 168.053 320.884 169.906C320.884 172.686 320.163 175.053 318.722 177.009C317.281 178.931 315.445 180.492 313.215 181.693C311.018 182.894 308.616 183.752 306.009 184.267C303.401 184.816 300.93 185.09 298.597 185.09Z" fill="#F9FFF5"/>
<path d="M348.009 111.693L347.391 132.796H359.59V137.119H347.288L345.899 183.804L336.428 184.679L335.45 137.119H322.788V132.796H335.347L335.038 114.987L348.009 111.693Z" fill="#F9FFF5"/>
<path d="M397.267 182.877L398.554 177.473C397.353 178.536 396.014 179.497 394.539 180.355C393.098 181.213 391.605 181.951 390.061 182.568C388.517 183.152 386.973 183.598 385.428 183.907C383.919 184.25 382.529 184.421 381.259 184.421C379.029 184.421 376.73 184.095 374.362 183.443C371.994 182.791 369.85 181.813 367.928 180.509C366.007 179.206 364.428 177.576 363.193 175.62C361.958 173.664 361.34 171.399 361.34 168.826C361.34 165.463 361.923 162.546 363.09 160.075C364.257 157.605 365.835 155.563 367.825 153.95C369.85 152.338 372.218 151.154 374.928 150.399C377.639 149.61 380.556 149.215 383.678 149.215C385.154 149.215 386.664 149.335 388.208 149.575C389.752 149.816 391.262 150.176 392.737 150.656C394.213 151.137 395.62 151.771 396.958 152.561C398.296 153.35 399.497 154.276 400.561 155.34C400.458 153.487 400.201 151.531 399.789 149.472C399.411 147.414 398.794 145.543 397.936 143.862C397.112 142.146 395.997 140.739 394.59 139.641C393.183 138.509 391.399 137.943 389.237 137.943C386.08 137.943 383.404 138.766 381.208 140.413C379.046 142.026 377.553 144.377 376.73 147.465L363.347 146.075C364.171 143.948 365.338 142.078 366.847 140.465C368.357 138.818 370.056 137.445 371.943 136.347C373.865 135.249 375.906 134.426 378.068 133.877C380.23 133.293 382.409 133.002 384.605 133.002C387.968 133.002 390.97 133.482 393.612 134.443C396.289 135.404 398.639 136.725 400.664 138.406C402.688 140.087 404.404 142.078 405.811 144.377C407.218 146.641 408.367 149.095 409.26 151.737C410.152 154.345 410.804 157.09 411.215 159.972C411.627 162.821 411.833 165.669 411.833 168.517C411.833 171.056 411.696 173.578 411.421 176.083C411.147 178.554 410.752 181.024 410.237 183.495L397.267 182.877ZM399.995 168.311C400.098 167.522 400.166 166.749 400.201 165.995C400.269 165.24 400.338 164.468 400.407 163.678C400.235 162.066 399.669 160.642 398.708 159.406C397.747 158.137 396.58 157.073 395.208 156.215C393.835 155.323 392.343 154.654 390.73 154.208C389.117 153.762 387.539 153.539 385.995 153.539C384.21 153.539 382.546 153.847 381.002 154.465C379.458 155.048 378.12 155.889 376.987 156.987C375.855 158.085 374.963 159.389 374.311 160.899C373.659 162.409 373.333 164.073 373.333 165.892C373.333 167.745 373.607 169.443 374.156 170.987C374.74 172.497 375.546 173.818 376.575 174.951C377.605 176.049 378.857 176.906 380.333 177.524C381.843 178.142 383.524 178.451 385.377 178.451C387.024 178.451 388.637 178.21 390.215 177.73C391.794 177.25 393.235 176.58 394.539 175.723C395.877 174.83 397.009 173.767 397.936 172.531C398.897 171.262 399.583 169.855 399.995 168.311Z" fill="#F9FFF5"/>
<path d="M265.625 53.2959C265.625 57.5904 265.084 61.6608 264.001 65.5071C262.918 69.3162 261.387 72.8451 259.408 76.094C257.428 79.3428 255.057 82.2556 252.294 84.8323C249.53 87.409 246.468 89.5936 243.107 91.3861C239.746 93.1785 236.143 94.5602 232.296 95.5312C228.45 96.5021 224.454 96.9876 220.309 96.9876C213.849 96.9876 207.893 95.9419 202.44 93.8507C197.026 91.7968 192.339 88.8654 188.381 85.0564C184.46 81.2474 181.398 76.6541 179.194 71.2767C176.991 65.8992 175.889 59.9056 175.889 53.2959C175.889 49.0761 176.412 45.0617 177.458 41.2527C178.503 37.4436 179.978 33.9334 181.883 30.7218C183.787 27.473 186.084 24.5415 188.773 21.9275C191.462 19.3135 194.449 17.1102 197.735 15.3177C201.059 13.4879 204.606 12.0875 208.378 11.1166C212.187 10.1083 216.164 9.6042 220.309 9.6042C224.454 9.6042 228.45 10.0897 232.296 11.0606C236.18 11.9942 239.802 13.3572 243.163 15.1497C246.524 16.9422 249.586 19.1267 252.35 21.7034C255.113 24.2801 257.466 27.1929 259.408 30.4418C261.387 33.6906 262.918 37.2383 264.001 41.0846C265.084 44.8936 265.625 48.9641 265.625 53.2959ZM250.221 53.2959C250.221 50.3458 249.96 47.3583 249.437 44.3335C248.952 41.2713 248.186 38.3399 247.14 35.5391C246.095 32.701 244.769 30.0497 243.163 27.585C241.595 25.083 239.709 22.9171 237.506 21.0873C235.34 19.2201 232.875 17.7637 230.112 16.7181C227.348 15.6351 224.268 15.0937 220.869 15.0937C217.471 15.0937 214.39 15.6351 211.627 16.7181C208.864 17.8011 206.399 19.2761 204.233 21.1433C202.067 22.9731 200.181 25.139 198.575 27.641C196.97 30.1057 195.644 32.7571 194.598 35.5951C193.553 38.4332 192.769 41.3647 192.246 44.3895C191.76 47.4143 191.518 50.3831 191.518 53.2959C191.518 56.3954 191.742 59.4949 192.19 62.5944C192.638 65.6939 193.347 68.6627 194.318 71.5007C195.289 74.3015 196.54 76.9342 198.071 79.3989C199.64 81.8262 201.507 83.9361 203.673 85.7285C205.839 87.521 208.341 88.9401 211.179 89.9857C214.054 90.994 217.284 91.4981 220.869 91.4981C224.342 91.4981 227.479 90.9753 230.28 89.9297C233.081 88.8841 235.564 87.4463 237.73 85.6165C239.933 83.7867 241.819 81.6581 243.387 79.2308C244.956 76.7662 246.244 74.1148 247.252 71.2767C248.261 68.4386 249.008 65.4885 249.493 62.4263C249.979 59.3642 250.221 56.3207 250.221 53.2959Z" fill="#F9FFF5"/>
<path d="M312.062 97.6037C307.693 97.6037 303.604 97.0622 299.794 95.9793C295.985 94.8963 292.513 93.2719 289.376 91.106C286.239 88.9401 283.457 86.2327 281.029 82.9838C278.639 79.7349 276.679 75.9633 275.148 71.6688L294.529 70.6045C294.828 77.4757 296.788 82.7224 300.411 86.3447C304.033 89.9297 309.149 91.7222 315.759 91.7222C318.335 91.7222 320.912 91.4607 323.489 90.9379C326.065 90.4151 328.362 89.5376 330.379 88.3052C332.433 87.0356 334.094 85.3738 335.364 83.3199C336.671 81.266 337.325 78.708 337.325 75.6459C337.325 73.5173 336.914 71.7061 336.092 70.2124C335.271 68.6813 334.169 67.4117 332.787 66.4034C331.443 65.3951 329.875 64.5922 328.082 63.9947C326.327 63.3599 324.497 62.8744 322.593 62.5384C320.725 62.1649 318.858 61.8848 316.991 61.6981C315.124 61.5114 313.406 61.3434 311.838 61.194C309.298 61.0073 306.647 60.7085 303.884 60.2977C301.12 59.887 298.394 59.3082 295.705 58.5613C293.054 57.8144 290.515 56.8622 288.087 55.7045C285.66 54.5469 283.531 53.0905 281.702 51.3354C279.872 49.5429 278.415 47.433 277.332 45.0057C276.25 42.5783 275.708 39.7216 275.708 36.4354C275.708 33.2985 276.231 30.4604 277.276 27.9211C278.322 25.3818 279.741 23.1412 281.534 21.1993C283.363 19.2201 285.455 17.521 287.807 16.1019C290.197 14.6455 292.718 13.4692 295.369 12.573C298.058 11.6394 300.803 10.9486 303.604 10.5004C306.404 10.0523 309.112 9.82826 311.726 9.82826C314.377 9.82826 317.159 9.99631 320.072 10.3324C323.022 10.6685 325.953 11.2286 328.866 12.0128C331.779 12.7971 334.58 13.824 337.268 15.0937C339.995 16.326 342.441 17.8571 344.606 19.6869C346.81 21.5167 348.64 23.664 350.096 26.1286C351.552 28.5559 352.505 31.338 352.953 34.4748L334.244 38.2839C334.468 36.9022 334.58 35.4831 334.58 34.0267C334.58 30.6285 333.889 27.7531 332.507 25.4004C331.126 23.0478 329.296 21.162 327.018 19.7429C324.74 18.2865 322.163 17.2409 319.288 16.6061C316.412 15.9712 313.481 15.6538 310.493 15.6538C307.842 15.6538 305.209 16.0086 302.595 16.7181C300.019 17.3903 297.685 18.4172 295.593 19.7989C293.539 21.1806 291.878 22.9171 290.608 25.0083C289.338 27.0995 288.704 29.5642 288.704 32.4023C288.704 34.3441 289.226 36.0246 290.272 37.4436C291.318 38.8627 292.681 40.095 294.361 41.1406C296.079 42.1489 298.002 42.9891 300.131 43.6613C302.259 44.3335 304.388 44.8936 306.516 45.3418C308.682 45.7525 310.736 46.0886 312.678 46.35C314.62 46.5741 316.263 46.7421 317.607 46.8542C319.997 47.1156 322.499 47.489 325.113 47.9745C327.727 48.4226 330.304 49.0574 332.843 49.879C335.383 50.7005 337.81 51.7275 340.125 52.9598C342.441 54.1921 344.457 55.6858 346.175 57.441C347.93 59.1961 349.312 61.25 350.32 63.6026C351.366 65.9553 351.888 68.644 351.888 71.6688C351.888 74.8803 351.254 77.7558 349.984 80.2951C348.714 82.7971 347.015 85.019 344.887 86.9609C342.795 88.8654 340.387 90.5085 337.661 91.8902C334.935 93.2346 332.096 94.3175 329.146 95.1391C326.196 95.998 323.246 96.6141 320.296 96.9876C317.346 97.3983 314.601 97.6037 312.062 97.6037Z" fill="#F9FFF5"/>
<path d="M399.109 97.6037C394.74 97.6037 390.651 97.0622 386.842 95.9793C383.033 94.8963 379.56 93.2719 376.423 91.106C373.286 88.9401 370.504 86.2327 368.077 82.9838C365.687 79.7349 363.726 75.9633 362.195 71.6688L381.576 70.6045C381.875 77.4757 383.836 82.7224 387.458 86.3447C391.08 89.9297 396.196 91.7222 402.806 91.7222C405.383 91.7222 407.959 91.4607 410.536 90.9379C413.113 90.4151 415.409 89.5376 417.426 88.3052C419.48 87.0356 421.142 85.3738 422.411 83.3199C423.718 81.266 424.372 78.708 424.372 75.6459C424.372 73.5173 423.961 71.7061 423.139 70.2124C422.318 68.6813 421.216 67.4117 419.835 66.4034C418.49 65.3951 416.922 64.5922 415.129 63.9947C413.374 63.3599 411.544 62.8744 409.64 62.5384C407.773 62.1649 405.906 61.8848 404.038 61.6981C402.171 61.5114 400.453 61.3434 398.885 61.194C396.346 61.0073 393.694 60.7085 390.931 60.2977C388.167 59.887 385.441 59.3082 382.753 58.5613C380.101 57.8144 377.562 56.8622 375.135 55.7045C372.707 54.5469 370.579 53.0905 368.749 51.3354C366.919 49.5429 365.463 47.433 364.38 45.0057C363.297 42.5783 362.755 39.7216 362.755 36.4354C362.755 33.2985 363.278 30.4604 364.324 27.9211C365.369 25.3818 366.788 23.1412 368.581 21.1993C370.411 19.2201 372.502 17.521 374.855 16.1019C377.245 14.6455 379.765 13.4692 382.417 12.573C385.105 11.6394 387.85 10.9486 390.651 10.5004C393.452 10.0523 396.159 9.82826 398.773 9.82826C401.424 9.82826 404.206 9.99631 407.119 10.3324C410.069 10.6685 413.001 11.2286 415.914 12.0128C418.826 12.7971 421.627 13.824 424.316 15.0937C427.042 16.326 429.488 17.8571 431.654 19.6869C433.857 21.5167 435.687 23.664 437.143 26.1286C438.6 28.5559 439.552 31.338 440 34.4748L421.291 38.2839C421.515 36.9022 421.627 35.4831 421.627 34.0267C421.627 30.6285 420.936 27.7531 419.555 25.4004C418.173 23.0478 416.343 21.162 414.065 19.7429C411.787 18.2865 409.21 17.2409 406.335 16.6061C403.46 15.9712 400.528 15.6538 397.541 15.6538C394.889 15.6538 392.257 16.0086 389.643 16.7181C387.066 17.3903 384.732 18.4172 382.641 19.7989C380.587 21.1806 378.925 22.9171 377.655 25.0083C376.386 27.0995 375.751 29.5642 375.751 32.4023C375.751 34.3441 376.274 36.0246 377.319 37.4436C378.365 38.8627 379.728 40.095 381.408 41.1406C383.126 42.1489 385.049 42.9891 387.178 43.6613C389.306 44.3335 391.435 44.8936 393.564 45.3418C395.729 45.7525 397.783 46.0886 399.725 46.35C401.667 46.5741 403.31 46.7421 404.655 46.8542C407.044 47.1156 409.546 47.489 412.161 47.9745C414.775 48.4226 417.351 49.0574 419.891 49.879C422.43 50.7005 424.857 51.7275 427.173 52.9598C429.488 54.1921 431.504 55.6858 433.222 57.441C434.977 59.1961 436.359 61.25 437.367 63.6026C438.413 65.9553 438.936 68.644 438.936 71.6688C438.936 74.8803 438.301 77.7558 437.031 80.2951C435.761 82.7971 434.062 85.019 431.934 86.9609C429.843 88.8654 427.434 90.5085 424.708 91.8902C421.982 93.2346 419.144 94.3175 416.194 95.1391C413.243 95.998 410.293 96.6141 407.343 96.9876C404.393 97.3983 401.648 97.6037 399.109 97.6037Z" fill="#F9FFF5"/>
<path d="M135.632 107.141C132.867 106.784 129.434 106.472 125.332 106.205C121.23 105.937 116.772 105.714 111.956 105.536C107.23 105.268 102.281 105.09 97.1092 105.001C92.0263 104.912 87.0772 104.823 82.2619 104.733C77.5357 104.644 73.0771 104.6 68.886 104.6C64.784 104.511 61.3509 104.466 58.5865 104.466C54.7521 104.466 50.9622 104.466 47.217 104.466C43.4717 104.466 39.6819 104.555 35.8475 104.733C35.6691 117.128 35.6245 129.39 35.7137 141.517C35.8029 153.645 35.8475 165.951 35.8475 178.435C35.8475 180.575 35.8475 182.715 35.8475 184.855C35.8475 186.906 35.9366 189.046 36.115 191.276L3.21022 191.811L0 0L153.957 1.07007L153.422 35.0449C149.677 32.7264 144.817 30.5863 138.842 28.6245C132.957 26.6627 126.492 24.9238 119.447 23.4079C112.402 21.8027 105.001 20.4206 97.2429 19.2613C89.5741 18.1021 82.0836 17.1212 74.7714 16.3186C67.4592 15.4269 60.5929 14.7135 54.1725 14.1785C47.752 13.6434 42.2679 13.2422 37.7201 12.9746C37.1851 26.1722 36.7838 39.3252 36.5163 52.4336C36.2487 65.4528 36.0258 78.5612 35.8475 91.7588H36.3825C40.3953 91.7588 45.0768 91.7142 50.4272 91.625C55.8668 91.5359 61.6184 91.4021 67.6822 91.2238C73.7459 91.0454 79.9434 90.8671 86.2747 90.6887C92.6951 90.4212 98.9372 90.1537 105.001 89.8862C111.065 89.5295 116.772 89.2174 122.122 88.9499C127.473 88.5932 132.154 88.1919 136.167 87.746L135.632 107.141Z" fill="#F9FFF5"/>
<path d="M221.72 37.134C221.862 37.2702 222.02 37.3897 222.19 37.4902C224.463 38.5473 225.403 40.7639 224.463 43.0942C223.732 44.8978 223.012 46.709 222.428 48.5617C222 49.922 221.151 51.1421 221.064 52.6161L220.879 52.8586C221.155 52.942 221 52.692 221.064 52.6122C221.22 52.5895 221.413 52.5858 221.473 52.4153C222 50.8996 223.042 49.6683 223.83 48.2928C224.702 46.7771 225.66 45.307 226.566 43.8103C226.857 43.3094 227.25 42.8746 227.72 42.5342C228.189 42.1935 228.723 41.9545 229.29 41.8325C230.268 41.5925 231.298 41.7021 232.203 42.1423C233.109 42.5825 233.831 43.3253 234.246 44.2423C235.091 46.2845 234.402 48.7891 232.526 49.6683C229.552 51.0891 226.645 52.6995 223.489 53.6998C223.053 53.84 222.887 54.1128 222.803 54.681C225.759 53.7945 228.65 53.2753 231.484 52.529C233.026 52.1235 234.572 51.771 236.118 52.4834C238.141 53.4346 239.032 56.0869 238.062 58.2353C237.198 60.1297 234.394 61.2173 232.427 60.3571C229.692 59.1597 226.835 58.277 224.05 57.2085C223.83 57.125 223.618 56.9772 223.398 57.2085C223.36 57.5305 223.656 57.5873 223.838 57.6934C226.335 59.247 228.82 60.8194 231.344 62.3351C234.129 64.006 234.428 67.6889 231.799 69.5645C229.68 71.0802 226.736 70.5118 225.577 68.136C224.755 66.4537 223.967 64.7562 223.19 63.055C222.603 61.7591 222.167 60.3458 221.238 59.1863C220.909 59.5159 221.06 59.8191 221.132 60.1221C221.803 62.9904 222.493 65.855 223.122 68.7309C223.542 70.652 223.038 72.2585 221.371 73.4445C220.011 74.4108 218.093 74.4069 216.445 73.3573C215.255 72.5996 214.589 70.8906 214.805 69.4054C215.078 67.5108 215.991 65.8626 216.57 64.1007C217.078 62.5396 217.631 60.9974 218.188 59.3909C218.059 59.3774 217.929 59.4016 217.813 59.4608C217.697 59.5201 217.601 59.6115 217.536 59.7244C216.248 61.8765 215.005 64.0553 213.672 66.1658C212.77 67.6018 211.917 69.1097 209.939 69.3864C209.011 69.5513 208.054 69.4073 207.215 68.9765C206.376 68.5456 205.702 67.8515 205.295 67.0006C204.888 66.1497 204.772 65.189 204.963 64.2656C205.155 63.3421 205.644 62.507 206.355 61.8879C207.147 61.2021 208.147 60.8913 209.076 60.4707C211.66 59.3 214.248 58.1443 216.756 56.7727C216.495 56.4317 216.271 56.5681 216.044 56.6249C212.804 57.4471 209.564 58.2617 206.302 58.9892C205.606 59.1618 204.877 59.1564 204.183 58.9733C203.49 58.7901 202.853 58.4355 202.333 57.9418C201.812 57.448 201.424 56.8311 201.205 56.1481C200.985 55.465 200.941 54.7377 201.077 54.0333C201.547 51.5134 204.237 49.8918 206.461 50.7329C209.314 51.8127 212.205 52.8054 215.093 53.7908C215.544 53.9423 215.85 54.5485 216.608 54.1696C214.096 52.4417 211.546 50.9147 208.962 49.4597C206.92 48.3231 205.628 46.5119 205.817 44.5341C205.961 43.0184 207.613 41.124 209.026 40.8586C211.046 40.4797 213.156 41.355 213.952 42.992C215.324 45.8678 216.635 48.7739 217.98 51.6651C218.128 51.9833 218.165 52.4229 218.738 52.6161C218.003 49.437 217.275 46.3907 216.601 43.3328C215.71 39.2748 216.669 38.6648 219.067 37.1379C219.912 37.0317 220.799 36.8915 221.72 37.134ZM217.063 55.2382C217.024 55.5853 217.056 55.9368 217.16 56.2705C217.263 56.6041 217.434 56.913 217.663 57.1772C217.892 57.4413 218.172 57.6552 218.488 57.8054C218.803 57.9555 219.146 58.0388 219.495 58.0496C220.769 58.0875 222.027 56.8825 222.095 55.5678C222.095 54.9059 221.839 54.2698 221.382 53.7913C220.925 53.3128 220.301 53.0289 219.639 52.9989C219.322 52.9703 219.002 53.0062 218.699 53.1044C218.396 53.2026 218.115 53.3609 217.875 53.57C217.634 53.7791 217.438 54.0346 217.299 54.3214C217.159 54.6079 217.079 54.9198 217.063 55.2382Z" fill="#F74700"/>
<path d="M219.81 52.4518C219.371 52.4142 218.929 52.4652 218.51 52.6022C218.091 52.7389 217.704 52.9588 217.372 53.2482C217.04 53.5378 216.77 53.8915 216.577 54.2876C216.385 54.684 216.274 55.1151 216.252 55.555C216.112 57.6958 217.586 59.3933 219.624 59.4502C221.386 59.4994 223.129 57.8361 223.224 56.0137C223.318 54.191 221.716 52.5428 219.81 52.4518Z" fill="#2D3837"/>
</svg>
