<svg width="440" height="57" viewBox="0 0 440 57" fill="none" xmlns="http://www.w3.org/2000/svg">
<path d="M130.673 42.1469C128.234 42.1469 125.993 41.5744 123.952 40.4295C121.911 39.2845 120.294 37.704 119.099 35.6879C117.904 33.6469 117.307 31.3445 117.307 28.7808C117.307 26.242 117.904 23.9646 119.099 21.9485C120.294 19.9075 121.911 18.3145 123.952 17.1695C125.993 16.0246 128.234 15.4521 130.673 15.4521C133.137 15.4521 135.377 16.0246 137.393 17.1695C139.434 18.3145 141.04 19.9075 142.209 21.9485C143.404 23.9646 144.002 26.242 144.002 28.7808C144.002 31.3445 143.404 33.6469 142.209 35.6879C141.04 37.704 139.434 39.2845 137.393 40.4295C135.352 41.5744 133.112 42.1469 130.673 42.1469ZM130.673 37.48C132.241 37.48 133.622 37.1315 134.817 36.4346C136.012 35.7128 136.945 34.6923 137.617 33.3731C138.289 32.0539 138.625 30.5232 138.625 28.7808C138.625 27.0385 138.289 25.5202 137.617 24.2259C136.945 22.9067 136.012 21.8987 134.817 21.2018C133.622 20.5048 132.241 20.1564 130.673 20.1564C129.105 20.1564 127.711 20.5048 126.491 21.2018C125.297 21.8987 124.363 22.9067 123.691 24.2259C123.019 25.5202 122.683 27.0385 122.683 28.7808C122.683 30.5232 123.019 32.0539 123.691 33.3731C124.363 34.6923 125.297 35.7128 126.491 36.4346C127.711 37.1315 129.105 37.48 130.673 37.48ZM146.546 31.5437C146.546 29.4031 146.982 27.5363 147.853 25.9434C148.724 24.3255 149.931 23.081 151.474 22.2098C153.018 21.3138 154.785 20.8657 156.776 20.8657C159.34 20.8657 161.455 21.5129 163.123 22.8072C164.816 24.0766 165.948 25.8687 166.521 28.1835H160.883C160.584 27.2874 160.074 26.5905 159.352 26.0927C158.655 25.57 157.784 25.3087 156.739 25.3087C155.245 25.3087 154.063 25.8562 153.192 26.9514C152.321 28.0217 151.885 29.5524 151.885 31.5437C151.885 33.51 152.321 35.0407 153.192 36.1359C154.063 37.2062 155.245 37.7413 156.739 37.7413C158.854 37.7413 160.236 36.7955 160.883 34.9038H166.521C165.948 37.144 164.816 38.9236 163.123 40.2428C161.431 41.562 159.315 42.2216 156.776 42.2216C154.785 42.2216 153.018 41.786 151.474 40.9148C149.931 40.0188 148.724 38.7743 147.853 37.1813C146.982 35.5634 146.546 33.6842 146.546 31.5437ZM176.435 25.4953V35.5012C176.435 36.1981 176.597 36.7084 176.921 37.032C177.269 37.3306 177.842 37.48 178.638 37.48H181.065V41.8856H177.78C173.374 41.8856 171.171 39.745 171.171 35.4639V25.4953H168.707V21.2018H171.171V16.0868H176.435V21.2018H181.065V25.4953H176.435ZM194.766 35.9866C197.156 33.9954 199.06 32.3402 200.479 31.021C201.897 29.6769 203.08 28.283 204.025 26.8394C204.971 25.3958 205.444 23.977 205.444 22.5832C205.444 21.3138 205.145 20.3182 204.548 19.5963C203.951 18.8745 203.03 18.5136 201.785 18.5136C200.541 18.5136 199.582 18.9368 198.91 19.783C198.238 20.6044 197.89 21.7369 197.865 23.1805H192.787C192.887 20.1937 193.771 17.9287 195.438 16.3855C197.131 14.8423 199.271 14.0707 201.86 14.0707C204.697 14.0707 206.875 14.8299 208.394 16.3482C209.912 17.8416 210.671 19.8204 210.671 22.2845C210.671 24.2259 210.148 26.0803 209.103 27.8475C208.058 29.6147 206.863 31.1579 205.519 32.477C204.175 33.7713 202.42 35.3394 200.255 37.1813H211.268V41.5122H192.825V37.6293L194.766 35.9866Z" fill="#F74700"/>
<path d="M216.76 6.26556C217.42 6.26556 217.953 6.47556 218.36 6.89556C218.767 7.30889 218.97 7.88889 218.97 8.63556V11.8856H217.57V8.82556C217.57 8.38556 217.46 8.04889 217.24 7.81556C217.02 7.57556 216.72 7.45556 216.34 7.45556C215.953 7.45556 215.647 7.57556 215.42 7.81556C215.2 8.04889 215.09 8.38556 215.09 8.82556V11.8856H213.69V6.34556H215.09V7.03556C215.277 6.79556 215.513 6.60889 215.8 6.47556C216.093 6.33556 216.413 6.26556 216.76 6.26556ZM219.941 9.09556C219.941 8.53556 220.051 8.03889 220.271 7.60556C220.498 7.17223 220.805 6.83889 221.191 6.60556C221.578 6.37223 222.008 6.25556 222.481 6.25556C222.841 6.25556 223.185 6.33556 223.511 6.49556C223.838 6.64889 224.098 6.85556 224.291 7.11556V4.48556H225.711V11.8856H224.291V11.0656C224.118 11.3389 223.875 11.5589 223.561 11.7256C223.248 11.8922 222.885 11.9756 222.471 11.9756C222.005 11.9756 221.578 11.8556 221.191 11.6156C220.805 11.3756 220.498 11.0389 220.271 10.6056C220.051 10.1656 219.941 9.66223 219.941 9.09556ZM224.301 9.11556C224.301 8.77556 224.235 8.48556 224.101 8.24556C223.968 7.99889 223.788 7.81223 223.561 7.68556C223.335 7.55223 223.091 7.48556 222.831 7.48556C222.571 7.48556 222.331 7.54889 222.111 7.67556C221.891 7.80223 221.711 7.98889 221.571 8.23556C221.438 8.47556 221.371 8.76223 221.371 9.09556C221.371 9.42889 221.438 9.72223 221.571 9.97556C221.711 10.2222 221.891 10.4122 222.111 10.5456C222.338 10.6789 222.578 10.7456 222.831 10.7456C223.091 10.7456 223.335 10.6822 223.561 10.5556C223.788 10.4222 223.968 10.2356 224.101 9.99556C224.235 9.74889 224.301 9.45556 224.301 9.11556Z" fill="#F74700"/>
<path d="M246.622 35.9866C249.011 33.9954 250.915 32.3402 252.334 31.021C253.753 29.6769 254.935 28.283 255.881 26.8394C256.827 25.3958 257.299 23.977 257.299 22.5832C257.299 21.3138 257.001 20.3182 256.403 19.5963C255.806 18.8745 254.885 18.5136 253.641 18.5136C252.396 18.5136 251.438 18.9368 250.766 19.783C250.094 20.6044 249.745 21.7369 249.72 23.1805H244.643C244.742 20.1937 245.626 17.9287 247.294 16.3855C248.986 14.8423 251.127 14.0707 253.715 14.0707C256.553 14.0707 258.731 14.8299 260.249 16.3482C261.767 17.8416 262.526 19.8204 262.526 22.2845C262.526 24.2259 262.004 26.0803 260.958 27.8475C259.913 29.6147 258.718 31.1579 257.374 32.477C256.03 33.7713 254.275 35.3394 252.11 37.1813H263.124V41.5122H244.68V37.6293L246.622 35.9866ZM266.417 27.9221C266.417 23.6161 267.189 20.2435 268.732 17.8042C270.3 15.365 272.889 14.1454 276.498 14.1454C280.107 14.1454 282.683 15.365 284.226 17.8042C285.794 20.2435 286.579 23.6161 286.579 27.9221C286.579 32.253 285.794 35.6506 284.226 38.1147C282.683 40.5788 280.107 41.8109 276.498 41.8109C272.889 41.8109 270.3 40.5788 268.732 38.1147C267.189 35.6506 266.417 32.253 266.417 27.9221ZM281.426 27.9221C281.426 26.0803 281.302 24.5371 281.053 23.2925C280.829 22.0231 280.356 20.9902 279.634 20.1937C278.937 19.3972 277.892 18.999 276.498 18.999C275.104 18.999 274.046 19.3972 273.324 20.1937C272.628 20.9902 272.155 22.0231 271.906 23.2925C271.682 24.5371 271.57 26.0803 271.57 27.9221C271.57 29.8138 271.682 31.4068 271.906 32.7011C272.13 33.9705 272.603 35.0034 273.324 35.7999C274.046 36.5715 275.104 36.9573 276.498 36.9573C277.892 36.9573 278.95 36.5715 279.671 35.7999C280.393 35.0034 280.866 33.9705 281.09 32.7011C281.314 31.4068 281.426 29.8138 281.426 27.9221ZM292.197 35.9866C294.586 33.9954 296.49 32.3402 297.909 31.021C299.328 29.6769 300.51 28.283 301.456 26.8394C302.402 25.3958 302.875 23.977 302.875 22.5832C302.875 21.3138 302.576 20.3182 301.979 19.5963C301.381 18.8745 300.46 18.5136 299.216 18.5136C297.971 18.5136 297.013 18.9368 296.341 19.783C295.669 20.6044 295.321 21.7369 295.296 23.1805H290.218C290.318 20.1937 291.201 17.9287 292.869 16.3855C294.561 14.8423 296.702 14.0707 299.291 14.0707C302.128 14.0707 304.306 14.8299 305.824 16.3482C307.343 17.8416 308.102 19.8204 308.102 22.2845C308.102 24.2259 307.579 26.0803 306.534 27.8475C305.488 29.6147 304.294 31.1579 302.95 32.477C301.605 33.7713 299.851 35.3394 297.685 37.1813H308.699V41.5122H290.255V37.6293L292.197 35.9866ZM311.358 19.4843V14.6681H320.356V41.8856H314.98V19.4843H311.358Z" fill="#F74700"/>
</svg>
