<svg width="301" height="329" viewBox="0 0 301 329" fill="none" xmlns="http://www.w3.org/2000/svg">
<g filter="url(#filter0_dddd)">
<path d="M214.175 95.5385C210.35 98.6464 200.441 115.362 210.393 133.157C220.338 150.941 234.05 139.427 234.05 139.427C234.05 139.427 231.638 173.401 209.27 177.589C216.057 187.196 230.212 200.1 247.432 200.593C237.039 206.803 229.761 210.388 220.642 207.954C211.517 205.511 202.749 202.326 209.332 215.638C183.061 214.179 176.987 208.551 176.987 208.551L177.668 209.621C177.668 209.621 180.281 217.711 171.557 243.994C162.442 232.485 161.889 242.285 160.556 252.143C159.213 262.008 153.315 267.763 143.93 275.582C150.058 258.532 144.164 239.768 138.351 229.468C126.188 249.775 95.6053 239.215 95.6053 239.215C95.6053 239.215 110.871 230.176 99.1175 213.672C87.3576 197.159 68.9926 200.505 64.8238 203.073C65.9468 196.679 56.7984 182.074 40.3868 179.798C43.7445 176.256 53.8465 176.604 53.8465 176.604C53.8465 176.604 68.8918 176.584 70.2147 160.131C82.6068 164.171 101.409 153.899 97.1173 141.591C92.832 129.293 77.6678 128.881 71.6001 119.983C71.6001 119.983 71.4252 120.286 69.5504 116.402C76.5625 119.876 84.4094 120.261 90.4361 110.12C96.4628 99.9784 92.3583 86.6504 83.1165 86.2582C90.3274 80.0502 83.5353 61.5042 82.9522 59.9713L82.2139 58.8135C82.2139 58.8135 96.6758 73.9466 105.192 69.0395C102.025 78.2481 112.094 87.331 123.251 85.2792C134.398 83.2344 137.057 75.3998 136.676 67.2163C139.356 70.5325 139.021 70.5931 139.021 70.5931C144.497 79.8999 139.083 94.9185 148.198 103.798C157.313 112.678 173.444 98.1585 174.61 84.4951C189.503 89.4564 195.232 74.7246 195.232 74.7246C195.232 74.7246 198.778 64.7011 203.137 62.7578C198.89 79.6862 208.166 94.2109 214.175 95.5385Z" fill="#E7D63C"/>
<path d="M209.596 178.135C217.6 176.635 223.042 171.306 226.735 165.096C225.852 161.495 223.723 160.23 225.158 157.552C226.691 154.686 231.544 153.082 231.111 150.792C230.679 148.502 230.41 147.864 230.639 145.819C230.74 144.923 230.571 143.577 230.264 142.42C225.814 144.317 218.493 145.296 212.238 136.199C211.469 138.773 207.587 138.634 205.939 142.479C204.27 146.355 200.416 144.623 201.338 142.051C202.26 139.478 201.193 138.264 199.633 139.809C198.073 141.354 198.955 141.681 198.278 140.091C197.601 138.501 197.846 137.801 196.63 136.004C195.413 134.208 193.156 135.476 191.436 137.471C189.707 139.473 192.927 143.102 194.992 145.741C197.057 148.38 194.445 150.055 193.296 152.536C192.154 155.026 190.515 154.668 188.646 158.201C186.777 161.734 184.635 159.86 178.935 160.331C173.236 160.802 173.959 170.665 174.743 175.479C175.517 180.3 169.597 180.69 168.315 182.865C167.033 185.04 170.859 199.529 170.989 205.432C171.119 211.336 170.352 217.687 170.63 221.779C170.914 225.881 176.215 233.494 172.203 232.759C168.19 232.024 164.586 223.198 164.586 223.198C164.586 223.198 150.845 221.924 152.334 226.691C153.137 229.269 157.575 239.439 161.547 248.252C162.662 240.286 164.211 234.654 171.959 244.434C180.669 218.195 178.06 210.118 178.06 210.118L177.38 209.049C177.38 209.049 180.001 211.478 189.264 213.56C190.349 211.256 191.955 209.36 193.022 208.959C193.477 210.381 193.233 213.432 194.195 214.508C194.707 214.59 195.236 214.675 195.773 214.753C196.588 214.453 197.709 213.651 199.226 212.124C203.467 210.771 204.299 212.91 204.183 215.735C205.908 215.886 207.725 216.011 209.666 216.132C203.093 202.841 211.847 206.021 220.958 208.461C230.062 210.89 237.328 207.311 247.705 201.111C230.506 200.61 216.373 187.727 209.596 178.135Z" fill="#D9B402"/>
<path d="M133.252 172.27C129.628 164.413 132.444 167.489 118.998 157.379C105.553 147.268 114.27 147.304 106.651 136.651C100.247 127.687 97.0642 135.279 96.45 139.089C96.8276 139.807 97.1712 140.579 97.4494 141.399C97.678 142.04 97.8184 142.673 97.918 143.308C99.9511 145.75 103.927 149.254 109.892 153.279C118.552 159.126 114.849 162.477 107.756 168.686C100.662 174.895 101.137 161.124 98.1577 153.947C97.6216 152.652 97.0755 151.553 96.4966 150.593C94.9122 153.358 92.2469 155.751 89.0573 157.521C89.3339 157.981 89.7683 158.47 90.4525 159.062C94.2521 162.32 95.7722 164.028 89.2607 165.136C83.8479 166.051 85.0114 162.861 82.4989 160.095C78.4435 161.104 74.1871 161.177 70.4963 159.978C70.2664 162.852 69.6144 165.215 68.6929 167.17C70.013 168.26 72.282 169.731 76.0556 172.445C85.7182 179.386 84.0869 177.109 83.0421 177.825C81.9974 178.541 66.7471 177.432 54.9353 177.708C48.4143 177.854 49.425 180.792 52.3317 183.859C55.0183 185.498 57.3157 187.455 59.196 189.518C59.5358 189.758 59.8628 189.978 60.1389 190.164C64.2437 192.937 77.051 197.808 79.9409 198.386C82.8149 198.961 84.4125 201.06 89.2334 199.397C94.0478 197.725 94.8379 193.655 97.4161 194.709C99.9944 195.764 104.614 195.103 110.694 195.849C116.78 196.604 110.241 201.65 108.997 201.328C107.753 201.006 101.235 202.104 94.8612 204.83C93.6221 205.357 92.6418 205.708 91.8298 205.933C92.7634 206.586 93.6853 207.306 94.5926 208.109C101.873 205.637 102.252 208.378 105.056 211.521C106.78 213.454 104.981 216.378 101.943 217.746C103.874 221.738 104.196 225.215 103.658 228.13C107.067 229.408 110.913 230.463 115.13 230.751C127.545 231.576 129.587 229.861 134.513 230.737C135.57 230.924 136.477 231.221 137.227 231.576C137.756 230.88 138.266 230.155 138.731 229.363C142.013 235.188 145.331 243.72 146.48 253.121C147.681 249.715 148.614 246.493 149.037 244.373C150.229 238.299 149.466 238.473 150.515 229.613C151.554 220.76 148.585 223.769 141.466 214.25C134.346 204.732 144.857 198.551 149.937 182.034C154.989 165.538 136.876 180.127 133.252 172.27Z" fill="#D4C006"/>
<path d="M98.1214 237.644C97.063 238.544 96.2845 239.005 96.2845 239.005C96.2845 239.005 97.0947 239.284 98.4961 239.66C98.4282 239.032 98.3033 238.36 98.1214 237.644Z" fill="#D4C006"/>
<path d="M151.802 166.934C151.802 166.934 154.739 174.122 157.998 174.724C161.257 175.325 156.947 169.126 156.713 165.792C156.48 162.459 157.113 157.287 157.01 152.472C156.898 147.664 153.782 135.862 154.831 134.089C155.871 132.323 160.702 132.006 160.062 128.079C159.428 124.162 158.837 116.132 163.485 115.748C168.126 115.354 169.867 116.893 171.393 114.016C172.92 111.14 174.248 111.426 175.187 109.403C176.126 107.38 178.245 106.027 176.565 103.866C174.885 101.706 172.266 98.7544 173.672 97.1218C175.077 95.4892 176.911 94.4625 177.91 95.9301C178.903 97.3881 178.697 97.9588 179.254 99.2629C179.805 100.557 179.092 100.277 180.356 99.0386C181.629 97.793 182.502 98.7767 181.746 100.866C180.989 102.955 184.128 104.382 185.494 101.221C186.86 98.0592 190.068 98.2075 190.651 96.0446C191.224 93.8887 189.343 94.0265 192.033 92.2362C194.714 90.4527 195.03 90.1323 195.58 88.6136C196.131 87.0949 196.019 82.2869 198.348 84.9046C200.677 87.5223 200.706 89.7078 199.322 92.4215C197.937 95.1351 197.199 98.3221 198.223 100.016C199.247 101.711 203.088 100.15 203.966 99.3985C204.85 98.6571 205.796 102.27 205.612 103.922C205.418 105.58 205.651 106.1 205.996 107.966C206.341 109.831 202.399 111.135 201.144 113.478C199.89 115.821 201.983 116.824 202.58 120.307C203.17 123.78 202.936 126.723 202.56 128.315C202.192 129.9 199.696 132.845 204.205 132.838C208.714 132.831 208.858 130.719 210.127 134.022C211.395 137.324 220.231 149.146 233.229 140.918C232.649 150.495 213.119 165.494 213.119 165.494C213.119 165.494 208.93 165.899 206.439 164.296C203.948 162.693 200.135 164.319 200.135 164.319C200.135 164.319 199.311 167.901 194.587 166.091C190.411 166.602 190.352 168.045 189.637 168.748C188.921 169.451 184.199 169.428 183.456 167.194C182.714 164.959 186.966 155.707 180.027 157.917C174.501 163.439 175.623 157.37 174.968 155.33C173.186 156.016 169.598 161.717 171.472 165.032C173.346 168.348 172.895 170.457 172.091 170.144C171.277 169.837 170.531 171.501 171.298 172.765C172.071 174.039 173.102 174.589 170.2 176.248C167.298 177.907 163.997 182.804 163.32 187.259C158.183 187.89 154.772 186.261 157.195 191.896C159.619 197.532 155.138 198.903 154.728 198.745C154.318 198.587 143.051 173.646 141.835 169.772C140.618 165.897 151.802 166.934 151.802 166.934Z" fill="#F1AD05"/>
<path d="M216.431 271.39L160.218 180.931L132.148 135.682C122.788 120.601 113.447 105.507 104.323 90.2521C114.264 104.918 123.988 119.744 133.694 134.584L162.82 179.096L220.991 268.168L216.431 271.39Z" fill="#BA4220"/>
<path d="M135.028 139.356C135.194 138.742 135.273 137.829 135.338 137.042C135.394 136.22 135.418 135.392 135.426 134.561C135.426 132.897 135.395 131.227 135.307 129.555C135.131 126.212 134.823 122.88 134.515 119.548L133.37 109.557C133.014 106.217 132.609 102.885 132.35 99.5016C133.177 102.753 133.891 106.045 134.488 109.351C135.092 112.666 135.539 115.997 135.932 119.352C136.31 122.705 136.663 126.062 136.764 129.46C136.824 131.152 136.865 132.858 136.783 134.569C136.747 135.42 136.692 136.286 136.599 137.136C136.476 138.024 136.41 138.81 136.064 139.804L135.028 139.356Z" fill="#BA4220"/>
<path d="M140.894 148.459C137.254 146.881 133.663 145.21 130.127 143.41C126.579 141.635 123.096 139.724 119.673 137.696C116.248 135.684 112.869 133.552 109.669 131.142C108.039 129.987 106.512 128.671 105.013 127.333C104.288 126.639 103.554 125.951 102.85 125.226L100.887 122.914C103.687 125.794 106.93 128.1 110.182 130.356C113.455 132.582 116.821 134.652 120.258 136.597C123.695 138.542 127.178 140.409 130.701 142.189C134.227 143.952 137.759 145.725 141.35 147.354L140.894 148.459Z" fill="#BA4220"/>
<path d="M151.565 165.509C151.892 162.403 152.113 159.26 152.33 156.134C152.547 153.008 152.67 149.866 152.758 146.735C152.856 143.596 152.821 140.469 152.639 137.35C152.422 134.242 152.155 131.142 151.432 128.091C152.813 130.915 153.254 134.131 153.5 137.261C153.758 140.411 153.869 143.569 153.841 146.728C153.794 153.039 153.382 159.347 152.68 165.637L151.565 165.509Z" fill="#BA4220"/>
<path d="M178.274 155.333C176.882 152.068 175.603 148.764 174.396 145.42C173.801 143.742 173.223 142.066 172.664 140.376C172.095 138.693 171.589 136.978 171.403 135.157C172.277 136.73 172.903 138.371 173.516 140.036C174.138 141.694 174.779 143.338 175.436 144.984L179.314 154.853L178.274 155.333Z" fill="#BA4220"/>
<path d="M171.766 197.77C171.577 193.094 171.821 188.487 172.263 183.862C172.72 179.241 173.407 174.651 174.377 170.111C175.316 165.566 176.613 161.101 178.046 156.694L179.199 153.418C179.577 152.33 180.049 151.259 180.465 150.187C181.316 148.028 182.23 145.924 183.121 143.807C186.698 135.332 190.148 126.792 193.497 118.225L198.475 105.338C200.079 101.021 201.894 96.7925 203.421 92.445C202.943 94.7032 202.221 96.9101 201.519 99.1032C200.816 101.296 200.073 103.491 199.286 105.66C197.758 110.008 196.107 114.317 194.45 118.616C191.135 127.214 187.723 135.769 184.182 144.276C183.296 146.402 182.38 148.523 181.551 150.652C181.144 151.717 180.684 152.764 180.306 153.852L179.175 157.098C177.766 161.458 176.509 165.879 175.602 170.387C173.754 179.354 172.632 188.578 172.876 197.683L171.766 197.77Z" fill="#BA4220"/>
<path d="M156.718 173.453C156.747 173.518 156.814 173.598 156.881 173.636C156.919 173.651 156.957 173.666 156.988 173.672L156.963 173.676L156.868 173.659C156.805 173.648 156.717 173.641 156.645 173.637L156.164 173.604L155.168 173.548L153.166 173.443L149.151 173.198C146.482 173.01 143.809 172.753 141.153 172.397C138.497 172.04 135.856 171.558 133.268 170.862C131.976 170.506 130.698 170.11 129.451 169.591C128.21 169.081 127.002 168.475 125.951 167.622C128.099 169.293 130.741 170.049 133.318 170.623C135.92 171.193 138.566 171.513 141.221 171.784C143.869 172.045 146.528 172.197 149.205 172.292L153.212 172.399L155.219 172.427L156.231 172.443L156.746 172.465L157.02 172.479L157.171 172.497L157.211 172.496C157.265 172.514 157.328 172.525 157.382 172.543C157.495 172.588 157.6 172.684 157.667 172.764L156.718 173.453Z" fill="#BA4220"/>
<path d="M171.641 196.467C168.514 194.641 165.004 193.287 161.527 192.11C158.023 190.953 154.449 190.007 150.842 189.2C143.62 187.637 136.268 186.675 128.877 186.161C121.471 185.643 114.037 185.189 106.634 184.467C102.936 184.132 99.2282 183.762 95.5444 183.301C91.8547 182.873 88.1732 182.353 84.5093 181.733C91.9057 182.446 99.3179 182.93 106.728 183.474C114.137 183.975 121.549 184.459 128.973 184.877C136.419 185.307 143.838 186.263 151.136 187.857C154.78 188.679 158.395 189.624 161.935 190.855C165.472 192.103 168.948 193.468 172.25 195.453L171.641 196.467Z" fill="#BA4220"/>
<path d="M116.827 214.866C119.223 211.475 122.241 208.728 125.335 206.138C128.432 203.533 131.644 201.058 134.973 198.782C138.325 196.518 141.833 194.512 145.524 192.886C147.365 192.055 149.277 191.415 151.228 190.918C153.179 190.42 155.18 190.102 157.204 190.11L157.213 191.292C153.397 191.52 149.67 192.758 146.109 194.373C142.536 195.969 139.148 198.031 135.842 200.217C132.533 202.421 129.336 204.813 126.25 207.353C123.146 209.906 120.156 212.548 116.827 214.866Z" fill="#BA4220"/>
<path d="M172.43 195.743C176.052 195.005 179.686 194.432 183.335 194.007C186.982 193.539 190.648 193.244 194.325 193.115C197.999 192.959 201.69 192.934 205.346 193.296C207.185 193.432 208.996 193.777 210.802 194.154C211.702 194.381 212.592 194.615 213.468 194.889C214.332 195.229 215.186 195.576 216.022 195.937C212.481 194.971 208.856 194.76 205.244 194.611C201.62 194.485 197.994 194.504 194.359 194.718C190.723 194.932 187.098 195.225 183.459 195.601C179.832 195.996 176.199 196.424 172.587 196.924L172.43 195.743Z" fill="#BA4220"/>
<path d="M109.469 169.55C113.644 171.977 117.798 174.436 121.932 176.967C123.989 178.24 126.024 179.544 128.054 180.88C129.069 181.549 130.065 182.231 131.074 182.933C131.57 183.304 132.064 183.648 132.558 184.036L133.284 184.628C133.533 184.835 133.774 185.135 134.014 185.392L133.076 186.086C132.897 185.899 132.759 185.712 132.549 185.52L131.885 184.939C131.439 184.56 130.948 184.199 130.477 183.824C129.512 183.104 128.537 182.391 127.544 181.692C125.574 180.297 123.572 178.94 121.561 177.589C117.561 174.858 113.527 172.18 109.469 169.55Z" fill="#BA4220"/>
<path d="M149.152 244.825C151.114 240.622 153.869 237.114 156.316 233.33C158.789 229.584 161.164 225.753 163.381 221.851C165.613 217.953 167.723 213.972 169.432 209.828C170.276 207.749 171.057 205.66 171.599 203.502C172.138 201.362 172.472 199.142 172.222 197.024L173.338 196.803C173.754 199.172 173.453 201.568 172.956 203.835C172.451 206.11 171.753 208.325 170.885 210.45C169.17 214.714 167.091 218.802 164.849 222.75C162.57 226.684 160.139 230.513 157.6 234.264C155.049 237.996 152.622 241.852 149.152 244.825Z" fill="#BA4220"/>
</g>
<defs>
<filter id="filter0_dddd" x="22.3103" y="57.3956" width="243.472" height="253.223" filterUnits="userSpaceOnUse" color-interpolation-filters="sRGB">
<feFlood flood-opacity="0" result="BackgroundImageFix"/>
<feColorMatrix in="SourceAlpha" type="matrix" values="0 0 0 0 0 0 0 0 0 0 0 0 0 0 0 0 0 0 127 0" result="hardAlpha"/>
<feOffset dy="0.815403"/>
<feGaussianBlur stdDeviation="1.11665"/>
<feColorMatrix type="matrix" values="0 0 0 0 0 0 0 0 0 0 0 0 0 0 0 0 0 0 0.122778 0"/>
<feBlend mode="normal" in2="BackgroundImageFix" result="effect1_dropShadow"/>
<feColorMatrix in="SourceAlpha" type="matrix" values="0 0 0 0 0 0 0 0 0 0 0 0 0 0 0 0 0 0 127 0" result="hardAlpha"/>
<feOffset dy="3.58777"/>
<feGaussianBlur stdDeviation="2.31212"/>
<feColorMatrix type="matrix" values="0 0 0 0 0 0 0 0 0 0 0 0 0 0 0 0 0 0 0.200222 0"/>
<feBlend mode="normal" in2="effect1_dropShadow" result="effect2_dropShadow"/>
<feColorMatrix in="SourceAlpha" type="matrix" values="0 0 0 0 0 0 0 0 0 0 0 0 0 0 0 0 0 0 127 0" result="hardAlpha"/>
<feOffset dy="8.80635"/>
<feGaussianBlur stdDeviation="4.6111"/>
<feColorMatrix type="matrix" values="0 0 0 0 0 0 0 0 0 0 0 0 0 0 0 0 0 0 0.255 0"/>
<feBlend mode="normal" in2="effect2_dropShadow" result="effect3_dropShadow"/>
<feColorMatrix in="SourceAlpha" type="matrix" values="0 0 0 0 0 0 0 0 0 0 0 0 0 0 0 0 0 0 127 0" result="hardAlpha"/>
<feOffset dy="16.9604"/>
<feGaussianBlur stdDeviation="9.03829"/>
<feColorMatrix type="matrix" values="0 0 0 0 0 0 0 0 0 0 0 0 0 0 0 0 0 0 0.309778 0"/>
<feBlend mode="normal" in2="effect3_dropShadow" result="effect4_dropShadow"/>
<feBlend mode="normal" in="SourceGraphic" in2="effect4_dropShadow" result="shape"/>
</filter>
</defs>
</svg>
