<svg width="244" height="396" viewBox="0 0 244 396" fill="none" xmlns="http://www.w3.org/2000/svg">
<g filter="url(#filter0_dddddd)">
<path d="M108.265 129.962C114.37 132.457 131.354 149.096 118.971 173.002C106.597 196.895 84.6655 187.513 84.6655 187.513C84.6655 187.513 92.8419 226.687 126.647 224.848C117.86 238.182 98.5706 257.614 73.049 263.395C89.3328 267.549 100.632 269.561 113.853 263.948C127.082 258.322 139.68 251.933 131.698 269.557C170.539 259.907 178.804 251.462 178.804 251.462L177.937 252.925C177.937 252.925 175.147 263.216 191.663 291.45C203.653 275.18 205.799 286.522 209.113 297.698C212.443 308.879 221.984 313.857 236.987 320.205C225.576 302.031 231.797 278.212 239.043 264.359C259.862 284.535 303.879 262.894 303.879 262.894C303.879 262.894 279.973 256.889 295.207 233.955C310.449 211.008 338.191 209.39 344.733 211.147C342.2 203.976 353.82 184.06 377.899 176.429C372.431 173.283 357.467 176.743 357.467 176.743C357.467 176.743 335.107 181.264 330.917 162.34C313.049 170.828 283.721 164.444 288.434 148.691C293.14 132.952 315.617 127.888 323.431 115.605C323.431 115.605 323.732 115.908 325.992 110.779C316.042 116.978 304.434 119.801 294.108 109.71C283.781 99.6191 288.078 82.7255 301.759 79.4731C290.204 74.36 297.79 50.5258 298.449 48.5494L299.389 46.9664C299.389 46.9664 279.945 69.1089 266.627 65.9182C272.579 75.7768 258.844 89.4864 241.988 90.4467C225.147 91.4124 220.137 83.0136 219.597 73.2869C216.062 77.9917 216.569 77.9615 216.569 77.9615C209.689 90.5467 219.765 106.551 207.421 119.733C195.077 132.916 169.144 120.735 165.564 105.04C144.105 115.366 133.601 99.7936 133.601 99.7936C133.601 99.7936 126.976 89.0921 120.235 88.1265C128.835 106.726 117.015 126.587 108.265 129.962Z" fill="#E7D63C"/>
<path d="M129.575 223.979C117.385 224.64 108.508 219.987 102.131 213.758C102.963 209.226 105.978 207.08 103.464 204.346C100.778 201.42 93.2917 200.998 93.6273 198.155C93.9629 195.311 94.2788 194.475 93.6563 192.124C93.3832 191.093 93.4525 189.447 93.7552 187.984C100.679 188.875 111.776 187.806 119.904 175.131C121.405 177.944 127.2 176.597 130.193 180.649C133.221 184.73 138.756 181.505 137.025 178.74C135.294 175.976 136.727 174.213 139.274 175.567C141.82 176.921 140.543 177.577 141.34 175.489C142.138 173.4 141.676 172.645 143.253 170.148C144.829 167.651 148.382 168.465 151.23 170.304C154.093 172.148 149.765 177.425 147.032 181.178C144.299 184.931 148.439 186.119 150.498 188.706C152.548 191.307 154.954 190.384 158.235 193.998C161.515 197.613 164.468 194.741 173.068 193.564C181.668 192.386 181.929 204.285 181.412 210.223C180.909 216.166 189.828 214.825 192.044 217.01C194.261 219.196 190.506 237.515 191.116 244.544C191.726 251.574 193.74 258.861 193.882 263.79C194.015 268.733 187.114 279.36 193.023 277.268C198.932 275.177 203.127 263.63 203.127 263.63C203.127 263.63 223.532 257.937 221.952 264.035C221.1 267.332 215.839 280.724 211.093 292.368C208.337 283.277 205.25 277.079 194.979 291.018C178.358 262.603 181.165 252.245 181.165 252.245L182.037 250.773C182.037 250.773 178.443 254.447 164.855 259.731C162.915 257.334 160.252 255.578 158.599 255.428C158.111 257.251 158.893 260.789 157.599 262.356C156.843 262.609 156.063 262.87 155.269 263.126C154.008 263.018 152.219 262.41 149.74 261.064C143.204 260.754 142.249 263.539 142.807 266.85C140.246 267.553 137.54 268.254 134.651 268.988C142.683 251.251 130.006 257.681 116.694 263.343C103.39 268.992 92.0201 266.967 75.6339 262.785C101.324 256.955 120.734 237.398 129.575 223.979Z" fill="#D9B402"/>
<path d="M242.789 196.159C247.102 185.886 243.354 190.332 261.851 174.454C280.347 158.576 267.503 161.256 277.339 146.509C285.606 134.101 291.291 142.004 292.696 146.267C292.233 147.22 291.828 148.226 291.525 149.269C291.272 150.086 291.148 150.868 291.084 151.639C288.407 155.106 283.004 160.402 274.738 166.909C262.737 176.359 268.636 179.152 279.905 184.255C291.174 189.359 288.671 173.421 292.123 164.136C292.744 162.462 293.405 161.013 294.133 159.717C296.831 162.466 301.073 164.454 306.007 165.556C305.659 166.177 305.083 166.879 304.152 167.777C298.977 172.733 296.96 175.188 306.704 174.51C314.803 173.94 312.67 170.567 316.012 166.576C322.122 166.526 328.406 165.323 333.69 162.805C334.405 166.093 335.676 168.655 337.29 170.659C335.487 172.331 332.335 174.737 327.127 179.049C313.792 190.08 315.899 186.927 317.532 187.447C319.166 187.967 341.502 182.054 358.951 178.801C368.582 176.997 367.477 180.735 363.594 185.197C359.848 187.924 356.718 190.905 354.216 193.883C353.746 194.267 353.293 194.623 352.91 194.924C347.222 199.404 328.98 208.97 324.796 210.52C320.635 212.061 318.554 214.996 311.23 214.514C303.914 214.019 302.216 209.505 298.554 211.517C294.891 213.529 287.994 214.156 279.129 216.867C270.257 219.591 280.557 223.505 282.348 222.752C284.14 222 293.892 221.308 303.645 222.562C305.541 222.803 307.032 222.916 308.258 222.933C306.967 223.979 305.703 225.098 304.47 226.31C293.414 225.627 293.215 228.944 289.493 233.463C287.204 236.242 290.24 239.112 294.896 239.79C292.573 245.037 292.553 249.196 293.727 252.437C288.87 254.961 283.338 257.357 277.159 258.971C258.966 263.692 255.732 262.308 248.584 264.823C247.051 265.36 245.753 265.981 244.693 266.623C243.822 265.971 242.976 265.279 242.187 264.494C238.111 272.291 234.337 283.259 233.875 294.586C231.657 290.972 229.86 287.492 228.96 285.144C226.407 278.411 227.554 278.384 224.849 268.354C222.158 258.33 226.928 260.945 236.177 247.673C245.425 234.401 229.122 230.365 219.471 212.613C209.864 194.878 238.475 206.432 242.789 196.159Z" fill="#D4C006"/>
<path d="M209.748 193.36C209.748 193.36 206.334 202.749 201.543 204.451C196.752 206.153 202.354 197.514 202.249 193.504C202.145 189.493 200.495 183.572 199.993 177.849C199.507 172.132 202.56 157.234 200.75 155.458C198.955 153.687 191.688 154.78 192.111 149.945C192.525 145.122 192.317 135.45 185.315 136.409C178.321 137.355 175.928 139.703 173.254 136.767C170.579 133.831 168.632 134.572 166.953 132.467C165.274 130.361 161.922 129.406 164.14 126.342C166.357 123.277 169.872 118.993 167.548 117.49C165.224 115.988 162.342 115.332 161.048 117.37C159.762 119.395 160.148 120.007 159.492 121.718C158.844 123.415 159.872 122.868 157.814 121.788C155.742 120.702 154.57 122.13 155.985 124.37C157.4 126.61 152.901 129.25 150.429 125.929C147.956 122.607 143.178 123.758 142.013 121.378C140.862 119.004 143.693 118.595 139.427 117.297C135.176 116.004 134.661 115.721 133.631 114.093C132.601 112.465 132.115 106.748 128.988 110.55C125.862 114.352 126.115 116.945 128.554 119.731C130.994 122.518 132.531 126.061 131.231 128.374C129.93 130.688 123.974 130.011 122.559 129.39C121.136 128.782 120.213 133.34 120.714 135.237C121.23 137.138 120.952 137.824 120.689 140.133C120.427 142.443 126.499 142.786 128.694 145.174C130.889 147.562 127.894 149.384 127.477 153.682C127.067 157.966 127.816 161.374 128.597 163.141C129.362 164.903 133.494 167.625 126.751 168.988C120.008 170.351 119.505 167.898 118.058 172.187C116.611 176.476 105.007 193.135 84.4517 187.361C86.6212 198.504 117.865 210.297 117.865 210.297C117.865 210.297 124.185 209.502 127.692 206.85C131.199 204.198 137.12 204.961 137.12 204.961C137.12 204.961 138.84 208.945 145.658 205.369C151.972 204.703 152.256 206.391 153.421 207.005C154.586 207.618 161.645 206.156 162.451 203.289C163.258 200.422 155.641 190.778 166.317 191.282C175.332 196.128 172.827 189.296 173.529 186.686C176.288 186.955 182.428 192.603 180.077 197.092C177.726 201.58 178.688 203.936 179.848 203.321C181.023 202.712 182.365 204.451 181.39 206.179C180.407 207.92 178.941 208.883 183.506 209.961C188.071 211.04 193.672 215.825 195.291 220.885C203.058 220.069 207.937 217.107 205.08 224.505C202.223 231.902 209.11 232.161 209.702 231.85C210.293 231.538 223.747 198.634 225.039 193.685C226.331 188.735 209.748 193.36 209.748 193.36Z" fill="#F1AD05"/>
<path d="M133.67 331.377L201.457 212.368L235.297 152.852C246.582 133.015 257.838 113.167 268.766 93.201C256.603 112.735 244.768 132.388 232.962 152.051L197.53 211.036L126.786 329.034L133.67 331.377Z" fill="#BA4220"/>
<path d="M230.156 158.08C229.833 157.415 229.598 156.377 229.399 155.482C229.211 154.542 229.068 153.586 228.948 152.622C228.73 150.686 228.558 148.734 228.469 146.763C228.291 142.821 228.309 138.853 228.326 134.884L228.703 122.916C228.789 118.924 228.949 114.926 228.887 110.912C228.098 114.944 227.48 118.988 227.035 123.014C226.581 127.052 226.36 131.061 226.22 135.083C226.104 139.097 226.024 143.108 226.319 147.091C226.452 149.078 226.614 151.075 226.957 153.04C227.121 154.019 227.314 155.01 227.561 155.971C227.859 156.966 228.057 157.861 228.695 158.914L230.156 158.08Z" fill="#BA4220"/>
<path d="M224.379 170.851C229.488 167.932 234.512 164.92 239.44 161.775C244.388 158.655 249.225 155.397 253.957 152.022C258.695 148.665 263.35 145.181 267.708 141.43C269.937 139.604 271.995 137.621 274.01 135.622C274.977 134.6 275.96 133.584 276.892 132.533L279.456 129.266C275.744 133.442 271.31 137.086 266.857 140.674C262.368 144.233 257.724 147.64 252.96 150.923C248.196 154.207 243.354 157.414 238.443 160.532C233.526 163.632 228.6 166.744 223.571 169.707L224.379 170.851Z" fill="#BA4220"/>
<path d="M210.349 192.52C209.46 188.995 208.725 185.396 207.997 181.814C207.269 178.233 206.678 174.604 206.139 170.977C205.585 167.345 205.227 163.686 205.088 159.991C205.001 156.3 204.99 152.602 205.655 148.824C203.991 152.537 203.761 156.423 203.809 160.149C203.84 163.902 204.09 167.619 204.544 171.297C205.437 178.646 206.867 185.88 208.722 193.007L210.349 192.52Z" fill="#BA4220"/>
<path d="M168.864 187.409C170.45 183.245 171.867 179.068 173.175 174.868C173.815 172.763 174.431 170.666 175.02 168.558C175.622 166.456 176.13 164.335 176.16 162.187C175.103 164.253 174.413 166.325 173.745 168.419C173.062 170.509 172.35 172.588 171.616 174.675L167.301 187.166L168.864 187.409Z" fill="#BA4220"/>
<path d="M183.903 235.336C183.568 229.743 182.593 224.363 181.32 219.024C180.025 213.694 178.391 208.472 176.34 203.396C174.335 198.303 171.805 193.416 169.08 188.639L166.923 185.115C166.214 183.943 165.366 182.821 164.602 181.679C163.045 179.385 161.401 177.174 159.787 174.942C153.32 166.008 147.032 156.958 140.892 147.846L131.745 134.119C128.777 129.502 125.504 125.053 122.645 120.376C123.659 122.902 125.029 125.293 126.37 127.674C127.71 130.054 129.112 132.424 130.576 134.75C133.435 139.427 136.473 144.021 139.519 148.601C145.612 157.761 151.845 166.841 158.264 175.823C159.869 178.069 161.52 180.298 163.041 182.563C163.79 183.699 164.616 184.798 165.325 185.969L167.446 189.464C170.129 194.193 172.593 199.04 174.546 204.098C178.495 214.146 181.393 224.72 182.233 235.574L183.903 235.336Z" fill="#BA4220"/>
<path d="M205.405 203.681C205.37 203.766 205.281 203.881 205.187 203.946C205.133 203.975 205.079 204.005 205.032 204.021L205.07 204.018L205.209 203.97C205.301 203.937 205.431 203.902 205.538 203.875L206.249 203.689L207.723 203.319L210.687 202.584L216.624 201.068C220.568 200.031 224.51 198.911 228.412 197.68C232.314 196.448 236.179 195.073 239.935 193.463C241.81 192.648 243.658 191.791 245.444 190.799C247.223 189.819 248.939 188.736 250.389 187.411C247.415 190.035 243.585 191.733 239.829 193.196C236.035 194.662 232.143 195.848 228.231 196.979C224.327 198.096 220.393 199.087 216.424 200.017L210.481 201.368L207.499 202.015L205.997 202.342L205.233 202.526L204.828 202.626L204.606 202.693L204.545 202.704C204.468 202.742 204.376 202.774 204.299 202.812C204.135 202.9 203.992 203.045 203.903 203.16L205.405 203.681Z" fill="#BA4220"/>
<path d="M187.646 235.67C192.057 232.563 197.101 229.894 202.118 227.444C207.179 225.01 212.371 222.803 217.63 220.75C228.168 216.7 238.98 213.319 249.907 210.453C260.856 207.579 271.856 204.771 282.773 201.657C288.23 200.131 293.697 198.561 299.117 196.892C304.55 195.26 309.958 193.521 315.327 191.671C304.418 194.772 293.455 197.609 282.503 200.515C271.546 203.371 260.583 206.208 249.594 208.97C238.574 211.754 227.664 215.148 217.017 219.257C211.703 221.34 206.45 223.558 201.346 226.091C196.248 228.643 191.257 231.314 186.607 234.662L187.646 235.67Z" fill="#BA4220"/>
<path d="M273.252 240.289C269.109 236.896 264.105 234.485 259.005 232.292C253.898 230.079 248.635 228.062 243.218 226.325C237.769 224.61 232.116 223.258 226.236 222.428C223.301 221.99 220.284 221.807 217.226 221.812C214.168 221.816 211.059 222.054 207.961 222.698L208.111 224.146C213.988 223.228 219.869 223.572 225.547 224.429C231.242 225.259 236.719 226.716 242.087 228.351C247.462 230.006 252.692 231.927 257.772 234.063C262.882 236.21 267.831 238.5 273.252 240.289Z" fill="#BA4220"/>
<path d="M185.781 231.422C180.256 231.662 174.736 232.1 169.214 232.719C163.687 233.286 158.157 234.065 152.631 235.044C147.106 235.989 141.573 237.096 136.145 238.651C133.407 239.379 130.74 240.346 128.086 241.35C126.767 241.896 125.464 242.448 124.189 243.043C122.94 243.712 121.706 244.387 120.502 245.073C125.678 242.837 131.081 241.47 136.473 240.181C141.885 238.916 147.319 237.822 152.793 236.957C158.268 236.092 163.737 235.323 169.24 234.648C174.725 234.001 180.224 233.39 185.703 232.871L185.781 231.422Z" fill="#BA4220"/>
<path d="M275.659 185.789C269.888 189.848 264.151 193.936 258.456 198.103C255.622 200.191 252.825 202.309 250.04 204.463C248.647 205.54 247.284 206.628 245.905 207.742C245.229 208.32 244.554 208.866 243.885 209.463L242.902 210.365C242.567 210.679 242.255 211.098 241.939 211.468L243.395 211.99C243.632 211.721 243.809 211.463 244.091 211.178L244.983 210.307C245.584 209.735 246.252 209.17 246.891 208.595C248.204 207.473 249.532 206.357 250.889 205.251C253.58 203.046 256.321 200.876 259.077 198.712C264.552 194.353 270.085 190.047 275.659 185.789Z" fill="#BA4220"/>
<path d="M229.12 283.734C225.6 279.32 220.978 275.981 216.783 272.218C212.555 268.508 208.463 264.666 204.6 260.691C200.713 256.724 197 252.621 193.869 248.198C192.319 245.976 190.862 243.721 189.757 241.312C188.658 238.921 187.856 236.373 187.95 233.765L186.239 233.846C185.929 236.805 186.703 239.574 187.755 242.13C188.822 244.691 190.171 247.122 191.764 249.392C194.918 253.955 198.6 258.195 202.507 262.219C206.469 266.213 210.645 270.036 214.973 273.732C219.318 277.401 223.493 281.256 229.12 283.734Z" fill="#BA4220"/>
</g>
<defs>
<filter id="filter0_dddddd" x="44.398" y="46.4889" width="362.152" height="348.636" filterUnits="userSpaceOnUse" color-interpolation-filters="sRGB">
<feFlood flood-opacity="0" result="BackgroundImageFix"/>
<feColorMatrix in="SourceAlpha" type="matrix" values="0 0 0 0 0 0 0 0 0 0 0 0 0 0 0 0 0 0 127 0" result="hardAlpha"/>
<feOffset dy="0.649954"/>
<feGaussianBlur stdDeviation="0.563736"/>
<feColorMatrix type="matrix" values="0 0 0 0 0 0 0 0 0 0 0 0 0 0 0 0 0 0 0.0938889 0"/>
<feBlend mode="normal" in2="BackgroundImageFix" result="effect1_dropShadow"/>
<feColorMatrix in="SourceAlpha" type="matrix" values="0 0 0 0 0 0 0 0 0 0 0 0 0 0 0 0 0 0 127 0" result="hardAlpha"/>
<feOffset dy="2.8598"/>
<feGaussianBlur stdDeviation="1.16726"/>
<feColorMatrix type="matrix" values="0 0 0 0 0 0 0 0 0 0 0 0 0 0 0 0 0 0 0.153111 0"/>
<feBlend mode="normal" in2="effect1_dropShadow" result="effect2_dropShadow"/>
<feColorMatrix in="SourceAlpha" type="matrix" values="0 0 0 0 0 0 0 0 0 0 0 0 0 0 0 0 0 0 127 0" result="hardAlpha"/>
<feOffset dy="7.0195"/>
<feGaussianBlur stdDeviation="2.3279"/>
<feColorMatrix type="matrix" values="0 0 0 0 0 0 0 0 0 0 0 0 0 0 0 0 0 0 0.195 0"/>
<feBlend mode="normal" in2="effect2_dropShadow" result="effect3_dropShadow"/>
<feColorMatrix in="SourceAlpha" type="matrix" values="0 0 0 0 0 0 0 0 0 0 0 0 0 0 0 0 0 0 127 0" result="hardAlpha"/>
<feOffset dy="13.519"/>
<feGaussianBlur stdDeviation="4.56294"/>
<feColorMatrix type="matrix" values="0 0 0 0 0 0 0 0 0 0 0 0 0 0 0 0 0 0 0.236889 0"/>
<feBlend mode="normal" in2="effect3_dropShadow" result="effect4_dropShadow"/>
<feColorMatrix in="SourceAlpha" type="matrix" values="0 0 0 0 0 0 0 0 0 0 0 0 0 0 0 0 0 0 127 0" result="hardAlpha"/>
<feOffset dy="22.7484"/>
<feGaussianBlur stdDeviation="8.38971"/>
<feColorMatrix type="matrix" values="0 0 0 0 0 0 0 0 0 0 0 0 0 0 0 0 0 0 0.296111 0"/>
<feBlend mode="normal" in2="effect4_dropShadow" result="effect5_dropShadow"/>
<feColorMatrix in="SourceAlpha" type="matrix" values="0 0 0 0 0 0 0 0 0 0 0 0 0 0 0 0 0 0 127 0" result="hardAlpha"/>
<feOffset dy="35.0975"/>
<feGaussianBlur stdDeviation="14.3255"/>
<feColorMatrix type="matrix" values="0 0 0 0 0 0 0 0 0 0 0 0 0 0 0 0 0 0 0.39 0"/>
<feBlend mode="normal" in2="effect5_dropShadow" result="effect6_dropShadow"/>
<feBlend mode="normal" in="SourceGraphic" in2="effect6_dropShadow" result="shape"/>
</filter>
</defs>
</svg>
