<svg width="261" height="200" viewBox="0 0 261 200" fill="none" xmlns="http://www.w3.org/2000/svg">
<g filter="url(#filter0_dddddd)">
<path d="M164.649 78.5921C160.9 80.9141 151.544 93.7701 162.36 108.163C173.169 122.549 186.593 113.93 186.593 113.93C186.593 113.93 185.543 140.671 163.045 143.206C170.318 151.026 185.193 161.703 202.665 162.686C192.387 167.231 185.158 169.81 175.817 167.574C166.469 165.33 157.452 162.513 164.67 173.251C137.985 171.193 131.599 166.539 131.599 166.539L132.332 167.408C132.332 167.408 135.313 173.886 127.551 194.337C117.84 184.936 117.682 192.654 116.735 200.391C115.779 208.134 110.038 212.475 100.847 218.324C106.358 205.074 99.6154 190.055 93.3011 181.723C81.8078 197.336 50.38 187.944 50.38 187.944C50.38 187.944 65.4801 181.333 52.8912 167.897C40.2953 154.454 21.8205 156.462 17.701 158.346C18.5767 153.336 8.70577 141.489 -8.0201 139.126C-4.76262 136.445 5.48969 137.068 5.48969 137.068C5.48969 137.068 20.7366 137.571 21.4022 124.627C34.1269 128.244 52.7606 120.782 47.906 110.916C43.0584 101.058 27.6732 100.21 21.1587 92.9753C21.1587 92.9753 20.9938 93.2085 18.9344 90.0769C26.1835 93.0617 34.1518 93.6366 39.8434 85.8371C45.535 78.0376 40.8283 67.3729 31.446 66.7444C38.4992 62.0915 30.8546 47.214 30.2007 45.9837L29.405 45.044C29.405 45.044 44.6826 57.4913 53.1125 53.9106C50.2799 61.0721 60.8578 68.5909 72.0804 67.3557C83.2938 66.1257 85.6666 60.0315 84.9447 53.557C87.7976 56.2678 87.4603 56.3041 87.4603 56.3041C93.3922 63.8413 88.5217 75.5126 98.1237 82.8382C107.726 90.1637 123.478 79.2559 124.099 68.5081C139.395 72.9389 144.597 61.5049 144.597 61.5049C144.597 61.5049 147.78 53.7131 152.118 52.3291C148.508 65.5486 158.505 77.3366 164.649 78.5921Z" fill="#E7D63C"/>
<path d="M162.292 141.565C170.405 140.649 175.743 136.597 179.258 131.782C178.207 128.885 175.981 127.804 177.336 125.722C178.783 123.494 183.673 122.387 183.137 120.549C182.6 118.711 182.299 118.194 182.449 116.574C182.515 115.864 182.287 114.787 181.925 113.855C177.458 115.211 170.021 115.736 163.255 108.277C162.577 110.299 158.606 110.054 157.082 113.057C155.537 116.084 151.529 114.571 152.364 112.556C153.2 110.541 152.059 109.537 150.53 110.712C149 111.888 149.915 112.179 149.158 110.89C148.401 109.601 148.621 109.052 147.305 107.58C145.988 106.108 143.735 107.038 142.061 108.567C140.377 110.1 143.817 113.101 146.035 115.273C148.254 117.445 145.655 118.687 144.584 120.622C143.52 122.564 141.831 122.222 140.068 124.969C138.306 127.717 136.04 126.15 130.238 126.327C124.436 126.504 125.582 134.38 126.582 138.239C127.572 142.102 121.541 142.207 120.322 143.894C119.103 145.58 123.609 157.245 123.986 161.949C124.364 166.652 123.843 171.681 124.296 174.948C124.756 178.223 130.485 184.466 126.356 183.741C122.228 183.017 118.181 175.867 118.181 175.867C118.181 175.867 104.093 174.375 105.811 178.221C106.738 180.301 111.692 188.55 116.113 195.703C116.923 189.401 118.272 184.972 126.591 193.026C134.402 172.444 131.403 165.924 131.403 165.924L130.664 165.05C130.664 165.05 133.442 167.075 142.989 169.054C144.002 167.257 145.564 165.804 146.637 165.522C147.161 166.67 147.038 169.09 148.065 169.98C148.592 170.063 149.135 170.149 149.687 170.23C150.507 170.019 151.619 169.42 153.105 168.257C157.381 167.328 158.319 169.059 158.318 171.304C160.085 171.484 161.947 171.646 163.934 171.81C156.671 161.003 165.744 163.838 175.151 166.097C184.551 168.347 191.825 165.751 202.168 161.177C184.579 160.18 169.611 149.434 162.292 141.565Z" fill="#D9B402"/>
<path d="M83.2707 137.161C79.2874 130.864 82.2517 133.38 68.2933 124.959C54.3349 116.538 63.1029 116.882 54.9813 108.247C48.154 100.981 45.2804 106.823 44.827 109.79C45.2376 110.367 45.6165 110.986 45.9317 111.64C46.1892 112.15 46.3578 112.653 46.4853 113.154C48.6353 115.144 52.7851 118.037 58.958 121.413C67.9201 126.315 64.3395 128.81 57.4734 133.425C50.6073 138.04 50.4909 127.251 47.1851 121.511C46.5901 120.476 45.9934 119.593 45.3698 118.82C43.8955 120.931 41.3181 122.713 38.1865 123.986C38.4846 124.357 38.9424 124.756 39.6562 125.246C43.6181 127.94 45.2205 129.336 38.7194 129.969C33.315 130.491 34.3476 128.03 31.7014 125.768C27.6663 126.413 23.3886 126.316 19.6248 125.241C19.5176 127.488 18.9637 129.319 18.1212 130.82C19.4958 131.723 21.8413 132.959 25.7536 135.226C35.771 141.022 34.0321 139.177 33.0122 139.701C31.9923 140.225 16.6067 138.802 4.73899 138.59C-1.81313 138.468 -0.669931 140.811 2.3856 143.323C5.15829 144.707 7.55323 146.325 9.53328 148.012C9.88539 148.213 10.2238 148.398 10.5095 148.553C14.7574 150.877 27.8483 155.164 30.7796 155.722C33.6949 156.278 35.3922 157.983 40.169 156.853C44.939 155.715 45.5582 152.55 48.1967 153.471C50.8352 154.392 55.4532 154.041 61.5997 154.846C67.7532 155.659 61.3945 159.382 60.1295 159.084C58.8645 158.786 52.3564 159.411 46.0634 161.32C44.8399 161.689 43.8691 161.928 43.0621 162.076C44.0293 162.622 44.9875 163.22 45.9346 163.883C53.1502 162.207 53.6493 164.372 56.6047 166.94C58.4224 168.519 56.7387 170.748 53.7428 171.711C55.8567 174.914 56.3308 177.654 55.9156 179.922C59.399 181.048 63.3129 182.015 67.5666 182.395C80.088 183.492 82.0676 182.22 87.0601 183.086C88.1307 183.271 89.0557 183.537 89.8257 183.842C90.3277 183.316 90.8091 182.766 91.2424 182.161C94.7948 186.85 98.4996 193.666 100.06 201.084C101.122 198.455 101.922 195.961 102.255 194.312C103.192 189.589 102.432 189.698 103.105 182.784C103.768 175.875 100.912 178.128 93.3416 170.401C85.7711 162.673 96.0755 158.204 100.472 145.427C104.842 132.666 87.254 143.458 83.2707 137.161Z" fill="#D4C006"/>
<path d="M48.7817 187.767C47.7423 188.443 46.969 188.781 46.969 188.781C46.969 188.781 47.8069 189.033 49.2517 189.383C49.1551 188.882 48.9985 188.343 48.7817 187.767Z" fill="#D4C006"/>
<path d="M104.75 131.652C104.75 131.652 108.042 137.466 111.391 138.057C114.739 138.648 110.087 133.572 109.711 130.916C109.336 128.259 109.767 124.171 109.464 120.342C109.151 116.517 105.486 107.031 106.483 105.659C107.47 104.292 112.384 104.207 111.569 101.065C110.761 97.9308 109.826 91.5291 114.55 91.3853C119.268 91.2336 121.106 92.5168 122.544 90.284C123.982 88.0513 125.349 88.3246 126.223 86.7499C127.097 85.1751 129.201 84.1738 127.399 82.3985C125.597 80.6231 122.804 78.1873 124.17 76.9388C125.536 75.6904 127.364 74.9382 128.443 76.1391C129.516 77.332 129.33 77.7783 129.952 78.8339C130.567 79.8816 129.829 79.6344 131.066 78.694C132.312 77.7483 133.243 78.5603 132.559 80.1943C131.874 81.8282 135.133 83.0709 136.396 80.6062C137.658 78.1415 140.937 78.3706 141.441 76.6723C141.937 74.9791 140.025 75.0233 142.694 73.6941C145.354 72.37 145.663 72.1264 146.161 70.9387C146.66 69.7511 146.347 65.9268 148.831 68.0876C151.314 70.2484 151.434 71.9861 150.134 74.0943C148.834 76.2025 148.213 78.7092 149.327 80.0911C150.441 81.473 154.295 80.3659 155.159 79.7994C156.03 79.241 157.144 82.1447 157.024 83.4508C156.895 84.762 157.154 85.1833 157.583 86.6773C158.012 88.1713 154.046 89.0706 152.863 90.889C151.68 92.7074 153.857 93.5769 154.609 96.365C155.354 99.1451 155.237 101.475 154.919 102.727C154.609 103.974 152.186 106.228 156.784 106.379C161.382 106.53 161.441 104.857 162.871 107.525C164.301 110.193 173.801 119.893 186.717 113.807C186.521 121.396 167.223 132.636 167.223 132.636C167.223 132.636 162.967 132.813 160.361 131.452C157.754 130.092 153.933 131.252 153.933 131.252C153.933 131.252 153.241 134.07 148.348 132.468C144.11 132.728 144.11 133.873 143.409 134.407C142.709 134.94 137.892 134.759 137.042 132.957C136.193 131.156 140.147 123.952 133.162 125.467C127.754 129.663 128.648 124.879 127.896 123.236C126.106 123.719 122.683 128.125 124.731 130.824C126.78 133.523 126.406 135.184 125.573 134.907C124.731 134.635 124.038 135.931 124.873 136.962C125.714 138.001 126.788 138.474 123.897 139.691C121.006 140.909 117.842 144.686 117.336 148.202C112.122 148.525 108.577 147.112 111.281 151.674C113.985 156.236 109.472 157.17 109.047 157.03C108.622 156.891 96.1026 136.682 94.702 133.561C93.3013 130.44 104.75 131.652 104.75 131.652Z" fill="#F1AD05"/>
<path d="M170.222 214.24L112.325 143.269L83.4103 107.77C73.7692 95.9385 64.1458 84.0971 54.7256 72.1408C64.9122 83.6749 74.8956 95.324 84.8613 106.983L114.767 141.955L174.502 211.932L170.222 214.24Z" fill="#BA4220"/>
<path d="M87.38 110.647C87.519 110.173 87.5593 109.463 87.5909 108.85C87.6111 108.21 87.5994 107.563 87.5718 106.914C87.5006 105.613 87.3976 104.307 87.2378 102.997C86.9182 100.378 86.4667 97.7626 86.0153 95.1473L84.4405 87.2965C83.9413 84.673 83.3921 82.0541 82.9882 79.4005C83.9554 81.9718 84.8113 84.5705 85.5513 87.1758C86.2982 89.7888 86.8883 92.4081 87.4262 95.045C87.9481 97.6791 88.4451 100.316 88.6922 102.975C88.8248 104.3 88.9393 105.635 88.931 106.969C88.9315 107.633 88.9137 108.308 88.8573 108.969C88.7714 109.658 88.7398 110.271 88.4361 111.035L87.38 110.647Z" fill="#BA4220"/>
<path d="M92.6052 118.429C88.9126 117.071 85.2651 115.641 81.6669 114.113C78.0576 112.604 74.5066 110.992 71.012 109.29C67.5151 107.602 64.0586 105.82 60.7687 103.83C59.0968 102.873 57.5195 101.793 55.9693 100.698C55.2179 100.131 54.4574 99.5699 53.7263 98.9803L51.6729 97.1099C54.5837 99.4526 57.9117 101.364 61.2463 103.237C64.6013 105.086 68.0417 106.818 71.5475 108.456C75.0532 110.093 78.6018 111.671 82.1863 113.183C85.773 114.682 89.3665 116.189 93.0117 117.585L92.6052 118.429Z" fill="#BA4220"/>
<path d="M104.261 131.165C104.456 128.742 104.541 126.286 104.625 123.844C104.708 121.401 104.696 118.942 104.649 116.491C104.611 114.034 104.442 111.581 104.124 109.13C103.772 106.685 103.37 104.246 102.512 101.827C104.021 104.091 104.604 106.629 104.985 109.092C105.381 111.57 105.628 114.049 105.736 116.525C105.962 121.471 105.82 126.4 105.387 131.306L104.261 131.165Z" fill="#BA4220"/>
<path d="M131.052 123.195C129.545 120.625 128.147 118.028 126.819 115.403C126.164 114.085 125.525 112.771 124.903 111.446C124.273 110.126 123.703 108.784 123.445 107.37C124.371 108.616 125.055 109.906 125.728 111.213C126.41 112.515 127.11 113.807 127.826 115.102L132.057 122.862L131.052 123.195Z" fill="#BA4220"/>
<path d="M126.447 156.47C126.049 152.744 126.095 149.088 126.343 145.427C126.606 141.768 127.105 138.142 127.895 134.567C128.652 130.987 129.779 127.483 131.047 124.031L132.079 121.467C132.417 120.616 132.851 119.782 133.228 118.944C134.001 117.259 134.84 115.619 135.657 113.968C138.932 107.359 142.075 100.694 145.115 94.0039L149.625 83.9372C151.071 80.5627 152.736 77.2664 154.103 73.8649C153.714 75.6433 153.076 77.372 152.456 79.0904C151.836 80.8089 151.174 82.5269 150.466 84.2235C149.099 87.625 147.605 90.9911 146.103 94.3493C143.101 101.066 139.997 107.744 136.759 114.38C135.949 116.039 135.108 117.692 134.356 119.354C133.988 120.187 133.565 121.003 133.227 121.854L132.216 124.394C130.971 127.81 129.883 131.28 129.156 134.832C127.666 141.896 126.926 149.191 127.575 156.442L126.447 156.47Z" fill="#BA4220"/>
<path d="M108.758 137.977C108.79 138.03 108.862 138.096 108.931 138.128C108.97 138.141 109.009 138.155 109.041 138.16L109.016 138.163L108.92 138.146C108.855 138.135 108.766 138.126 108.692 138.12L108.203 138.076L107.189 137.995L105.153 137.839L101.07 137.498C98.3534 137.251 95.63 136.95 92.9201 136.57C90.2101 136.19 87.5089 135.712 84.853 135.066C83.5261 134.737 82.2129 134.377 80.9245 133.92C79.6431 133.471 78.3912 132.947 77.2878 132.234C79.5404 133.635 82.254 134.33 84.8935 134.879C87.5582 135.425 90.2566 135.776 92.9617 136.088C95.6598 136.392 98.3645 136.609 101.085 136.783L105.154 137.015L107.192 137.111L108.219 137.16L108.743 137.197L109.021 137.218L109.175 137.238L109.217 137.238C109.272 137.254 109.336 137.265 109.391 137.282C109.509 137.322 109.619 137.401 109.691 137.467L108.758 137.977Z" fill="#BA4220"/>
<path d="M124.016 157.105C120.763 155.545 117.141 154.344 113.56 153.284C109.953 152.24 106.284 151.36 102.588 150.589C95.1892 149.086 87.6845 148.055 80.1606 147.376C72.6206 146.695 65.0556 146.062 57.5103 145.219C53.7423 144.818 49.9628 144.388 46.2036 143.888C42.4399 143.414 38.6805 142.867 34.9346 142.242C42.4729 143.078 50.0174 143.733 57.5621 144.436C65.1043 145.105 72.6488 145.76 80.2022 146.364C87.7787 146.978 95.3501 148.007 102.827 149.537C106.562 150.321 110.272 151.202 113.919 152.306C117.564 153.424 121.152 154.632 124.59 156.325L124.016 157.105Z" fill="#BA4220"/>
<path d="M68.0714 169.64C70.4277 166.944 73.4606 164.799 76.5809 162.787C79.7035 160.762 82.9511 158.848 86.3309 157.102C89.7342 155.367 93.3122 153.849 97.0981 152.65C98.9851 152.035 100.955 151.581 102.972 151.244C104.989 150.908 107.066 150.721 109.18 150.802L109.242 151.774C105.265 151.82 101.424 152.698 97.7743 153.893C94.1107 155.072 90.6598 156.64 87.301 158.313C83.9399 160 80.7038 161.847 77.5905 163.819C74.4583 165.801 71.4487 167.859 68.0714 169.64Z" fill="#BA4220"/>
<path d="M124.775 154.096C128.445 153.642 132.134 153.32 135.844 153.115C139.552 152.877 143.286 152.778 147.039 152.81C150.787 152.822 154.558 152.938 158.311 153.362C160.197 153.539 162.063 153.881 163.925 154.249C164.855 154.463 165.775 154.682 166.682 154.933C167.58 155.236 168.469 155.544 169.339 155.863C165.677 154.962 161.963 154.659 158.264 154.407C154.554 154.173 150.85 154.054 147.143 154.09C143.437 154.127 139.745 154.226 136.041 154.391C132.352 154.572 128.658 154.779 124.987 155.044L124.775 154.096Z" fill="#BA4220"/>
<path d="M60.4426 133.965C64.6989 136.002 68.935 138.063 73.1531 140.179C75.2532 141.243 77.333 142.329 79.4083 143.441C80.446 143.997 81.4656 144.563 82.4989 145.145C83.0088 145.451 83.5141 145.737 84.0218 146.056L84.7698 146.542C85.0259 146.712 85.2778 146.954 85.5273 147.162L84.6248 147.668C84.4388 147.517 84.2936 147.366 84.0759 147.21L83.3913 146.734C82.9311 146.424 82.428 146.125 81.9429 145.817C80.9526 145.222 79.9532 144.633 78.9358 144.054C76.9168 142.899 74.8685 141.772 72.8112 140.65C68.7168 138.382 64.591 136.156 60.4426 133.965Z" fill="#BA4220"/>
<path d="M101.992 193.401C103.825 190.1 106.502 187.386 108.852 184.439C111.229 181.524 113.502 178.536 115.609 175.486C117.733 172.439 119.726 169.322 121.301 166.058C122.077 164.421 122.788 162.772 123.25 161.061C123.709 159.362 123.955 157.593 123.605 155.883L124.742 155.747C125.274 157.664 125.071 159.576 124.66 161.378C124.24 163.186 123.621 164.938 122.822 166.612C121.247 169.971 119.289 173.175 117.158 176.262C114.988 179.335 112.658 182.319 110.213 185.237C107.755 188.138 105.429 191.143 101.992 193.401Z" fill="#BA4220"/>
</g>
<defs>
<filter id="filter0_dddddd" x="-66.02" y="32.0439" width="326.685" height="289.28" filterUnits="userSpaceOnUse" color-interpolation-filters="sRGB">
<feFlood flood-opacity="0" result="BackgroundImageFix"/>
<feColorMatrix in="SourceAlpha" type="matrix" values="0 0 0 0 0 0 0 0 0 0 0 0 0 0 0 0 0 0 127 0" result="hardAlpha"/>
<feOffset dy="0.833333"/>
<feGaussianBlur stdDeviation="1.1412"/>
<feColorMatrix type="matrix" values="0 0 0 0 0 0 0 0 0 0 0 0 0 0 0 0 0 0 0.122778 0"/>
<feBlend mode="normal" in2="BackgroundImageFix" result="effect1_dropShadow"/>
<feColorMatrix in="SourceAlpha" type="matrix" values="0 0 0 0 0 0 0 0 0 0 0 0 0 0 0 0 0 0 127 0" result="hardAlpha"/>
<feOffset dy="3.66667"/>
<feGaussianBlur stdDeviation="2.36296"/>
<feColorMatrix type="matrix" values="0 0 0 0 0 0 0 0 0 0 0 0 0 0 0 0 0 0 0.200222 0"/>
<feBlend mode="normal" in2="effect1_dropShadow" result="effect2_dropShadow"/>
<feColorMatrix in="SourceAlpha" type="matrix" values="0 0 0 0 0 0 0 0 0 0 0 0 0 0 0 0 0 0 127 0" result="hardAlpha"/>
<feOffset dy="9"/>
<feGaussianBlur stdDeviation="4.7125"/>
<feColorMatrix type="matrix" values="0 0 0 0 0 0 0 0 0 0 0 0 0 0 0 0 0 0 0.255 0"/>
<feBlend mode="normal" in2="effect2_dropShadow" result="effect3_dropShadow"/>
<feColorMatrix in="SourceAlpha" type="matrix" values="0 0 0 0 0 0 0 0 0 0 0 0 0 0 0 0 0 0 127 0" result="hardAlpha"/>
<feOffset dy="17.3333"/>
<feGaussianBlur stdDeviation="9.23704"/>
<feColorMatrix type="matrix" values="0 0 0 0 0 0 0 0 0 0 0 0 0 0 0 0 0 0 0.309778 0"/>
<feBlend mode="normal" in2="effect3_dropShadow" result="effect4_dropShadow"/>
<feColorMatrix in="SourceAlpha" type="matrix" values="0 0 0 0 0 0 0 0 0 0 0 0 0 0 0 0 0 0 127 0" result="hardAlpha"/>
<feOffset dy="29.1667"/>
<feGaussianBlur stdDeviation="16.9838"/>
<feColorMatrix type="matrix" values="0 0 0 0 0 0 0 0 0 0 0 0 0 0 0 0 0 0 0.387222 0"/>
<feBlend mode="normal" in2="effect4_dropShadow" result="effect5_dropShadow"/>
<feColorMatrix in="SourceAlpha" type="matrix" values="0 0 0 0 0 0 0 0 0 0 0 0 0 0 0 0 0 0 127 0" result="hardAlpha"/>
<feOffset dy="45"/>
<feGaussianBlur stdDeviation="29"/>
<feColorMatrix type="matrix" values="0 0 0 0 0 0 0 0 0 0 0 0 0 0 0 0 0 0 0.51 0"/>
<feBlend mode="normal" in2="effect5_dropShadow" result="effect6_dropShadow"/>
<feBlend mode="normal" in="SourceGraphic" in2="effect6_dropShadow" result="shape"/>
</filter>
</defs>
</svg>
