<svg width="322" height="286" viewBox="0 0 322 286" fill="none" xmlns="http://www.w3.org/2000/svg">
<g filter="url(#filter0_dddddd)">
<path d="M230.806 95.6561C226.98 98.7641 217.072 115.479 227.023 133.274C236.969 151.059 250.68 139.545 250.68 139.545C250.68 139.545 248.269 173.518 225.9 177.706C232.688 187.313 246.843 200.218 264.063 200.71C253.669 206.921 246.391 210.506 237.273 208.072C228.148 205.628 219.38 202.443 225.963 215.756C199.691 214.296 193.618 208.668 193.618 208.668L194.298 209.739C194.298 209.739 196.912 217.829 188.188 244.111C179.072 232.603 178.52 242.402 177.186 252.261C175.843 262.126 169.946 267.881 160.561 275.699C166.688 258.65 160.795 239.886 154.982 229.586C142.819 249.893 112.236 239.333 112.236 239.333C112.236 239.333 127.502 230.293 115.748 213.79C103.988 197.277 85.6233 200.622 81.4545 203.19C82.5774 196.796 73.429 182.192 57.0174 179.916C60.3751 176.374 70.4772 176.721 70.4772 176.721C70.4772 176.721 85.5224 176.701 86.8454 160.249C99.2375 164.289 118.04 154.017 113.748 141.709C109.463 129.411 94.2984 128.999 88.2308 120.101C88.2308 120.101 88.0558 120.404 86.181 116.52C93.1932 119.994 101.04 120.379 107.067 110.238C113.093 100.096 108.989 86.7681 99.7471 86.3758C106.958 80.1678 100.166 61.6218 99.5828 60.089L98.8445 58.9311C98.8445 58.9311 113.306 74.0642 121.823 69.1572C118.655 78.3658 128.725 87.4486 139.881 85.3969C151.029 83.3521 153.687 75.5175 153.306 67.3339C155.987 70.6502 155.652 70.7107 155.652 70.7107C161.128 80.0176 155.714 95.0361 164.829 103.916C173.944 112.796 190.075 98.2761 191.241 84.6128C206.133 89.574 211.862 74.8423 211.862 74.8423C211.862 74.8423 215.409 64.8188 219.768 62.8754C215.52 79.8039 224.796 94.3285 230.806 95.6561Z" fill="#E7D63C"/>
<path d="M226.227 178.253C234.231 176.753 239.673 171.424 243.365 165.213C242.482 161.613 240.354 160.348 241.789 157.669C243.322 154.804 248.174 153.2 247.742 150.909C247.309 148.619 247.04 147.982 247.27 145.937C247.371 145.04 247.202 143.694 246.895 142.537C242.444 144.434 235.124 145.414 228.868 136.317C228.1 138.89 224.218 138.751 222.57 142.597C220.9 146.473 217.047 144.74 217.969 142.168C218.891 139.596 217.823 138.382 216.263 139.927C214.703 141.471 215.586 141.798 214.909 140.208C214.232 138.619 214.476 137.918 213.26 136.122C212.044 134.326 209.787 135.594 208.067 137.589C206.337 139.591 209.558 143.22 211.623 145.859C213.688 148.497 211.076 150.172 209.927 152.653C208.784 155.144 207.145 154.785 205.277 158.319C203.408 161.852 201.265 159.977 195.566 160.448C189.866 160.92 190.59 170.783 191.373 175.597C192.147 180.418 186.227 180.807 184.946 182.982C183.664 185.158 187.489 199.646 187.619 205.55C187.75 211.453 186.982 217.805 187.261 221.897C187.545 225.999 192.846 233.611 188.833 232.876C184.821 232.141 181.216 223.316 181.216 223.316C181.216 223.316 167.476 222.041 168.965 226.809C169.768 229.387 174.206 239.556 178.177 248.369C179.293 240.404 180.841 234.772 188.59 244.552C197.3 218.312 194.69 210.236 194.69 210.236L194.011 209.167C194.011 209.167 196.632 211.596 205.894 213.677C206.98 211.374 208.585 209.478 209.653 209.077C210.108 210.499 209.864 213.55 210.826 214.626C211.338 214.708 211.866 214.793 212.404 214.871C213.218 214.57 214.34 213.769 215.856 212.242C220.098 210.889 220.929 213.027 220.814 215.853C222.538 216.004 224.356 216.129 226.296 216.249C219.724 202.959 228.477 206.139 237.588 208.578C246.693 211.008 253.959 207.429 264.336 201.229C247.137 200.727 233.004 187.844 226.227 178.253Z" fill="#D9B402"/>
<path d="M149.883 172.387C146.259 164.53 149.074 167.607 135.629 157.496C122.184 147.386 130.9 147.421 123.281 136.769C116.877 127.804 113.695 135.397 113.081 139.206C113.458 139.924 113.802 140.697 114.08 141.517C114.309 142.157 114.449 142.791 114.549 143.426C116.582 145.867 120.558 149.371 126.523 153.397C135.183 159.244 131.479 162.595 124.386 168.804C117.293 175.012 117.768 161.242 114.788 154.064C114.252 152.77 113.706 151.67 113.127 150.711C111.543 153.475 108.877 155.869 105.688 157.639C105.965 158.099 106.399 158.587 107.083 159.179C110.883 162.438 112.403 164.146 105.891 165.253C100.479 166.168 101.642 162.979 99.1295 160.213C95.0741 161.221 90.8178 161.294 87.1269 160.095C86.897 162.969 86.2451 165.332 85.3235 167.287C86.6436 168.377 88.9126 169.849 92.6862 172.563C102.349 179.503 100.717 177.227 99.6727 177.943C98.628 178.659 83.3777 177.549 71.5659 177.826C65.045 177.971 66.0557 180.91 68.9623 183.977C71.6489 185.616 73.9463 187.573 75.8266 189.636C76.1664 189.876 76.4934 190.096 76.7696 190.282C80.8743 193.054 93.6816 197.926 96.5715 198.503C99.4455 199.078 101.043 201.177 105.864 199.515C110.678 197.843 111.468 193.773 114.047 194.827C116.625 195.881 121.245 195.221 127.324 195.966C133.41 196.722 126.872 201.768 125.628 201.446C124.384 201.124 117.866 202.221 111.492 204.947C110.253 205.475 109.272 205.825 108.46 206.051C109.394 206.704 110.316 207.424 111.223 208.226C118.504 205.754 118.882 208.496 121.686 211.639C123.411 213.572 121.611 216.495 118.574 217.863C120.504 221.856 120.827 225.333 120.289 228.247C123.698 229.525 127.544 230.58 131.761 230.869C144.176 231.693 146.217 229.978 151.144 230.855C152.2 231.041 153.107 231.338 153.858 231.693C154.387 230.998 154.896 230.273 155.361 229.481C158.644 235.306 161.962 243.837 163.11 253.239C164.312 249.833 165.245 246.611 165.667 244.49C166.859 238.416 166.097 238.591 167.145 229.731C168.184 220.878 165.216 223.887 158.096 214.368C150.977 204.849 161.488 198.668 166.567 182.152C171.619 165.655 153.506 180.244 149.883 172.387Z" fill="#D4C006"/>
<path d="M114.752 237.762C113.694 238.661 112.915 239.122 112.915 239.122C112.915 239.122 113.725 239.402 115.127 239.777C115.059 239.15 114.934 238.478 114.752 237.762Z" fill="#D4C006"/>
<path d="M168.433 167.051C168.433 167.051 171.37 174.24 174.629 174.841C177.888 175.443 173.577 169.243 173.344 165.91C173.11 162.577 173.743 157.405 173.64 152.59C173.528 147.782 170.413 135.979 171.462 134.207C172.502 132.441 177.333 132.123 176.693 128.197C176.059 124.28 175.467 116.249 180.115 115.865C184.757 115.472 186.497 117.01 188.024 114.134C189.551 111.257 190.879 111.543 191.818 109.52C192.757 107.498 194.875 106.145 193.196 103.984C191.516 101.823 188.897 98.872 190.302 97.2394C191.708 95.6068 193.542 94.5801 194.541 96.0477C195.533 97.5057 195.328 98.0764 195.885 99.3805C196.436 100.675 195.723 100.395 196.986 99.1562C198.259 97.9106 199.132 98.8943 198.376 100.984C197.62 103.073 200.758 104.5 202.124 101.338C203.49 98.1768 206.699 98.3251 207.282 96.1622C207.855 94.0063 205.974 94.1441 208.664 92.3537C211.345 90.5703 211.66 90.2499 212.211 88.7312C212.761 87.2125 212.649 82.4045 214.978 85.0222C217.307 87.6399 217.337 89.8254 215.952 92.539C214.568 95.2527 213.83 98.4397 214.853 100.134C215.877 101.828 219.719 100.267 220.597 99.5161C221.481 98.7746 222.427 102.388 222.242 104.039C222.048 105.698 222.281 106.218 222.627 108.083C222.972 109.948 219.03 111.252 217.775 113.596C216.52 115.939 218.614 116.942 219.21 120.424C219.8 123.897 219.567 126.84 219.19 128.432C218.823 130.018 216.327 132.962 220.836 132.956C225.345 132.949 225.489 130.837 226.757 134.139C228.026 137.441 236.862 149.264 249.86 141.036C249.28 150.612 229.75 165.612 229.75 165.612C229.75 165.612 225.56 166.017 223.069 164.414C220.578 162.81 216.766 164.437 216.766 164.437C216.766 164.437 215.942 168.019 211.217 166.209C207.042 166.719 206.983 168.162 206.267 168.865C205.552 169.568 200.829 169.546 200.087 167.311C199.344 165.076 203.596 155.824 196.657 158.035C191.131 163.556 192.254 157.487 191.599 155.448C189.816 156.133 186.229 161.835 188.103 165.15C189.977 168.465 189.526 170.574 188.721 170.261C187.908 169.955 187.161 171.619 187.928 172.883C188.702 174.157 189.732 174.707 186.83 176.365C183.928 178.024 180.628 182.921 179.951 187.376C174.813 188.007 171.403 186.378 173.826 192.014C176.249 197.649 171.768 199.02 171.358 198.862C170.948 198.704 159.682 173.764 158.465 169.889C157.249 166.015 168.433 167.051 168.433 167.051Z" fill="#F1AD05"/>
<path d="M233.061 271.508L176.849 181.049L148.779 135.8C139.419 120.719 130.078 105.624 120.953 90.3697C130.895 105.036 140.619 119.861 150.325 134.701L179.451 179.214L237.621 268.285L233.061 271.508Z" fill="#BA4220"/>
<path d="M151.659 139.474C151.824 138.859 151.904 137.946 151.969 137.16C152.024 136.338 152.048 135.509 152.056 134.679C152.057 133.014 152.025 131.344 151.937 129.673C151.761 126.33 151.453 122.998 151.145 119.666L150 109.674C149.645 106.334 149.239 103.002 148.981 99.6191C149.808 102.871 150.522 106.163 151.119 109.468C151.723 112.784 152.17 116.114 152.563 119.47C152.941 122.822 153.293 126.179 153.394 129.578C153.454 131.27 153.495 132.976 153.414 134.686C153.378 135.538 153.323 136.403 153.23 137.253C153.106 138.141 153.041 138.928 152.695 139.922L151.659 139.474Z" fill="#BA4220"/>
<path d="M157.525 148.576C153.885 146.999 150.294 145.327 146.758 143.528C143.21 141.752 139.726 139.842 136.304 137.813C132.879 135.802 129.499 133.669 126.299 131.259C124.67 130.105 123.142 128.788 121.643 127.451C120.918 126.756 120.184 126.069 119.481 125.344L117.518 123.031C120.318 125.912 123.561 128.218 126.812 130.474C130.086 132.699 133.452 134.769 136.889 136.714C140.326 138.659 143.809 140.527 147.332 142.307C150.858 144.07 154.39 145.843 157.98 147.471L157.525 148.576Z" fill="#BA4220"/>
<path d="M168.195 165.626C168.523 162.52 168.743 159.378 168.96 156.252C169.178 153.126 169.3 149.984 169.389 146.852C169.486 143.714 169.452 140.586 169.269 137.467C169.052 134.359 168.785 131.26 168.063 128.208C169.443 131.033 169.885 134.249 170.131 137.379C170.389 140.529 170.499 143.686 170.471 146.846C170.425 153.157 170.013 159.464 169.311 165.754L168.195 165.626Z" fill="#BA4220"/>
<path d="M194.905 155.45C193.512 152.186 192.233 148.881 191.026 145.538C190.432 143.859 189.854 142.183 189.294 140.494C188.725 138.811 188.219 137.096 188.034 135.274C188.908 136.847 189.533 138.489 190.146 140.153C190.768 141.811 191.41 143.455 192.066 145.102L195.945 154.971L194.905 155.45Z" fill="#BA4220"/>
<path d="M188.397 197.888C188.207 193.212 188.452 188.604 188.893 183.98C189.351 179.358 190.038 174.769 191.008 170.229C191.947 165.684 193.244 161.219 194.677 156.812L195.83 153.535C196.208 152.448 196.68 151.377 197.096 150.304C197.946 148.146 198.86 146.041 199.752 143.924C203.328 135.449 206.778 126.909 210.128 118.343L215.106 105.456C216.709 101.139 218.524 96.9102 220.052 92.5627C219.573 94.8209 218.852 97.0278 218.15 99.2209C217.447 101.414 216.704 103.608 215.916 105.778C214.388 110.126 212.738 114.434 211.08 118.733C207.766 127.331 204.354 135.887 200.812 144.393C199.927 146.52 199.01 148.641 198.181 150.769C197.775 151.835 197.315 152.882 196.937 153.97L195.805 157.216C194.397 161.576 193.14 165.996 192.232 170.505C190.385 179.472 189.262 188.696 189.507 197.801L188.397 197.888Z" fill="#BA4220"/>
<path d="M173.349 173.57C173.378 173.635 173.445 173.716 173.511 173.753C173.549 173.768 173.587 173.784 173.619 173.789L173.594 173.793L173.499 173.777C173.436 173.766 173.348 173.759 173.276 173.754L172.795 173.721L171.798 173.665L169.796 173.561L165.782 173.316C163.113 173.128 160.439 172.871 157.784 172.514C155.128 172.158 152.486 171.675 149.899 170.98C148.606 170.624 147.329 170.228 146.081 169.708C144.84 169.199 143.633 168.592 142.582 167.739C144.73 169.41 147.372 170.167 149.949 170.74C152.551 171.31 155.197 171.631 157.851 171.902C160.499 172.163 163.159 172.314 165.836 172.41L169.842 172.516L171.85 172.545L172.861 172.56L173.377 172.583L173.65 172.597L173.801 172.615L173.842 172.613C173.896 172.631 173.959 172.642 174.012 172.66C174.126 172.706 174.231 172.802 174.298 172.882L173.349 173.57Z" fill="#BA4220"/>
<path d="M188.272 196.585C185.145 194.759 181.635 193.405 178.158 192.227C174.654 191.071 171.08 190.125 167.473 189.318C160.251 187.755 152.898 186.793 145.508 186.278C138.101 185.761 130.667 185.307 123.265 184.585C119.567 184.25 115.859 183.879 112.175 183.419C108.485 182.991 104.804 182.471 101.14 181.851C108.536 182.564 115.949 183.048 123.358 183.592C130.768 184.092 138.18 184.577 145.604 184.995C153.05 185.425 160.468 186.381 167.766 187.975C171.411 188.796 175.026 189.741 178.566 190.973C182.103 192.221 185.579 193.586 188.88 195.571L188.272 196.585Z" fill="#BA4220"/>
<path d="M133.457 214.984C135.854 211.592 138.871 208.845 141.966 206.256C145.063 203.65 148.274 201.175 151.604 198.899C154.956 196.636 158.464 194.629 162.155 193.003C163.996 192.172 165.908 191.532 167.859 191.035C169.81 190.538 171.811 190.219 173.834 190.228L173.844 191.41C170.028 191.638 166.3 192.876 162.74 194.491C159.167 196.087 155.778 198.148 152.472 200.335C149.164 202.538 145.967 204.931 142.881 207.471C139.777 210.024 136.786 212.665 133.457 214.984Z" fill="#BA4220"/>
<path d="M189.061 195.861C192.683 195.123 196.317 194.55 199.965 194.124C203.613 193.656 207.279 193.362 210.956 193.232C214.63 193.076 218.321 193.051 221.976 193.413C223.816 193.55 225.627 193.894 227.432 194.272C228.332 194.499 229.223 194.733 230.098 195.007C230.962 195.347 231.817 195.694 232.652 196.055C229.111 195.089 225.486 194.878 221.874 194.729C218.25 194.603 214.625 194.622 210.989 194.836C207.354 195.05 203.729 195.343 200.089 195.719C196.463 196.114 192.83 196.542 189.217 197.042L189.061 195.861Z" fill="#BA4220"/>
<path d="M126.099 169.667C130.275 172.095 134.429 174.553 138.562 177.085C140.619 178.358 142.655 179.661 144.684 180.998C145.699 181.666 146.695 182.349 147.704 183.05C148.201 183.421 148.694 183.766 149.188 184.153L149.915 184.745C150.164 184.952 150.404 185.252 150.644 185.509L149.707 186.203C149.528 186.017 149.39 185.83 149.179 185.638L148.516 185.057C148.069 184.678 147.579 184.317 147.107 183.941C146.142 183.222 145.168 182.509 144.175 181.81C142.204 180.415 140.203 179.058 138.192 177.707C134.192 174.975 130.158 172.298 126.099 169.667Z" fill="#BA4220"/>
<path d="M165.783 244.943C167.745 240.74 170.5 237.232 172.947 233.448C175.42 229.702 177.794 225.871 180.011 221.969C182.244 218.07 184.353 214.09 186.063 209.945C186.907 207.867 187.688 205.777 188.229 203.62C188.768 201.479 189.103 199.26 188.853 197.142L189.968 196.92C190.384 199.289 190.084 201.685 189.587 203.953C189.081 206.227 188.383 208.443 187.515 210.568C185.801 214.831 183.721 218.919 181.48 222.868C179.2 226.801 176.77 230.631 174.231 234.382C171.68 238.114 169.252 241.97 165.783 244.943Z" fill="#BA4220"/>
</g>
<defs>
<filter id="filter0_dddddd" x="0.265408" y="46.2109" width="320.823" height="330.272" filterUnits="userSpaceOnUse" color-interpolation-filters="sRGB">
<feFlood flood-opacity="0" result="BackgroundImageFix"/>
<feColorMatrix in="SourceAlpha" type="matrix" values="0 0 0 0 0 0 0 0 0 0 0 0 0 0 0 0 0 0 127 0" result="hardAlpha"/>
<feOffset dy="0.815403"/>
<feGaussianBlur stdDeviation="1.11665"/>
<feColorMatrix type="matrix" values="0 0 0 0 0 0 0 0 0 0 0 0 0 0 0 0 0 0 0.122778 0"/>
<feBlend mode="normal" in2="BackgroundImageFix" result="effect1_dropShadow"/>
<feColorMatrix in="SourceAlpha" type="matrix" values="0 0 0 0 0 0 0 0 0 0 0 0 0 0 0 0 0 0 127 0" result="hardAlpha"/>
<feOffset dy="3.58777"/>
<feGaussianBlur stdDeviation="2.31212"/>
<feColorMatrix type="matrix" values="0 0 0 0 0 0 0 0 0 0 0 0 0 0 0 0 0 0 0.200222 0"/>
<feBlend mode="normal" in2="effect1_dropShadow" result="effect2_dropShadow"/>
<feColorMatrix in="SourceAlpha" type="matrix" values="0 0 0 0 0 0 0 0 0 0 0 0 0 0 0 0 0 0 127 0" result="hardAlpha"/>
<feOffset dy="8.80635"/>
<feGaussianBlur stdDeviation="4.6111"/>
<feColorMatrix type="matrix" values="0 0 0 0 0 0 0 0 0 0 0 0 0 0 0 0 0 0 0.255 0"/>
<feBlend mode="normal" in2="effect2_dropShadow" result="effect3_dropShadow"/>
<feColorMatrix in="SourceAlpha" type="matrix" values="0 0 0 0 0 0 0 0 0 0 0 0 0 0 0 0 0 0 127 0" result="hardAlpha"/>
<feOffset dy="16.9604"/>
<feGaussianBlur stdDeviation="9.03829"/>
<feColorMatrix type="matrix" values="0 0 0 0 0 0 0 0 0 0 0 0 0 0 0 0 0 0 0.309778 0"/>
<feBlend mode="normal" in2="effect3_dropShadow" result="effect4_dropShadow"/>
<feColorMatrix in="SourceAlpha" type="matrix" values="0 0 0 0 0 0 0 0 0 0 0 0 0 0 0 0 0 0 127 0" result="hardAlpha"/>
<feOffset dy="28.5391"/>
<feGaussianBlur stdDeviation="16.6184"/>
<feColorMatrix type="matrix" values="0 0 0 0 0 0 0 0 0 0 0 0 0 0 0 0 0 0 0.387222 0"/>
<feBlend mode="normal" in2="effect4_dropShadow" result="effect5_dropShadow"/>
<feColorMatrix in="SourceAlpha" type="matrix" values="0 0 0 0 0 0 0 0 0 0 0 0 0 0 0 0 0 0 127 0" result="hardAlpha"/>
<feOffset dy="44.0318"/>
<feGaussianBlur stdDeviation="28.376"/>
<feColorMatrix type="matrix" values="0 0 0 0 0 0 0 0 0 0 0 0 0 0 0 0 0 0 0.51 0"/>
<feBlend mode="normal" in2="effect5_dropShadow" result="effect6_dropShadow"/>
<feBlend mode="normal" in="SourceGraphic" in2="effect6_dropShadow" result="shape"/>
</filter>
</defs>
</svg>
