<svg width="526" height="575" viewBox="0 0 526 575" fill="none" xmlns="http://www.w3.org/2000/svg">
<g filter="url(#filter0_dddddd)">
<path d="M151.042 166.865C157.723 172.293 175.03 201.488 157.648 232.567C140.277 263.63 116.329 243.52 116.329 243.52C116.329 243.52 120.541 302.857 159.61 310.171C147.755 326.951 123.032 349.489 92.956 350.349C111.109 361.196 123.82 367.458 139.747 363.207C155.684 358.939 170.998 353.376 159.5 376.627C205.385 374.079 215.993 364.248 215.993 364.248L214.805 366.118C214.805 366.118 210.24 380.248 225.477 426.153C241.398 406.052 242.363 423.168 244.692 440.386C247.038 457.616 257.338 467.668 273.73 481.323C263.027 451.545 273.32 418.772 283.474 400.783C304.717 436.25 358.132 417.806 358.132 417.806C358.132 417.806 331.47 402.018 351.998 373.194C372.538 344.352 404.613 350.196 411.895 354.681C409.933 343.514 425.912 318.005 454.576 314.03C448.711 307.844 431.067 308.451 431.067 308.451C431.067 308.451 404.79 308.416 402.479 279.681C380.835 286.736 347.996 268.796 355.492 247.299C362.976 225.819 389.462 225.1 400.059 209.56C400.059 209.56 400.365 210.089 403.639 203.304C391.392 209.372 377.687 210.045 367.161 192.332C356.635 174.619 363.804 151.341 379.945 150.656C367.351 139.813 379.214 107.421 380.232 104.744L381.522 102.722C381.522 102.722 356.263 129.153 341.388 120.582C346.921 136.666 329.333 152.53 309.848 148.946C290.378 145.375 285.735 131.691 286.4 117.398C281.718 123.19 282.304 123.296 282.304 123.296C272.739 139.551 282.195 165.782 266.275 181.291C250.355 196.8 222.182 171.441 220.145 147.577C194.134 156.242 184.128 130.512 184.128 130.512C184.128 130.512 177.934 113.005 170.32 109.611C177.739 139.178 161.537 164.546 151.042 166.865Z" fill="#E7D63C"/>
<path d="M159.896 310.164C145.917 307.544 136.412 298.236 129.963 287.389C131.505 281.1 135.222 278.89 132.716 274.213C130.039 269.207 121.563 266.406 122.319 262.406C123.074 258.406 123.544 257.293 123.143 253.721C122.967 252.155 123.262 249.804 123.799 247.783C131.572 251.097 144.357 252.808 155.283 236.919C156.625 241.414 163.405 241.171 166.283 247.888C169.2 254.657 175.93 251.631 174.32 247.139C172.71 242.646 174.574 240.525 177.298 243.224C180.023 245.922 178.481 246.493 179.664 243.716C180.846 240.939 180.419 239.716 182.544 236.579C184.668 233.442 188.61 235.656 191.614 239.141C194.635 242.637 189.01 248.976 185.403 253.585C181.796 258.193 186.359 261.119 188.365 265.452C190.361 269.801 193.224 269.176 196.487 275.347C199.751 281.517 203.494 278.244 213.448 279.067C223.402 279.89 222.139 297.117 220.771 305.524C219.419 313.944 229.758 314.625 231.997 318.424C234.235 322.223 227.554 347.528 227.327 357.839C227.1 368.15 228.44 379.244 227.954 386.391C227.457 393.555 218.199 406.851 225.207 405.567C232.215 404.284 238.51 388.869 238.51 388.869C238.51 388.869 262.509 386.643 259.909 394.97C258.506 399.472 250.754 417.234 243.818 432.627C241.87 418.715 239.165 408.877 225.632 425.959C210.419 380.13 214.977 366.023 214.977 366.023L216.164 364.157C216.164 364.157 211.586 368.399 195.408 372.035C193.512 368.011 190.708 364.7 188.844 363.999C188.049 366.484 188.475 371.812 186.795 373.692C185.901 373.835 184.978 373.983 184.039 374.119C182.617 373.594 180.658 372.194 178.009 369.527C170.602 367.164 169.149 370.899 169.35 375.835C166.339 376.098 163.164 376.316 159.775 376.527C171.255 353.314 155.966 358.868 140.053 363.129C124.152 367.373 111.46 361.122 93.3358 350.292C123.376 349.416 148.06 326.915 159.896 310.164Z" fill="#D9B402"/>
<path d="M292.381 300.881C298.711 287.159 293.793 292.532 317.276 274.873C340.76 257.214 325.536 257.276 338.842 238.671C350.027 223.014 355.586 236.274 356.659 242.928C355.999 244.182 355.399 245.531 354.913 246.964C354.514 248.083 354.269 249.189 354.095 250.298C350.544 254.562 343.6 260.682 333.181 267.713C318.055 277.925 324.524 283.778 336.913 294.622C349.301 305.466 348.473 281.415 353.676 268.879C354.612 266.617 355.566 264.697 356.577 263.022C359.345 267.85 364 272.031 369.57 275.122C369.087 275.926 368.329 276.778 367.134 277.812C360.497 283.504 357.842 286.487 369.215 288.421C378.669 290.02 376.637 284.448 381.025 279.617C388.108 281.379 395.542 281.506 401.989 279.412C402.39 284.432 403.529 288.559 405.138 291.974C402.833 293.877 398.87 296.447 392.279 301.187C375.402 313.31 378.252 309.334 380.076 310.585C381.901 311.835 408.537 309.897 429.167 310.38C440.556 310.634 438.791 315.766 433.714 321.123C429.022 323.986 425.01 327.403 421.726 331.007C421.132 331.426 420.561 331.811 420.079 332.135C412.909 336.977 390.54 345.486 385.493 346.495C380.473 347.499 377.683 351.165 369.263 348.262C360.854 345.341 359.474 338.232 354.971 340.074C350.468 341.915 342.399 340.762 331.781 342.064C321.151 343.383 332.572 352.196 334.744 351.634C336.917 351.071 348.301 352.988 359.434 357.75C361.598 358.671 363.31 359.283 364.728 359.677C363.098 360.818 361.487 362.075 359.903 363.477C347.187 359.159 346.525 363.947 341.628 369.437C338.617 372.813 341.759 377.919 347.065 380.308C343.692 387.281 343.129 393.355 344.069 398.445C338.115 400.677 331.397 402.519 324.032 403.023C302.349 404.463 298.783 401.468 290.178 402.999C288.333 403.324 286.749 403.843 285.438 404.463C284.515 403.249 283.624 401.983 282.813 400.599C277.079 410.773 271.285 425.674 269.278 442.094C267.18 436.145 265.55 430.518 264.812 426.815C262.73 416.206 264.062 416.51 262.231 401.036C260.416 385.574 265.601 390.829 278.036 374.204C290.47 357.578 272.112 346.783 263.24 317.935C254.417 289.124 286.052 314.604 292.381 300.881Z" fill="#D4C006"/>
<path d="M353.738 415.063C355.587 416.634 356.946 417.439 356.946 417.439C356.946 417.439 355.531 417.928 353.084 418.583C353.202 417.487 353.42 416.313 353.738 415.063Z" fill="#D4C006"/>
<path d="M259.98 291.562C259.98 291.562 254.85 304.117 249.158 305.168C243.467 306.218 250.995 295.39 251.403 289.568C251.811 283.747 250.705 274.713 250.885 266.304C251.081 257.906 256.522 237.292 254.69 234.196C252.874 231.112 244.436 230.558 245.554 223.7C246.661 216.859 247.694 202.832 239.576 202.162C231.469 201.474 228.43 204.162 225.763 199.138C223.096 194.113 220.777 194.613 219.137 191.08C217.497 187.547 213.797 185.184 216.73 181.41C219.664 177.636 224.239 172.482 221.784 169.63C219.329 166.779 216.125 164.985 214.381 167.549C212.647 170.095 213.007 171.092 212.033 173.37C211.071 175.631 212.316 175.142 210.109 172.978C207.886 170.802 206.362 172.52 207.682 176.17C209.003 179.819 203.522 182.311 201.136 176.789C198.75 171.267 193.146 171.526 192.128 167.749C191.127 163.983 194.412 164.224 189.714 161.097C185.032 157.982 184.481 157.422 183.519 154.77C182.558 152.117 182.753 143.72 178.685 148.292C174.617 152.864 174.566 156.681 176.984 161.421C179.403 166.16 180.692 171.727 178.903 174.686C177.115 177.645 170.406 174.919 168.873 173.607C167.328 172.312 165.676 178.622 165.998 181.507C166.337 184.404 165.93 185.312 165.327 188.57C164.724 191.827 171.609 194.105 173.801 198.197C175.992 202.29 172.335 204.042 171.294 210.124C170.264 216.19 170.671 221.33 171.329 224.111C171.971 226.88 176.33 232.023 168.455 232.011C160.58 232 160.328 228.311 158.113 234.078C155.897 239.846 140.465 260.494 117.763 246.124C118.775 262.85 152.886 289.047 152.886 289.047C152.886 289.047 160.203 289.755 164.554 286.955C168.905 284.155 175.563 286.995 175.563 286.995C175.563 286.995 177.002 293.252 185.254 290.09C192.548 290.982 192.65 293.502 193.9 294.73C195.149 295.958 203.397 295.918 204.694 292.015C205.991 288.113 198.565 271.953 210.684 275.814C220.336 285.457 218.375 274.858 219.519 271.295C222.632 272.492 228.899 282.451 225.625 288.241C222.352 294.031 223.14 297.715 224.545 297.168C225.966 296.633 227.27 299.539 225.93 301.747C224.579 303.972 222.78 304.932 227.848 307.829C232.916 310.727 238.681 319.28 239.863 327.061C248.836 328.163 254.793 325.318 250.561 335.16C246.328 345.003 254.155 347.398 254.871 347.122C255.587 346.846 275.265 303.286 277.389 296.519C279.514 289.752 259.98 291.562 259.98 291.562Z" fill="#F1AD05"/>
<path d="M147.102 474.002L245.282 316.009L294.308 236.978C310.656 210.639 326.971 184.275 342.907 157.632C325.544 183.247 308.559 209.141 291.608 235.06L240.737 312.805L139.138 468.374L147.102 474.002Z" fill="#BA4220"/>
<path d="M289.277 243.395C288.989 242.322 288.85 240.728 288.736 239.354C288.639 237.918 288.597 236.471 288.583 235.02C288.583 232.113 288.637 229.196 288.791 226.277C289.098 220.438 289.637 214.619 290.175 208.8L292.174 191.349C292.795 185.515 293.503 179.695 293.955 173.786C292.511 179.466 291.264 185.215 290.22 190.989C289.165 196.779 288.385 202.596 287.698 208.457C287.039 214.312 286.423 220.175 286.246 226.111C286.142 229.066 286.07 232.046 286.212 235.033C286.275 236.521 286.371 238.032 286.533 239.517C286.749 241.068 286.864 242.441 287.468 244.178L289.277 243.395Z" fill="#BA4220"/>
<path d="M279.032 259.293C285.39 256.538 291.661 253.619 297.837 250.476C304.034 247.375 310.119 244.038 316.096 240.495C322.078 236.982 327.98 233.257 333.57 229.048C336.415 227.032 339.083 224.732 341.702 222.396C342.968 221.183 344.25 219.982 345.478 218.716L348.907 214.677C344.017 219.708 338.353 223.736 332.674 227.676C326.956 231.563 321.077 235.178 315.075 238.575C309.072 241.973 302.988 245.234 296.835 248.343C290.677 251.422 284.507 254.519 278.237 257.364L279.032 259.293Z" fill="#BA4220"/>
<path d="M260.396 289.073C259.823 283.648 259.439 278.159 259.059 272.7C258.68 267.24 258.465 261.752 258.311 256.282C258.141 250.801 258.201 245.339 258.52 239.891C258.898 234.463 259.365 229.049 260.627 223.72C258.216 228.653 257.444 234.27 257.015 239.737C256.564 245.238 256.372 250.753 256.42 256.271C256.502 267.294 257.221 278.31 258.447 289.297L260.396 289.073Z" fill="#BA4220"/>
<path d="M213.745 271.299C216.177 265.598 218.412 259.826 220.52 253.987C221.557 251.055 222.567 248.128 223.545 245.176C224.538 242.237 225.422 239.242 225.746 236.061C224.219 238.808 223.127 241.675 222.057 244.582C220.97 247.478 219.85 250.349 218.703 253.225L211.93 270.462L213.745 271.299Z" fill="#BA4220"/>
<path d="M225.112 345.419C225.443 337.253 225.016 329.205 224.245 321.129C223.446 313.057 222.246 305.041 220.552 297.111C218.912 289.173 216.646 281.374 214.144 273.677L212.13 267.955C211.47 266.055 210.645 264.185 209.919 262.312C208.433 258.542 206.837 254.866 205.279 251.168C199.033 236.366 193.007 221.451 187.158 206.489L178.463 183.98C175.663 176.44 172.493 169.055 169.824 161.462C170.66 165.406 171.92 169.26 173.147 173.091C174.374 176.921 175.672 180.754 177.048 184.543C179.716 192.136 182.599 199.662 185.494 207.17C191.282 222.188 197.242 237.13 203.427 251.988C204.974 255.702 206.575 259.407 208.023 263.124C208.733 264.984 209.537 266.814 210.197 268.713L212.173 274.383C214.633 281.998 216.828 289.719 218.413 297.593C221.64 313.255 223.6 329.365 223.174 345.268L225.112 345.419Z" fill="#BA4220"/>
<path d="M251.394 302.948C251.343 303.061 251.226 303.202 251.11 303.267C251.044 303.294 250.978 303.32 250.923 303.33L250.967 303.337L251.132 303.308C251.242 303.289 251.395 303.276 251.522 303.269L252.362 303.211L254.102 303.114L257.599 302.931L264.61 302.503C269.272 302.175 273.941 301.726 278.58 301.103C283.218 300.481 287.832 299.638 292.352 298.423C294.609 297.801 296.84 297.109 299.019 296.202C301.186 295.312 303.296 294.253 305.131 292.763C301.379 295.682 296.764 297.003 292.264 298.005C287.719 299 283.098 299.56 278.462 300.033C273.837 300.489 269.192 300.754 264.516 300.92L257.519 301.107L254.012 301.156L252.246 301.183L251.345 301.222L250.868 301.247L250.604 301.278L250.533 301.276C250.439 301.307 250.329 301.327 250.235 301.358C250.037 301.438 249.854 301.605 249.737 301.745L251.394 302.948Z" fill="#BA4220"/>
<path d="M225.331 343.144C230.792 339.955 236.923 337.589 242.995 335.533C249.115 333.513 255.358 331.861 261.657 330.452C274.271 327.721 287.113 326.042 300.021 325.143C312.957 324.239 325.941 323.447 338.87 322.185C345.329 321.6 351.805 320.953 358.239 320.148C364.683 319.402 371.113 318.493 377.512 317.41C364.594 318.655 351.648 319.501 338.706 320.45C325.765 321.325 312.819 322.171 299.853 322.901C286.848 323.652 273.891 325.322 261.144 328.106C254.779 329.541 248.466 331.191 242.283 333.342C236.105 335.521 230.034 337.906 224.268 341.373L225.331 343.144Z" fill="#BA4220"/>
<path d="M321.068 375.279C316.882 369.356 311.612 364.558 306.207 360.035C300.798 355.485 295.189 351.162 289.373 347.187C283.519 343.233 277.392 339.728 270.945 336.888C267.73 335.437 264.391 334.319 260.983 333.451C257.575 332.583 254.081 332.026 250.547 332.041L250.53 334.106C257.195 334.504 263.705 336.665 269.923 339.487C276.164 342.274 282.082 345.875 287.856 349.694C293.635 353.542 299.219 357.721 304.608 362.157C310.03 366.617 315.254 371.23 321.068 375.279Z" fill="#BA4220"/>
<path d="M223.953 341.879C217.626 340.591 211.279 339.59 204.907 338.847C198.536 338.029 192.134 337.515 185.711 337.288C179.295 337.016 172.848 336.973 166.463 337.605C163.25 337.843 160.087 338.445 156.934 339.104C155.362 339.501 153.807 339.909 152.277 340.387C150.769 340.982 149.276 341.588 147.816 342.218C154.001 340.532 160.333 340.162 166.641 339.902C172.971 339.682 179.303 339.716 185.653 340.09C192.002 340.463 198.333 340.975 204.69 341.631C211.025 342.321 217.369 343.069 223.679 343.942L223.953 341.879Z" fill="#BA4220"/>
<path d="M333.919 296.13C326.626 300.37 319.371 304.664 312.152 309.086C308.559 311.309 305.004 313.586 301.459 315.92C299.687 317.088 297.947 318.279 296.185 319.505C295.317 320.153 294.455 320.754 293.593 321.431L292.323 322.465C291.889 322.827 291.469 323.351 291.05 323.8L292.686 325.011C292.999 324.686 293.24 324.359 293.608 324.024L294.767 323.01C295.547 322.347 296.404 321.716 297.227 321.061C298.913 319.804 300.615 318.559 302.349 317.339C305.791 314.902 309.287 312.531 312.799 310.172C319.785 305.401 326.831 300.724 333.919 296.13Z" fill="#BA4220"/>
<path d="M264.609 427.604C261.182 420.264 256.371 414.137 252.096 407.527C247.777 400.985 243.63 394.294 239.758 387.479C235.858 380.67 232.174 373.718 229.188 366.479C227.715 362.849 226.351 359.199 225.404 355.431C224.463 351.692 223.879 347.816 224.316 344.117L222.367 343.73C221.64 347.867 222.166 352.052 223.033 356.013C223.917 359.985 225.135 363.854 226.652 367.567C229.646 375.013 233.278 382.153 237.193 389.049C241.174 395.919 245.42 402.608 249.854 409.159C254.31 415.677 258.549 422.412 264.609 427.604Z" fill="#BA4220"/>
</g>
<defs>
<filter id="filter0_dddddd" x="60.2115" y="102.176" width="427.109" height="452.004" filterUnits="userSpaceOnUse" color-interpolation-filters="sRGB">
<feFlood flood-opacity="0" result="BackgroundImageFix"/>
<feColorMatrix in="SourceAlpha" type="matrix" values="0 0 0 0 0 0 0 0 0 0 0 0 0 0 0 0 0 0 127 0" result="hardAlpha"/>
<feOffset dy="0.742814"/>
<feGaussianBlur stdDeviation="0.644278"/>
<feColorMatrix type="matrix" values="0 0 0 0 0 0 0 0 0 0 0 0 0 0 0 0 0 0 0.0938889 0"/>
<feBlend mode="normal" in2="BackgroundImageFix" result="effect1_dropShadow"/>
<feColorMatrix in="SourceAlpha" type="matrix" values="0 0 0 0 0 0 0 0 0 0 0 0 0 0 0 0 0 0 127 0" result="hardAlpha"/>
<feOffset dy="3.26838"/>
<feGaussianBlur stdDeviation="1.33403"/>
<feColorMatrix type="matrix" values="0 0 0 0 0 0 0 0 0 0 0 0 0 0 0 0 0 0 0.153111 0"/>
<feBlend mode="normal" in2="effect1_dropShadow" result="effect2_dropShadow"/>
<feColorMatrix in="SourceAlpha" type="matrix" values="0 0 0 0 0 0 0 0 0 0 0 0 0 0 0 0 0 0 127 0" result="hardAlpha"/>
<feOffset dy="8.02239"/>
<feGaussianBlur stdDeviation="2.66049"/>
<feColorMatrix type="matrix" values="0 0 0 0 0 0 0 0 0 0 0 0 0 0 0 0 0 0 0.195 0"/>
<feBlend mode="normal" in2="effect2_dropShadow" result="effect3_dropShadow"/>
<feColorMatrix in="SourceAlpha" type="matrix" values="0 0 0 0 0 0 0 0 0 0 0 0 0 0 0 0 0 0 127 0" result="hardAlpha"/>
<feOffset dy="15.4505"/>
<feGaussianBlur stdDeviation="5.21486"/>
<feColorMatrix type="matrix" values="0 0 0 0 0 0 0 0 0 0 0 0 0 0 0 0 0 0 0.236889 0"/>
<feBlend mode="normal" in2="effect3_dropShadow" result="effect4_dropShadow"/>
<feColorMatrix in="SourceAlpha" type="matrix" values="0 0 0 0 0 0 0 0 0 0 0 0 0 0 0 0 0 0 127 0" result="hardAlpha"/>
<feOffset dy="25.9985"/>
<feGaussianBlur stdDeviation="9.58837"/>
<feColorMatrix type="matrix" values="0 0 0 0 0 0 0 0 0 0 0 0 0 0 0 0 0 0 0.296111 0"/>
<feBlend mode="normal" in2="effect4_dropShadow" result="effect5_dropShadow"/>
<feColorMatrix in="SourceAlpha" type="matrix" values="0 0 0 0 0 0 0 0 0 0 0 0 0 0 0 0 0 0 127 0" result="hardAlpha"/>
<feOffset dy="40.112"/>
<feGaussianBlur stdDeviation="16.3722"/>
<feColorMatrix type="matrix" values="0 0 0 0 0 0 0 0 0 0 0 0 0 0 0 0 0 0 0.39 0"/>
<feBlend mode="normal" in2="effect5_dropShadow" result="effect6_dropShadow"/>
<feBlend mode="normal" in="SourceGraphic" in2="effect6_dropShadow" result="shape"/>
</filter>
</defs>
</svg>
