<svg width="210" height="209" viewBox="0 0 210 209" fill="none" xmlns="http://www.w3.org/2000/svg">
<path d="M87.5389 37.7716L87.5922 39.9947C81.2225 40.9176 74.2214 42.7755 71.6783 49.1781C69.648 54.0507 69.3897 61.7451 69.5537 67.5734C69.7341 71.9662 70.3125 79.6813 70.4807 83.8565L80.1644 83.7089C79.8609 72.803 78.5238 60.5557 82.8017 54.7234C85.3776 51.2206 90.2378 49.2151 97.8748 47.9557C97.8503 39.2235 97.9364 29.3101 97.9815 20.5739C97.9815 19.7085 97.8339 19.5567 97.4196 19.2409L87.5759 11.9894C87.3094 19.1876 87.3012 28.2356 87.5389 37.7716Z" fill="#B53A25"/>
<path d="M53.9201 179.525C52.1769 181.941 47.8499 184.611 45.5038 186.346C43.0415 188.142 40.3269 189.563 37.4482 190.563C34.7147 191.504 31.8917 192.162 29.0237 192.527C26.3355 192.868 23.6288 193.041 20.9191 193.044C19.6394 193.044 17.7937 193.044 16.2556 192.991C18.6345 196.682 27.9204 200.501 27.9204 200.501C28.4592 200.767 29.0541 200.901 29.6554 200.89C33.5601 200.89 36.2178 201.116 42.6409 199.848C50.2082 198.36 58.883 194.291 63.411 187.823L63.5998 187.556C59.7442 185.321 56.9592 182.573 53.9201 179.525Z" fill="#B53A25"/>
<path d="M70.3254 146.191L69.3861 123.14C89.7503 123.009 120.04 122.898 143.993 122.996C143.993 125.552 144.014 127.159 144.042 129.682C144.042 129.682 118.514 129.682 121.328 129.76C124.142 129.838 94.1019 129.674 80.3823 129.739C79.4965 129.92 79.6893 130.761 79.7056 131.257L80.251 156.321C80.2678 159.463 80.9574 162.566 82.2731 165.419C80.6817 164.742 79.1724 164.775 77.7615 163.544C77.7697 163.544 70.8995 158.167 70.3254 146.191Z" fill="#B53A25"/>
<path d="M97.896 175.521C97.5145 175.247 91.4157 170.846 88.647 167.729C88.848 176.875 89.2705 184.471 89.5616 193.568C83.602 193.712 69.2958 189.988 64.0049 189.011C74.1235 198.494 86.5183 202.977 99.7375 202.604C99.4874 194.717 99.1758 186.833 99.0321 178.942C99.0033 177.449 98.9214 176.182 97.896 175.521Z" fill="#B53A25"/>
<path d="M209.955 32.6815C209.906 28.8998 209.594 23.4613 209.66 19.774L199.311 11.7103C199.352 20.1923 200.185 33.3335 199.861 37.6896C199.861 37.6896 193.803 37.3122 189.197 40.0397C186.109 41.8771 181.896 48.0746 181.047 53.0539C180.567 55.8553 179.595 65.3256 179.69 69.3574C179.763 81.1577 180.473 95.6524 193.225 99.4998C192.916 99.0508 192.642 98.5792 192.404 98.0888C191.621 90.784 190.468 79.5211 190.534 72.1876C190.993 57.9223 193.147 48.255 209.705 48.132C210.185 43.0011 209.779 37.8823 209.955 32.6815Z" fill="#B53A25"/>
<path d="M209.811 105.787C209.286 106.074 199.947 100.209 199.512 100.156C199.709 102.038 199.41 104.516 197.966 105.898C197.827 106.09 197.65 106.251 197.446 106.371C197.242 106.492 197.016 106.57 196.781 106.599C188.815 108.088 180.641 115.032 180.744 123.617C180.793 127.936 180.596 131.988 180.625 136.483C180.666 142.262 180.42 153.017 182.913 157.947C184.73 161.544 189.476 164.316 191.588 164.661C191.633 164.661 190.706 147.549 191.092 133.723C191.404 122.472 197.384 118.428 208.815 113.81C210.538 111.685 209.901 108.162 209.811 105.787Z" fill="#B53A25"/>
<path d="M174.349 188.613C177.364 190.02 189.591 192.304 194.197 191.164C196.162 190.672 198.401 193.592 198.627 192.14C198.811 183.761 198.758 174.323 198.705 166.137C199.147 166.202 206.908 172.482 207.83 173.163C208.261 173.802 209.061 174.434 209.061 175.082C208.95 183.141 209.93 193.063 208.889 201.053C208.765 201.377 208.569 201.667 208.315 201.903C208.061 202.138 207.756 202.312 207.424 202.411C197.384 203.288 185.231 197.296 178.115 192.157C176.709 191.146 175.443 189.955 174.349 188.613Z" fill="#B53A25"/>
<path d="M167.753 184.196C166.314 183.023 164.443 180.242 162.663 178.31C153.833 187.567 138.255 194.38 125.298 193.215L134.527 200.352C147.443 202.476 165.026 198.006 173.491 187.74C171.486 186.715 169.567 185.53 167.753 184.196Z" fill="#B53A25"/>
<path d="M86.8961 11.1371C87.8682 11.1904 89.0494 11.5186 88.9961 13.0033C88.6926 21.4196 88.6844 30.1027 88.8812 38.4739C88.8871 38.7349 88.8006 38.9894 88.637 39.1927C88.4734 39.3962 88.2432 39.5352 87.9872 39.5854C68.1356 43.4286 70.7279 58.0176 70.7976 74.3255C70.7976 76.7002 70.8837 79.9569 71.0313 82.1553C71.0473 82.4008 71.1571 82.6308 71.3381 82.7973C71.5191 82.9638 71.7575 83.0541 72.0034 83.0495C77.9959 82.955 112.97 83.1356 131.263 83.0207C134.708 82.9468 137.944 82.9223 141.385 82.9101C142.772 82.9101 143.284 82.4178 143.26 81.0726C142.718 63.3006 146.475 46.353 125.918 39.282C125.63 39.1822 125.38 38.9943 125.204 38.7448C125.028 38.4953 124.935 38.1967 124.938 37.8915C125.044 29.1182 124.786 20.4763 124.774 11.7072C124.774 11.4335 124.875 11.1695 125.057 10.9652C125.24 10.7611 125.491 10.631 125.762 10.5998C139.298 9.12736 154.141 16.059 161.392 27.1331C162.373 28.6262 163.205 28.8106 164.292 27.1043C170.17 17.8718 177.516 14.5455 186.235 11.8549C190.509 10.5383 195.165 11.3012 198.425 11.3094C199.992 11.3094 200.591 11.658 200.55 13.315C200.472 16.6783 200.595 20.0498 200.632 23.413C200.632 29.3849 200.603 34.7498 200.57 37.6824C200.564 37.9976 200.439 38.2989 200.221 38.5266C200.003 38.7544 199.708 38.8922 199.393 38.9128C184.25 39.934 181.81 49.4906 181.232 62.9068C181.322 78.7674 179.763 97.2736 199.689 99.8862C199.907 99.9187 200.108 100.025 200.257 100.188C200.406 100.351 200.495 100.56 200.509 100.78C200.538 101.441 200.665 102.524 200.693 103.18C200.739 104.308 200.513 104.927 199.43 105.231C197.125 105.911 191.321 107.642 188.943 109.841C185.518 113.007 181.63 118.593 181.748 124.418C181.531 132.522 181.49 140.635 181.523 148.748C181.523 148.748 182.803 163.62 198.077 165.564C199.34 165.724 199.758 165.995 199.767 167.508C199.82 175.564 200.049 183.426 199.557 191.769C199.524 192.286 199.18 193.098 198.516 193.204C197.164 193.37 195.798 193.383 194.443 193.246C183.779 192.741 175.211 189.197 170.408 185.502C168.767 184.239 165.605 181.023 163.952 179.202C163.829 179.064 163.679 178.954 163.511 178.877C163.343 178.8 163.161 178.758 162.977 178.755C162.792 178.752 162.609 178.787 162.439 178.859C162.268 178.93 162.115 179.036 161.987 179.169C151.766 189.698 140.996 194.886 125.779 192.651C125.668 184.251 125.422 176.245 125.414 167.783C125.414 166.586 125.918 166.019 126.722 165.708C130.487 164.24 142.115 164.957 143.633 149.671C143.912 140.496 143.534 132.941 143.633 123.745C143.563 123.532 143.157 123.122 142.853 123.249C118.942 123.142 91.0633 123.208 71.5605 123.392C70.7688 123.392 70.3711 123.597 70.3751 124.524C70.412 129.823 70.8509 133.814 70.9616 139.113C71.2898 144.605 71.6836 149.486 73.9106 154.892C76.0803 160.163 80.2106 164.014 87.3925 165.765C88.8363 166.118 89.6196 166.934 89.7017 168.591C90.0872 176.474 90.1651 185.436 90.4113 193.319C83.533 193.459 76.712 193.389 70.0346 190.949C63.2754 188.488 59.8505 184.862 55.2898 180.285C55.1178 180.113 54.9099 179.982 54.681 179.9C54.4521 179.819 54.2079 179.789 53.9662 179.813C53.7244 179.838 53.4911 179.915 53.283 180.041C53.0749 180.166 52.8975 180.337 52.7631 180.539C44.3591 193.246 29.6346 193.336 18.261 193.246C16.649 193.246 16.4727 192.647 16.4071 191.035C16.0748 182.901 15.9764 174.674 15.8205 166.512C15.8051 166.33 15.8277 166.148 15.8871 165.976C15.9465 165.803 16.0412 165.646 16.1652 165.512C16.2892 165.379 16.4398 165.273 16.6072 165.202C16.7746 165.13 16.9551 165.094 17.1371 165.097C26.2959 164.687 33.453 158.465 33.5761 151.377C33.6294 148.297 33.7689 144.232 33.7649 141.148C33.7649 124.77 34.6712 112.576 15.718 105.952C15.4104 105.846 15.718 102.856 15.6196 101.506C15.6138 101.431 15.6355 101.355 15.6807 101.294C15.7259 101.233 15.7916 101.191 15.8657 101.174C25.0243 99.1644 32.116 90.6004 33.092 81.4416C32.6492 65.6876 36.5211 42.8175 16.3825 39.409C15.891 39.3288 15.4408 39.0858 15.1039 38.7192C14.767 38.3525 14.563 37.8834 14.5245 37.3869C14.2374 31.3043 14.2538 19.7503 14.344 13.1346C14.385 10.3086 15.3202 10.0707 17.7032 10.0338C21.1615 9.92668 24.623 10.0747 28.0596 10.4767C36.1559 11.5186 45.6141 19.172 50.2693 27.7032C50.9749 29.0033 51.6721 28.6959 52.1192 27.5926C56.5817 17.5888 67.9347 11.8631 78.2051 11.2684L86.8961 11.1371Z" fill="#B8CDB4"/>
<path d="M164.435 13.5519L159.087 13.5613L159.241 101.863L164.589 101.854L164.435 13.5519Z" fill="#A88771"/>
<path d="M185.776 35.1501C183.533 35.1593 181.378 34.2771 179.785 32.6975C178.193 31.1181 177.293 28.9706 177.284 26.7274C177.274 24.4844 178.157 22.3296 179.736 20.737C181.316 19.1444 183.463 18.2445 185.706 18.2353H185.8C188.031 18.2363 190.17 19.1182 191.754 20.6891C193.337 22.2601 194.235 24.3927 194.254 26.6229C194.27 28.8646 193.397 31.0213 191.825 32.6198C190.254 34.2185 188.112 35.1284 185.87 35.1501H185.776ZM185.8 23.6041H185.772C184.994 23.6711 184.269 24.0283 183.742 24.605C183.216 25.1814 182.925 25.9351 182.929 26.7161C182.933 27.4971 183.23 28.248 183.762 28.8197C184.294 29.3915 185.022 29.742 185.8 29.8016C186.209 29.7985 186.612 29.7147 186.988 29.5555C187.364 29.3963 187.704 29.1645 187.99 28.8734C188.276 28.5824 188.502 28.2378 188.655 27.8593C188.808 27.4809 188.885 27.076 188.881 26.668C188.869 25.8564 188.54 25.0813 187.965 24.5088C187.389 23.9363 186.612 23.6117 185.8 23.6041Z" fill="#A88771"/>
<path d="M164.567 63.3117L159.235 63.037C159.297 61.8064 160.953 33.2188 178.328 27.3536L180.042 32.419C172.955 34.8184 169.14 42.8862 167.188 49.2353C165.808 53.8189 164.929 58.5386 164.567 63.3117Z" fill="#A88771"/>
<path d="M163.992 106.887L158.644 106.898L158.832 196.636L164.18 196.625L163.992 106.887Z" fill="#A88771"/>
<path d="M185.349 186.866H185.275C183.032 186.857 180.884 185.957 179.305 184.364C177.725 182.771 176.843 180.617 176.852 178.374C176.861 176.131 177.761 173.983 179.354 172.404C180.947 170.824 183.101 169.942 185.344 169.951H185.418C187.66 169.974 189.801 170.884 191.372 172.482C192.943 174.081 193.817 176.237 193.802 178.478C193.783 180.708 192.885 182.841 191.302 184.412C189.718 185.983 187.579 186.865 185.349 186.866ZM185.349 175.299C184.529 175.302 183.744 175.627 183.163 176.204C182.581 176.781 182.251 177.565 182.244 178.384C182.237 179.208 182.558 180.001 183.135 180.588C183.713 181.175 184.5 181.51 185.324 181.517C185.733 181.527 186.139 181.453 186.518 181.299C186.897 181.145 187.24 180.915 187.526 180.623C187.819 180.339 188.052 179.999 188.212 179.624C188.372 179.248 188.455 178.845 188.457 178.437C188.462 177.614 188.141 176.822 187.563 176.235C186.986 175.648 186.2 175.313 185.377 175.304L185.349 175.299Z" fill="#A88771"/>
<path d="M161.555 208.809H161.481C159.238 208.8 157.091 207.9 155.511 206.307C153.932 204.715 153.05 202.56 153.059 200.317C153.068 198.074 153.968 195.926 155.561 194.347C157.153 192.767 159.308 191.885 161.551 191.894H161.625C163.866 191.917 166.007 192.827 167.579 194.425C169.15 196.024 170.024 198.18 170.009 200.421C169.99 202.652 169.092 204.784 167.508 206.355C165.925 207.926 163.786 208.808 161.555 208.809ZM161.555 197.243C160.736 197.245 159.951 197.57 159.369 198.147C158.788 198.725 158.458 199.508 158.45 200.327C158.444 201.151 158.765 201.944 159.342 202.531C159.92 203.119 160.707 203.453 161.531 203.461C161.939 203.471 162.346 203.397 162.725 203.243C163.104 203.089 163.447 202.859 163.733 202.566C164.026 202.282 164.259 201.942 164.419 201.567C164.578 201.192 164.662 200.788 164.664 200.38C164.669 199.557 164.347 198.765 163.77 198.179C163.193 197.591 162.407 197.256 161.584 197.247L161.555 197.243Z" fill="#A88771"/>
<path d="M161.555 16.9148H161.481C160.371 16.9102 159.272 16.687 158.248 16.2577C157.223 15.8285 156.294 15.2017 155.511 14.4131C154.729 13.6245 154.11 12.6896 153.689 11.6617C153.269 10.6339 153.054 9.53323 153.059 8.42259C153.064 7.31195 153.287 6.21309 153.716 5.18875C154.145 4.1644 154.772 3.23463 155.561 2.45253C156.349 1.67043 157.284 1.0513 158.312 0.63051C159.34 0.209718 160.44 -0.00450613 161.551 7.18525e-05H161.625C163.867 0.0228147 166.009 0.933637 167.58 2.53286C169.152 4.13208 170.025 6.28919 170.009 8.53129C169.991 10.7615 169.093 12.8943 167.509 14.4648C165.926 16.0353 163.786 16.916 161.555 16.9148ZM161.555 5.34848C160.731 5.34522 159.939 5.66965 159.353 6.25038C158.768 6.83111 158.437 7.6206 158.434 8.44514C158.431 9.26971 158.755 10.0618 159.336 10.6471C159.917 11.2325 160.706 11.5632 161.531 11.5664C161.939 11.5784 162.346 11.5055 162.725 11.3523C163.104 11.1991 163.448 10.969 163.733 10.6764C164.026 10.391 164.258 10.0505 164.418 9.67456C164.578 9.2986 164.662 8.89467 164.664 8.48616C164.67 7.66504 164.351 6.87492 163.777 6.28743C163.204 5.69991 162.421 5.36251 161.6 5.34848H161.555Z" fill="#A88771"/>
<path d="M178.097 178.52C160.751 172.651 158.709 144.678 158.631 143.493L163.963 143.136C163.963 143.394 165.841 168.729 179.803 173.454L178.097 178.52Z" fill="#A88771"/>
<path d="M96.4973 148.829H96.4236C94.1812 148.809 92.0384 147.9 90.4661 146.301C88.8941 144.702 88.0213 142.544 88.04 140.301C88.0617 138.072 88.9617 135.94 90.5451 134.37C92.1285 132.799 94.2673 131.917 96.4973 131.914H96.567C98.8094 131.935 100.952 132.846 102.523 134.445C104.095 136.045 104.968 138.203 104.951 140.445C104.933 142.675 104.035 144.808 102.451 146.379C100.868 147.949 98.7275 148.83 96.4973 148.829ZM96.4973 137.262C95.8843 137.262 95.2852 137.443 94.7749 137.783C94.2644 138.122 93.866 138.605 93.6294 139.171C93.3927 139.736 93.3284 140.359 93.4446 140.961C93.5607 141.563 93.8524 142.117 94.2825 142.553C94.5676 142.844 94.9076 143.076 95.2829 143.235C95.6579 143.395 96.0611 143.478 96.4685 143.48C96.8776 143.49 97.2846 143.417 97.6641 143.263C98.0435 143.11 98.3877 142.881 98.6752 142.59C98.9663 142.304 99.1981 141.963 99.3571 141.587C99.5161 141.212 99.5994 140.808 99.6021 140.4C99.6089 139.576 99.2882 138.782 98.7107 138.194C98.1334 137.606 97.3461 137.271 96.5219 137.262H96.4973Z" fill="#A88771"/>
<path d="M96.4973 111.94H96.4236C94.1812 111.92 92.0384 111.011 90.4661 109.412C88.8941 107.813 88.0213 105.655 88.04 103.412C88.0617 101.183 88.9617 99.0512 90.5451 97.4808C92.1285 95.9105 94.2673 95.0281 96.4973 95.0249H96.567C98.8094 95.0465 100.952 95.9571 102.523 97.5564C104.095 99.156 104.968 101.314 104.951 103.556C104.933 105.786 104.035 107.919 102.451 109.49C100.868 111.06 98.7275 111.941 96.4973 111.94ZM96.4973 100.373C95.8843 100.373 95.2852 100.554 94.7749 100.894C94.2644 101.234 93.866 101.716 93.6294 102.282C93.3927 102.847 93.3284 103.47 93.4446 104.072C93.5607 104.674 93.8524 105.228 94.2825 105.664C94.5676 105.956 94.9076 106.187 95.2829 106.347C95.6579 106.506 96.0611 106.589 96.4685 106.591C96.878 106.603 97.2854 106.531 97.6651 106.377C98.045 106.224 98.3888 105.994 98.6752 105.701C98.9663 105.415 99.1981 105.074 99.3571 104.699C99.5161 104.323 99.5994 103.919 99.6021 103.511C99.6089 102.687 99.2882 101.894 98.7107 101.305C98.1334 100.717 97.3461 100.382 96.5219 100.373H96.4973Z" fill="#A88771"/>
<path d="M159.753 100.488H102.524V105.836H159.753V100.488Z" fill="#A88771"/>
<path d="M103.183 143.279C102.061 143.28 100.94 143.179 99.8365 142.976L100.805 137.713C107.113 138.878 113.962 135.298 118.252 128.6C120.012 125.852 121.37 122.677 122.805 119.318C123.921 116.709 125.073 114.015 126.443 111.5C130.713 103.675 136.607 99.7987 142.214 101.136L140.983 106.337C137.32 105.463 133.395 109.954 131.14 114.064C129.889 116.353 128.839 118.813 127.723 121.418C126.267 124.835 124.757 128.362 122.756 131.483C118.006 138.899 110.595 143.279 103.183 143.279Z" fill="#A88771"/>
<path d="M157.618 79.8698L159.587 81.1577C160.21 83.9795 160.817 86.9491 161.228 89.3034C161.966 89.2091 162.71 89.1585 163.455 89.1515L162.429 87.6914C162.249 86.2804 161.933 85.2304 161.273 81.412C161.184 80.8562 161.156 80.2921 161.191 79.7304C161.387 76.1045 161.58 72.4787 161.831 68.857C162.155 64.2347 162.602 59.6162 162.86 54.9897C163.044 52.4105 162.497 49.8317 161.281 47.5497C160.46 46.0812 159.566 44.5923 157.589 44.7113C155.612 44.8302 154.874 46.4012 154.181 47.935C153.894 48.5749 153.549 49.1944 153.23 49.8219L152.655 49.7522C152.434 48.292 151.741 39.2316 151.318 36.2171C150.596 30.9835 149.563 25.8154 144.612 22.563C144.612 22.563 141.15 20.8773 139.838 23.3259C139.407 24.1461 138.665 24.9091 138.525 25.7869C138.255 27.4274 138.3 29.1418 138.218 30.8277C138.218 31.2132 138.218 31.5986 138.193 31.9841L137.812 32.0539C137.238 30.4873 136.631 28.9245 136.089 27.3455C135.23 24.7667 133.745 22.4416 131.766 20.5778C130.397 19.2702 128.778 18.2544 127.004 17.5919C123.424 16.3615 120.237 18.97 120.466 22.6736C120.487 23.0264 120.536 23.3792 120.63 24.3144C120.102 23.882 119.538 23.4949 118.945 23.1577C117.5 22.4878 116.01 21.9202 114.486 21.4596C111.082 20.5697 108.15 23.1331 108.814 26.4717C109.085 27.6903 109.663 28.8195 110.491 29.7529C111.689 31.1147 113.186 32.2139 114.552 33.4445C114.892 33.7437 115.221 34.0556 115.651 34.4493C114.445 34.7897 113.416 34.9579 112.497 35.3681C109.917 36.5247 109.417 39.3711 111.521 41.1922C112.385 41.9412 113.397 42.5003 114.49 42.8329C116.689 43.4768 118.953 43.9278 121.205 44.3791C124.076 44.9533 127.008 45.3798 129.884 46.0196C131.007 46.2618 132.254 46.557 132.87 47.8489C131.614 48.6694 130.339 48.1608 129.1 48.1772C127.124 48.1295 125.146 48.2158 123.182 48.4355C121.479 48.6858 120.007 49.6003 119.601 51.4378C119.273 52.9473 120.311 54.5469 122.082 55.5065C122.305 55.6321 122.538 55.7365 122.78 55.8184C125.704 56.7042 128.604 57.6845 131.565 58.431C134.526 59.1775 137.463 59.6122 140.4 60.2603C141.688 60.5434 142.955 60.9617 143.763 62.2742C143.076 62.4539 142.362 62.5081 141.655 62.434C140.129 62.2782 138.612 61.8926 137.09 61.9132C134.604 61.9502 133.378 64.1484 134.76 66.1214C135.462 67.0842 136.396 67.8532 137.475 68.3568C139.558 69.3281 141.708 70.1504 143.907 70.8176C149.444 72.4337 154.074 75.3622 157.618 79.8698Z" fill="#B53A25"/>
<path d="M156.811 75.5058C156.4 74.993 156.326 74.3 156.101 73.6929C156.085 73.6431 156.061 73.5961 156.031 73.5535C155.413 73.1402 154.819 72.6925 154.251 72.2122C153.408 71.46 152.467 70.8251 151.454 70.3256C148.971 69.2329 146.42 68.3014 143.817 67.5366L143.698 67.5036C143.55 67.4874 143.408 67.4395 143.28 67.3631C143.153 67.2867 143.043 67.1833 142.96 67.0607C142.892 66.9124 142.858 66.7516 142.858 66.5891C142.858 66.4263 142.892 66.2657 142.96 66.1174C142.993 66.0151 143.064 65.9301 143.159 65.8801C143.254 65.8303 143.365 65.8198 143.468 65.8507C143.878 65.9616 144.288 66.064 144.67 66.1707C147.676 66.9664 150.756 67.7825 153.484 69.5832C153.894 69.8006 154.304 70.0385 154.715 70.301C153.439 67.5775 152.167 65.0592 150.835 62.6352C150.242 61.6001 149.421 60.7137 148.435 60.043C146.205 58.3743 143.636 57.2149 140.909 56.6469C137.271 55.9415 133.637 55.2195 130.122 54.5181C129.978 54.4895 129.835 54.469 129.691 54.4484C129.09 54.4083 128.512 54.1978 128.026 53.8415C127.983 53.8238 127.943 53.8003 127.907 53.7718C127.841 53.7142 127.794 53.6369 127.775 53.5515C127.756 53.4658 127.765 53.3761 127.8 53.2959C127.847 53.1941 127.931 53.1136 128.034 53.0704L127.739 52.9843L128.116 53.0294C128.557 52.8509 129.046 52.8263 129.502 52.9597L129.597 52.9801C130.315 53.1155 131.032 53.2426 131.75 53.3698C132.853 53.5626 133.994 53.78 135.113 54.0013C135.913 54.1695 136.754 54.3253 137.533 54.4771C140.966 55.1252 144.506 55.7896 147.726 57.8035L146.495 56.1998C143.825 52.6602 141.065 49.0016 138.025 45.6507C136.861 44.3762 135.445 43.3579 133.866 42.6607C130.396 41.0651 126.434 40.1997 121.402 39.9249H121.078C119.247 39.9104 117.43 39.6031 115.697 39.0143C115.614 38.9836 115.543 38.9271 115.496 38.8534C115.447 38.7795 115.425 38.6922 115.43 38.6042C115.44 38.5139 115.48 38.4294 115.543 38.3641C115.606 38.2988 115.689 38.2564 115.779 38.2432C116.767 38.1098 117.77 38.1306 118.752 38.3047C119.228 38.3822 119.71 38.4246 120.192 38.432C122.147 38.4322 124.1 38.5691 126.037 38.8421C128.67 39.1785 131.164 40.0191 133.579 40.8518L133.53 40.8108L133.436 40.7205C129.097 36.5875 124.39 32.8575 119.376 29.5767C119.093 29.3961 118.789 29.2281 118.473 29.0557C117.608 28.5841 116.714 28.096 116.131 27.1855C116.089 27.1605 116.053 27.1271 116.025 27.087C115.984 27.0326 115.958 26.9681 115.95 26.9003C115.942 26.8327 115.952 26.764 115.98 26.7014V26.6523C116.009 26.5798 116.059 26.5175 116.123 26.4725C116.187 26.4274 116.262 26.4015 116.341 26.398C116.419 26.3925 116.497 26.4095 116.566 26.4473C116.983 26.4822 117.381 26.6344 117.715 26.886L117.879 26.9927C122.125 29.569 126.195 32.426 130.06 35.5445C132.013 37.185 133.879 38.9242 135.95 40.9748C135.852 40.7123 135.753 40.4498 135.659 40.1915C135.003 38.4441 134.387 36.7954 133.752 35.1795C133.152 33.7647 132.453 32.3941 131.66 31.0778C131.188 30.2575 130.696 29.3758 130.257 28.498C129.499 27.0318 128.64 25.6199 127.685 24.2734C127.329 23.7402 126.959 23.1947 126.582 22.6123C126.536 22.5374 126.514 22.4494 126.522 22.3614C126.529 22.2736 126.565 22.1902 126.623 22.1243C126.692 22.0487 126.788 22.0019 126.89 21.993C126.841 21.9397 126.795 21.8822 126.746 21.8248L126.959 21.993C127.013 21.9937 127.066 22.0048 127.115 22.0258C128.126 22.4321 128.981 23.1506 129.556 24.0764C129.999 24.7205 130.421 25.3768 130.827 26.037C130.893 26.1397 130.954 26.2461 131.016 26.3528C132.108 28.1653 133.067 30.0541 133.887 32.0047C133.99 32.2427 134.08 32.4848 134.174 32.7267C134.584 33.6209 134.994 34.5233 135.368 35.4296C135.421 35.5239 135.47 35.6182 135.523 35.7085C135.802 36.1927 136.023 36.7075 136.184 37.2425C136.442 38.0013 136.688 38.715 137.279 39.2358C137.352 39.302 137.398 39.3923 137.41 39.4902C137.461 39.9265 137.544 40.3585 137.66 40.7821C138.308 42.1849 139.006 43.5629 139.785 44.8836C140.216 45.4785 140.675 46.0608 141.143 46.6555C141.454 47.0493 141.762 47.443 142.065 47.8368C143.132 49.2478 144.288 50.634 145.408 51.971L146.507 53.3001C146.604 53.4246 146.681 53.563 146.737 53.7102C146.766 53.7791 146.799 53.8461 146.836 53.9112C146.818 53.5842 146.75 53.2619 146.635 52.9555C146.536 52.6617 146.463 52.3597 146.417 52.0531C146.176 49.3874 146.114 46.7087 146.233 44.0347L146.257 43.0339C146.368 37.5705 145.564 32.8701 143.796 28.6786L143.735 28.5513C143.62 28.3881 143.558 28.1933 143.558 27.9935C143.558 27.7938 143.62 27.599 143.735 27.4358C143.78 27.3722 143.843 27.3228 143.916 27.2938C143.989 27.2646 144.068 27.2571 144.145 27.2716C144.965 27.3864 145.215 28.0345 145.375 28.461C146.749 31.9432 147.98 35.3845 147.951 39.1907L147.927 41.746C147.894 44.6171 147.865 47.5743 147.927 50.4863C148 53.7676 148.804 56.4583 150.387 58.7632C151.53 60.3893 152.503 62.1276 153.291 63.9517C153.376 64.1484 153.494 64.3288 153.64 64.4849C153.755 64.6079 153.82 64.6161 153.866 64.6039C153.87 64.5615 153.87 64.5191 153.866 64.4767C153.986 62.8723 154.317 61.2906 154.85 59.7723C155.682 57.2838 156.319 54.7346 156.757 52.1474L156.794 51.9013C156.797 51.6115 156.86 51.3251 156.978 51.0605C157.097 50.7959 157.269 50.5586 157.483 50.3633C157.565 50.2933 157.671 50.2585 157.779 50.2663C157.886 50.2738 157.986 50.3234 158.057 50.4044C158.265 50.6411 158.407 50.9284 158.468 51.2371C158.53 51.5458 158.51 51.8654 158.41 52.1638C158.379 52.3114 158.357 52.4607 158.344 52.6109C158.145 54.903 157.66 57.1614 156.901 59.3334C155.26 63.5785 155.26 67.5366 156.901 71.4289L157.278 72.3313C157.278 72.3313 160.018 79.6646 156.811 75.5058Z" fill="#2D3837"/>
<path d="M163.693 82.2081C163.848 82.3556 164.018 82.4849 164.202 82.5937C166.663 83.738 167.68 86.1374 166.663 88.6599C165.871 90.6123 165.092 92.5729 164.46 94.5784C163.997 96.0509 163.078 97.3715 162.984 98.9671L162.779 99.2296C163.082 99.3199 162.91 99.0492 162.984 98.9629C163.152 98.9383 163.361 98.9344 163.427 98.7498C163.997 97.109 165.125 95.7762 165.978 94.2873C166.921 92.6466 167.959 91.0552 168.939 89.4351C169.255 88.8928 169.68 88.4222 170.188 88.0537C170.696 87.6849 171.275 87.4262 171.888 87.2941C172.946 87.0343 174.062 87.153 175.042 87.6295C176.022 88.106 176.804 88.9101 177.253 89.9027C178.168 92.1134 177.421 94.8245 175.391 95.7762C172.171 97.3142 169.025 99.0574 165.609 100.14C165.137 100.292 164.957 100.587 164.866 101.202C168.066 100.243 171.195 99.6807 174.263 98.8728C175.932 98.4339 177.606 98.0524 179.279 98.8235C181.469 99.8531 182.433 102.724 181.383 105.05C180.448 107.1 177.413 108.278 175.284 107.347C172.323 106.05 169.231 105.095 166.216 103.938C165.978 103.848 165.748 103.688 165.51 103.938C165.469 104.287 165.789 104.348 165.986 104.463C168.689 106.145 171.38 107.847 174.111 109.488C177.126 111.296 177.45 115.283 174.604 117.313C172.311 118.954 169.124 118.339 167.865 115.767C166.979 113.946 166.126 112.108 165.285 110.267C164.649 108.864 164.177 107.334 163.172 106.079C162.816 106.436 162.98 106.764 163.058 107.092C163.784 110.197 164.53 113.298 165.211 116.411C165.666 118.491 165.121 120.23 163.316 121.513C161.844 122.559 159.768 122.555 157.984 121.419C156.696 120.599 155.974 118.749 156.204 117.141C156.499 115.09 157.492 113.306 158.119 111.399C158.669 109.709 159.268 108.04 159.871 106.301C159.731 106.285 159.589 106.311 159.464 106.375C159.338 106.439 159.234 106.539 159.165 106.662C157.771 108.991 156.425 111.35 154.982 113.634C154.006 115.189 153.083 116.821 150.942 117.12C149.937 117.299 148.9 117.143 147.992 116.677C147.084 116.21 146.354 115.459 145.914 114.538C145.474 113.617 145.348 112.577 145.555 111.577C145.762 110.578 146.291 109.674 147.062 109.004C147.919 108.261 149.002 107.925 150.007 107.47C152.804 106.202 155.605 104.951 158.316 103.467C158.037 103.097 157.795 103.245 157.549 103.307C154.042 104.197 150.536 105.078 147.004 105.866C146.25 106.053 145.462 106.047 144.711 105.849C143.96 105.65 143.271 105.266 142.707 104.732C142.144 104.198 141.724 103.53 141.486 102.79C141.249 102.051 141.202 101.264 141.348 100.501C141.857 97.7735 144.769 96.0181 147.176 96.9287C150.265 98.0975 153.394 99.1721 156.52 100.239C157.008 100.403 157.34 101.059 158.16 100.649C155.441 98.7783 152.681 97.1254 149.884 95.5504C147.673 94.3201 146.274 92.3595 146.479 90.2186C146.635 88.5778 148.423 86.5272 149.953 86.2399C152.139 85.8298 154.424 86.7773 155.285 88.5493C156.77 91.6623 158.189 94.8081 159.645 97.9377C159.805 98.2821 159.846 98.758 160.445 98.9671C159.649 95.5259 158.862 92.2283 158.132 88.9182C157.164 84.5255 158.206 83.8652 160.802 82.2123C161.737 82.0975 162.713 81.9456 163.693 82.2081ZM158.653 101.805C158.61 102.181 158.646 102.562 158.757 102.923C158.869 103.284 159.055 103.618 159.302 103.904C159.549 104.19 159.853 104.422 160.195 104.584C160.536 104.747 160.908 104.837 161.286 104.849C162.664 104.89 164.026 103.585 164.099 102.162C164.099 101.446 163.823 100.757 163.328 100.239C162.833 99.7212 162.157 99.414 161.442 99.3814C161.098 99.3506 160.752 99.3894 160.423 99.4957C160.095 99.6019 159.792 99.7733 159.531 99.9997C159.271 100.226 159.059 100.503 158.908 100.813C158.757 101.123 158.67 101.461 158.653 101.805Z" fill="#F74700"/>
<path d="M161.626 98.7893C161.149 98.7462 160.669 98.7998 160.214 98.9468C159.759 99.0938 159.338 99.3313 158.977 99.645C158.615 99.9588 158.321 100.342 158.112 100.772C157.902 101.203 157.782 101.671 157.758 102.148C157.606 104.466 159.202 106.303 161.409 106.365C163.316 106.418 165.202 104.618 165.305 102.645C165.408 100.672 163.689 98.8878 161.626 98.7893Z" fill="#2D3837"/>
<path d="M52.4344 134.576C52.3893 134.83 52.6763 132.718 52.8446 131.865C52.2335 130.04 52.4138 128.174 52.5697 126.307C52.6763 125.077 52.1144 124.905 51.1465 125.487C51.1326 125.5 51.1224 125.516 51.1165 125.534C51.1104 125.552 51.1089 125.571 51.1123 125.59C51.1154 125.609 51.1234 125.626 51.1349 125.641C51.1467 125.656 51.1618 125.668 51.1793 125.676C51.0297 126.322 51.0171 126.993 51.1423 127.644C51.0741 127.752 51.0379 127.876 51.0379 128.003C51.0379 128.131 51.0741 128.255 51.1423 128.362C50.8552 130.511 50.5518 132.661 50.2605 134.814C49.7519 136.553 49.1204 138.247 48.46 139.929L48.5257 139.961C48.0503 141.122 47.6395 142.308 47.2951 143.513L46.1181 144.047L46.2451 143.805C46.1221 143.636 45.671 143.841 45.4864 143.739C44.1493 144.584 42.4101 143.964 40.9336 143.915C40.3992 143.87 39.8609 143.933 39.3511 144.1C38.8412 144.267 38.3702 144.535 37.9661 144.888C37.5621 145.24 37.233 145.671 36.9987 146.154C36.7645 146.636 36.6297 147.161 36.6024 147.697C36.5614 148.156 36.8076 148.759 36.2989 149.018C35.7206 149.309 35.3145 148.747 34.9125 148.443C32.2672 145.958 26.2131 143.259 24.9212 148.312C24.2568 150.666 26.6438 152.155 27.8908 153.775C29.6174 158.422 21.1725 150.703 20.1717 150.35C15.66 146.479 7.22307 148.476 9.88498 155.556C10.3731 158.767 16.4762 161.613 15.3892 164.074C13.7486 165.457 8.1049 161.958 5.32817 162.934C2.46118 163.467 1.29635 165.813 2.62525 168.34C6.38635 173.11 4.14692 172.786 0.804161 176.432C-0.996417 178.184 0.455531 181.465 2.90006 181.608C6.18129 182.429 10.9555 178.327 13.3016 181.686C14.7453 184.086 17.3211 186.945 19.9584 185.607C22.2347 184.763 23.2068 183.171 23.1043 180.444C23.1946 180.087 22.9934 179.443 23.3544 179.344C25.8893 178.68 26.8408 181.707 28.5758 183.696C30.3518 185.763 34.0431 185.206 35.6836 183.073C37.1562 181.301 37.509 178.791 37.3244 176.49C36.3359 172.798 35.737 166.765 40.8557 168.061L42.5907 168.779C44.7808 170.707 48.7143 170.259 49.0998 166.277L49.1983 166.248C49.0096 163.115 47.3157 159.756 44.5553 158.004C43.9605 157.733 43.3822 157.372 43.4519 156.642C43.9769 154.702 45.1336 155.002 45.7037 154.432C49.1778 150.958 47.8695 148.21 48.4558 144.522H48.419C48.419 144.522 50.5642 139.305 51.4008 136.528L52.4344 134.576ZM23.0304 180.415L22.9033 180.37L23.0304 180.415Z" fill="#B53A25"/>
<path d="M44.7808 148.616C44.6111 148.747 44.4824 148.924 44.4098 149.126C44.3371 149.328 44.3234 149.547 44.3707 149.756C42.7581 151.188 41.3614 152.845 40.2241 154.678C39.4366 155.088 38.9607 155.843 38.2717 156.404C38.09 156.58 37.9766 156.814 37.9519 157.065C37.6894 159.37 38.7721 161.884 40.6054 163.115C42.1149 163.878 42.6029 164.304 42.4511 164.476C42.3035 164.804 41.7948 164.657 41.516 164.55C38.85 164.14 36.8937 160.859 36.8116 157.856C29.9538 163.623 28.6084 169.587 33.0545 177.216C33.1693 178.061 32.4885 178.286 31.8856 177.269C28.9078 172.757 28.3583 167.405 30.8766 163.156C27.6199 165.108 25.0197 167.569 22.5833 170.641C19.7656 174.246 20.8566 176.744 20.0321 180.419L20.2413 180.809L19.4743 180.554L19.5646 180.407C18.2439 177.212 19.5646 173.409 21.2053 170.255C18.0701 172.107 14.842 173.796 11.5338 175.317C10.2131 175.637 6.81698 178.442 5.88593 177.224C11.3902 173.889 18.047 171.178 22.4315 167.979C18.4408 169.168 14.2941 168.246 10.4099 167.487C9.35173 167.315 8.21971 167.466 7.25995 166.777C9.2533 165.28 12.1818 166.65 14.4294 166.847C22.6079 168.668 26.7341 164.968 32.4558 159.952C25.0443 164.21 18.6909 157.02 13.3097 152.873C13.0267 152.742 12.6453 152.463 12.9652 151.946C15.6804 152.487 17.6738 155.071 19.823 156.683C24.8351 161.195 31.7913 160.691 36.3439 156.683C36.4424 155.863 37.3693 156.183 37.5375 155.662C37.6196 155.387 38.0749 154.817 37.4554 154.969C33.0751 155.478 30.3516 152.291 28.1779 148.292C28.1531 148.237 28.1472 148.175 28.1611 148.116C28.1749 148.057 28.2077 148.005 28.2543 147.967C28.3009 147.928 28.3589 147.906 28.4192 147.904C28.4794 147.902 28.5389 147.92 28.588 147.955C30.1137 149.272 31.2006 150.962 32.8044 152.241C37.7015 156.183 41.8278 150.334 43.5544 148.14C43.3577 148.427 44.7808 148.616 44.7808 148.616Z" fill="#2D3837"/>
<path d="M55.4488 49.2563H50.1003V91.4529H55.4488V49.2563Z" fill="#A88771"/>
<path d="M76.6336 35.8014C74.3906 35.8107 72.2358 34.9285 70.6431 33.3491C69.0505 31.7694 68.1507 29.622 68.1414 27.379C68.1322 25.136 69.0144 22.9812 70.5938 21.3886C72.1734 19.7959 74.3209 18.896 76.5639 18.8867H76.6378C78.868 18.8856 81.0083 19.7663 82.5917 21.3367C84.1753 22.9073 85.0737 25.04 85.0911 27.2702C85.1064 29.5134 84.2316 31.6712 82.6584 33.2703C81.0853 34.8697 78.9423 35.7798 76.6993 35.8014H76.6336ZM76.6336 24.2351H76.605C76.1966 24.2368 75.7927 24.3187 75.416 24.4766C75.0395 24.6343 74.6976 24.8647 74.4101 25.1545C74.1226 25.4443 73.895 25.7878 73.7402 26.1658C73.5854 26.5436 73.5067 26.9481 73.5082 27.3563C73.5098 27.7648 73.592 28.1686 73.7497 28.5453C73.9074 28.9219 74.1377 29.2637 74.4275 29.5512C74.7173 29.8387 75.0611 30.0663 75.4389 30.2211C75.8167 30.3759 76.2214 30.4546 76.6296 30.4532H76.6581C77.2741 30.4483 77.8747 30.2608 78.3837 29.9141C78.8927 29.5676 79.2873 29.0777 79.5177 28.5065C79.7479 27.9353 79.8033 27.3086 79.6769 26.7059C79.5505 26.1032 79.2479 25.5516 78.8075 25.1211C78.2289 24.5518 77.4494 24.2334 76.6378 24.2351H76.6336Z" fill="#A88771"/>
<path d="M55.4239 63.9633L50.0919 63.6884C50.1576 62.4581 51.8105 33.8663 69.1887 28.005L70.899 33.0704C63.8115 35.4698 59.9971 43.5336 58.0447 49.8869C56.6636 54.4701 55.7847 59.1901 55.4239 63.9633Z" fill="#A88771"/>
<path d="M30.3183 35.8014H30.2444C28.002 35.7787 25.86 34.868 24.288 33.269C22.7157 31.6699 21.8415 29.5128 21.8568 27.2702L24.5352 27.295L21.8568 27.2702C21.8764 25.0409 22.7754 22.9092 24.3583 21.3392C25.9415 19.7691 28.0806 18.8877 30.3101 18.8867H30.3838C32.627 18.8954 34.7747 19.7948 36.3545 21.3871C37.9346 22.9793 38.8172 25.1339 38.8086 27.3769C38.7998 29.6199 37.9003 31.7678 36.3081 33.3476C34.7159 34.9274 32.5613 35.8102 30.3183 35.8014ZM30.3183 24.2351C29.4939 24.2319 28.7017 24.5564 28.1163 25.137C27.531 25.7177 27.2002 26.5073 27.1971 27.3317C27.1937 28.1564 27.5182 28.9485 28.0988 29.5338C28.6797 30.1191 29.4691 30.4498 30.2937 30.4532H30.3183C31.1428 30.4574 31.9353 30.134 32.5214 29.5542C33.1075 28.9741 33.4393 28.185 33.4437 27.3605C33.4481 26.5361 33.1247 25.7435 32.5447 25.1574C31.9647 24.5713 31.1757 24.2395 30.3511 24.2351H30.3183Z" fill="#A88771"/>
<path d="M50.1008 65.0918C49.8482 60.2257 49.0684 55.4014 47.7753 50.7035C45.9378 44.2438 42.2916 36.0406 35.2327 33.6535L36.9473 28.5881C54.3623 34.478 55.4041 63.6932 55.4493 64.936L50.1172 65.0918L52.7915 65.0139L50.1008 65.0918Z" fill="#A88771"/>
<path d="M54.8307 114.617L49.4824 114.642L49.6389 149.111L54.9871 149.087L54.8307 114.617Z" fill="#A88771"/>
<path d="M76.2057 187.518H76.1278C73.8854 187.499 71.7426 186.59 70.1705 184.991C68.5983 183.392 67.7257 181.234 67.7442 178.991C67.7658 176.761 68.6661 174.63 70.2493 173.06C71.8327 171.489 73.9715 170.607 76.2015 170.604H76.2878C78.5308 170.613 80.6782 171.513 82.2578 173.106C83.8372 174.698 84.7195 176.853 84.7102 179.096C84.701 181.339 83.8011 183.486 82.2085 185.066C80.6159 186.645 78.4611 187.528 76.2181 187.518H76.2057ZM76.2057 175.952C75.5927 175.951 74.9931 176.131 74.4824 176.47C73.9717 176.809 73.5729 177.292 73.336 177.857C73.0992 178.423 73.0349 179.046 73.1515 179.647C73.268 180.249 73.5601 180.803 73.9908 181.239C74.2756 181.531 74.6156 181.763 74.9908 181.922C75.3661 182.081 75.7693 182.164 76.1769 182.166C76.5862 182.177 76.9932 182.103 77.3729 181.95C77.7523 181.797 78.0965 181.568 78.3836 181.276C78.6755 180.99 78.9075 180.65 79.0667 180.274C79.2259 179.898 79.3086 179.494 79.3105 179.086L81.9849 179.11L79.3105 179.086C79.3143 178.678 79.2376 178.273 79.0848 177.894C78.9321 177.516 78.7061 177.171 78.4201 176.88C78.1339 176.589 77.7933 176.358 77.4176 176.198C77.0419 176.039 76.6385 175.955 76.2302 175.952H76.2057Z" fill="#A88771"/>
<path d="M68.9552 179.169C51.6057 173.304 49.5672 145.331 49.4893 144.142L54.8214 143.789L52.1553 143.965L54.8214 143.789C54.8214 144.043 56.6998 169.382 70.6656 174.103L68.9552 179.169Z" fill="#A88771"/>
<path d="M54.7278 82.2081C54.8821 82.3556 55.0526 82.4849 55.2364 82.5937C57.6971 83.738 58.7144 86.1374 57.6971 88.6599C56.9057 90.6123 56.1264 92.5729 55.4947 94.5784C55.0312 96.0509 54.1125 97.3715 54.0182 98.9671L53.8172 99.2296C54.1167 99.3199 53.9485 99.0492 54.0182 98.9629C54.1864 98.9383 54.3955 98.9344 54.4611 98.7498C55.0312 97.109 56.1591 95.7762 57.0123 94.2873C57.9557 92.6466 58.9933 91.0552 59.9735 89.4351C60.2892 88.8928 60.7146 88.4222 61.2224 88.0537C61.7302 87.6849 62.3091 87.4262 62.9226 87.2941C63.9807 87.0343 65.0962 87.153 66.0761 87.6295C67.056 88.106 67.8382 88.9101 68.2874 89.9027C69.2021 92.1134 68.4556 94.8245 66.4253 95.7762C63.2056 97.3142 60.0596 99.0574 56.6432 100.14C56.1715 100.292 55.9909 100.587 55.9008 101.202C59.0999 100.243 62.2293 99.6807 65.2974 98.8728C66.9667 98.4339 68.6402 98.0524 70.3137 98.8235C72.5038 99.8531 73.4676 102.724 72.4177 105.05C71.4825 107.1 68.4474 108.278 66.3187 107.347C63.3575 106.05 60.2648 105.095 57.2503 103.938C57.0123 103.848 56.7826 103.688 56.5447 103.938C56.5037 104.287 56.8235 104.348 57.0205 104.463C59.7234 106.145 62.4139 107.847 65.1456 109.488C68.1603 111.296 68.4844 115.283 65.6378 117.313C63.3451 118.954 60.1581 118.339 58.9032 115.767C58.013 113.946 57.16 112.108 56.3191 110.267C55.6835 108.864 55.2116 107.334 54.2068 106.079C53.85 106.436 54.014 106.764 54.0919 107.092C54.8179 110.197 55.5644 113.298 56.2452 116.411C56.7005 118.491 56.1551 120.23 54.3504 121.513C52.8779 122.559 50.8025 122.555 49.0183 121.419C47.7304 120.599 47.0086 118.749 47.2423 117.141C47.5378 115.09 48.5263 113.306 49.1538 111.399C49.7033 109.709 50.3022 108.04 50.9051 106.301C50.7651 106.286 50.624 106.312 50.4988 106.376C50.3734 106.441 50.2695 106.539 50.1996 106.662C48.8052 108.991 47.4597 111.35 46.016 113.634C45.0399 115.189 44.1169 116.821 41.976 117.12C40.9709 117.299 39.935 117.143 39.027 116.677C38.1189 116.21 37.3888 115.459 36.9484 114.538C36.5083 113.617 36.382 112.577 36.5893 111.577C36.7966 110.578 37.3258 109.674 38.0961 109.004C38.9533 108.261 40.036 107.925 41.0409 107.47C43.8381 106.202 46.6394 104.951 49.3547 103.467C49.0716 103.097 48.8297 103.245 48.5836 103.307C45.0768 104.197 41.5701 105.078 38.0385 105.866C37.2848 106.053 36.4961 106.047 35.7451 105.849C34.9942 105.65 34.3054 105.266 33.7417 104.732C33.1783 104.198 32.7585 103.53 32.521 102.79C32.2835 102.051 32.2358 101.264 32.3826 100.501C32.891 97.7735 35.8033 96.0181 38.2107 96.9287C41.2992 98.0975 44.4288 99.1721 47.5542 100.239C48.0422 100.403 48.3745 101.059 49.1947 100.649C46.4754 98.7783 43.715 97.1254 40.9178 95.5504C38.7071 94.3201 37.3086 92.3595 37.5135 90.2186C37.6693 88.5778 39.4577 86.5272 40.9875 86.2399C43.1736 85.8298 45.4582 86.7773 46.3196 88.5493C47.8043 91.6623 49.2235 94.8081 50.6794 97.9377C50.8394 98.2821 50.8804 98.758 51.4999 98.9671C50.7042 95.5259 49.9167 92.2283 49.1865 88.9182C48.2226 84.5255 49.2604 83.8652 51.8567 82.2123C52.7712 82.0975 53.7311 81.9456 54.7278 82.2081ZM49.6869 101.805C49.6443 102.181 49.6798 102.562 49.7917 102.923C49.9035 103.284 50.0889 103.618 50.3363 103.904C50.5839 104.19 50.8877 104.422 51.2292 104.584C51.5706 104.747 51.9421 104.837 52.3201 104.849C53.6981 104.89 55.06 103.585 55.1337 102.162C55.1335 101.446 54.8571 100.757 54.3622 100.239C53.8672 99.7212 53.1916 99.414 52.4759 99.3814C52.1324 99.3506 51.7859 99.3894 51.4577 99.4957C51.1294 99.6019 50.826 99.7733 50.5656 99.9997C50.3052 100.226 50.0931 100.503 49.9421 100.813C49.7911 101.123 49.7044 101.461 49.6869 101.805Z" fill="#F74700"/>
<path d="M52.6601 98.7893C52.1851 98.7486 51.7065 98.8038 51.2531 98.9521C50.7997 99.1001 50.381 99.338 50.0215 99.6514C49.6622 99.9649 49.3694 100.348 49.1611 100.777C48.9528 101.206 48.8329 101.672 48.8089 102.148C48.6571 104.466 50.2527 106.303 52.4591 106.365C54.3664 106.418 56.2532 104.618 56.3557 102.645C56.4582 100.672 54.7234 98.8878 52.6601 98.7893Z" fill="#2D3837"/>
</svg>
