<svg width="253" height="200" viewBox="0 0 253 200" fill="none" xmlns="http://www.w3.org/2000/svg">
<path d="M163.649 78.5922C159.9 80.9141 150.544 93.7702 161.36 108.163C172.169 122.549 185.593 113.931 185.593 113.931C185.593 113.931 184.543 140.671 162.045 143.206C169.318 151.026 184.193 161.703 201.665 162.686C191.387 167.231 184.158 169.81 174.817 167.574C165.469 165.33 156.452 162.513 163.67 173.251C136.985 171.193 130.599 166.539 130.599 166.539L131.332 167.408C131.332 167.408 134.313 173.886 126.551 194.337C116.84 184.936 116.682 192.654 115.735 200.392C114.779 208.134 109.038 212.475 99.8474 218.324C105.358 205.074 98.6154 190.055 92.3011 181.723C80.8077 197.336 49.38 187.944 49.38 187.944C49.38 187.944 64.4801 181.333 51.8912 167.897C39.2954 154.454 20.8205 156.462 16.701 158.346C17.5767 153.336 7.70576 141.489 -9.0201 139.126C-5.76262 136.446 4.48969 137.068 4.48969 137.068C4.48969 137.068 19.7366 137.571 20.4022 124.627C33.1269 128.244 51.7606 120.782 46.906 110.916C42.0584 101.058 26.6732 100.21 20.1587 92.9754C20.1587 92.9754 19.9938 93.2086 17.9344 90.0769C25.1835 93.0618 33.1518 93.6367 38.8434 85.8372C44.535 78.0377 39.8283 67.3729 30.446 66.7445C37.4992 62.0916 29.8546 47.2141 29.2007 45.9837L28.405 45.044C28.405 45.044 43.6826 57.4913 52.1125 53.9107C49.2799 61.0722 59.8578 68.591 71.0804 67.3558C82.2938 66.1258 84.6666 60.0316 83.9447 53.557C86.7976 56.2679 86.4603 56.3041 86.4603 56.3041C92.3922 63.8413 87.5217 75.5127 97.1237 82.8382C106.726 90.1638 122.478 79.256 123.099 68.5081C138.395 72.939 143.597 61.505 143.597 61.505C143.597 61.505 146.78 53.7131 151.118 52.3291C147.508 65.5486 157.505 77.3367 163.649 78.5922Z" fill="#E7D63C"/>
<path d="M161.292 141.565C169.405 140.649 174.743 136.597 178.258 131.782C177.207 128.885 174.981 127.804 176.336 125.722C177.783 123.495 182.673 122.387 182.137 120.549C181.6 118.711 181.299 118.194 181.449 116.575C181.515 115.864 181.287 114.787 180.925 113.855C176.458 115.211 169.021 115.736 162.255 108.277C161.577 110.299 157.606 110.054 156.082 113.057C154.537 116.084 150.529 114.571 151.364 112.556C152.2 110.541 151.059 109.537 149.53 110.712C148 111.888 148.915 112.179 148.158 110.89C147.401 109.601 147.621 109.052 146.305 107.58C144.988 106.108 142.735 107.039 141.061 108.567C139.377 110.1 142.817 113.101 145.035 115.273C147.254 117.445 144.655 118.687 143.584 120.622C142.52 122.564 140.831 122.222 139.068 124.969C137.306 127.717 135.04 126.15 129.238 126.327C123.436 126.504 124.582 134.38 125.582 138.239C126.572 142.103 120.541 142.207 119.322 143.894C118.103 145.58 122.609 157.246 122.986 161.949C123.364 166.652 122.843 171.681 123.296 174.948C123.756 178.223 129.485 184.466 125.356 183.742C121.228 183.017 117.181 175.867 117.181 175.867C117.181 175.867 103.093 174.375 104.811 178.221C105.738 180.301 110.692 188.55 115.113 195.703C115.923 189.401 117.272 184.972 125.591 193.026C133.402 172.444 130.403 165.924 130.403 165.924L129.664 165.05C129.664 165.05 132.442 167.075 141.989 169.054C143.002 167.258 144.564 165.804 145.637 165.522C146.161 166.67 146.038 169.09 147.065 169.98C147.592 170.063 148.135 170.149 148.687 170.23C149.507 170.019 150.619 169.42 152.105 168.257C156.381 167.328 157.319 169.059 157.318 171.304C159.085 171.484 160.947 171.647 162.934 171.81C155.671 161.003 164.744 163.838 174.151 166.097C183.551 168.347 190.825 165.751 201.168 161.177C183.579 160.18 168.611 149.434 161.292 141.565Z" fill="#D9B402"/>
<path d="M82.2707 137.161C78.2874 130.864 81.2517 133.381 67.2933 124.96C53.3349 116.539 62.1029 116.882 53.9813 108.247C47.154 100.981 44.2804 106.823 43.827 109.79C44.2376 110.367 44.6165 110.986 44.9317 111.64C45.1892 112.15 45.3578 112.653 45.4853 113.154C47.6353 115.144 51.7851 118.038 57.958 121.413C66.9201 126.315 63.3395 128.81 56.4734 133.425C49.6073 138.04 49.4909 127.251 46.1851 121.511C45.5901 120.476 44.9934 119.593 44.3698 118.82C42.8955 120.931 40.3181 122.713 37.1865 123.986C37.4846 124.358 37.9424 124.756 38.6562 125.246C42.6181 127.94 44.2205 129.336 37.7194 129.969C32.315 130.491 33.3476 128.03 30.7014 125.768C26.6663 126.413 22.3886 126.316 18.6248 125.241C18.5176 127.488 17.9637 129.319 17.1212 130.82C18.4958 131.723 20.8413 132.96 24.7536 135.226C34.771 141.022 33.0321 139.177 32.0122 139.701C30.9923 140.225 15.6067 138.802 3.73899 138.59C-2.81313 138.468 -1.66993 140.811 1.3856 143.323C4.15829 144.707 6.55323 146.325 8.53328 148.012C8.88539 148.213 9.22376 148.398 9.50954 148.553C13.7574 150.878 26.8483 155.164 29.7796 155.722C32.6949 156.278 34.3922 157.983 39.169 156.853C43.939 155.715 44.5582 152.55 47.1967 153.471C49.8352 154.392 54.4532 154.041 60.5997 154.846C66.7532 155.659 60.3945 159.382 59.1295 159.084C57.8645 158.786 51.3564 159.411 45.0634 161.32C43.8399 161.689 42.8691 161.928 42.0621 162.076C43.0293 162.622 43.9875 163.22 44.9346 163.883C52.1502 162.207 52.6493 164.372 55.6047 166.94C57.4224 168.519 55.7387 170.748 52.7428 171.711C54.8567 174.914 55.3308 177.655 54.9156 179.922C58.399 181.048 62.3129 182.015 66.5666 182.395C79.088 183.492 81.0676 182.22 86.0601 183.086C87.1307 183.271 88.0556 183.537 88.8256 183.842C89.3277 183.316 89.8091 182.766 90.2424 182.161C93.7948 186.851 97.4996 193.666 99.0602 201.084C100.122 198.455 100.922 195.961 101.255 194.312C102.192 189.589 101.432 189.698 102.105 182.784C102.768 175.875 99.9121 178.128 92.3416 170.401C84.771 162.674 95.0755 158.204 99.4724 145.428C103.842 132.666 86.254 143.458 82.2707 137.161Z" fill="#D4C006"/>
<path d="M47.7817 187.767C46.7423 188.443 45.969 188.781 45.969 188.781C45.969 188.781 46.8069 189.033 48.2517 189.383C48.1551 188.882 47.9985 188.343 47.7817 187.767Z" fill="#D4C006"/>
<path d="M103.75 131.652C103.75 131.652 107.042 137.466 110.391 138.057C113.739 138.648 109.087 133.572 108.711 130.916C108.336 128.259 108.767 124.171 108.464 120.342C108.151 116.518 104.486 107.031 105.483 105.659C106.47 104.292 111.384 104.207 110.569 101.065C109.761 97.9309 108.826 91.5291 113.55 91.3854C118.268 91.2337 120.106 92.5168 121.544 90.2841C122.982 88.0513 124.349 88.3247 125.223 86.7499C126.097 85.1752 128.201 84.1738 126.399 82.3985C124.597 80.6232 121.804 78.1874 123.17 76.9389C124.536 75.6904 126.364 74.9383 127.443 76.1391C128.516 77.3321 128.33 77.7784 128.952 78.834C129.567 79.8817 128.829 79.6345 130.066 78.694C131.312 77.7484 132.243 78.5603 131.559 80.1943C130.874 81.8283 134.133 83.071 135.396 80.6063C136.658 78.1415 139.937 78.3707 140.441 76.6723C140.937 74.9791 139.025 75.0234 141.694 73.6941C144.354 72.3701 144.663 72.1264 145.161 70.9388C145.66 69.7511 145.347 65.9269 147.831 68.0877C150.314 70.2485 150.434 71.9862 149.134 74.0943C147.834 76.2025 147.213 78.7093 148.327 80.0912C149.442 81.4731 153.295 80.3659 154.159 79.7995C155.03 79.241 156.144 82.1448 156.024 83.4508C155.895 84.762 156.154 85.1833 156.583 86.6773C157.012 88.1713 153.046 89.0706 151.863 90.889C150.68 92.7074 152.857 93.577 153.609 96.365C154.354 99.1452 154.237 101.475 153.919 102.727C153.609 103.974 151.186 106.228 155.784 106.379C160.382 106.53 160.441 104.857 161.871 107.525C163.301 110.193 172.801 119.893 185.717 113.807C185.521 121.396 166.223 132.636 166.223 132.636C166.223 132.636 161.967 132.813 159.361 131.453C156.754 130.092 152.933 131.252 152.933 131.252C152.933 131.252 152.241 134.07 147.348 132.468C143.11 132.728 143.11 133.873 142.409 134.407C141.709 134.94 136.892 134.759 136.042 132.957C135.193 131.156 139.147 123.952 132.162 125.467C126.754 129.663 127.648 124.879 126.896 123.236C125.106 123.719 121.683 128.125 123.731 130.824C125.78 133.523 125.406 135.184 124.573 134.907C123.731 134.635 123.038 135.931 123.873 136.962C124.714 138.002 125.788 138.474 122.897 139.692C120.006 140.909 116.842 144.686 116.336 148.202C111.122 148.525 107.577 147.112 110.281 151.674C112.985 156.236 108.472 157.17 108.047 157.03C107.622 156.891 95.1026 136.682 93.702 133.561C92.3013 130.44 103.75 131.652 103.75 131.652Z" fill="#F1AD05"/>
<path d="M169.222 214.24L111.325 143.269L82.4103 107.77C72.7692 95.9385 63.1458 84.0972 53.7256 72.1409C63.9122 83.675 73.8956 95.324 83.8613 106.983L113.767 141.955L173.502 211.932L169.222 214.24Z" fill="#BA4220"/>
<path d="M86.38 110.648C86.519 110.173 86.5593 109.463 86.5909 108.85C86.6111 108.21 86.5994 107.563 86.5718 106.914C86.5006 105.613 86.3976 104.307 86.2378 102.997C85.9182 100.378 85.4667 97.7627 85.0153 95.1473L83.4405 87.2966C82.9413 84.673 82.3921 82.0542 81.9882 79.4005C82.9554 81.9719 83.8113 84.5705 84.5513 87.1758C85.2982 89.7889 85.8883 92.4082 86.4262 95.0451C86.9481 97.6792 87.4451 100.316 87.6922 102.975C87.8248 104.3 87.9393 105.635 87.931 106.969C87.9315 107.633 87.9137 108.308 87.8573 108.969C87.7714 109.658 87.7398 110.271 87.4361 111.035L86.38 110.648Z" fill="#BA4220"/>
<path d="M91.6052 118.429C87.9126 117.071 84.2651 115.641 80.6669 114.114C77.0576 112.604 73.5066 110.992 70.012 109.29C66.5151 107.602 63.0586 105.821 59.7687 103.83C58.0968 102.873 56.5195 101.793 54.9693 100.698C54.2179 100.131 53.4574 99.5699 52.7263 98.9804L50.6729 97.11C53.5837 99.4526 56.9117 101.364 60.2463 103.237C63.6013 105.086 67.0417 106.818 70.5475 108.456C74.0532 110.093 77.6018 111.671 81.1863 113.183C84.773 114.682 88.3665 116.189 92.0117 117.585L91.6052 118.429Z" fill="#BA4220"/>
<path d="M103.261 131.165C103.456 128.742 103.541 126.286 103.625 123.844C103.708 121.401 103.696 118.942 103.649 116.491C103.611 114.034 103.442 111.581 103.124 109.13C102.772 106.685 102.37 104.246 101.512 101.827C103.021 104.092 103.604 106.629 103.985 109.092C104.381 111.57 104.628 114.049 104.736 116.525C104.962 121.471 104.82 126.4 104.387 131.306L103.261 131.165Z" fill="#BA4220"/>
<path d="M130.052 123.195C128.545 120.625 127.147 118.028 125.819 115.403C125.164 114.085 124.525 112.771 123.903 111.446C123.273 110.126 122.703 108.784 122.445 107.37C123.371 108.616 124.055 109.906 124.728 111.213C125.41 112.515 126.11 113.808 126.826 115.103L131.057 122.862L130.052 123.195Z" fill="#BA4220"/>
<path d="M125.447 156.47C125.049 152.744 125.095 149.088 125.343 145.427C125.606 141.768 126.105 138.143 126.895 134.567C127.652 130.987 128.779 127.483 130.047 124.031L131.079 121.467C131.417 120.616 131.851 119.782 132.228 118.944C133.001 117.259 133.84 115.619 134.657 113.968C137.932 107.359 141.075 100.694 144.115 94.0039L148.625 83.9372C150.071 80.5627 151.736 77.2664 153.103 73.8649C152.714 75.6433 152.076 77.3721 151.456 79.0905C150.836 80.8089 150.174 82.5269 149.466 84.2235C148.099 87.625 146.605 90.9912 145.103 94.3494C142.101 101.066 138.997 107.745 135.759 114.38C134.949 116.039 134.108 117.692 133.356 119.354C132.988 120.187 132.565 121.003 132.227 121.854L131.216 124.394C129.971 127.81 128.883 131.28 128.156 134.832C126.666 141.896 125.926 149.191 126.575 156.442L125.447 156.47Z" fill="#BA4220"/>
<path d="M107.758 137.977C107.79 138.03 107.862 138.096 107.931 138.128C107.97 138.141 108.009 138.155 108.041 138.16L108.016 138.163L107.92 138.146C107.855 138.135 107.766 138.126 107.692 138.12L107.203 138.076L106.189 137.996L104.153 137.839L100.07 137.498C97.3534 137.251 94.63 136.95 91.9201 136.57C89.2101 136.191 86.5089 135.712 83.853 135.066C82.5261 134.737 81.2129 134.377 79.9245 133.92C78.6431 133.471 77.3912 132.947 76.2878 132.234C78.5404 133.635 81.254 134.33 83.8935 134.879C86.5582 135.425 89.2566 135.776 91.9617 136.088C94.6598 136.392 97.3645 136.609 100.085 136.783L104.154 137.015L106.192 137.111L107.219 137.16L107.743 137.197L108.021 137.218L108.175 137.238L108.217 137.238C108.272 137.254 108.336 137.266 108.391 137.282C108.509 137.322 108.619 137.402 108.691 137.467L107.758 137.977Z" fill="#BA4220"/>
<path d="M123.016 157.105C119.763 155.545 116.141 154.344 112.56 153.285C108.953 152.24 105.284 151.36 101.588 150.589C94.1892 149.087 86.6845 148.055 79.1606 147.376C71.6206 146.695 64.0556 146.062 56.5103 145.219C52.7423 144.818 48.9628 144.388 45.2036 143.888C41.4399 143.414 37.6805 142.867 33.9346 142.242C41.4729 143.078 49.0174 143.733 56.5621 144.436C64.1043 145.105 71.6488 145.76 79.2022 146.364C86.7787 146.978 94.3501 148.007 101.827 149.537C105.562 150.321 109.272 151.202 112.919 152.307C116.564 153.424 120.152 154.633 123.59 156.325L123.016 157.105Z" fill="#BA4220"/>
<path d="M67.0714 169.64C69.4277 166.944 72.4606 164.799 75.5809 162.787C78.7035 160.762 81.9511 158.848 85.3309 157.102C88.7342 155.367 92.3122 153.849 96.0981 152.65C97.9851 152.035 99.9549 151.581 101.972 151.244C103.989 150.908 106.066 150.721 108.18 150.802L108.242 151.774C104.265 151.82 100.424 152.698 96.7743 153.893C93.1107 155.072 89.6598 156.64 86.301 158.313C82.9399 160 79.7038 161.847 76.5905 163.819C73.4583 165.801 70.4487 167.859 67.0714 169.64Z" fill="#BA4220"/>
<path d="M123.775 154.096C127.445 153.642 131.134 153.32 134.844 153.115C138.552 152.877 142.286 152.778 146.039 152.81C149.787 152.822 153.558 152.939 157.311 153.362C159.197 153.539 161.063 153.881 162.925 154.249C163.855 154.463 164.775 154.682 165.682 154.933C166.58 155.236 167.469 155.544 168.339 155.863C164.677 154.962 160.963 154.66 157.264 154.407C153.554 154.173 149.85 154.054 146.143 154.09C142.437 154.127 138.745 154.226 135.041 154.391C131.352 154.572 127.658 154.779 123.987 155.044L123.775 154.096Z" fill="#BA4220"/>
<path d="M59.4426 133.965C63.6989 136.002 67.935 138.063 72.1531 140.179C74.2532 141.243 76.333 142.329 78.4083 143.441C79.446 143.997 80.4656 144.563 81.4989 145.145C82.0088 145.451 82.5141 145.737 83.0218 146.056L83.7698 146.542C84.0259 146.712 84.2778 146.954 84.5273 147.162L83.6248 147.668C83.4388 147.517 83.2936 147.366 83.0759 147.21L82.3913 146.735C81.9311 146.424 81.428 146.125 80.9429 145.817C79.9526 145.222 78.9532 144.633 77.9358 144.054C75.9168 142.899 73.8685 141.772 71.8112 140.65C67.7168 138.382 63.591 136.156 59.4426 133.965Z" fill="#BA4220"/>
<path d="M100.992 193.401C102.825 190.1 105.502 187.386 107.852 184.439C110.229 181.524 112.502 178.536 114.609 175.486C116.733 172.439 118.726 169.322 120.301 166.058C121.077 164.421 121.788 162.772 122.25 161.061C122.709 159.362 122.955 157.593 122.605 155.884L123.742 155.747C124.274 157.664 124.071 159.576 123.66 161.378C123.24 163.186 122.621 164.938 121.822 166.612C120.247 169.971 118.289 173.176 116.158 176.262C113.988 179.335 111.658 182.32 109.213 185.237C106.755 188.138 104.429 191.143 100.992 193.401Z" fill="#BA4220"/>
</svg>
