<svg width="270" height="357" viewBox="0 0 270 357" fill="none" xmlns="http://www.w3.org/2000/svg">
<g clip-path="url(#clip0)">
<path d="M227.232 170.422L193.513 130.391C187.201 122.916 176.072 121.92 168.597 128.232L93.8507 191.185L91.8575 173.744C91.193 167.764 93.5185 161.785 98.3355 157.964L154.811 112.618C162.617 106.306 163.78 95.011 157.302 87.3703L113.949 35.8783C110.461 31.7257 109.132 26.2443 110.129 20.929L114.447 0L258.459 170.754C264.771 178.229 263.774 189.358 256.3 195.67L170.59 267.924C166.106 271.745 160.126 273.074 154.478 271.413L139.695 267.26L225.072 195.171C232.547 189.025 233.543 177.897 227.232 170.422Z" fill="white"/>
<path d="M45.0131 186.53L78.7321 226.561C85.044 234.035 96.1729 235.032 103.648 228.72L178.394 165.767L180.387 183.208C181.052 189.187 178.726 195.167 173.909 198.987L117.434 244.334C109.627 250.479 108.631 261.941 114.943 269.415L158.295 320.907C161.784 325.06 163.113 330.541 162.116 335.856L157.797 356.785L13.7857 186.198C7.47378 178.723 8.4704 167.594 15.945 161.282L101.654 89.0271C106.139 85.2068 112.119 83.8779 117.766 85.539L132.549 89.6916L47.0063 161.614C39.6978 167.926 38.7012 179.055 45.0131 186.53Z" fill="white"/>
</g>
<defs>
<clipPath id="clip0">
<rect width="270" height="356.786" fill="white"/>
</clipPath>
</defs>
</svg>
