<svg width="512" height="512" viewBox="0 0 512 512" fill="none" xmlns="http://www.w3.org/2000/svg">
<path d="M386.268 244.562L337.88 187.116C328.822 176.389 312.852 174.959 302.125 184.017L194.862 274.357L192.001 249.329C191.048 240.748 194.385 232.167 201.297 226.684L282.341 161.611C293.544 152.553 295.213 136.344 285.917 125.379L223.704 51.4866C218.698 45.5275 216.791 37.6615 218.221 30.0339L224.419 0L431.08 245.038C440.138 255.765 438.708 271.735 427.982 280.793L304.986 384.481C298.55 389.964 289.969 391.87 281.864 389.487L260.65 383.528L383.169 280.078C393.896 271.258 395.326 255.288 386.268 244.562Z" fill="white"/>
<path d="M124.779 267.677L173.167 325.123C182.225 335.849 198.195 337.279 208.922 328.221L316.185 237.881L319.046 262.91C319.999 271.491 316.662 280.072 309.75 285.554L228.706 350.628C217.503 359.447 216.073 375.894 225.13 386.621L287.343 460.513C292.349 466.473 294.256 474.339 292.826 481.966L286.628 512L79.9667 267.2C70.9089 256.474 72.339 240.503 83.0654 231.446L206.061 127.757C212.497 122.275 221.078 120.368 229.183 122.752L250.397 128.711L127.64 231.922C117.151 240.98 115.721 256.951 124.779 267.677Z" fill="white"/>
</svg>
