<svg width="192" height="192" viewBox="0 0 192 192" fill="none" xmlns="http://www.w3.org/2000/svg">
<path d="M144.851 91.7106L126.705 70.1684C123.308 66.146 117.32 65.6097 113.297 69.0064L73.0733 102.884L72.0006 93.4983C71.6431 90.2804 72.8945 87.0625 75.4867 85.0066L105.878 60.6041C110.079 57.2074 110.705 51.1291 107.219 47.0173L83.889 19.3075C82.0119 17.0728 81.2968 14.1231 81.8332 11.2627L84.1572 0L161.655 91.8893C165.052 95.9117 164.516 101.901 160.493 105.297L114.37 144.18C111.956 146.236 108.738 146.951 105.699 146.058L97.7439 143.823L143.689 105.029C147.711 101.722 148.247 95.733 144.851 91.7106Z" fill="white"/>
<path d="M46.7922 100.379L64.9376 121.921C68.3343 125.943 74.3232 126.48 78.3456 123.083L118.57 89.2055L119.642 98.5911C120 101.809 118.748 105.027 116.156 107.083L85.7647 131.485C81.5635 134.793 81.0272 140.96 84.4239 144.983L107.754 172.693C109.631 174.927 110.346 177.877 109.81 180.737L107.486 192L29.9875 100.2C26.5908 96.1777 27.1271 90.1888 31.1495 86.7921L77.273 47.9089C79.6864 45.8531 82.9043 45.138 85.9435 46.0318L93.8989 48.2665L47.8648 86.9709C43.9318 90.3675 43.3955 96.3564 46.7922 100.379Z" fill="white"/>
</svg>
