<svg width="186" height="82" viewBox="0 0 186 82" fill="none" xmlns="http://www.w3.org/2000/svg">
<path d="M87.9088 51.8935C87.9088 52.4157 87.8072 52.9089 87.6042 53.3731C87.4156 53.8373 87.1472 54.2434 86.7991 54.5916C86.451 54.9397 86.0448 55.2153 85.5806 55.4184C85.1165 55.6214 84.616 55.723 84.0793 55.723C83.5426 55.723 83.0349 55.6214 82.5562 55.4184C82.0921 55.2153 81.6859 54.9397 81.3378 54.5916C80.9896 54.2434 80.714 53.8373 80.511 53.3731C80.3079 52.9089 80.2064 52.4157 80.2064 51.8935C80.2064 51.3568 80.3079 50.8564 80.511 50.3922C80.714 49.9135 80.9896 49.5001 81.3378 49.152C81.6859 48.8039 82.0921 48.5283 82.5562 48.3252C83.0349 48.1221 83.5426 48.0206 84.0793 48.0206C84.616 48.0206 85.1165 48.1221 85.5806 48.3252C86.0448 48.5283 86.451 48.8039 86.7991 49.152C87.1472 49.5001 87.4156 49.9135 87.6042 50.3922C87.8072 50.8564 87.9088 51.3568 87.9088 51.8935ZM87.169 57.9206L85.5154 78.852L81.316 78.4168L81.0549 57.5942L87.169 57.9206Z" fill="black"/>
<path d="M102.77 71.4542C101.624 71.4542 100.485 71.3091 99.3536 71.019C98.2367 70.7144 97.2213 70.2357 96.3074 69.583C96.3219 70.1487 96.3582 70.7289 96.4162 71.3236C96.4743 71.9184 96.5685 72.4986 96.6991 73.0643C96.8441 73.6155 97.0255 74.1377 97.243 74.6309C97.4751 75.1241 97.7652 75.5592 98.1134 75.9364C98.476 76.299 98.9039 76.5891 99.3971 76.8067C99.9048 77.0243 100.507 77.1331 101.203 77.1331C101.856 77.1331 102.465 77.017 103.031 76.785C103.596 76.5384 104.09 76.212 104.51 75.8058C104.945 75.3997 105.301 74.921 105.576 74.3698C105.852 73.8186 106.041 73.2238 106.142 72.5856L111.495 73.7823C111.074 74.6816 110.479 75.4432 109.711 76.0669C108.956 76.6907 108.115 77.1911 107.187 77.5682C106.258 77.9599 105.286 78.2427 104.271 78.4168C103.27 78.5909 102.305 78.6779 101.377 78.6779C99.709 78.6779 98.2222 78.4313 96.9167 77.9381C95.6112 77.4449 94.5088 76.7342 93.6094 75.8058C92.7246 74.8775 92.0428 73.7533 91.5642 72.4333C91.1 71.0988 90.8679 69.6047 90.8679 67.9511C90.8679 66.341 91.1435 64.8252 91.6947 63.4036C92.2459 61.9676 93.0147 60.7201 94.0011 59.6612C94.9874 58.6023 96.1696 57.7683 97.5477 57.159C98.9402 56.5353 100.471 56.2234 102.139 56.2234C103.357 56.2234 104.568 56.3757 105.772 56.6803C106.976 56.9705 108.057 57.4346 109.014 58.0729C109.972 58.6966 110.74 59.5017 111.321 60.488C111.915 61.4744 112.213 62.6639 112.213 64.0564C112.213 65.4199 111.937 66.5731 111.386 67.5159C110.849 68.4443 110.138 69.2058 109.254 69.8006C108.369 70.3808 107.361 70.8014 106.229 71.0625C105.098 71.3236 103.945 71.4542 102.77 71.4542ZM101.834 57.8335C101.167 57.8335 100.572 57.9713 100.05 58.2469C99.5422 58.508 99.0852 58.8707 98.6791 59.3349C98.2874 59.799 97.9538 60.3285 97.6782 60.9232C97.4026 61.5179 97.1705 62.1417 96.9819 62.7944C96.7934 63.4472 96.6483 64.1071 96.5468 64.7744C96.4452 65.4417 96.38 66.0654 96.351 66.6456C96.9022 67.5885 97.6347 68.3645 98.5485 68.9737C99.4624 69.5685 100.521 69.8658 101.725 69.8658C102.494 69.8658 103.183 69.6918 103.792 69.3436C104.402 68.981 104.916 68.5168 105.337 67.9511C105.758 67.3854 106.077 66.7544 106.294 66.0581C106.527 65.3619 106.643 64.6656 106.643 63.9693C106.643 63.2731 106.541 62.5623 106.338 61.837C106.135 61.0973 105.83 60.4373 105.424 59.857C105.032 59.2623 104.532 58.7764 103.923 58.3992C103.328 58.0221 102.632 57.8335 101.834 57.8335Z" fill="black"/>
<path d="M126.225 78.2427C124.978 78.2427 123.73 78.0832 122.483 77.7641C121.25 77.4449 120.118 76.959 119.088 76.3063C118.058 75.639 117.188 74.8049 116.477 73.8041C115.781 72.7887 115.353 71.592 115.194 70.214L121.286 70.388C121.257 70.4751 121.242 70.5693 121.242 70.6709C121.242 70.7579 121.242 70.8449 121.242 70.932C121.242 71.7878 121.366 72.5566 121.612 73.2383C121.873 73.9201 122.243 74.5003 122.722 74.979C123.201 75.4432 123.774 75.7986 124.441 76.0452C125.108 76.2918 125.855 76.4151 126.682 76.4151C127.175 76.4151 127.654 76.3643 128.118 76.2627C128.597 76.1612 129.017 75.9944 129.38 75.7623C129.757 75.5157 130.062 75.1966 130.294 74.8049C130.526 74.4133 130.642 73.9201 130.642 73.3254C130.642 72.6581 130.432 72.0852 130.011 71.6065C129.59 71.1278 129.075 70.7289 128.466 70.4098C127.871 70.0762 127.24 69.8078 126.573 69.6047C125.92 69.3871 125.347 69.2203 124.854 69.1043C124.347 68.9737 123.759 68.8287 123.092 68.6691C122.439 68.4951 121.765 68.2992 121.068 68.0817C120.372 67.8496 119.69 67.5812 119.023 67.2766C118.356 66.972 117.761 66.6093 117.239 66.1887C116.717 65.768 116.296 65.2893 115.977 64.7526C115.658 64.2014 115.498 63.5704 115.498 62.8597C115.498 62.0619 115.651 61.3366 115.955 60.6839C116.26 60.0311 116.666 59.4509 117.174 58.9432C117.696 58.4355 118.29 58.0003 118.958 57.6377C119.64 57.2606 120.343 56.956 121.068 56.7239C121.794 56.4773 122.526 56.2959 123.266 56.1799C124.006 56.0639 124.702 56.0058 125.355 56.0058C126.457 56.0058 127.574 56.1364 128.705 56.3975C129.851 56.6441 130.889 57.0502 131.817 57.6159C132.76 58.1817 133.543 58.9142 134.167 59.8135C134.805 60.7129 135.175 61.8008 135.276 63.0773L129.358 63.5342V63.3166C129.373 62.4608 129.271 61.6847 129.054 60.9885C128.85 60.2922 128.531 59.6975 128.096 59.2043C127.676 58.7111 127.139 58.334 126.486 58.0729C125.848 57.7973 125.094 57.6595 124.223 57.6595C123.832 57.6595 123.404 57.7175 122.94 57.8335C122.475 57.9496 122.04 58.1309 121.634 58.3775C121.242 58.6096 120.909 58.9069 120.633 59.2696C120.358 59.6322 120.22 60.0601 120.22 60.5533C120.22 61.3076 120.452 61.9168 120.916 62.381C121.395 62.8307 121.975 63.1933 122.657 63.4689C123.338 63.73 124.049 63.9331 124.789 64.0781C125.529 64.2087 126.174 64.3392 126.725 64.4698C127.32 64.6003 127.951 64.7672 128.618 64.9702C129.3 65.1588 129.967 65.3981 130.62 65.6882C131.287 65.9639 131.918 66.2975 132.513 66.6891C133.122 67.0663 133.659 67.5087 134.123 68.0164C134.587 68.5096 134.957 69.0753 135.233 69.7135C135.508 70.3373 135.646 71.0408 135.646 71.8241C135.646 72.999 135.342 73.9999 134.732 74.8267C134.123 75.639 133.347 76.299 132.404 76.8067C131.476 77.3144 130.461 77.677 129.358 77.8946C128.256 78.1267 127.211 78.2427 126.225 78.2427Z" fill="black"/>
<path d="M147.113 47.2155L146.852 56.1364H152.008V57.9641H146.808L146.221 77.6988L142.217 78.0687L141.804 57.9641H136.451V56.1364H141.76L141.63 48.608L147.113 47.2155Z" fill="black"/>
<path d="M167.936 77.3071L168.479 75.0225C167.972 75.4722 167.406 75.8783 166.782 76.241C166.173 76.6036 165.542 76.9155 164.889 77.1766C164.237 77.4232 163.584 77.6118 162.931 77.7423C162.293 77.8874 161.705 77.9599 161.169 77.9599C160.226 77.9599 159.254 77.8221 158.253 77.5465C157.252 77.2709 156.346 76.8575 155.533 76.3063C154.721 75.7551 154.054 75.066 153.532 74.2392C153.009 73.4124 152.748 72.4551 152.748 71.3671C152.748 69.9456 152.995 68.7126 153.488 67.6683C153.981 66.6239 154.648 65.7608 155.49 65.079C156.346 64.3973 157.347 63.8968 158.492 63.5777C159.638 63.2441 160.871 63.0773 162.191 63.0773C162.815 63.0773 163.453 63.128 164.106 63.2296C164.759 63.3311 165.397 63.4834 166.021 63.6865C166.645 63.8896 167.239 64.1579 167.805 64.4915C168.371 64.8252 168.878 65.2168 169.328 65.6665C169.285 64.8832 169.176 64.0564 169.002 63.1861C168.842 62.3157 168.581 61.5252 168.218 60.8144C167.87 60.0891 167.399 59.4944 166.804 59.0302C166.209 58.5516 165.455 58.3122 164.541 58.3122C163.207 58.3122 162.075 58.6603 161.147 59.3566C160.233 60.0384 159.602 61.032 159.254 62.3375L153.597 61.75C153.945 60.8507 154.438 60.0601 155.076 59.3784C155.715 58.6821 156.433 58.1019 157.23 57.6377C158.043 57.1735 158.906 56.8254 159.82 56.5933C160.734 56.3467 161.655 56.2234 162.583 56.2234C164.005 56.2234 165.274 56.4265 166.391 56.8327C167.522 57.2388 168.516 57.7973 169.372 58.508C170.227 59.2188 170.953 60.0601 171.547 61.032C172.142 61.9894 172.628 63.0265 173.005 64.1434C173.382 65.2458 173.658 66.4063 173.832 67.6247C174.006 68.8287 174.093 70.0326 174.093 71.2366C174.093 72.31 174.035 73.3762 173.919 74.4351C173.803 75.4795 173.636 76.5238 173.419 77.5682L167.936 77.3071ZM169.089 71.1496C169.132 70.8159 169.161 70.4896 169.176 70.1704C169.205 69.8513 169.234 69.5249 169.263 69.1913C169.19 68.5096 168.951 67.9076 168.545 67.3854C168.139 66.8487 167.645 66.399 167.065 66.0364C166.485 65.6592 165.854 65.3764 165.172 65.1878C164.49 64.9992 163.823 64.905 163.17 64.905C162.416 64.905 161.713 65.0355 161.06 65.2966C160.407 65.5432 159.841 65.8986 159.363 66.3628C158.884 66.8269 158.507 67.3781 158.231 68.0164C157.956 68.6546 157.818 69.3581 157.818 70.1269C157.818 70.9102 157.934 71.6282 158.166 72.281C158.413 72.9192 158.754 73.4777 159.189 73.9564C159.624 74.4205 160.153 74.7832 160.777 75.0443C161.415 75.3054 162.126 75.4359 162.909 75.4359C163.606 75.4359 164.287 75.3344 164.955 75.1313C165.622 74.9282 166.231 74.6454 166.782 74.2827C167.348 73.9056 167.827 73.4559 168.218 72.9337C168.625 72.397 168.915 71.8023 169.089 71.1496Z" fill="black"/>
<path d="M112.287 22.5296C112.287 24.345 112.058 26.0657 111.6 27.6917C111.143 29.3018 110.495 30.7936 109.659 32.167C108.822 33.5404 107.82 34.7717 106.651 35.8609C105.483 36.9502 104.189 37.8737 102.768 38.6314C101.347 39.3891 99.824 39.9732 98.1981 40.3836C96.5721 40.7941 94.883 40.9993 93.1307 40.9993C90.3997 40.9993 87.8819 40.5573 85.5771 39.6733C83.2881 38.805 81.307 37.5658 79.6337 35.9557C77.9761 34.3455 76.6817 32.4038 75.7503 30.1306C74.8189 27.8574 74.3532 25.3238 74.3532 22.5296C74.3532 20.7458 74.5742 19.0488 75.0163 17.4386C75.4583 15.8285 76.0818 14.3446 76.8869 12.987C77.692 11.6136 78.6628 10.3744 79.7994 9.26935C80.936 8.16433 82.1989 7.23295 83.5881 6.47522C84.993 5.70171 86.4927 5.10973 88.0871 4.69929C89.6973 4.27307 91.3785 4.05996 93.1307 4.05996C94.883 4.05996 96.5721 4.26518 98.1981 4.67561C99.8398 5.07026 101.371 5.64645 102.792 6.40418C104.213 7.16191 105.507 8.0854 106.675 9.17463C107.843 10.2639 108.838 11.4952 109.659 12.8686C110.495 14.242 111.143 15.7416 111.6 17.3676C112.058 18.9778 112.287 20.6984 112.287 22.5296ZM105.775 22.5296C105.775 21.2825 105.665 20.0196 105.444 18.741C105.239 17.4465 104.915 16.2073 104.473 15.0234C104.031 13.8236 103.471 12.7028 102.792 11.6609C102.129 10.6033 101.332 9.68768 100.4 8.91416C99.4846 8.12486 98.4427 7.50921 97.2746 7.0672C96.1064 6.6094 94.804 6.38051 93.3675 6.38051C91.931 6.38051 90.6286 6.6094 89.4605 7.0672C88.2923 7.52499 87.2504 8.14854 86.3348 8.93784C85.4193 9.71136 84.6221 10.6269 83.9433 11.6846C83.2645 12.7265 82.7041 13.8473 82.262 15.047C81.82 16.2468 81.4885 17.486 81.2675 18.7647C81.0623 20.0433 80.9597 21.2983 80.9597 22.5296C80.9597 23.8399 81.0544 25.1501 81.2439 26.4603C81.4333 27.7706 81.7332 29.0256 82.1437 30.2253C82.5541 31.4093 83.0829 32.5222 83.7301 33.5641C84.3932 34.5902 85.1825 35.4821 86.0981 36.2398C87.0136 36.9975 88.0713 37.5974 89.271 38.0394C90.4866 38.4656 91.8521 38.6787 93.3675 38.6787C94.8356 38.6787 96.1617 38.4577 97.3456 38.0157C98.5296 37.5737 99.5793 36.966 100.495 36.1924C101.426 35.4189 102.223 34.5191 102.887 33.493C103.55 32.4511 104.094 31.3303 104.52 30.1306C104.947 28.9309 105.262 27.6838 105.468 26.3893C105.673 25.0949 105.775 23.8083 105.775 22.5296Z" fill="black"/>
<path d="M131.917 41.2598C130.07 41.2598 128.341 41.0309 126.731 40.5731C125.121 40.1153 123.653 39.4286 122.327 38.513C121.001 37.5974 119.825 36.4529 118.799 35.0795C117.789 33.7061 116.96 32.1118 116.313 30.2964L124.505 29.8465C124.632 32.7511 125.461 34.969 126.992 36.5003C128.523 38.0157 130.686 38.7735 133.48 38.7735C134.569 38.7735 135.658 38.663 136.748 38.442C137.837 38.2209 138.808 37.85 139.66 37.329C140.528 36.7923 141.231 36.0898 141.768 35.2216C142.32 34.3534 142.596 33.272 142.596 31.9776C142.596 31.0778 142.423 30.3121 142.075 29.6807C141.728 29.0335 141.262 28.4967 140.678 28.0705C140.11 27.6443 139.447 27.3049 138.689 27.0523C137.947 26.784 137.174 26.5787 136.369 26.4367C135.579 26.2788 134.79 26.1604 134.001 26.0815C133.211 26.0026 132.485 25.9315 131.822 25.8684C130.749 25.7894 129.628 25.6632 128.46 25.4895C127.292 25.3159 126.139 25.0712 125.003 24.7555C123.882 24.4397 122.808 24.0372 121.782 23.5478C120.756 23.0585 119.856 22.4428 119.083 21.7009C118.309 20.9431 117.694 20.0512 117.236 19.0251C116.778 17.999 116.549 16.7914 116.549 15.4022C116.549 14.0762 116.77 12.8765 117.212 11.803C117.654 10.7296 118.254 9.7824 119.012 8.96152C119.785 8.12486 120.669 7.4066 121.664 6.80673C122.674 6.19107 123.74 5.69381 124.861 5.31495C125.997 4.9203 127.158 4.62825 128.341 4.43882C129.525 4.24939 130.67 4.15467 131.775 4.15467C132.896 4.15467 134.072 4.22571 135.303 4.36779C136.55 4.50986 137.789 4.74665 139.021 5.07816C140.252 5.40966 141.436 5.84378 142.573 6.38051C143.725 6.90144 144.759 7.54867 145.675 8.32219C146.606 9.0957 147.379 10.0034 147.995 11.0453C148.611 12.0714 149.013 13.2474 149.203 14.5735L141.294 16.1836C141.389 15.5996 141.436 14.9997 141.436 14.384C141.436 12.9475 141.144 11.732 140.56 10.7375C139.976 9.74293 139.202 8.94574 138.239 8.34587C137.276 7.73021 136.187 7.2882 134.972 7.01984C133.756 6.75148 132.517 6.6173 131.254 6.6173C130.133 6.6173 129.02 6.76726 127.915 7.0672C126.826 7.35135 125.839 7.78546 124.955 8.36955C124.087 8.95363 123.385 9.68768 122.848 10.5717C122.311 11.4557 122.043 12.4976 122.043 13.6973C122.043 14.5182 122.264 15.2286 122.706 15.8284C123.148 16.4283 123.724 16.9493 124.434 17.3913C125.161 17.8175 125.974 18.1727 126.873 18.4568C127.773 18.741 128.673 18.9778 129.573 19.1672C130.488 19.3408 131.357 19.4829 132.178 19.5934C132.998 19.6881 133.693 19.7592 134.261 19.8065C135.272 19.917 136.329 20.0749 137.434 20.2801C138.539 20.4695 139.629 20.7379 140.702 21.0852C141.775 21.4325 142.802 21.8666 143.78 22.3875C144.759 22.9085 145.611 23.5399 146.338 24.2819C147.08 25.0238 147.664 25.892 148.09 26.8866C148.532 27.8811 148.753 29.0177 148.753 30.2964C148.753 31.654 148.484 32.8695 147.948 33.9429C147.411 35.0006 146.693 35.9399 145.793 36.7607C144.909 37.5658 143.891 38.2604 142.738 38.8445C141.586 39.4128 140.386 39.8706 139.139 40.2179C137.892 40.581 136.645 40.8414 135.398 40.9993C134.151 41.1729 132.99 41.2598 131.917 41.2598Z" fill="black"/>
<path d="M168.714 41.2598C166.867 41.2598 165.139 41.0309 163.529 40.5731C161.918 40.1153 160.45 39.4286 159.124 38.513C157.798 37.5974 156.622 36.4529 155.596 35.0795C154.586 33.7061 153.757 32.1118 153.11 30.2964L161.303 29.8465C161.429 32.7511 162.258 34.969 163.789 36.5003C165.32 38.0157 167.483 38.7735 170.277 38.7735C171.366 38.7735 172.456 38.663 173.545 38.442C174.634 38.2209 175.605 37.85 176.457 37.329C177.326 36.7923 178.028 36.0898 178.565 35.2216C179.117 34.3534 179.394 33.272 179.394 31.9776C179.394 31.0778 179.22 30.3121 178.873 29.6807C178.525 29.0335 178.06 28.4967 177.476 28.0705C176.907 27.6443 176.244 27.3049 175.487 27.0523C174.745 26.784 173.971 26.5787 173.166 26.4367C172.377 26.2788 171.587 26.1604 170.798 26.0815C170.009 26.0026 169.283 25.9315 168.62 25.8684C167.546 25.7894 166.425 25.6632 165.257 25.4895C164.089 25.3159 162.937 25.0712 161.8 24.7555C160.679 24.4397 159.606 24.0372 158.58 23.5478C157.554 23.0585 156.654 22.4428 155.88 21.7009C155.107 20.9431 154.491 20.0512 154.033 19.0251C153.575 17.999 153.347 16.7914 153.347 15.4022C153.347 14.0762 153.568 12.8765 154.01 11.803C154.452 10.7296 155.051 9.7824 155.809 8.96152C156.583 8.12486 157.467 7.4066 158.461 6.80673C159.472 6.19107 160.537 5.69381 161.658 5.31495C162.795 4.9203 163.955 4.62825 165.139 4.43882C166.323 4.24939 167.467 4.15467 168.572 4.15467C169.693 4.15467 170.869 4.22571 172.1 4.36779C173.348 4.50986 174.587 4.74665 175.818 5.07816C177.049 5.40966 178.233 5.84378 179.37 6.38051C180.522 6.90144 181.556 7.54867 182.472 8.32219C183.403 9.0957 184.177 10.0034 184.792 11.0453C185.408 12.0714 185.811 13.2474 186 14.5735L178.091 16.1836C178.186 15.5996 178.233 14.9997 178.233 14.384C178.233 12.9475 177.941 11.732 177.357 10.7375C176.773 9.74293 176 8.94574 175.037 8.34587C174.074 7.73021 172.984 7.2882 171.769 7.01984C170.553 6.75148 169.314 6.6173 168.051 6.6173C166.93 6.6173 165.818 6.76726 164.713 7.0672C163.623 7.35135 162.637 7.78546 161.753 8.36955C160.884 8.95363 160.182 9.68768 159.645 10.5717C159.108 11.4557 158.84 12.4976 158.84 13.6973C158.84 14.5182 159.061 15.2286 159.503 15.8284C159.945 16.4283 160.521 16.9493 161.232 17.3913C161.958 17.8175 162.771 18.1727 163.671 18.4568C164.57 18.741 165.47 18.9778 166.37 19.1672C167.286 19.3408 168.154 19.4829 168.975 19.5934C169.796 19.6881 170.49 19.7592 171.059 19.8065C172.069 19.917 173.126 20.0749 174.232 20.2801C175.337 20.4695 176.426 20.7379 177.499 21.0852C178.573 21.4325 179.599 21.8666 180.577 22.3875C181.556 22.9085 182.409 23.5399 183.135 24.2819C183.877 25.0238 184.461 25.892 184.887 26.8866C185.329 27.8811 185.55 29.0177 185.55 30.2964C185.55 31.654 185.282 32.8695 184.745 33.9429C184.208 35.0006 183.49 35.9399 182.59 36.7607C181.706 37.5658 180.688 38.2604 179.536 38.8445C178.383 39.4128 177.184 39.8706 175.936 40.2179C174.689 40.581 173.442 40.8414 172.195 40.9993C170.948 41.1729 169.788 41.2598 168.714 41.2598Z" fill="black"/>
<path d="M57.3353 45.2915C56.1667 45.1407 54.7154 45.0088 52.9814 44.8957C51.2474 44.7826 49.3626 44.6883 47.327 44.6129C45.3292 44.4999 43.2371 44.4245 41.0507 44.3868C38.902 44.3491 36.8099 44.3114 34.7744 44.2737C32.7765 44.236 30.8917 44.2171 29.12 44.2171C27.386 44.1795 25.9347 44.1606 24.7661 44.1606C23.1452 44.1606 21.5431 44.1606 19.9599 44.1606C18.3767 44.1606 16.7746 44.1983 15.1537 44.2737C15.0783 49.5134 15.0595 54.6966 15.0972 59.8232C15.1349 64.9498 15.1537 70.1518 15.1537 75.4292C15.1537 76.3339 15.1537 77.2386 15.1537 78.1433C15.1537 79.0103 15.1914 79.915 15.2668 80.8574L1.35705 81.0836L0 0L65.0818 0.452349L64.8556 14.8144C63.2724 13.8343 61.2179 12.9297 58.6923 12.1003C56.2044 11.271 53.4715 10.536 50.4935 9.89514C47.5155 9.21662 44.3868 8.63233 41.1072 8.14229C37.8654 7.65224 34.699 7.23759 31.6079 6.89833C28.5169 6.52137 25.6143 6.2198 22.9002 5.99363C20.1861 5.76745 17.8678 5.59782 15.9453 5.48474C15.7191 11.0637 15.5495 16.6238 15.4364 22.1651C15.3233 27.6687 15.2291 33.21 15.1537 38.789H15.3799C17.0762 38.789 19.0552 38.7701 21.317 38.7324C23.6164 38.6947 26.0478 38.6382 28.6111 38.5628C31.1744 38.4874 33.7943 38.412 36.4707 38.3366C39.1848 38.2235 41.8235 38.1104 44.3868 37.9973C46.9501 37.8466 49.3626 37.7146 51.6244 37.6015C53.8861 37.4507 55.8651 37.2811 57.5615 37.0926L57.3353 45.2915Z" fill="black"/>
</svg>
