<svg width="494" height="193" viewBox="0 0 494 193" fill="none" xmlns="http://www.w3.org/2000/svg">
<g opacity="0.3" clip-path="url(#clip0)">
<path d="M616.251 47.0791C616.251 47.0791 591.688 92.3836 570.237 121.043C548.002 150.746 535.194 165.526 505.446 165.526C479.382 165.526 449.555 155.541 442.538 133.321C440.513 126.908 439.017 114.102 448.951 108.076C459.672 101.573 472.523 102.248 480.064 112.269C487.466 122.106 485.097 132.557 480.064 143.791C471.636 162.605 452.357 166.341 431.757 165.526C406.646 164.533 380.722 142.191 380.722 142.191" stroke="#A88771" stroke-width="3.16122" stroke-linecap="round" stroke-linejoin="round"/>
<path d="M367.209 131.812C367.102 126.309 371.396 121.694 376.898 121.577C382.253 121.462 386.581 125.517 386.996 130.856C387.419 136.326 383.454 141.157 377.99 141.637C372.316 142.134 367.319 137.507 367.209 131.812Z" stroke="#A88771" stroke-width="3.16122" stroke-linecap="round" stroke-linejoin="round"/>
<path d="M516.507 167.058C516.507 167.058 489.232 171.929 482.63 185.97C479.906 191.761 478.38 208.046 478.38 208.046" stroke="#A88771" stroke-width="3.16122" stroke-linecap="round" stroke-linejoin="round"/>
<path d="M362.709 133.761H145.466" stroke="#A88771" stroke-width="3.16122" stroke-linecap="round" stroke-linejoin="round"/>
<path d="M121.774 102.707C115.276 106.151 116.236 113.534 113.305 120.279C110.614 126.473 104.443 127.237 105.405 133.921C106.314 140.239 111.519 140.194 114.784 145.68C118.533 151.98 116.352 159.175 122.678 162.879C129.33 166.775 132.176 160.246 139.879 159.961C146.541 159.714 152.499 165.093 158.175 161.596C164.022 157.994 160.083 150.824 163.377 144.798C166.389 139.292 173.271 138.604 173.522 132.333C173.795 125.482 166.099 124.491 162.554 118.622C158.699 112.239 160.797 105.391 154.395 102.403C147.992 99.4147 144.649 105.519 137.583 105.526C130.301 105.533 128.209 99.2968 121.774 102.707Z" stroke="#B53A25" stroke-width="3.58272" stroke-linecap="round" stroke-linejoin="round"/>
<path d="M125.646 109.557C120.568 112.248 121.319 118.016 119.029 123.287C116.925 128.126 112.104 128.723 112.855 133.945C113.566 138.883 117.633 138.848 120.184 143.134C123.113 148.056 121.41 153.678 126.352 156.572C131.55 159.616 133.774 154.515 139.793 154.292C144.998 154.099 149.653 158.302 154.088 155.57C158.656 152.755 155.579 147.153 158.153 142.445C160.506 138.142 165.884 137.605 166.079 132.705C166.293 127.352 160.28 126.578 157.51 121.992C154.498 117.004 156.137 111.653 151.134 109.319C146.131 106.984 143.519 111.754 137.999 111.759C132.308 111.765 130.674 106.892 125.646 109.557Z" stroke="#B53A25" stroke-width="3.58272" stroke-linecap="round" stroke-linejoin="round"/>
<path d="M127.887 113.595C123.682 115.823 124.304 120.6 122.407 124.964C120.666 128.971 116.673 129.465 117.296 133.79C117.884 137.878 121.252 137.849 123.364 141.398C125.79 145.474 124.379 150.129 128.472 152.526C132.776 155.047 134.617 150.823 139.601 150.638C143.911 150.478 147.766 153.958 151.438 151.696C155.221 149.366 152.673 144.726 154.805 140.828C156.753 137.265 161.206 136.821 161.368 132.763C161.545 128.33 156.565 127.689 154.272 123.892C151.778 119.762 153.135 115.331 148.992 113.398C144.85 111.464 142.687 115.414 138.116 115.418C133.404 115.423 132.05 111.388 127.887 113.595Z" stroke="#B9C6B4" stroke-width="3.05585" stroke-linecap="round" stroke-linejoin="round"/>
<path d="M130.724 118.243C127.517 119.943 127.991 123.587 126.544 126.916C125.215 129.973 122.17 130.35 122.644 133.649C123.093 136.768 125.662 136.746 127.274 139.454C129.124 142.563 128.048 146.114 131.17 147.943C134.454 149.866 135.858 146.643 139.661 146.502C142.949 146.381 145.89 149.035 148.691 147.31C151.577 145.531 149.633 141.992 151.259 139.018C152.746 136.301 156.143 135.961 156.266 132.866C156.401 129.484 152.603 128.995 150.853 126.098C148.95 122.947 149.986 119.567 146.825 118.092C143.665 116.618 142.015 119.631 138.527 119.634C134.933 119.637 133.9 116.56 130.724 118.243Z" stroke="#B9C6B4" stroke-width="3.05585" stroke-linecap="round" stroke-linejoin="round"/>
<path d="M130.672 127.664C127.588 132.576 129.524 139.302 134.675 141.968C139.801 144.621 146.345 142.38 148.62 137.077C150.727 132.167 148.71 126.709 143.992 124.202C139.246 121.68 133.53 123.112 130.672 127.664Z" stroke="#B53A25" stroke-width="2.21286" stroke-linecap="round" stroke-linejoin="round"/>
<path d="M132.452 128.638C130.039 132.482 131.553 137.744 135.584 139.83C139.595 141.906 144.716 140.153 146.496 136.003C148.145 132.161 146.567 127.891 142.875 125.929C139.161 123.956 134.689 125.076 132.452 128.638Z" stroke="#B53A25" stroke-width="2.21286" stroke-linecap="round" stroke-linejoin="round"/>
<path d="M137.863 135.588C136.351 134.805 135.824 132.805 136.676 131.448C137.492 130.149 139.109 129.703 140.548 130.468C141.983 131.23 142.518 132.792 141.916 134.196C141.285 135.664 139.372 136.369 137.863 135.588Z" stroke="#B9C6B4" stroke-width="2.21286" stroke-linecap="round" stroke-linejoin="round"/>
<path d="M285.979 162.781C299.28 149.56 298.257 134.951 298.257 134.951C298.257 134.951 294.983 144.364 285.979 145.081C276.975 145.797 267.618 146.292 260.502 154.084C254.74 160.394 253.033 174.65 253.033 174.65C253.033 174.65 276.28 172.422 285.979 162.781Z" stroke="#A88771" stroke-width="1.89673" stroke-linecap="round" stroke-linejoin="round"/>
<path d="M284.955 160.304C297.303 149.431 297.831 137.834 297.831 137.834C297.831 137.834 294.209 145.411 286.628 146.22C279.048 147.029 271.194 147.672 264.519 154.061C259.115 159.234 256.343 170.623 256.343 170.623C256.343 170.623 275.95 168.233 284.955 160.304Z" stroke="#A88771" stroke-width="1.89673" stroke-linecap="round" stroke-linejoin="round"/>
<path d="M286.934 158.921C297.901 149.013 297.831 137.834 297.831 137.834C297.831 137.834 294.826 144.979 287.81 145.394C280.794 145.809 273.515 146.05 267.612 151.899C262.832 156.636 260.803 167.506 260.803 167.506C260.803 167.506 278.937 166.146 286.934 158.921Z" stroke="#A88771" stroke-width="1.89673" stroke-linecap="round" stroke-linejoin="round"/>
<path d="M285.262 156.582C295.29 148.106 296.48 139.93 296.48 139.93C296.48 139.93 293.238 145.496 287.483 146.582C281.728 147.667 275.778 148.655 270.323 153.596C265.905 157.597 263.042 165.78 263.042 165.78C263.042 165.78 277.949 162.763 285.262 156.582Z" stroke="#A88771" stroke-width="1.89673" stroke-linecap="round" stroke-linejoin="round"/>
<path d="M283.124 154.969C290.413 148.978 291.639 143.626 291.639 143.626C291.639 143.626 289.141 147.392 285.148 148.385C281.157 149.378 277.036 150.318 273.055 153.791C269.831 156.603 267.459 162.043 267.459 162.043C267.459 162.043 277.809 159.338 283.124 154.969Z" stroke="#A88771" stroke-width="1.89673" stroke-linecap="round" stroke-linejoin="round"/>
<path d="M279.687 153.973C285.479 149.437 286.94 145.977 286.94 145.977C286.94 145.977 284.763 148.595 281.846 149.658C278.929 150.721 275.928 151.766 272.742 154.367C270.162 156.474 267.886 160.117 267.886 160.117C267.886 160.117 275.463 157.28 279.687 153.973Z" stroke="#A88771" stroke-width="1.89673" stroke-linecap="round" stroke-linejoin="round"/>
<path d="M286.018 104.998C299.319 118.219 298.296 132.828 298.296 132.828C298.296 132.828 295.022 123.415 286.018 122.699C277.014 121.983 267.657 121.487 260.541 113.695C254.779 107.386 253.072 93.1292 253.072 93.1292C253.072 93.1292 276.318 95.357 286.018 104.998Z" stroke="#A88771" stroke-width="1.89673" stroke-linecap="round" stroke-linejoin="round"/>
<path d="M284.994 107.475C297.342 118.348 297.87 129.945 297.87 129.945C297.87 129.945 294.248 122.368 286.667 121.559C279.087 120.75 271.233 120.107 264.558 113.718C259.154 108.545 256.382 97.1558 256.382 97.1558C256.382 97.1558 275.989 99.5457 284.994 107.475Z" stroke="#A88771" stroke-width="1.89673" stroke-linecap="round" stroke-linejoin="round"/>
<path d="M286.973 108.858C297.94 118.766 297.87 129.945 297.87 129.945C297.87 129.945 294.865 122.8 287.849 122.385C280.833 121.97 273.554 121.729 267.651 115.88C262.871 111.143 260.842 100.273 260.842 100.273C260.842 100.273 278.976 101.633 286.973 108.858Z" stroke="#A88771" stroke-width="1.89673" stroke-linecap="round" stroke-linejoin="round"/>
<path d="M285.301 111.197C295.329 119.673 296.518 127.849 296.518 127.849C296.518 127.849 293.277 122.283 287.522 121.197C281.767 120.111 275.817 119.123 270.362 114.183C265.944 110.182 263.082 101.999 263.082 101.999C263.082 101.999 277.988 105.016 285.301 111.197Z" stroke="#A88771" stroke-width="1.89673" stroke-linecap="round" stroke-linejoin="round"/>
<path d="M283.163 112.809C290.452 118.801 291.678 124.152 291.678 124.152C291.678 124.152 289.18 120.387 285.187 119.394C281.195 118.4 277.075 117.461 273.093 113.988C269.869 111.176 267.498 105.735 267.498 105.735C267.498 105.735 277.848 108.441 283.163 112.809Z" stroke="#A88771" stroke-width="1.89673" stroke-linecap="round" stroke-linejoin="round"/>
<path d="M279.726 113.807C285.518 118.342 286.979 121.802 286.979 121.802C286.979 121.802 284.802 119.184 281.885 118.121C278.968 117.058 275.967 116.014 272.781 113.412C270.2 111.306 267.925 107.662 267.925 107.662C267.925 107.662 275.502 110.5 279.726 113.807Z" stroke="#A88771" stroke-width="1.89673" stroke-linecap="round" stroke-linejoin="round"/>
<path d="M345.073 132.547C345.073 132.547 333.633 140.362 326.242 148.643C318.851 156.925 313.142 180.337 294.311 189.991C275.479 199.644 247.232 198.315 247.232 198.315" stroke="#A88771" stroke-width="3.16122" stroke-linecap="round" stroke-linejoin="round"/>
<path d="M249.588 195.159C249.694 189.656 245.402 185.042 239.899 184.924C234.545 184.81 230.215 188.864 229.802 194.204C229.378 199.673 233.343 204.504 238.808 204.984C244.482 205.482 249.478 200.854 249.588 195.159Z" stroke="#A88771" stroke-width="3.16122" stroke-linecap="round" stroke-linejoin="round"/>
<path d="M347.697 133.618C347.697 133.618 336.258 125.804 328.867 117.522C321.476 109.241 315.767 85.8282 296.936 76.175C278.105 66.5219 249.857 67.851 249.857 67.851" stroke="#A88771" stroke-width="3.16122" stroke-linecap="round" stroke-linejoin="round"/>
<path d="M249.588 70.1624C249.694 64.6598 245.402 60.0455 239.899 59.9279C234.545 59.8135 230.215 63.8675 229.802 69.2071C229.378 74.6764 233.343 79.5079 238.808 79.9874C244.482 80.4852 249.478 75.8574 249.588 70.1624Z" stroke="#A88771" stroke-width="3.16122" stroke-linecap="round" stroke-linejoin="round"/>
<path d="M247.452 134.47C247.452 134.47 222.942 149.033 208.64 160.599C194.78 171.808 185.913 198.855 185.913 198.855" stroke="#A88771" stroke-width="3.16122" stroke-linecap="round" stroke-linejoin="round"/>
<path d="M185.726 232.761C181.421 232.669 180.609 228.323 176.856 226.211C173.045 224.066 168.488 225.869 166.485 221.981C164.628 218.375 168.046 215.797 168.259 211.746C168.513 206.938 164.501 203.474 167.168 199.465C169.634 195.757 174.047 197.75 177.812 195.371C180.876 193.435 181.207 189.888 184.771 189.23C189.354 188.384 190.836 193.287 195.005 195.371C198.724 197.229 202.523 196.007 204.831 199.465C207.509 203.479 203.36 206.922 203.466 211.746C203.554 215.778 206.772 218.447 204.831 221.981C202.819 225.642 198.656 224.181 195.005 226.211C191.129 228.366 190.161 232.856 185.726 232.761Z" stroke="#B9C6B4" stroke-width="2.63435" stroke-linecap="round" stroke-linejoin="round"/>
<path d="M251.303 134.1C251.303 134.1 227.565 118.31 213.869 106.032C200.596 94.1335 193.115 66.6699 193.115 66.6699" stroke="#A88771" stroke-width="3.16122" stroke-linecap="round" stroke-linejoin="round"/>
<path d="M185.726 74.1946C181.421 74.1024 180.609 69.7567 176.856 67.6446C173.045 65.4991 168.488 67.3029 166.485 63.4143C164.628 59.8082 168.046 57.2305 168.259 53.1799C168.513 48.3716 164.501 44.908 167.168 40.8985C169.634 37.1901 174.047 39.1838 177.812 36.8047C180.876 34.8686 181.207 31.3221 184.771 30.6641C189.354 29.8177 190.836 34.721 195.005 36.8047C198.724 38.6628 202.523 37.4409 204.831 40.8985C207.509 44.9126 203.36 48.3552 203.466 53.1799C203.554 57.2111 206.772 59.8806 204.831 63.4143C202.819 67.0755 198.656 65.6143 195.005 67.6446C191.129 69.8001 190.161 74.2896 185.726 74.1946Z" stroke="#B9C6B4" stroke-width="2.63435" stroke-linecap="round" stroke-linejoin="round"/>
<path d="M186.19 67.9561C183.09 67.8903 182.505 64.7913 179.803 63.2851C177.058 61.7551 173.778 63.0416 172.335 60.2685C170.998 57.6968 173.459 55.8587 173.613 52.9701C173.795 49.5412 170.907 47.0712 172.827 44.2121C174.602 41.5676 177.78 42.9892 180.491 41.2927C182.697 39.912 182.935 37.3829 185.502 36.9137C188.802 36.3103 189.869 39.807 192.871 41.2927C195.548 42.6178 198.284 41.7463 199.946 44.2121C201.874 47.0745 198.887 49.5297 198.963 52.9701C199.026 55.8448 201.344 57.7484 199.946 60.2685C198.497 62.8792 195.5 61.8375 192.871 63.2851C190.08 64.8224 189.383 68.0238 186.19 67.9561Z" stroke="#F74700" stroke-width="2.8451" stroke-linecap="round" stroke-linejoin="round"/>
<path d="M185.937 63.5896C183.664 63.5419 183.235 61.2854 181.254 60.1888C179.241 59.075 176.835 60.0114 175.777 57.9926C174.797 56.1201 176.601 54.782 176.714 52.6789C176.848 50.1822 174.73 48.384 176.138 46.3024C177.44 44.377 179.77 45.4119 181.758 44.1769C183.376 43.1718 183.551 41.3304 185.433 40.9887C187.853 40.5493 188.635 43.0951 190.837 44.1769C192.8 45.1417 194.807 44.5071 196.025 46.3024C197.439 48.3864 195.249 50.174 195.304 52.6789C195.351 54.7719 197.05 56.1578 196.025 57.9926C194.963 59.8935 192.765 59.1348 190.837 60.1888C188.79 61.308 188.279 63.639 185.937 63.5896Z" stroke="#F74700" stroke-width="2.8451" stroke-linecap="round" stroke-linejoin="round"/>
<path d="M185.745 56.8903C183.104 56.9045 180.932 54.5497 181.127 52.041C181.313 49.6555 183.233 47.8766 185.745 47.8902C188.246 47.9039 190.129 49.6658 190.313 52.041C190.508 54.5418 188.378 56.8758 185.745 56.8903Z" stroke="#B9C6B4" stroke-width="2.73973" stroke-linecap="round" stroke-linejoin="round"/>
<path d="M184.416 52.2351C184.358 52.9807 184.982 53.6325 185.73 53.6284C186.473 53.6243 187.086 52.9769 187.028 52.2351C186.975 51.5487 186.418 51.0466 185.73 51.0427C185.037 51.0389 184.47 51.5446 184.416 52.2351Z" stroke="#F74700" stroke-width="1.05374" stroke-linecap="round" stroke-linejoin="round"/>
<path d="M446.381 57.4608C445.96 57.0324 445.366 56.7758 444.85 56.4401L444.271 56.986C450.786 63.8826 454.197 72.2339 456.312 81.4313C451.842 77.2529 447.557 73.2629 443.297 69.2455C442.68 68.6549 442.131 67.9985 441.659 67.2887C438.581 62.7364 435.491 58.1895 432.481 53.5909C428.638 47.7231 424.948 41.7544 421.018 35.9385C418.835 32.6853 415.961 30.038 412.342 28.3459C410.055 27.2733 407.607 26.288 405.391 28.1603C403.175 30.0325 403.713 32.5898 404.299 35.0515C404.542 36.0831 404.701 37.1339 404.894 38.1737L404.152 38.5912C402.553 37.0274 393.451 26.6974 390.187 23.4087C384.546 17.7293 378.601 12.3992 369.759 12.8304C369.759 12.8304 364.115 13.8484 364.794 17.9613C365.021 19.3259 364.854 20.9033 365.477 22.0742C366.669 24.3094 368.277 26.3262 369.718 28.4305C370.048 28.9108 370.403 29.3775 370.747 29.8524L370.359 30.2699C368.241 28.8835 366.099 27.5408 364.011 26.0997C360.652 23.7494 356.771 22.2508 352.704 21.733C349.959 21.4082 346.948 21.5201 344.331 22.328C338.954 23.9901 337.563 29.9534 341.222 34.2218C341.572 34.6312 341.951 35.016 342.925 36.0722C341.504 36.1213 340.638 36.0149 339.844 36.2059C337.546 36.7518 335.205 37.2239 333.021 38.0891C328.171 39.9995 327.039 45.6899 330.879 49.1396C332.308 50.3631 334.018 51.2135 335.857 51.6149C338.521 52.199 341.315 52.2154 344.044 52.4801C344.719 52.5456 345.39 52.6302 346.263 52.7284C345.147 54.2022 344.08 55.3103 343.365 56.6148C341.359 60.2828 343.365 64.1637 347.527 64.5076C349.225 64.6454 350.933 64.4252 352.54 63.8608C355.734 62.6954 358.817 61.2517 361.912 59.808C365.856 57.9576 369.71 55.9025 373.686 54.1258C375.239 53.4326 376.988 52.6875 378.902 53.7055C378.162 55.807 376.172 56.3119 374.729 57.4226C372.409 59.1912 369.994 60.8914 367.949 62.952C366.159 64.756 365.25 67.1549 366.451 69.7313C367.439 71.8464 370.13 72.8644 373.11 72.4605C373.487 72.4193 373.861 72.3396 374.221 72.223C378.498 70.7165 382.832 69.3492 387.024 67.6353C391.142 65.9541 395.097 63.869 399.166 62.0623C400.951 61.2681 402.839 60.6567 404.998 61.5164C404.349 62.3406 403.549 63.0366 402.646 63.5688C400.691 64.7232 398.552 65.5993 396.756 66.9666C393.841 69.2018 394.395 72.9354 397.848 74.098C399.548 74.6397 401.36 74.7467 403.112 74.4091C406.458 73.7421 409.752 72.8346 412.97 71.6936C421.084 68.8197 429.247 68.2766 437.568 70.6019C438.141 70.7203 438.725 70.7987 439.309 70.8366L439.339 70.7684C437.298 68.9262 434.926 67.4579 432.62 66.0414C431.785 65.5256 430.947 65.0098 430.123 64.4776C430.058 64.4304 429.987 64.3935 429.91 64.3684C428.799 64.4135 427.686 64.3971 426.578 64.3193C424.839 64.2265 423.199 64.1419 421.54 64.5049C417.599 65.3722 413.718 66.4972 409.924 67.8727C409.867 67.8918 409.81 67.9164 409.752 67.9409C409.561 68.0509 409.346 68.1181 409.125 68.1372C408.906 68.1565 408.682 68.1279 408.475 68.0528C408.093 67.8809 407.809 67.507 407.607 66.9175C407.558 66.7679 407.566 66.6047 407.634 66.462C407.7 66.3193 407.82 66.2076 407.967 66.1506C408.541 65.9295 409.111 65.703 409.681 65.4792C413.972 63.7871 418.371 62.0595 423.251 61.8303C423.917 61.7484 424.621 61.6747 425.366 61.6092C421.37 59.445 417.561 57.5154 413.764 55.7688C412.124 55.0452 410.342 54.6992 408.551 54.7562C403.969 54.7944 400.036 55.6214 396.524 57.2889C391.57 59.6387 386.601 61.9667 381.786 64.2211C381.593 64.3111 381.402 64.4121 381.21 64.5131C380.49 64.8952 379.677 65.3318 378.683 65.2472C378.618 65.2666 378.55 65.274 378.481 65.2691C378.348 65.2625 378.219 65.2117 378.118 65.125C378.015 65.0379 377.944 64.9197 377.916 64.7887C377.881 64.6258 377.908 64.4558 377.99 64.3111V64.2947L377.562 64.453C377.723 64.3575 377.886 64.2702 378.05 64.1801C378.413 63.4596 379.079 63.1376 379.63 62.8756L379.759 62.8155C380.733 62.3488 381.699 61.8685 382.668 61.3882C384.153 60.6485 385.689 59.8871 387.231 59.1857C388.323 58.6863 389.453 58.1459 390.533 57.6273C395.195 55.3839 399.995 53.075 405.659 52.6657L402.755 51.7978C396.355 49.8874 389.736 47.8923 383.075 46.5223C380.545 46.0075 377.935 46.0253 375.411 46.5741C369.838 47.704 364.347 50.1439 358.13 54.2568L357.734 54.5297C355.69 55.8943 353.577 57.2889 350.521 58.1759C350.391 58.2141 350.252 58.2084 350.126 58.159C349.999 58.1099 349.893 58.0201 349.823 57.9038C349.754 57.7875 349.725 57.6516 349.741 57.5171C349.757 57.3825 349.817 57.2573 349.912 57.1606C351.116 55.9161 352.368 55.2256 353.49 54.6143C354.123 54.2884 354.732 53.9162 355.31 53.5008C357.627 51.7716 360.064 50.2102 362.603 48.8284C366.033 46.918 369.759 45.7335 373.383 44.6146H373.288L373.094 44.59C363.542 43.3946 354.756 43.0453 346.244 43.5229C345.736 43.5502 345.232 43.6184 344.694 43.6866C343.237 43.8777 341.733 44.0769 340.21 43.4956C340.137 43.4986 340.064 43.4893 339.994 43.4683C339.895 43.4375 339.805 43.3821 339.733 43.3073C339.661 43.2322 339.609 43.1403 339.582 43.0398L339.563 42.9661C339.541 42.8823 339.537 42.7947 339.551 42.7093C339.565 42.6239 339.597 42.5423 339.645 42.4702C339.693 42.3979 339.756 42.3368 339.829 42.2907C339.903 42.2443 339.985 42.2142 340.071 42.202C340.617 41.8281 341.285 41.8171 341.812 41.7899C341.91 41.7899 342.006 41.7899 342.101 41.7735C348.632 41.3041 356.383 40.8947 364.363 41.3914C368.165 41.6288 371.983 42.1064 376.312 42.756L375.264 42.03C372.892 40.4962 370.651 39.047 368.424 37.6633C366.454 36.4325 364.281 35.4663 362.183 34.5302C360.856 33.9407 359.483 33.3294 358.16 32.6525C355.772 31.4299 353.575 30.6438 351.249 29.8142C350.341 29.4894 349.405 29.1537 348.422 28.7825C348.297 28.7353 348.191 28.6488 348.12 28.5361C348.049 28.4231 348.017 28.2902 348.029 28.1576C348.042 28.0077 348.111 27.8683 348.223 27.7673C348.114 27.7427 348.007 27.7127 347.898 27.6909H348.307C348.372 27.6469 348.444 27.6155 348.52 27.5981C350.431 27.2269 351.468 27.3006 353.305 27.9447C354.42 28.3358 355.52 28.7525 356.604 29.1946C356.779 29.2629 356.948 29.3366 357.12 29.4103C360.075 30.6354 362.941 32.0671 365.695 33.6951C366.033 33.897 366.366 34.1072 366.699 34.3173C368.007 35.0324 369.303 35.7638 370.58 36.528C370.728 36.5935 370.87 36.6672 371.022 36.7272C371.795 37.0697 372.526 37.4963 373.206 37.999C374.205 38.684 375.149 39.3309 376.323 39.44C376.473 39.4537 376.609 39.5216 376.713 39.6311C377.171 40.1144 377.665 40.5631 378.189 40.9738C380.242 42.0983 382.324 43.1572 384.466 44.0687C385.517 44.4044 386.598 44.7074 387.695 45.013C388.421 45.215 389.147 45.4169 389.878 45.6298C392.433 46.3858 395.064 47.0435 397.621 47.6767L400.14 48.3072C400.364 48.3691 400.577 48.4608 400.776 48.5801C400.907 48.6538 401.003 48.7056 401.079 48.7384C400.76 48.3598 400.383 48.0307 399.968 47.7613C399.578 47.4952 399.212 47.1947 398.877 46.8634C396.068 43.8941 393.661 40.5617 391.33 37.3413L390.443 36.1131C385.58 29.413 380.345 24.4458 374.407 20.9279C374.349 20.8924 374.284 20.8624 374.221 20.8297C373.869 20.6523 373.217 20.3248 373.211 19.4651C373.208 19.3535 373.239 19.2435 373.293 19.1472C373.35 19.0509 373.432 18.972 373.531 18.9192C374.603 18.3379 375.493 18.8947 376.082 19.2604C380.894 22.2625 385.498 25.3301 388.94 29.9506C389.709 30.9858 390.479 32.0221 391.246 33.0592C393.83 36.5471 396.499 40.1551 399.237 43.6102C402.31 47.4857 405.735 50.0484 409.711 51.4484C412.558 52.4048 415.301 53.6457 417.899 55.152C418.177 55.3143 418.483 55.4279 418.8 55.4876C419.048 55.534 419.133 55.4877 419.176 55.4331C419.152 55.3867 419.108 55.3157 419.075 55.2666C417.752 53.2284 416.698 51.0265 415.942 48.7165C414.651 44.9729 413.079 41.3327 411.237 37.8271L411.051 37.4968C410.68 36.8609 410.233 36.0667 410.465 35.0406C410.5 34.8853 410.596 34.7502 410.732 34.6648C410.866 34.5791 411.03 34.5493 411.185 34.5821C412.43 34.8359 412.864 35.701 413.213 36.3942C413.308 36.5989 413.418 36.7976 413.538 36.9892C415.137 39.3827 417.165 43.6839 417.973 46.3803C419.929 52.9304 423.54 57.7201 429.004 61.0033C429.408 61.2462 429.823 61.4973 430.276 61.7593C434.296 64.1392 439.678 67.3351 442.83 71.8573C446.981 75.2036 450.889 78.8397 454.527 82.7386C456.675 85.0475 458.583 87.5775 460.6 90.0064C462.15 91.9032 463.744 96.682 463.744 96.682C464.784 99.8206 469.475 103.379 471.143 106.234C471.558 106.944 472 107.634 472.414 108.311C474.663 107.233 474.773 107.178 473.891 105.399C471.162 99.8997 465.733 94.5287 462.316 89.4579C460.182 86.3242 458.547 82.8781 457.472 79.2425C456.804 76.9683 456.075 74.714 455.289 72.4796C453.272 66.9393 450.589 61.7484 446.381 57.4608Z" fill="#F74700"/>
<path d="M396.873 212.448C398.104 216.365 403.167 218.69 406.529 214.173L406.668 214.214C408.718 210.303 409.124 205.03 407.075 200.917C406.553 200.153 406.12 199.299 406.736 198.475C408.778 196.518 411.813 199.154 414.206 199.173C421.086 199.831 418.183 191.532 421.575 187.528L421.534 187.49C421.534 187.49 427.909 182.774 430.939 180.039C428.908 190.167 427.036 193.852 432.879 203.464L434.058 201.679C429.113 196.663 431.678 181.679 433.6 178.453C433.365 178.726 435.237 176.396 436.075 175.495C436.67 172.853 438.242 170.741 439.79 168.609C440.824 167.185 440.259 166.59 438.673 166.584C438.646 166.59 438.621 166.602 438.602 166.619C438.58 166.637 438.564 166.659 438.553 166.684C438.545 166.709 438.54 166.736 438.545 166.763C438.548 166.79 438.556 166.816 438.572 166.838C437.923 167.507 437.421 168.304 437.099 169.18C436.935 169.253 436.798 169.372 436.7 169.522C436.605 169.672 436.553 169.847 436.553 170.026C434.642 172.403 432.713 174.775 430.797 177.149H430.778C428.9 178.868 426.908 180.448 424.891 181.996L424.948 182.081C421.31 184.619 418.518 188.399 414.179 189.788C413.876 189.818 413.592 189.935 413.355 190.123C413.117 190.312 412.94 190.565 412.842 190.852C409.236 191.586 406.766 192.49 404.275 193.753C403.027 193.671 401.906 194.234 400.667 194.414C400.32 194.488 400.012 194.688 399.801 194.976C397.809 197.555 397.296 201.381 398.598 204.182C399.856 206.198 400.134 207.072 399.823 207.165C399.411 207.454 398.906 206.905 398.644 206.575C395.727 204.16 395.773 198.756 397.85 195.096C385.402 197.05 379.434 203.237 379.251 215.663C378.773 216.755 377.791 216.542 377.807 214.874C377.507 207.271 380.733 200.437 386.854 197.162C381.538 197.129 376.609 198.213 371.437 200.145C365.433 202.435 364.917 206.237 361.254 210.057L361.224 210.682L360.485 209.815L360.698 209.705C361.435 204.897 365.793 201.286 370.075 198.69C364.966 198.74 359.77 198.218 354.748 197.749C352.925 197.173 346.798 198.082 346.56 195.937C355.597 195.92 365.588 197.495 373.181 196.845C367.51 195.372 363.189 191.245 359.068 187.506C357.919 186.532 356.448 185.89 355.793 184.362C359.281 184.013 361.828 187.804 364.371 189.662C372.894 197.803 380.552 196.351 391.087 194.474C379.079 194.201 376.647 180.934 373.184 172.032C372.938 171.669 372.695 171.033 373.457 170.667C376.33 173.298 376.849 177.853 378.265 181.357C381.027 190.41 389.758 194.883 398.156 193.366C398.882 192.438 399.755 193.508 400.339 193.005C400.637 192.733 401.597 192.375 400.74 192.11C395.096 189.534 394.157 183.729 394.43 177.324C394.433 177.232 394.471 177.145 394.534 177.078C394.594 177.01 394.679 176.967 394.772 176.956C394.862 176.945 394.954 176.967 395.031 177.017C395.107 177.067 395.162 177.143 395.189 177.231C396.065 179.927 396.144 182.752 397.143 185.454C400.175 193.764 407.004 191.346 413.057 188.36C410.896 187.746 409.337 187.181 408.813 184.851C409.687 184.687 410.265 185.238 410.825 185.702C413.693 187.613 416.368 187.645 418.846 185.064L419.07 185.244L419.4 185.047C419.372 184.752 418.679 184.673 418.532 184.417C416.31 184.463 414.667 182.452 412.923 181.319C410.172 179.482 406.919 180.055 404.962 182.719C404.578 183.243 404.433 184.144 403.633 184.084C402.727 184.016 402.643 183.047 402.381 182.389C401.016 177.476 395.68 169.835 390.449 174.966C387.94 177.313 389.731 180.844 390.05 183.699C388.751 190.549 384.199 175.116 383.252 173.964C380.634 166.022 369.024 162.288 367.081 172.747C365.335 176.966 370.61 184.826 367.512 186.999C364.54 187.479 360.28 179.152 356.227 178.312C352.456 176.873 349.325 178.857 349.088 182.867C350.144 191.343 347.685 189.329 341.012 191.283C337.568 192.083 336.918 197.086 339.768 199.037C343.138 202.427 351.85 200.947 352.232 206.679C352.232 210.62 353.25 215.931 357.398 216.231C360.752 216.869 363.078 215.66 364.939 212.306C365.307 211.938 365.531 211.018 366.03 211.168C369.578 212.208 368.509 216.542 369.153 220.199C369.772 223.971 374.627 225.96 378.178 224.626C378.118 224.596 378.058 224.561 378.003 224.522C378.058 224.561 378.118 224.596 378.178 224.626C381.24 223.564 383.486 220.805 384.919 217.887C386.404 212.74 390.08 205.03 395.29 210.306L396.873 212.448ZM364.865 212.233C364.827 212.183 364.789 212.132 364.748 212.085C364.789 212.132 364.827 212.183 364.865 212.233Z" fill="#B53A25"/>
<path d="M305.743 51.8551C299.048 48.5801 294.627 43.4574 292.894 36.2988C291.674 31.2634 296.81 27.1724 301.9 29.0364C305.906 30.5047 308.27 33.5941 309.154 37.6743C310.017 41.6616 309.806 45.7281 309.351 49.7619C309.086 52.1035 308.043 53.2197 305.743 51.8551Z" fill="#F74700"/>
</g>
<defs>
<clipPath id="clip0">
<rect width="1295" height="259" fill="white" transform="translate(0 0.000244141)"/>
</clipPath>
</defs>
</svg>
