<svg width="125" height="73" viewBox="0 0 125 73" fill="none" xmlns="http://www.w3.org/2000/svg">
<path d="M59.0539 34.8604C59.0539 35.2112 58.9857 35.5425 58.8492 35.8543C58.7226 36.1661 58.5423 36.439 58.3084 36.6728C58.0746 36.9067 57.8017 37.0918 57.4899 37.2283C57.1781 37.3647 56.8419 37.4329 56.4814 37.4329C56.1208 37.4329 55.7798 37.3647 55.4582 37.2283C55.1464 37.0918 54.8736 36.9067 54.6397 36.6728C54.4059 36.439 54.2207 36.1661 54.0843 35.8543C53.9479 35.5425 53.8797 35.2112 53.8797 34.8604C53.8797 34.4999 53.9479 34.1637 54.0843 33.8519C54.2207 33.5303 54.4059 33.2526 54.6397 33.0187C54.8736 32.7849 55.1464 32.5997 55.4582 32.4633C55.7798 32.3269 56.1208 32.2587 56.4814 32.2587C56.8419 32.2587 57.1781 32.3269 57.4899 32.4633C57.8017 32.5997 58.0746 32.7849 58.3084 33.0187C58.5423 33.2526 58.7226 33.5303 58.8492 33.8519C58.9857 34.1637 59.0539 34.4999 59.0539 34.8604ZM58.5569 38.9091L57.4461 52.9701L54.6251 52.6778L54.4497 38.6899L58.5569 38.9091Z" fill="#F9FFF5"/>
<path d="M69.0368 48.0005C68.2671 48.0005 67.5021 47.9031 66.7421 47.7082C65.9918 47.5036 65.3097 47.182 64.6958 46.7435C64.7055 47.1235 64.7299 47.5133 64.7689 47.9128C64.8078 48.3123 64.8712 48.7021 64.9589 49.0821C65.0563 49.4524 65.1781 49.8032 65.3243 50.1345C65.4802 50.4658 65.6751 50.7581 65.9089 51.0115C66.1525 51.2551 66.44 51.45 66.7713 51.5961C67.1124 51.7423 67.5167 51.8154 67.9845 51.8154C68.423 51.8154 68.8322 51.7374 69.2122 51.5815C69.5923 51.4159 69.9236 51.1966 70.2062 50.9238C70.4985 50.651 70.7372 50.3294 70.9224 49.9591C71.1075 49.5888 71.2342 49.1893 71.3024 48.7606L74.898 49.5645C74.6154 50.1686 74.2159 50.6802 73.6995 51.0992C73.1928 51.5182 72.6276 51.8544 72.004 52.1077C71.3803 52.3708 70.7275 52.5608 70.0454 52.6778C69.373 52.7947 68.725 52.8532 68.1014 52.8532C66.9808 52.8532 65.982 52.6875 65.105 52.3562C64.2281 52.0249 63.4875 51.5474 62.8834 50.9238C62.289 50.3002 61.831 49.545 61.5094 48.6583C61.1976 47.7618 61.0417 46.7581 61.0417 45.6473C61.0417 44.5657 61.2268 43.5474 61.5971 42.5925C61.9674 41.6278 62.4838 40.7898 63.1465 40.0784C63.8091 39.3671 64.6032 38.8068 65.5289 38.3976C66.4644 37.9786 67.4924 37.7691 68.613 37.7691C69.4315 37.7691 70.2451 37.8714 71.0539 38.076C71.8627 38.2709 72.5886 38.5827 73.2318 39.0115C73.8749 39.4305 74.3913 39.9713 74.7811 40.6339C75.1806 41.2965 75.3804 42.0955 75.3804 43.031C75.3804 43.9469 75.1952 44.7216 74.8249 45.355C74.4644 45.9786 73.9869 46.4902 73.3925 46.8897C72.7981 47.2794 72.1209 47.562 71.3609 47.7374C70.6008 47.9128 69.8261 48.0005 69.0368 48.0005ZM68.4083 38.8507C67.9601 38.8507 67.5606 38.9432 67.2098 39.1284C66.8688 39.3038 66.5618 39.5474 66.289 39.8592C66.0259 40.171 65.8018 40.5267 65.6166 40.9262C65.4315 41.3257 65.2756 41.7447 65.1489 42.1832C65.0222 42.6217 64.9248 43.0651 64.8566 43.5133C64.7884 43.9615 64.7445 44.3805 64.725 44.7703C65.0953 45.4037 65.5874 45.925 66.2013 46.3343C66.8152 46.7338 67.5265 46.9335 68.3353 46.9335C68.8517 46.9335 69.3146 46.8166 69.7238 46.5827C70.1331 46.3391 70.479 46.0273 70.7616 45.6473C71.0442 45.2673 71.2585 44.8434 71.4047 44.3757C71.5606 43.9079 71.6386 43.4402 71.6386 42.9725C71.6386 42.5048 71.5704 42.0273 71.4339 41.5401C71.2975 41.0431 71.0929 40.5998 70.82 40.21C70.557 39.8105 70.2208 39.4841 69.8115 39.2307C69.412 38.9774 68.9443 38.8507 68.4083 38.8507Z" fill="#F9FFF5"/>
<path d="M84.7933 52.5608C83.9553 52.5608 83.1173 52.4536 82.2793 52.2393C81.451 52.0249 80.691 51.6985 79.9991 51.26C79.3073 50.8117 78.7226 50.2514 78.2452 49.5791C77.7774 48.897 77.49 48.0931 77.3828 47.1674L81.4754 47.2843C81.4559 47.3428 81.4462 47.4061 81.4462 47.4743C81.4462 47.5328 81.4462 47.5913 81.4462 47.6497C81.4462 48.2246 81.529 48.7411 81.6946 49.1991C81.87 49.657 82.1185 50.0468 82.4401 50.3684C82.7616 50.6802 83.1465 50.9189 83.5948 51.0846C84.043 51.2502 84.5448 51.3331 85.1002 51.3331C85.4315 51.3331 85.7531 51.299 86.0649 51.2307C86.3865 51.1625 86.6691 51.0505 86.9127 50.8946C87.166 50.7289 87.3707 50.5145 87.5266 50.2514C87.6825 49.9883 87.7604 49.657 87.7604 49.2575C87.7604 48.8093 87.6191 48.4244 87.3365 48.1028C87.054 47.7813 86.708 47.5133 86.2988 47.2989C85.8993 47.0748 85.4754 46.8946 85.0272 46.7581C84.5887 46.612 84.2038 46.4999 83.8725 46.422C83.5314 46.3343 83.1368 46.2368 82.6885 46.1296C82.2501 46.0127 81.7969 45.8811 81.3292 45.735C80.8615 45.5791 80.4035 45.3988 79.9553 45.1942C79.507 44.9896 79.1075 44.7459 78.7567 44.4634C78.4059 44.1808 78.1234 43.8592 77.909 43.4987C77.6946 43.1284 77.5874 42.7045 77.5874 42.2271C77.5874 41.6911 77.6897 41.2039 77.8944 40.7654C78.099 40.3269 78.3718 39.9372 78.7129 39.5961C79.0637 39.2551 79.4632 38.9627 79.9114 38.7191C80.3694 38.4658 80.842 38.2611 81.3292 38.1052C81.8164 37.9396 82.3085 37.8178 82.8055 37.7398C83.3024 37.6619 83.7701 37.6229 84.2086 37.6229C84.9492 37.6229 85.6995 37.7106 86.4596 37.886C87.2294 38.0516 87.9261 38.3245 88.5497 38.7045C89.1831 39.0845 89.7093 39.5766 90.1283 40.1808C90.557 40.7849 90.8055 41.5157 90.8737 42.3732L86.8981 42.6802V42.534C86.9078 41.9591 86.8396 41.4378 86.6934 40.97C86.557 40.5023 86.3426 40.1028 86.0503 39.7715C85.7677 39.4402 85.4072 39.1868 84.9687 39.0115C84.5399 38.8263 84.0332 38.7337 83.4486 38.7337C83.1855 38.7337 82.898 38.7727 82.5862 38.8507C82.2744 38.9286 81.9821 39.0504 81.7092 39.2161C81.4462 39.372 81.222 39.5717 81.0369 39.8154C80.8517 40.059 80.7592 40.3464 80.7592 40.6777C80.7592 41.1844 80.9151 41.5937 81.2269 41.9055C81.5485 42.2076 81.9382 42.4512 82.3962 42.6363C82.8542 42.8117 83.3317 42.9481 83.8286 43.0456C84.3256 43.1333 84.7592 43.221 85.1295 43.3087C85.529 43.3964 85.9529 43.5084 86.4011 43.6448C86.8591 43.7715 87.3073 43.9323 87.7458 44.1272C88.194 44.3123 88.6179 44.5364 89.0174 44.7995C89.4267 45.0529 89.7872 45.3501 90.099 45.6911C90.4109 46.0224 90.6593 46.4025 90.8445 46.8312C91.0296 47.2502 91.1222 47.7228 91.1222 48.249C91.1222 49.0383 90.9176 49.7106 90.5083 50.2661C90.099 50.8117 89.5777 51.2551 88.9444 51.5961C88.3207 51.9372 87.6386 52.1808 86.8981 52.327C86.1575 52.4829 85.4559 52.5608 84.7933 52.5608Z" fill="#F9FFF5"/>
<path d="M98.825 31.7179L98.6496 37.7106H102.114V38.9384H98.6204L98.2257 52.1954L95.5363 52.4439L95.2586 38.9384H91.663V37.7106H95.2294L95.1417 32.6533L98.825 31.7179Z" fill="#F9FFF5"/>
<path d="M112.813 51.9323L113.178 50.3976C112.837 50.6997 112.457 50.9725 112.038 51.2161C111.629 51.4597 111.205 51.6692 110.767 51.8446C110.328 52.0103 109.89 52.137 109.451 52.2247C109.022 52.3221 108.628 52.3708 108.267 52.3708C107.634 52.3708 106.981 52.2782 106.309 52.0931C105.636 51.908 105.027 51.6303 104.482 51.26C103.936 50.8897 103.488 50.4268 103.137 49.8714C102.786 49.316 102.611 48.6729 102.611 47.9421C102.611 46.9871 102.776 46.1589 103.108 45.4573C103.439 44.7557 103.887 44.1759 104.452 43.7179C105.027 43.2599 105.7 42.9238 106.469 42.7094C107.239 42.4853 108.067 42.3732 108.954 42.3732C109.373 42.3732 109.802 42.4073 110.24 42.4755C110.679 42.5437 111.108 42.6461 111.527 42.7825C111.946 42.9189 112.345 43.0992 112.725 43.3233C113.105 43.5474 113.446 43.8105 113.748 44.1126C113.719 43.5864 113.646 43.031 113.529 42.4463C113.422 41.8616 113.246 41.3306 113.003 40.8531C112.769 40.3659 112.452 39.9664 112.053 39.6546C111.653 39.333 111.147 39.1722 110.533 39.1722C109.636 39.1722 108.876 39.4061 108.253 39.8738C107.639 40.3318 107.215 40.9993 106.981 41.8763L103.181 41.4816C103.415 40.8775 103.746 40.3464 104.175 39.8884C104.603 39.4207 105.086 39.0309 105.622 38.7191C106.167 38.4073 106.747 38.1734 107.361 38.0175C107.975 37.8519 108.594 37.7691 109.217 37.7691C110.172 37.7691 111.025 37.9055 111.775 38.1783C112.535 38.4512 113.203 38.8263 113.778 39.3038C114.352 39.7812 114.84 40.3464 115.239 40.9993C115.639 41.6424 115.965 42.3391 116.218 43.0894C116.472 43.83 116.657 44.6095 116.774 45.428C116.891 46.2368 116.949 47.0456 116.949 47.8544C116.949 48.5754 116.91 49.2916 116.832 50.003C116.754 50.7046 116.642 51.4061 116.496 52.1077L112.813 51.9323ZM113.588 47.7959C113.617 47.5718 113.636 47.3525 113.646 47.1382C113.665 46.9238 113.685 46.7045 113.704 46.4804C113.656 46.0224 113.495 45.6181 113.222 45.2673C112.949 44.9067 112.618 44.6047 112.228 44.361C111.838 44.1077 111.415 43.9177 110.957 43.791C110.499 43.6643 110.05 43.601 109.612 43.601C109.105 43.601 108.633 43.6887 108.194 43.8641C107.756 44.0297 107.376 44.2685 107.054 44.5803C106.732 44.8921 106.479 45.2624 106.294 45.6911C106.109 46.1199 106.016 46.5925 106.016 47.1089C106.016 47.6351 106.094 48.1175 106.25 48.5559C106.416 48.9847 106.645 49.3598 106.937 49.6814C107.229 49.9932 107.585 50.2368 108.004 50.4122C108.433 50.5876 108.91 50.6753 109.437 50.6753C109.904 50.6753 110.362 50.6071 110.81 50.4707C111.259 50.3343 111.668 50.1443 112.038 49.9007C112.418 49.6473 112.74 49.3452 113.003 48.9944C113.276 48.6339 113.471 48.2344 113.588 47.7959Z" fill="#F9FFF5"/>
<path d="M75.4303 15.1348C75.4303 16.3543 75.2766 17.5102 74.969 18.6025C74.6615 19.6841 74.2267 20.6863 73.6647 21.6088C73.1026 22.5314 72.4293 23.3586 71.6445 24.0903C70.8598 24.822 69.9902 25.4424 69.0358 25.9514C68.0814 26.4604 67.0581 26.8528 65.9658 27.1285C64.8736 27.4042 63.7389 27.5421 62.5618 27.5421C60.7272 27.5421 59.0358 27.2451 57.4875 26.6513C55.9499 26.068 54.619 25.2356 53.495 24.1539C52.3815 23.0723 51.5119 21.7679 50.8863 20.2409C50.2606 18.7138 49.9478 17.0118 49.9478 15.1348C49.9478 13.9365 50.0962 12.7965 50.3932 11.7149C50.6901 10.6332 51.109 9.63639 51.6498 8.72441C52.1906 7.80182 52.8428 6.96937 53.6063 6.22705C54.3698 5.48474 55.2182 4.85907 56.1514 4.35006C57.0952 3.83044 58.1026 3.43277 59.1737 3.15705C60.2553 2.87073 61.3847 2.72757 62.5618 2.72757C63.7389 2.72757 64.8736 2.86543 65.9658 3.14115C67.0687 3.40626 68.0973 3.79332 69.0517 4.30234C70.0061 4.81135 70.8757 5.43172 71.6604 6.16342C72.4452 6.89513 73.1133 7.72228 73.6647 8.64487C74.2267 9.56746 74.6615 10.5749 74.969 11.6671C75.2766 12.7488 75.4303 13.9047 75.4303 15.1348ZM71.056 15.1348C71.056 14.2971 70.9818 13.4487 70.8333 12.5897C70.6954 11.7202 70.478 10.8877 70.1811 10.0924C69.8842 9.28644 69.5077 8.53353 69.0517 7.83363C68.6063 7.12313 68.0708 6.50807 67.4452 5.98845C66.8301 5.45823 66.1302 5.04465 65.3455 4.74773C64.5607 4.4402 63.6859 4.28643 62.7209 4.28643C61.7558 4.28643 60.881 4.4402 60.0962 4.74773C59.3115 5.05526 58.6116 5.47413 57.9966 6.00436C57.3815 6.52398 56.846 7.13904 56.39 7.84954C55.934 8.54943 55.5575 9.30235 55.2606 10.1083C54.9637 10.9142 54.741 11.7467 54.5925 12.6056C54.4547 13.4646 54.3857 14.3077 54.3857 15.1348C54.3857 16.015 54.4494 16.8952 54.5766 17.7753C54.7039 18.6555 54.9054 19.4986 55.1811 20.3045C55.4568 21.0998 55.812 21.8474 56.2468 22.5473C56.6922 23.2366 57.2224 23.8358 57.8375 24.3448C58.4526 24.8538 59.1631 25.2568 59.969 25.5537C60.7855 25.84 61.7028 25.9832 62.7209 25.9832C63.7071 25.9832 64.5979 25.8347 65.3932 25.5378C66.1885 25.2409 66.8937 24.8326 67.5088 24.313C68.1344 23.7934 68.67 23.1889 69.1154 22.4996C69.5608 21.7997 69.9266 21.0468 70.2129 20.2409C70.4992 19.4349 70.7113 18.5972 70.8492 17.7276C70.9871 16.858 71.056 15.9938 71.056 15.1348Z" fill="#F9FFF5"/>
<path d="M88.617 27.717C87.3763 27.717 86.2151 27.5633 85.1334 27.2557C84.0518 26.9482 83.0656 26.4869 82.1748 25.8718C81.284 25.2568 80.494 24.488 79.8047 23.5654C79.126 22.6428 78.5693 21.5717 78.1345 20.3522L83.6382 20.05C83.723 22.0012 84.2798 23.4911 85.3084 24.5198C86.337 25.5378 87.7898 26.0468 89.6668 26.0468C90.3986 26.0468 91.1302 25.9726 91.862 25.8241C92.5937 25.6757 93.2459 25.4265 93.8185 25.0765C94.4017 24.716 94.8736 24.2441 95.2342 23.6608C95.6053 23.0776 95.7909 22.3512 95.7909 21.4816C95.7909 20.8771 95.6743 20.3628 95.441 19.9386C95.2077 19.5039 94.8948 19.1433 94.5025 18.857C94.1207 18.5707 93.6753 18.3427 93.1663 18.173C92.6679 17.9927 92.1483 17.8549 91.6075 17.7594C91.0772 17.6534 90.547 17.5738 90.0168 17.5208C89.4866 17.4678 88.9988 17.4201 88.5534 17.3777C87.8323 17.3246 87.0793 17.2398 86.2946 17.1232C85.5099 17.0065 84.7358 16.8421 83.9722 16.63C83.2193 16.418 82.4982 16.1475 81.8089 15.8188C81.1196 15.4901 80.5152 15.0765 79.9956 14.5781C79.4759 14.0691 79.0624 13.4699 78.7548 12.7806C78.4473 12.0913 78.2935 11.2801 78.2935 10.3469C78.2935 9.45612 78.442 8.65018 78.7389 7.92907C79.0359 7.20797 79.4388 6.5717 79.9478 6.02026C80.4675 5.45823 81.0613 4.97572 81.7294 4.57275C82.4081 4.15918 83.1239 3.82514 83.8768 3.57063C84.6403 3.30552 85.4197 3.10933 86.2151 2.98208C87.0104 2.85483 87.7792 2.7912 88.5216 2.7912C89.2745 2.7912 90.0645 2.83892 90.8917 2.93436C91.7294 3.0298 92.5619 3.18887 93.389 3.41156C94.2162 3.63426 95.0115 3.92588 95.775 4.28643C96.5491 4.63638 97.2437 5.07116 97.8588 5.59078C98.4845 6.1104 99.0041 6.72016 99.4177 7.42005C99.8312 8.10935 100.102 8.89938 100.229 9.79016L94.9161 10.8718C94.9797 10.4794 95.0115 10.0765 95.0115 9.6629C95.0115 8.6979 94.8153 7.88135 94.423 7.21327C94.0306 6.54519 93.511 6.00966 92.8641 5.60669C92.2172 5.19311 91.4855 4.89619 90.669 4.71591C89.8524 4.53564 89.02 4.4455 88.1716 4.4455C87.4187 4.4455 86.6711 4.54624 85.9288 4.74773C85.1971 4.93861 84.5343 5.23023 83.9404 5.6226C83.3572 6.01496 82.8853 6.50807 82.5247 7.10192C82.1642 7.69577 81.9839 8.39567 81.9839 9.20161C81.9839 9.75304 82.1324 10.2302 82.4293 10.6332C82.7262 11.0362 83.1133 11.3861 83.5905 11.6831C84.0783 11.9694 84.6244 12.208 85.2289 12.3989C85.8333 12.5897 86.4378 12.7488 87.0422 12.8761C87.6573 12.9927 88.2405 13.0881 88.792 13.1624C89.3434 13.226 89.81 13.2737 90.1918 13.3055C90.8704 13.3798 91.5809 13.4858 92.3233 13.6237C93.0656 13.7509 93.7973 13.9312 94.5184 14.1645C95.2395 14.3978 95.9288 14.6894 96.5863 15.0394C97.2437 15.3893 97.8164 15.8135 98.3042 16.3119C98.8026 16.8103 99.195 17.3936 99.4813 18.0616C99.7782 18.7297 99.9267 19.4933 99.9267 20.3522C99.9267 21.2642 99.7464 22.0807 99.3858 22.8019C99.0253 23.5124 98.5428 24.1433 97.9383 24.6948C97.3445 25.2356 96.6605 25.7022 95.8864 26.0945C95.1122 26.4763 94.3063 26.7838 93.4686 27.0171C92.6308 27.261 91.793 27.436 90.9553 27.5421C90.1175 27.6587 89.3381 27.717 88.617 27.717Z" fill="#F9FFF5"/>
<path d="M113.336 27.717C112.095 27.717 110.934 27.5633 109.852 27.2557C108.771 26.9482 107.785 26.4869 106.894 25.8718C106.003 25.2568 105.213 24.488 104.524 23.5654C103.845 22.6428 103.288 21.5717 102.854 20.3522L108.357 20.05C108.442 22.0012 108.999 23.4911 110.027 24.5198C111.056 25.5378 112.509 26.0468 114.386 26.0468C115.118 26.0468 115.849 25.9726 116.581 25.8241C117.313 25.6757 117.965 25.4265 118.538 25.0765C119.121 24.716 119.593 24.2441 119.953 23.6608C120.324 23.0776 120.51 22.3512 120.51 21.4816C120.51 20.8771 120.393 20.3628 120.16 19.9386C119.927 19.5039 119.614 19.1433 119.222 18.857C118.84 18.5707 118.394 18.3427 117.885 18.173C117.387 17.9927 116.867 17.8549 116.326 17.7594C115.796 17.6534 115.266 17.5738 114.736 17.5208C114.206 17.4678 113.718 17.4201 113.272 17.3777C112.551 17.3246 111.798 17.2398 111.014 17.1232C110.229 17.0065 109.455 16.8421 108.691 16.63C107.938 16.418 107.217 16.1475 106.528 15.8188C105.839 15.4901 105.234 15.0765 104.715 14.5781C104.195 14.0691 103.781 13.4699 103.474 12.7806C103.166 12.0913 103.013 11.2801 103.013 10.3469C103.013 9.45612 103.161 8.65018 103.458 7.92907C103.755 7.20797 104.158 6.5717 104.667 6.02026C105.187 5.45823 105.78 4.97572 106.448 4.57275C107.127 4.15918 107.843 3.82514 108.596 3.57063C109.359 3.30552 110.139 3.10933 110.934 2.98208C111.729 2.85483 112.498 2.7912 113.241 2.7912C113.994 2.7912 114.784 2.83892 115.611 2.93436C116.448 3.0298 117.281 3.18887 118.108 3.41156C118.935 3.63426 119.731 3.92588 120.494 4.28643C121.268 4.63638 121.963 5.07116 122.578 5.59078C123.204 6.1104 123.723 6.72016 124.137 7.42005C124.55 8.10935 124.821 8.89938 124.948 9.79016L119.635 10.8718C119.699 10.4794 119.731 10.0765 119.731 9.6629C119.731 8.6979 119.534 7.88135 119.142 7.21327C118.75 6.54519 118.23 6.00966 117.583 5.60669C116.936 5.19311 116.205 4.89619 115.388 4.71591C114.571 4.53564 113.739 4.4455 112.891 4.4455C112.138 4.4455 111.39 4.54624 110.648 4.74773C109.916 4.93861 109.253 5.23023 108.659 5.6226C108.076 6.01496 107.604 6.50807 107.244 7.10192C106.883 7.69577 106.703 8.39567 106.703 9.20161C106.703 9.75304 106.851 10.2302 107.148 10.6332C107.445 11.0362 107.832 11.3861 108.31 11.6831C108.797 11.9694 109.343 12.208 109.948 12.3989C110.552 12.5897 111.157 12.7488 111.761 12.8761C112.376 12.9927 112.96 13.0881 113.511 13.1624C114.062 13.226 114.529 13.2737 114.911 13.3055C115.589 13.3798 116.3 13.4858 117.042 13.6237C117.785 13.7509 118.516 13.9312 119.237 14.1645C119.959 14.3978 120.648 14.6894 121.305 15.0394C121.963 15.3893 122.535 15.8135 123.023 16.3119C123.522 16.8103 123.914 17.3936 124.2 18.0616C124.497 18.7297 124.646 19.4933 124.646 20.3522C124.646 21.2642 124.465 22.0807 124.105 22.8019C123.744 23.5124 123.262 24.1433 122.657 24.6948C122.064 25.2356 121.38 25.7022 120.605 26.0945C119.831 26.4763 119.025 26.7838 118.188 27.0171C117.35 27.261 116.512 27.436 115.674 27.5421C114.837 27.6587 114.057 27.717 113.336 27.717Z" fill="#F9FFF5"/>
<path d="M38.5157 30.4254C37.7307 30.3241 36.7558 30.2355 35.591 30.1595C34.4261 30.0835 33.16 30.0202 31.7926 29.9696C30.4505 29.8936 29.0451 29.843 27.5763 29.8176C26.133 29.7923 24.7276 29.767 23.3601 29.7417C22.018 29.7164 20.7519 29.7037 19.5617 29.7037C18.3969 29.6784 17.422 29.6657 16.637 29.6657C15.5481 29.6657 14.4719 29.6657 13.4083 29.6657C12.3448 29.6657 11.2686 29.691 10.1797 29.7417C10.1291 33.2615 10.1164 36.7434 10.1417 40.1873C10.167 43.6311 10.1797 47.1257 10.1797 50.6708C10.1797 51.2786 10.1797 51.8863 10.1797 52.4941C10.1797 53.0765 10.205 53.6842 10.2557 54.3173L0.911615 54.4692L0 0.000244141L43.7195 0.304116L43.5676 9.95204C42.504 9.29365 41.124 8.68591 39.4273 8.12881C37.756 7.57171 35.9202 7.07792 33.9197 6.64743C31.9192 6.19163 29.8174 5.79913 27.6143 5.46993C25.4366 5.14074 23.3095 4.86219 21.233 4.63428C19.1566 4.38106 17.2067 4.17848 15.3835 4.02654C13.5603 3.87461 12.0029 3.76065 10.7115 3.68469C10.5595 7.43244 10.4456 11.1675 10.3696 14.8899C10.2936 18.5871 10.2303 22.3095 10.1797 26.0572H10.3316C11.4712 26.0572 12.8006 26.0446 14.3199 26.0192C15.8646 25.9939 17.4979 25.9559 19.2199 25.9053C20.9418 25.8546 22.7017 25.804 24.4996 25.7534C26.3229 25.6774 28.0955 25.6014 29.8174 25.5255C31.5393 25.4242 33.16 25.3355 34.6793 25.2596C36.1987 25.1583 37.5281 25.0443 38.6677 24.9177L38.5157 30.4254Z" fill="#F9FFF5"/>
<path d="M62.9622 10.5455C63.0027 10.5842 63.0474 10.6181 63.0956 10.6466C63.7412 10.9468 64.008 11.5763 63.7412 12.238C63.5335 12.7502 63.3291 13.2645 63.1634 13.7907C63.0418 14.1769 62.8008 14.5234 62.776 14.942L62.7233 15.0109C62.8019 15.0345 62.7578 14.9635 62.776 14.9409C62.8202 14.9344 62.875 14.9334 62.8922 14.885C63.0418 14.4545 63.3377 14.1049 63.5615 13.7143C63.809 13.2839 64.0812 12.8664 64.3384 12.4414C64.4212 12.2991 64.5328 12.1757 64.666 12.079C64.7992 11.9823 64.9511 11.9144 65.112 11.8797C65.3896 11.8116 65.6822 11.8427 65.9393 11.9677C66.1963 12.0927 66.4015 12.3037 66.5194 12.5641C66.7594 13.144 66.5635 13.8552 66.0309 14.1049C65.1863 14.5084 64.3609 14.9657 63.4647 15.2497C63.3409 15.2896 63.2936 15.367 63.2699 15.5284C64.1092 15.2766 64.9301 15.1292 65.735 14.9173C66.1729 14.8021 66.6119 14.702 67.051 14.9043C67.6255 15.1744 67.8784 15.9276 67.6029 16.5377C67.3576 17.0756 66.5614 17.3845 66.0029 17.1402C65.2261 16.8002 64.4148 16.5495 63.6239 16.2461C63.5615 16.2224 63.5013 16.1804 63.4388 16.2461C63.4281 16.3375 63.512 16.3537 63.5637 16.3838C64.2727 16.825 64.9786 17.2715 65.6952 17.7019C66.4861 18.1764 66.5711 19.2222 65.8243 19.7549C65.2228 20.1853 64.3868 20.0239 64.0576 19.3492C63.824 18.8715 63.6003 18.3894 63.3797 17.9064C63.2129 17.5384 63.0891 17.137 62.8255 16.8077C62.7319 16.9013 62.7749 16.9874 62.7954 17.0735C62.9858 17.888 63.1817 18.7015 63.3603 19.5181C63.4797 20.0637 63.3366 20.5199 62.8632 20.8567C62.4769 21.1311 61.9324 21.13 61.4644 20.8319C61.1265 20.6168 60.9372 20.1315 60.9985 19.7097C61.076 19.1717 61.3353 18.7036 61.4999 18.2033C61.6441 17.76 61.8012 17.3221 61.9594 16.8659C61.9226 16.862 61.8856 16.8689 61.8528 16.8857C61.8199 16.9026 61.7926 16.9285 61.7743 16.9606C61.4085 17.5717 61.0555 18.1904 60.6768 18.7897C60.4207 19.1975 60.1786 19.6257 59.6169 19.7043C59.3533 19.7511 59.0815 19.7102 58.8433 19.5879C58.6051 19.4655 58.4135 19.2684 58.298 19.0268C58.1825 18.7852 58.1494 18.5124 58.2038 18.2501C58.2582 17.9879 58.397 17.7507 58.5991 17.5749C58.824 17.3802 59.108 17.2919 59.3716 17.1725C60.1054 16.84 60.8403 16.5119 61.5526 16.1224C61.4784 16.0255 61.4149 16.0642 61.3504 16.0804C60.4304 16.3139 59.5104 16.5452 58.584 16.7518C58.3863 16.8008 58.1793 16.7993 57.9823 16.7473C57.7853 16.6952 57.6046 16.5945 57.4568 16.4543C57.309 16.3141 57.1988 16.1389 57.1365 15.945C57.0742 15.751 57.0617 15.5445 57.1002 15.3444C57.2336 14.6289 57.9976 14.1684 58.6292 14.4072C59.4394 14.7139 60.2604 14.9958 61.0803 15.2756C61.2083 15.3186 61.2955 15.4907 61.5107 15.3832C60.7973 14.8925 60.0731 14.4588 59.3393 14.0457C58.7594 13.7229 58.3925 13.2086 58.4463 12.6469C58.4871 12.2165 58.9563 11.6785 59.3576 11.6032C59.9311 11.4956 60.5304 11.7442 60.7564 12.209C61.1459 13.0257 61.5182 13.8509 61.9002 14.6719C61.9421 14.7623 61.9529 14.8871 62.1154 14.942C61.9067 14.0392 61.7001 13.1741 61.5085 12.3058C61.2557 11.1534 61.5279 10.9802 62.209 10.5466C62.4489 10.5165 62.7007 10.4766 62.9622 10.5455ZM61.6398 15.6866C61.6286 15.7852 61.6379 15.885 61.6673 15.9797C61.6966 16.0745 61.7452 16.1622 61.8101 16.2372C61.8751 16.3122 61.9548 16.373 62.0444 16.4156C62.134 16.4582 62.2314 16.4819 62.3306 16.485C62.6921 16.4957 63.0493 16.1535 63.0687 15.7802C63.0686 15.5922 62.9961 15.4116 62.8663 15.2757C62.7364 15.1398 62.5592 15.0592 62.3715 15.0507C62.2813 15.0426 62.1904 15.0528 62.1043 15.0807C62.0182 15.1085 61.9386 15.1535 61.8703 15.2129C61.802 15.2723 61.7463 15.3448 61.7067 15.4262C61.6671 15.5076 61.6444 15.5962 61.6398 15.6866Z" fill="#F74700"/>
<path d="M62.4197 14.895C62.295 14.8843 62.1695 14.8988 62.0506 14.9377C61.9316 14.9765 61.8218 15.039 61.7275 15.1212C61.6332 15.2034 61.5564 15.3038 61.5017 15.4163C61.4471 15.5289 61.4156 15.6513 61.4094 15.7762C61.3695 16.3842 61.7881 16.8662 62.3669 16.8823C62.8673 16.8963 63.3623 16.424 63.3891 15.9065C63.416 15.3889 62.9609 14.9208 62.4197 14.895Z" fill="#2D3837"/>
<path d="M4.36556 66.379C4.36556 66.1584 4.42408 65.9513 4.54113 65.7578C4.65819 65.5597 4.77749 65.4134 4.89904 65.3188C5.0206 65.2243 5.10839 65.177 5.16241 65.177C5.22094 65.177 5.2502 65.2063 5.2502 65.2648C5.2502 65.3053 5.22769 65.3413 5.18267 65.3728C5.13765 65.4044 5.07912 65.4539 5.00709 65.5214C4.93956 65.5844 4.88554 65.6722 4.84502 65.7848C4.791 65.9153 4.76398 66.0189 4.76398 66.0954C4.76398 66.208 4.79325 66.3025 4.85177 66.379C4.9103 66.4511 4.96657 66.5096 5.0206 66.5546C5.07912 66.5996 5.10839 66.6447 5.10839 66.6897C5.10839 66.7302 5.05887 66.8045 4.95982 66.9125C4.86528 67.0206 4.78649 67.0746 4.72347 67.0746C4.70996 67.0746 4.6897 67.0701 4.66269 67.0611C4.64018 67.0476 4.61092 67.0251 4.5749 66.9936C4.53888 66.9575 4.50512 66.9148 4.4736 66.8653C4.44659 66.8157 4.42183 66.7482 4.39932 66.6627C4.37681 66.5771 4.36556 66.4826 4.36556 66.379ZM3.21079 66.379C3.21079 66.1584 3.26932 65.9513 3.38637 65.7578C3.50342 65.5597 3.62273 65.4134 3.74428 65.3188C3.86583 65.2243 3.95362 65.177 4.00765 65.177C4.06617 65.177 4.09544 65.2063 4.09544 65.2648C4.09544 65.3053 4.07293 65.3413 4.02791 65.3728C3.98289 65.4044 3.92436 65.4539 3.85233 65.5214C3.7848 65.5844 3.73077 65.6722 3.69026 65.7848C3.63623 65.9153 3.60922 66.0189 3.60922 66.0954C3.60922 66.208 3.63848 66.3025 3.69701 66.379C3.75554 66.4511 3.81181 66.5096 3.86583 66.5546C3.92436 66.5996 3.95362 66.6447 3.95362 66.6897C3.95362 66.7302 3.9041 66.8045 3.80506 66.9125C3.71052 67.0206 3.63173 67.0746 3.5687 67.0746C3.5552 67.0746 3.53494 67.0701 3.50792 67.0611C3.48541 67.0476 3.45615 67.0251 3.42014 66.9936C3.38412 66.9575 3.35035 66.9148 3.31884 66.8653C3.29183 66.8157 3.26707 66.7482 3.24456 66.6627C3.22205 66.5771 3.21079 66.4826 3.21079 66.379ZM6.29122 67.8512C6.29122 67.518 6.34524 67.1962 6.45329 66.8855C6.56134 66.5704 6.71891 66.2822 6.926 66.0211C7.1376 65.76 7.41447 65.5529 7.75662 65.3999C8.09877 65.2423 8.48595 65.1635 8.91814 65.1635C9.19276 65.1635 9.46063 65.2063 9.72175 65.2918C9.98286 65.3773 10.1877 65.4629 10.3363 65.5484L10.5524 65.6767C10.5659 65.6767 10.5884 65.6587 10.6199 65.6227C10.6559 65.5867 10.6829 65.5687 10.7009 65.5687C10.755 65.5687 10.782 65.6047 10.782 65.6767C10.782 65.8703 10.7842 66.0346 10.7887 66.1697C10.7977 66.3048 10.8045 66.397 10.809 66.4466C10.818 66.4916 10.8247 66.5344 10.8292 66.5749C10.8382 66.6154 10.8427 66.6514 10.8427 66.6829C10.8427 66.791 10.8112 66.845 10.7482 66.845C10.7167 66.845 10.6897 66.827 10.6672 66.791C10.6447 66.755 10.6154 66.6897 10.5794 66.5951C10.5479 66.4961 10.5231 66.4241 10.5051 66.379C10.4511 66.2395 10.3925 66.1337 10.3295 66.0616C10.271 65.9851 10.1877 65.9108 10.0797 65.8388C9.66997 65.5597 9.24678 65.4201 8.81009 65.4201C8.40491 65.4201 8.04925 65.5349 7.74311 65.7645C7.44148 65.9896 7.21863 66.2732 7.07457 66.6154C6.935 66.953 6.86522 67.3155 6.86522 67.7026C6.86522 68.3644 7.04756 68.8912 7.41222 69.2828C7.77688 69.67 8.21132 69.8636 8.71555 69.8636C9.2783 69.8636 9.76451 69.6317 10.1742 69.168C10.2282 69.1095 10.2777 69.033 10.3228 68.9384C10.3678 68.8394 10.4061 68.7628 10.4376 68.7088C10.4691 68.6503 10.5051 68.621 10.5456 68.621C10.6176 68.621 10.6537 68.6616 10.6537 68.7426C10.6537 68.7741 10.6469 68.8124 10.6334 68.8574C10.6244 68.9024 10.6086 68.9564 10.5861 69.0195C10.5636 69.0825 10.5479 69.1298 10.5389 69.1613C10.5209 69.2243 10.5028 69.2941 10.4848 69.3706C10.4713 69.4472 10.4578 69.5012 10.4443 69.5327C10.4353 69.5597 10.4151 69.5822 10.3835 69.6002C9.73075 69.9424 9.12973 70.1134 8.58049 70.1134C8.20232 70.1134 7.86242 70.0504 7.56078 69.9244C7.26365 69.7983 7.02279 69.6295 6.83821 69.4179C6.65813 69.2018 6.52082 68.9609 6.42628 68.6953C6.33624 68.4297 6.29122 68.1483 6.29122 67.8512ZM11.8621 68.8169C11.8621 68.3577 12.0062 67.9435 12.2943 67.5743C12.587 67.2052 12.9741 67.0206 13.4558 67.0206C13.7755 67.0206 14.0186 67.1354 14.1852 67.365C14.3562 67.5901 14.4418 67.8737 14.4418 68.2159C14.4418 68.5085 14.3833 68.7899 14.2662 69.06C14.1537 69.3301 13.9758 69.5597 13.7327 69.7488C13.4896 69.9334 13.2105 70.0257 12.8953 70.0257C12.5982 70.0257 12.3506 69.9221 12.1525 69.715C11.9589 69.5079 11.8621 69.2085 11.8621 68.8169ZM12.3821 68.8236C12.3821 69.1478 12.4361 69.3954 12.5442 69.5665C12.6567 69.7375 12.7985 69.8231 12.9696 69.8231C13.1407 69.8231 13.2915 69.7623 13.4221 69.6407C13.5571 69.5192 13.6584 69.3684 13.726 69.1883C13.798 69.0037 13.852 68.8214 13.888 68.6413C13.9241 68.4567 13.9421 68.2879 13.9421 68.1348C13.9421 67.8332 13.8858 67.6058 13.7732 67.4528C13.6652 67.2997 13.5279 67.2232 13.3613 67.2232C13.1902 67.2232 13.0259 67.2997 12.8683 67.4528C12.7108 67.6013 12.5937 67.8062 12.5172 68.0673C12.4271 68.3824 12.3821 68.6345 12.3821 68.8236ZM15.3149 69.114C15.3149 68.5963 15.4927 68.1258 15.8484 67.7026C16.204 67.2749 16.5867 67.0611 16.9964 67.0611C17.0549 67.0611 17.1359 67.0768 17.2395 67.1084C17.3475 67.1354 17.4331 67.1489 17.4961 67.1489C17.5051 67.1489 17.5479 66.854 17.6244 66.2642C17.7009 65.67 17.7392 65.3571 17.7392 65.3256C17.7392 65.276 17.7189 65.2355 17.6784 65.204C17.6424 65.1725 17.5974 65.1567 17.5434 65.1567C17.5209 65.1567 17.4893 65.159 17.4488 65.1635C17.4128 65.1635 17.379 65.1635 17.3475 65.1635H17.307C17.235 65.1635 17.199 65.1387 17.199 65.0892C17.199 65.0532 17.217 65.0284 17.253 65.0149C17.2935 65.0014 17.3543 64.9902 17.4353 64.9812C17.5209 64.9722 17.5839 64.9632 17.6244 64.9542C17.6874 64.9361 17.746 64.9204 17.8 64.9069C17.8585 64.8934 17.8968 64.8844 17.9148 64.8799C17.9373 64.8709 17.962 64.8641 17.9891 64.8596C18.0161 64.8506 18.0386 64.8461 18.0566 64.8461C18.0791 64.8461 18.1084 64.8461 18.1444 64.8461C18.1759 64.8461 18.2007 64.8574 18.2187 64.8799C18.2412 64.9024 18.2524 64.9294 18.2524 64.9609C18.2524 64.9924 18.2479 65.0329 18.2389 65.0825C18.2344 65.132 18.2209 65.2265 18.1984 65.3661C18.1804 65.5011 18.1556 65.6655 18.1241 65.8591C18.0971 66.0481 18.0543 66.3475 17.9958 66.7572C17.9373 67.1624 17.8743 67.6148 17.8067 68.1146C17.7122 68.7673 17.6649 69.1478 17.6649 69.2558C17.6649 69.4494 17.7234 69.5462 17.8405 69.5462C17.926 69.5462 18.0071 69.5124 18.0836 69.4449C18.1646 69.3729 18.2299 69.3031 18.2794 69.2356C18.3335 69.1635 18.374 69.1275 18.401 69.1275C18.4505 69.1275 18.4753 69.1478 18.4753 69.1883C18.4753 69.2918 18.3785 69.4562 18.1849 69.6813C17.9958 69.9019 17.8045 70.0122 17.6109 70.0122C17.5028 70.0122 17.4196 69.9739 17.361 69.8974C17.3025 69.8163 17.2687 69.7285 17.2597 69.634C17.2507 69.5394 17.2417 69.4539 17.2327 69.3774C17.2282 69.2963 17.217 69.2558 17.199 69.2558C17.19 69.2558 17.1562 69.2963 17.0977 69.3774C17.0391 69.4539 16.9694 69.5394 16.8883 69.634C16.8118 69.7285 16.7037 69.8163 16.5642 69.8974C16.4246 69.9739 16.2783 70.0122 16.1252 70.0122C15.8506 70.0122 15.6458 69.9311 15.5107 69.769C15.3801 69.6025 15.3149 69.3841 15.3149 69.114ZM15.7876 68.9249C15.7876 69.1365 15.8349 69.3053 15.9294 69.4314C16.0239 69.5575 16.168 69.6205 16.3616 69.6205C16.6317 69.6205 16.8591 69.5034 17.0436 69.2693C17.1607 69.1253 17.2507 68.8461 17.3138 68.432C17.3813 68.0178 17.4151 67.6981 17.4151 67.473C17.4151 67.3875 17.3655 67.3222 17.2665 67.2772C17.1719 67.2277 17.0707 67.2029 16.9626 67.2029C16.7645 67.2029 16.5732 67.2974 16.3886 67.4865C16.204 67.6756 16.0577 67.903 15.9497 68.1686C15.8416 68.4342 15.7876 68.6863 15.7876 68.9249ZM19.234 68.9654C19.234 68.6818 19.3015 68.4004 19.4366 68.1213C19.5716 67.8422 19.7585 67.5923 19.9971 67.3717C20.2492 67.1331 20.5621 67.0138 20.9357 67.0138C21.0978 67.0138 21.2351 67.0611 21.3477 67.1556C21.4647 67.2502 21.5233 67.3695 21.5233 67.5135C21.5233 67.6261 21.4962 67.7341 21.4422 67.8377C21.3882 67.9367 21.3207 68.02 21.2396 68.0875C21.1586 68.1551 21.0866 68.2091 21.0235 68.2496C20.965 68.2856 20.9132 68.3126 20.8682 68.3307C20.6071 68.4477 20.2537 68.5085 19.808 68.513C19.7315 68.513 19.6932 68.6053 19.6932 68.7899C19.6932 69.051 19.7742 69.2581 19.9363 69.4111C20.0984 69.5597 20.3415 69.634 20.6656 69.634C20.7782 69.634 20.8885 69.6092 20.9965 69.5597C21.1091 69.5102 21.1991 69.4629 21.2666 69.4179C21.3387 69.3684 21.3814 69.3436 21.395 69.3436C21.449 69.3436 21.476 69.3661 21.476 69.4111C21.476 69.5057 21.3454 69.634 21.0843 69.7961C20.8277 69.9581 20.5666 70.0392 20.301 70.0392C19.9003 70.0392 19.6212 69.9446 19.4636 69.7555C19.3105 69.5665 19.234 69.3031 19.234 68.9654ZM19.7877 68.2631C19.7877 68.3532 19.808 68.3982 19.8485 68.3982C20.1682 68.3982 20.4495 68.3081 20.6926 68.1281C20.9357 67.948 21.0573 67.7499 21.0573 67.5338C21.0573 67.4213 21.0168 67.3402 20.9357 67.2907C20.8592 67.2412 20.7804 67.2164 20.6994 67.2164C20.5328 67.2164 20.3482 67.3222 20.1456 67.5338C20.0556 67.6283 19.9723 67.7589 19.8958 67.9255C19.8238 68.092 19.7877 68.2046 19.7877 68.2631ZM24.3003 70.8023C24.3003 70.7437 24.3206 70.692 24.3611 70.6469C24.4061 70.6019 24.4579 70.5794 24.5164 70.5794C24.602 70.5794 24.6943 70.6154 24.7933 70.6875C24.8923 70.764 24.9959 70.8023 25.1039 70.8023C25.2795 70.8023 25.4618 70.6537 25.6509 70.3566C25.8445 70.0639 25.9413 69.8388 25.9413 69.6813C25.9413 69.4607 25.7972 69.0532 25.5091 68.459C25.2255 67.8602 25.0026 67.5608 24.8406 67.5608C24.728 67.5608 24.647 67.6036 24.5975 67.6891C24.5524 67.7702 24.5187 67.8534 24.4962 67.939C24.4782 68.0245 24.4421 68.0673 24.3881 68.0673C24.3431 68.0673 24.3206 68.0178 24.3206 67.9187C24.3206 67.8062 24.3363 67.6891 24.3679 67.5676C24.3994 67.4415 24.4579 67.3245 24.5434 67.2164C24.6335 67.1039 24.7415 67.0476 24.8676 67.0476C25.0161 67.0476 25.1737 67.1489 25.3403 67.3515C25.5114 67.5496 25.6554 67.7679 25.7725 68.0065C25.8895 68.2451 25.9931 68.4657 26.0831 68.6683C26.1732 68.8664 26.2249 68.9654 26.2384 68.9654C26.2835 68.9654 26.3352 68.8259 26.3938 68.5468C26.4523 68.2676 26.4815 68.0155 26.4815 67.7904C26.4815 67.7229 26.4523 67.6351 26.3938 67.527C26.3397 67.419 26.3127 67.3357 26.3127 67.2772C26.3127 67.2097 26.3307 67.1511 26.3667 67.1016C26.4073 67.0521 26.4658 67.0273 26.5423 67.0273C26.6189 67.0273 26.6819 67.0611 26.7314 67.1286C26.7809 67.1962 26.8057 67.2817 26.8057 67.3852C26.8057 67.5743 26.7562 67.8827 26.6571 68.3104C26.5626 68.7336 26.4253 69.1725 26.2452 69.6272C25.831 70.6762 25.3696 71.2007 24.8608 71.2007C24.4872 71.2007 24.3003 71.0679 24.3003 70.8023ZM27.6934 68.8169C27.6934 68.3577 27.8375 67.9435 28.1256 67.5743C28.4183 67.2052 28.8054 67.0206 29.2872 67.0206C29.6068 67.0206 29.8499 67.1354 30.0165 67.365C30.1876 67.5901 30.2731 67.8737 30.2731 68.2159C30.2731 68.5085 30.2146 68.7899 30.0975 69.06C29.985 69.3301 29.8071 69.5597 29.564 69.7488C29.3209 69.9334 29.0418 70.0257 28.7267 70.0257C28.4295 70.0257 28.1819 69.9221 27.9838 69.715C27.7902 69.5079 27.6934 69.2085 27.6934 68.8169ZM28.2134 68.8236C28.2134 69.1478 28.2675 69.3954 28.3755 69.5665C28.4881 69.7375 28.6299 69.8231 28.8009 69.8231C28.972 69.8231 29.1228 69.7623 29.2534 69.6407C29.3885 69.5192 29.4897 69.3684 29.5573 69.1883C29.6293 69.0037 29.6833 68.8214 29.7194 68.6413C29.7554 68.4567 29.7734 68.2879 29.7734 68.1348C29.7734 67.8332 29.7171 67.6058 29.6045 67.4528C29.4965 67.2997 29.3592 67.2232 29.1926 67.2232C29.0215 67.2232 28.8572 67.2997 28.6996 67.4528C28.5421 67.6013 28.425 67.8062 28.3485 68.0673C28.2584 68.3824 28.2134 68.6345 28.2134 68.8236ZM31.1664 67.9727C31.1664 67.8017 31.2407 67.6081 31.3893 67.392C31.5424 67.1759 31.7224 67.0678 31.9295 67.0678C32.0016 67.0678 32.0578 67.1061 32.0984 67.1826C32.1434 67.2592 32.1681 67.329 32.1726 67.392C32.1816 67.4505 32.1861 67.5068 32.1861 67.5608C32.1861 67.7634 32.1434 68.0853 32.0578 68.5265C31.9768 68.9632 31.9363 69.2626 31.9363 69.4246C31.9363 69.4787 31.9498 69.5237 31.9768 69.5597C32.0038 69.5912 32.0308 69.607 32.0578 69.607C32.0804 69.607 32.1029 69.6047 32.1254 69.6002C32.1524 69.5912 32.1794 69.58 32.2064 69.5665C32.2334 69.5484 32.2582 69.5304 32.2807 69.5124C32.3032 69.4944 32.3302 69.4697 32.3617 69.4381C32.3977 69.4066 32.4248 69.3796 32.4428 69.3571C32.4653 69.3346 32.4945 69.3031 32.5306 69.2626C32.5711 69.2176 32.6026 69.1815 32.6251 69.1545C32.6476 69.1275 32.6814 69.087 32.7264 69.033C32.7714 68.9789 32.8052 68.9384 32.8277 68.9114C33.1473 68.5242 33.4084 67.9412 33.611 67.1624C33.629 67.0904 33.6943 67.0543 33.8069 67.0543C33.9554 67.0543 34.0297 67.1039 34.0297 67.2029C34.0297 67.2479 33.9599 67.5878 33.8204 68.2226C33.6853 68.8574 33.6178 69.2378 33.6178 69.3639C33.6178 69.4719 33.6673 69.5259 33.7664 69.5259C33.8879 69.5259 33.9847 69.4854 34.0567 69.4044C34.1333 69.3188 34.1918 69.2356 34.2323 69.1545C34.2728 69.069 34.3111 69.0262 34.3471 69.0262C34.4101 69.0262 34.4417 69.0735 34.4417 69.168C34.4417 69.2896 34.3359 69.4629 34.1243 69.688C33.9127 69.9086 33.6673 70.0189 33.3882 70.0189C33.2531 70.0189 33.1856 69.8974 33.1856 69.6542C33.1856 69.5282 33.1946 69.3841 33.2126 69.2221C33.2351 69.06 33.2554 68.9227 33.2734 68.8101C33.2959 68.6976 33.3071 68.6368 33.3071 68.6278C33.3071 68.5783 33.2959 68.5535 33.2734 68.5535C33.2644 68.5535 33.2509 68.5693 33.2329 68.6008C33.2149 68.6278 33.1856 68.6796 33.1451 68.7561C33.1046 68.8281 33.055 68.9047 32.9965 68.9857C32.5058 69.6835 32.0736 70.0324 31.6999 70.0324C31.5469 70.0324 31.4703 69.8883 31.4703 69.6002C31.4703 69.3301 31.5199 68.9767 31.6189 68.54C31.7224 68.1033 31.7742 67.8287 31.7742 67.7161C31.7742 67.6216 31.7292 67.5743 31.6392 67.5743C31.6076 67.5743 31.5604 67.6148 31.4973 67.6959C31.4343 67.7724 31.3803 67.8624 31.3353 67.966C31.3083 68.029 31.2745 68.0605 31.234 68.0605C31.189 68.0605 31.1664 68.0313 31.1664 67.9727ZM35.1549 67.9592C35.1549 67.8152 35.1752 67.6846 35.2157 67.5676C35.2562 67.4505 35.3035 67.3605 35.3575 67.2974C35.4161 67.2344 35.4768 67.1804 35.5399 67.1354C35.6029 67.0904 35.6547 67.0611 35.6952 67.0476C35.7402 67.0341 35.7717 67.0273 35.7897 67.0273C35.8978 67.0273 35.9811 67.1061 36.0396 67.2637C36.1521 67.5608 36.2152 67.7094 36.2287 67.7094C36.2332 67.7094 36.2759 67.6531 36.357 67.5406C36.438 67.4235 36.5461 67.3064 36.6811 67.1894C36.8207 67.0723 36.9647 67.0138 37.1133 67.0138C37.1943 67.0138 37.2551 67.0363 37.2956 67.0813C37.3407 67.1219 37.3632 67.1691 37.3632 67.2232C37.3632 67.2592 37.3497 67.3087 37.3227 67.3717C37.3001 67.4348 37.2889 67.4685 37.2889 67.473L37.2821 67.527C37.2731 67.5676 37.2641 67.5991 37.2551 67.6216C37.2461 67.6441 37.2304 67.6689 37.2079 67.6959C37.1898 67.7184 37.1673 67.7296 37.1403 67.7296C37.0998 67.7296 37.066 67.7071 37.039 67.6621C37.012 67.6126 36.9783 67.5653 36.9377 67.5203C36.8972 67.4708 36.8432 67.446 36.7757 67.446C36.6451 67.446 36.5348 67.5811 36.4448 67.8512C36.3547 68.1213 36.2962 68.3757 36.2692 68.6143L36.2354 68.8371C36.1544 69.4719 36.0959 69.8253 36.0598 69.8974C36.0148 69.9559 35.9473 69.9851 35.8573 69.9851H35.8235C35.6884 69.9851 35.6209 69.9266 35.6209 69.8096C35.6209 69.7375 35.6682 69.4719 35.7627 69.0127C35.8618 68.5535 35.9113 68.2294 35.9113 68.0403C35.9113 67.7341 35.8347 67.5811 35.6817 67.5811C35.6006 67.5811 35.5331 67.6148 35.4791 67.6824C35.4251 67.7454 35.3845 67.8197 35.3575 67.9052C35.3305 67.9863 35.3148 68.029 35.3103 68.0335C35.2832 68.0605 35.2585 68.074 35.236 68.074C35.182 68.074 35.1549 68.0358 35.1549 67.9592ZM40.0134 68.2834C40.0134 67.9727 40.1102 67.6914 40.3038 67.4393C40.4974 67.1871 40.673 67.0611 40.8305 67.0611C40.9296 67.0611 41.0016 67.1174 41.0466 67.2299C41.0916 67.3425 41.1142 67.464 41.1142 67.5946C41.1142 67.7702 41.1006 68.0178 41.0736 68.3374C41.0466 68.6571 41.0331 68.9339 41.0331 69.168C41.0331 69.2716 41.0601 69.3661 41.1142 69.4517C41.1727 69.5372 41.2335 69.58 41.2965 69.58C41.445 69.58 41.5981 69.4764 41.7557 69.2693C41.9133 69.0622 42.0393 68.8461 42.1339 68.621C42.2509 68.3374 42.3477 67.9255 42.4242 67.3852C42.4377 67.2907 42.449 67.2277 42.458 67.1962C42.467 67.1646 42.485 67.1376 42.512 67.1151C42.5435 67.0881 42.5908 67.0746 42.6538 67.0746C42.7844 67.0746 42.8497 67.1309 42.8497 67.2434C42.8497 67.3064 42.8182 67.4933 42.7551 67.8039C42.6966 68.1146 42.6673 68.3869 42.6673 68.621C42.6673 68.8281 42.6899 69.042 42.7349 69.2626C42.7619 69.3751 42.7956 69.4607 42.8362 69.5192C42.8767 69.5732 42.9375 69.6002 43.0185 69.6002C43.1761 69.6002 43.3381 69.4944 43.5047 69.2828C43.6713 69.0712 43.8018 68.8439 43.8964 68.6008C43.9954 68.3532 44.045 68.1596 44.045 68.02C44.045 67.7859 44.0224 67.6148 43.9774 67.5068C43.9369 67.3987 43.9166 67.3245 43.9166 67.2839C43.9166 67.2299 43.9459 67.1804 44.0044 67.1354C44.063 67.0859 44.1192 67.0611 44.1733 67.0611C44.3038 67.0611 44.3691 67.1624 44.3691 67.365C44.3691 67.5496 44.3308 67.7949 44.2543 68.1011C44.1823 68.4072 44.0967 68.6525 43.9977 68.8371C43.7951 69.2243 43.5655 69.5192 43.3089 69.7218C43.0568 69.9244 42.8497 70.0257 42.6876 70.0257C42.431 70.0257 42.2982 69.6362 42.2892 68.8574C42.2892 68.7719 42.2824 68.7291 42.2689 68.7291C42.2644 68.7291 42.2374 68.7741 42.1879 68.8641C42.1429 68.9542 42.0798 69.0622 41.9988 69.1883C41.9223 69.3143 41.8345 69.4427 41.7354 69.5732C41.6409 69.6993 41.5306 69.8073 41.4045 69.8974C41.2785 69.9874 41.1547 70.0324 41.0331 70.0324C40.7585 70.0324 40.6212 69.6835 40.6212 68.9857C40.6212 68.9632 40.5897 68.9452 40.5266 68.9317C40.4636 68.9137 40.3938 68.8957 40.3173 68.8776C40.2408 68.8551 40.171 68.7944 40.108 68.6953C40.0449 68.5918 40.0134 68.4545 40.0134 68.2834ZM40.2363 68.3171C40.2363 68.4207 40.2453 68.4972 40.2633 68.5468C40.3173 68.6683 40.4051 68.7291 40.5266 68.7291C40.5762 68.7291 40.6099 68.7043 40.6279 68.6548C40.6459 68.6053 40.664 68.495 40.682 68.3239C40.7045 68.1303 40.7157 67.9547 40.7157 67.7972C40.7157 67.6981 40.682 67.6486 40.6144 67.6486C40.5514 67.6486 40.4726 67.7229 40.3781 67.8715C40.2835 68.0155 40.2363 68.1641 40.2363 68.3171ZM45.2592 69.1883C45.2592 68.8596 45.3852 68.4927 45.6373 68.0875C45.9075 67.6644 46.2114 67.3717 46.549 67.2097C46.7156 67.1286 46.8799 67.0881 47.042 67.0881C47.1095 67.0881 47.2018 67.1016 47.3188 67.1286C47.4404 67.1511 47.5394 67.1624 47.616 67.1624C47.661 67.1624 47.7195 67.1084 47.7916 67.0003C47.8636 66.8878 47.9221 66.8315 47.9671 66.8315C48.0167 66.8315 48.0414 66.8653 48.0414 66.9328C48.0414 66.9733 48.0212 67.0476 47.9806 67.1556C47.9446 67.2637 47.9199 67.3447 47.9064 67.3987C47.9019 67.4167 47.8501 67.7049 47.751 68.2631C47.67 68.7088 47.6295 68.997 47.6295 69.1275C47.6295 69.2221 47.652 69.3121 47.697 69.3976C47.742 69.4832 47.7961 69.5259 47.8591 69.5259C47.9401 69.5259 48.0324 69.4539 48.136 69.3098C48.244 69.1613 48.316 69.087 48.3521 69.087C48.3926 69.087 48.4128 69.1118 48.4128 69.1613C48.4128 69.2423 48.3723 69.3391 48.2913 69.4517C48.1967 69.5912 48.0842 69.7195 47.9536 69.8366C47.8276 69.9491 47.7218 70.0054 47.6362 70.0054C47.5102 70.0054 47.4156 69.9424 47.3526 69.8163C47.2896 69.6903 47.2513 69.5642 47.2378 69.4381C47.2288 69.3121 47.2221 69.2491 47.2176 69.2491C47.213 69.2491 47.186 69.2783 47.1365 69.3369C47.0915 69.3909 47.0285 69.4584 46.9474 69.5394C46.8709 69.616 46.7831 69.6948 46.6841 69.7758C46.5895 69.8523 46.4792 69.9176 46.3532 69.9716C46.2271 70.0302 46.1033 70.0594 45.9818 70.0594C45.6936 70.0594 45.5 69.9829 45.401 69.8298C45.3065 69.6723 45.2592 69.4584 45.2592 69.1883ZM45.7319 69.1478C45.7319 69.3098 45.7814 69.4404 45.8805 69.5394C45.984 69.6385 46.1101 69.688 46.2586 69.688C46.4657 69.688 46.6458 69.6182 46.7989 69.4787C46.9564 69.3346 47.0645 69.2018 47.123 69.0802C47.1725 68.9857 47.2243 68.8056 47.2783 68.54C47.3369 68.2744 47.3819 68.038 47.4134 67.8309C47.4494 67.6238 47.4674 67.5113 47.4674 67.4933C47.4674 67.4122 47.4179 67.3537 47.3188 67.3177C47.2198 67.2772 47.1208 67.2569 47.0217 67.2569C46.8777 67.2569 46.7268 67.3064 46.5693 67.4055C46.4117 67.5045 46.2834 67.6373 46.1843 67.8039C45.9502 68.1911 45.8107 68.5175 45.7657 68.7831C45.7431 68.9182 45.7319 69.0397 45.7319 69.1478ZM49.0928 70.8023C49.0928 70.7437 49.1131 70.692 49.1536 70.6469C49.1986 70.6019 49.2504 70.5794 49.3089 70.5794C49.3945 70.5794 49.4868 70.6154 49.5858 70.6875C49.6848 70.764 49.7884 70.8023 49.8964 70.8023C50.072 70.8023 50.2543 70.6537 50.4434 70.3566C50.637 70.0639 50.7338 69.8388 50.7338 69.6813C50.7338 69.4607 50.5897 69.0532 50.3016 68.459C50.018 67.8602 49.7951 67.5608 49.6331 67.5608C49.5205 67.5608 49.4395 67.6036 49.39 67.6891C49.3449 67.7702 49.3112 67.8534 49.2887 67.939C49.2707 68.0245 49.2346 68.0673 49.1806 68.0673C49.1356 68.0673 49.1131 68.0178 49.1131 67.9187C49.1131 67.8062 49.1288 67.6891 49.1604 67.5676C49.1919 67.4415 49.2504 67.3245 49.3359 67.2164C49.426 67.1039 49.534 67.0476 49.6601 67.0476C49.8086 67.0476 49.9662 67.1489 50.1328 67.3515C50.3039 67.5496 50.4479 67.7679 50.565 68.0065C50.682 68.2451 50.7856 68.4657 50.8756 68.6683C50.9657 68.8664 51.0174 68.9654 51.0309 68.9654C51.076 68.9654 51.1277 68.8259 51.1863 68.5468C51.2448 68.2676 51.2741 68.0155 51.2741 67.7904C51.2741 67.7229 51.2448 67.6351 51.1863 67.527C51.1322 67.419 51.1052 67.3357 51.1052 67.2772C51.1052 67.2097 51.1232 67.1511 51.1593 67.1016C51.1998 67.0521 51.2583 67.0273 51.3348 67.0273C51.4114 67.0273 51.4744 67.0611 51.5239 67.1286C51.5734 67.1962 51.5982 67.2817 51.5982 67.3852C51.5982 67.5743 51.5487 67.8827 51.4496 68.3104C51.3551 68.7336 51.2178 69.1725 51.0377 69.6272C50.6235 70.6762 50.1621 71.2007 49.6533 71.2007C49.2797 71.2007 49.0928 71.0679 49.0928 70.8023ZM54.5095 67.3245C54.5095 67.2884 54.532 67.2569 54.5771 67.2299C54.6266 67.1984 54.6986 67.1556 54.7932 67.1016C54.8922 67.0431 54.9822 66.971 55.0633 66.8855C55.1173 66.827 55.1691 66.7685 55.2186 66.7099C55.2681 66.6514 55.3019 66.6109 55.3199 66.5884C55.3424 66.5659 55.3627 66.5479 55.3807 66.5344C55.4032 66.5208 55.4279 66.5141 55.455 66.5141C55.5 66.5141 55.5225 66.5411 55.5225 66.5951C55.5225 66.6221 55.5022 66.7054 55.4617 66.845C55.4212 66.9801 55.4009 67.0656 55.4009 67.1016C55.4009 67.1241 55.4122 67.1376 55.4347 67.1421C55.4617 67.1466 55.5292 67.1489 55.6373 67.1489C55.7408 67.1489 55.8286 67.1489 55.9007 67.1489C55.9772 67.1444 56.02 67.1421 56.029 67.1421C56.146 67.1421 56.2045 67.1849 56.2045 67.2704C56.2045 67.347 56.1933 67.3987 56.1708 67.4258C56.1483 67.4528 56.1055 67.4663 56.0425 67.4663C56.0109 67.4663 55.9254 67.4618 55.7858 67.4528C55.6463 67.4393 55.5495 67.4325 55.4955 67.4325C55.4685 67.4325 55.4437 67.4348 55.4212 67.4393C55.4032 67.4438 55.3874 67.4528 55.3739 67.4663C55.3604 67.4798 55.3492 67.4933 55.3402 67.5068C55.3311 67.5158 55.3244 67.5338 55.3199 67.5608C55.3154 67.5878 55.3109 67.6103 55.3064 67.6283C55.3019 67.6464 55.2974 67.6779 55.2929 67.7229C55.2884 67.7679 55.2839 67.8039 55.2794 67.8309C55.2659 67.939 55.2389 68.1078 55.1983 68.3374C55.1623 68.567 55.1308 68.7673 55.1038 68.9384C55.0768 69.105 55.0633 69.204 55.0633 69.2356C55.0633 69.3436 55.0858 69.4291 55.1308 69.4922C55.1803 69.5507 55.2208 69.5845 55.2524 69.5935C55.2839 69.6025 55.3131 69.607 55.3402 69.607C55.4482 69.607 55.5472 69.5822 55.6373 69.5327C55.7273 69.4832 55.7994 69.4336 55.8534 69.3841C55.9074 69.3346 55.9479 69.3098 55.9749 69.3098C56.0245 69.3098 56.0492 69.3414 56.0492 69.4044C56.0492 69.5034 55.9322 69.634 55.6981 69.7961C55.464 69.9581 55.2501 70.0392 55.0565 70.0392C54.9395 70.0392 54.8382 69.9919 54.7526 69.8974C54.6671 69.8028 54.6243 69.6385 54.6243 69.4044C54.6243 69.1613 54.6716 68.7899 54.7661 68.2901C54.8607 67.7904 54.908 67.5293 54.908 67.5068C54.908 67.4618 54.8404 67.437 54.7054 67.4325C54.5748 67.428 54.5095 67.392 54.5095 67.3245ZM57.0348 69.8028C57.0348 69.7488 57.046 69.6497 57.0686 69.5057C57.0956 69.3571 57.1248 69.186 57.1563 68.9924C57.1924 68.7989 57.2171 68.6571 57.2306 68.567C57.2441 68.4815 57.2937 68.1506 57.3792 67.5743C57.4647 66.9981 57.5413 66.4871 57.6088 66.0414C57.6763 65.5957 57.7101 65.3661 57.7101 65.3526C57.7101 65.249 57.6471 65.1973 57.521 65.1973C57.467 65.1973 57.4085 65.1995 57.3454 65.204C57.2869 65.204 57.2531 65.204 57.2441 65.204C57.1856 65.204 57.1563 65.177 57.1563 65.123C57.1563 65.0735 57.2419 65.0419 57.413 65.0284C57.6246 65.0104 57.7911 64.9879 57.9127 64.9609C58.0342 64.9294 58.1108 64.9136 58.1423 64.9136C58.1963 64.9136 58.2233 64.9429 58.2233 65.0014C58.2233 65.0104 58.1558 65.3841 58.0207 66.1224C57.8857 66.8562 57.8181 67.3447 57.8181 67.5878C57.8181 67.6373 57.8271 67.6621 57.8451 67.6621C57.8587 67.6621 57.8947 67.6328 57.9532 67.5743C58.0117 67.5113 58.077 67.446 58.149 67.3785C58.2256 67.3064 58.3246 67.2412 58.4462 67.1826C58.5722 67.1196 58.6983 67.0881 58.8243 67.0881C59.225 67.0881 59.4254 67.3425 59.4254 67.8512C59.4254 67.9863 59.3983 68.2226 59.3443 68.5603C59.2903 68.8979 59.2633 69.1163 59.2633 69.2153C59.2633 69.4224 59.3173 69.5259 59.4254 69.5259C59.4839 69.5259 59.5784 69.4854 59.709 69.4044C59.7495 69.3819 59.7878 69.3481 59.8238 69.3031C59.8643 69.2536 59.8981 69.213 59.9251 69.1815C59.9521 69.1455 59.9723 69.1275 59.9859 69.1275C60.0309 69.1275 60.0534 69.1455 60.0534 69.1815C60.0534 69.3346 59.9453 69.5057 59.7292 69.6948C59.5131 69.8838 59.3286 69.9784 59.1755 69.9784C58.9549 69.9784 58.8446 69.769 58.8446 69.3504C58.8446 69.2108 58.8649 68.9812 58.9054 68.6616C58.9459 68.3374 58.9661 68.1078 58.9661 67.9727C58.9661 67.6216 58.8378 67.446 58.5812 67.446C58.4282 67.446 58.2751 67.491 58.122 67.5811C57.9735 67.6711 57.8587 67.8219 57.7776 68.0335C57.7371 68.1371 57.7033 68.2721 57.6763 68.4387C57.6493 68.6008 57.6178 68.8304 57.5818 69.1275C57.5503 69.4246 57.5255 69.6362 57.5075 69.7623C57.494 69.8433 57.467 69.8974 57.4265 69.9244C57.3904 69.9514 57.3342 69.9649 57.2576 69.9649C57.1091 69.9649 57.0348 69.9109 57.0348 69.8028ZM60.7251 67.9592C60.7251 67.8152 60.7454 67.6846 60.7859 67.5676C60.8264 67.4505 60.8737 67.3605 60.9277 67.2974C60.9862 67.2344 61.047 67.1804 61.11 67.1354C61.173 67.0904 61.2248 67.0611 61.2653 67.0476C61.3104 67.0341 61.3419 67.0273 61.3599 67.0273C61.4679 67.0273 61.5512 67.1061 61.6097 67.2637C61.7223 67.5608 61.7853 67.7094 61.7988 67.7094C61.8033 67.7094 61.8461 67.6531 61.9271 67.5406C62.0082 67.4235 62.1162 67.3064 62.2513 67.1894C62.3908 67.0723 62.5349 67.0138 62.6835 67.0138C62.7645 67.0138 62.8253 67.0363 62.8658 67.0813C62.9108 67.1219 62.9333 67.1691 62.9333 67.2232C62.9333 67.2592 62.9198 67.3087 62.8928 67.3717C62.8703 67.4348 62.859 67.4685 62.859 67.473L62.8523 67.527C62.8433 67.5676 62.8343 67.5991 62.8253 67.6216C62.8163 67.6441 62.8005 67.6689 62.778 67.6959C62.76 67.7184 62.7375 67.7296 62.7105 67.7296C62.67 67.7296 62.6362 67.7071 62.6092 67.6621C62.5822 67.6126 62.5484 67.5653 62.5079 67.5203C62.4674 67.4708 62.4133 67.446 62.3458 67.446C62.2153 67.446 62.105 67.5811 62.0149 67.8512C61.9249 68.1213 61.8664 68.3757 61.8393 68.6143L61.8056 68.8371C61.7245 69.4719 61.666 69.8253 61.63 69.8974C61.585 69.9559 61.5174 69.9851 61.4274 69.9851H61.3936C61.2586 69.9851 61.1911 69.9266 61.1911 69.8096C61.1911 69.7375 61.2383 69.4719 61.3329 69.0127C61.4319 68.5535 61.4814 68.2294 61.4814 68.0403C61.4814 67.7341 61.4049 67.5811 61.2518 67.5811C61.1708 67.5811 61.1033 67.6148 61.0492 67.6824C60.9952 67.7454 60.9547 67.8197 60.9277 67.9052C60.9007 67.9863 60.8849 68.029 60.8804 68.0335C60.8534 68.0605 60.8286 68.074 60.8061 68.074C60.7521 68.074 60.7251 68.0358 60.7251 67.9592ZM63.4245 68.8169C63.4245 68.3577 63.5686 67.9435 63.8567 67.5743C64.1493 67.2052 64.5365 67.0206 65.0182 67.0206C65.3379 67.0206 65.581 67.1354 65.7475 67.365C65.9186 67.5901 66.0041 67.8737 66.0041 68.2159C66.0041 68.5085 65.9456 68.7899 65.8286 69.06C65.716 69.3301 65.5382 69.5597 65.2951 69.7488C65.052 69.9334 64.7729 70.0257 64.4577 70.0257C64.1606 70.0257 63.913 69.9221 63.7149 69.715C63.5213 69.5079 63.4245 69.2085 63.4245 68.8169ZM63.9445 68.8236C63.9445 69.1478 63.9985 69.3954 64.1066 69.5665C64.2191 69.7375 64.3609 69.8231 64.532 69.8231C64.7031 69.8231 64.8539 69.7623 64.9844 69.6407C65.1195 69.5192 65.2208 69.3684 65.2883 69.1883C65.3604 69.0037 65.4144 68.8214 65.4504 68.6413C65.4864 68.4567 65.5044 68.2879 65.5044 68.1348C65.5044 67.8332 65.4482 67.6058 65.3356 67.4528C65.2276 67.2997 65.0902 67.2232 64.9237 67.2232C64.7526 67.2232 64.5883 67.2997 64.4307 67.4528C64.2731 67.6013 64.1561 67.8062 64.0795 68.0673C63.9895 68.3824 63.9445 68.6345 63.9445 68.8236ZM66.8975 67.9727C66.8975 67.8017 66.9718 67.6081 67.1203 67.392C67.2734 67.1759 67.4535 67.0678 67.6606 67.0678C67.7326 67.0678 67.7889 67.1061 67.8294 67.1826C67.8744 67.2592 67.8992 67.329 67.9037 67.392C67.9127 67.4505 67.9172 67.5068 67.9172 67.5608C67.9172 67.7634 67.8744 68.0853 67.7889 68.5265C67.7079 68.9632 67.6673 69.2626 67.6673 69.4246C67.6673 69.4787 67.6808 69.5237 67.7079 69.5597C67.7349 69.5912 67.7619 69.607 67.7889 69.607C67.8114 69.607 67.8339 69.6047 67.8564 69.6002C67.8834 69.5912 67.9104 69.58 67.9375 69.5665C67.9645 69.5484 67.9892 69.5304 68.0117 69.5124C68.0343 69.4944 68.0613 69.4697 68.0928 69.4381C68.1288 69.4066 68.1558 69.3796 68.1738 69.3571C68.1963 69.3346 68.2256 69.3031 68.2616 69.2626C68.3021 69.2176 68.3336 69.1815 68.3561 69.1545C68.3787 69.1275 68.4124 69.087 68.4574 69.033C68.5025 68.9789 68.5362 68.9384 68.5587 68.9114C68.8784 68.5242 69.1395 67.9412 69.3421 67.1624C69.3601 67.0904 69.4254 67.0543 69.5379 67.0543C69.6865 67.0543 69.7608 67.1039 69.7608 67.2029C69.7608 67.2479 69.691 67.5878 69.5514 68.2226C69.4164 68.8574 69.3488 69.2378 69.3488 69.3639C69.3488 69.4719 69.3984 69.5259 69.4974 69.5259C69.619 69.5259 69.7158 69.4854 69.7878 69.4044C69.8643 69.3188 69.9228 69.2356 69.9634 69.1545C70.0039 69.069 70.0421 69.0262 70.0782 69.0262C70.1412 69.0262 70.1727 69.0735 70.1727 69.168C70.1727 69.2896 70.0669 69.4629 69.8553 69.688C69.6437 69.9086 69.3984 70.0189 69.1192 70.0189C68.9842 70.0189 68.9166 69.8974 68.9166 69.6542C68.9166 69.5282 68.9256 69.3841 68.9437 69.2221C68.9662 69.06 68.9864 68.9227 69.0044 68.8101C69.0269 68.6976 69.0382 68.6368 69.0382 68.6278C69.0382 68.5783 69.0269 68.5535 69.0044 68.5535C68.9954 68.5535 68.9819 68.5693 68.9639 68.6008C68.9459 68.6278 68.9166 68.6796 68.8761 68.7561C68.8356 68.8281 68.7861 68.9047 68.7276 68.9857C68.2368 69.6835 67.8046 70.0324 67.431 70.0324C67.2779 70.0324 67.2014 69.8883 67.2014 69.6002C67.2014 69.3301 67.2509 68.9767 67.3499 68.54C67.4535 68.1033 67.5053 67.8287 67.5053 67.7161C67.5053 67.6216 67.4602 67.5743 67.3702 67.5743C67.3387 67.5743 67.2914 67.6148 67.2284 67.6959C67.1654 67.7724 67.1113 67.8624 67.0663 67.966C67.0393 68.029 67.0055 68.0605 66.965 68.0605C66.92 68.0605 66.8975 68.0313 66.8975 67.9727ZM70.6886 70.4511C70.6886 70.3385 70.7111 70.2395 70.7561 70.154C70.8011 70.0684 70.8551 70.0031 70.9182 69.9581C70.9812 69.9131 71.0442 69.8793 71.1073 69.8568C71.1703 69.8298 71.2243 69.8096 71.2693 69.7961C71.3144 69.7826 71.3369 69.7735 71.3369 69.769C71.3369 69.76 71.3301 69.7465 71.3166 69.7285C71.3031 69.706 71.2896 69.6745 71.2761 69.634C71.2626 69.589 71.2558 69.5349 71.2558 69.4719C71.2558 69.3774 71.2783 69.2963 71.3234 69.2288C71.3684 69.1613 71.4111 69.1118 71.4517 69.0802C71.4967 69.0442 71.5192 69.0195 71.5192 69.006C71.5192 69.0015 71.4944 68.9789 71.4449 68.9384C71.3999 68.8934 71.3526 68.8056 71.3031 68.6751C71.2536 68.5445 71.2288 68.3712 71.2288 68.1551C71.2288 67.9165 71.3211 67.6779 71.5057 67.4393C71.6948 67.1962 71.9379 67.0746 72.235 67.0746C72.3386 67.0746 72.4736 67.1039 72.6402 67.1624C72.8068 67.2209 72.9193 67.2502 72.9778 67.2502C73.0454 67.2502 73.1354 67.2254 73.248 67.1759C73.3605 67.1264 73.4325 67.1016 73.4641 67.1016C73.5091 67.1016 73.5518 67.1151 73.5924 67.1421C73.6374 67.1691 73.6599 67.2142 73.6599 67.2772C73.6599 67.3222 73.6374 67.3695 73.5924 67.419C73.5473 67.464 73.4866 67.4865 73.41 67.4865C73.3425 67.4865 73.2682 67.4775 73.1872 67.4595C73.1062 67.4415 73.0611 67.4325 73.0521 67.4325C72.9981 67.4325 72.9711 67.4528 72.9711 67.4933C72.9711 67.5023 72.9801 67.5315 72.9981 67.5811C73.0206 67.6261 73.0409 67.6891 73.0589 67.7702C73.0814 67.8512 73.0926 67.9345 73.0926 68.02C73.0926 68.2721 73.0004 68.5287 72.8158 68.7899C72.6357 69.051 72.4061 69.1815 72.127 69.1815C72.0054 69.1815 71.8929 69.168 71.7893 69.141C71.6858 69.1095 71.625 69.0937 71.607 69.0937C71.6025 69.0937 71.5935 69.1005 71.58 69.114C71.571 69.123 71.5597 69.1478 71.5462 69.1883C71.5327 69.2243 71.5259 69.2693 71.5259 69.3233C71.5259 69.4494 71.616 69.5552 71.7961 69.6407C71.9761 69.7263 72.172 69.7938 72.3836 69.8433C72.5997 69.8883 72.7978 69.9694 72.9778 70.0864C73.1579 70.208 73.248 70.3611 73.248 70.5456C73.248 70.8158 73.1444 71.0048 72.9373 71.1129C72.7347 71.2209 72.4466 71.275 72.0729 71.275C71.6858 71.275 71.3571 71.2052 71.087 71.0656C70.8214 70.9306 70.6886 70.7257 70.6886 70.4511ZM71.06 70.3701C71.06 70.6087 71.1613 70.791 71.3639 70.9171C71.571 71.0431 71.8028 71.1061 72.0594 71.1061C72.5637 71.1061 72.8158 70.9598 72.8158 70.6672C72.8158 70.5907 72.7347 70.5051 72.5727 70.4106C72.4151 70.3205 72.1 70.1787 71.6272 69.9851C71.5777 69.9671 71.5327 69.9491 71.4922 69.9311C71.4562 69.9086 71.4314 69.8906 71.4179 69.8771L71.4044 69.8636C71.3459 69.8636 71.2738 69.9176 71.1883 70.0257C71.1028 70.1337 71.06 70.2485 71.06 70.3701ZM71.634 68.2699C71.634 68.5175 71.6768 68.7066 71.7623 68.8371C71.8523 68.9632 71.9626 69.0262 72.0932 69.0262C72.2508 69.0262 72.3903 68.9384 72.5119 68.7628C72.6379 68.5828 72.701 68.3464 72.701 68.0538C72.701 67.7972 72.6537 67.5991 72.5592 67.4595C72.4691 67.32 72.3566 67.2502 72.2215 67.2502C72.0684 67.2502 71.9311 67.3425 71.8096 67.527C71.6925 67.7071 71.634 67.9547 71.634 68.2699ZM74.3895 69.8028C74.3895 69.7488 74.4007 69.6497 74.4233 69.5057C74.4503 69.3571 74.4795 69.186 74.511 68.9924C74.5471 68.7989 74.5718 68.6571 74.5853 68.567C74.5988 68.4815 74.6484 68.1506 74.7339 67.5743C74.8194 66.9981 74.896 66.4871 74.9635 66.0414C75.031 65.5957 75.0648 65.3661 75.0648 65.3526C75.0648 65.249 75.0018 65.1973 74.8757 65.1973C74.8217 65.1973 74.7632 65.1995 74.7001 65.204C74.6416 65.204 74.6078 65.204 74.5988 65.204C74.5403 65.204 74.511 65.177 74.511 65.123C74.511 65.0735 74.5966 65.0419 74.7677 65.0284C74.9792 65.0104 75.1458 64.9879 75.2674 64.9609C75.3889 64.9294 75.4655 64.9136 75.497 64.9136C75.551 64.9136 75.578 64.9429 75.578 65.0014C75.578 65.0104 75.5105 65.3841 75.3754 66.1224C75.2404 66.8562 75.1728 67.3447 75.1728 67.5878C75.1728 67.6373 75.1818 67.6621 75.1998 67.6621C75.2134 67.6621 75.2494 67.6328 75.3079 67.5743C75.3664 67.5113 75.4317 67.446 75.5037 67.3785C75.5803 67.3064 75.6793 67.2412 75.8009 67.1826C75.9269 67.1196 76.053 67.0881 76.179 67.0881C76.5797 67.0881 76.7801 67.3425 76.7801 67.8512C76.7801 67.9863 76.753 68.2226 76.699 68.5603C76.645 68.8979 76.618 69.1163 76.618 69.2153C76.618 69.4224 76.672 69.5259 76.7801 69.5259C76.8386 69.5259 76.9331 69.4854 77.0637 69.4044C77.1042 69.3819 77.1425 69.3481 77.1785 69.3031C77.219 69.2536 77.2528 69.213 77.2798 69.1815C77.3068 69.1455 77.327 69.1275 77.3406 69.1275C77.3856 69.1275 77.4081 69.1455 77.4081 69.1815C77.4081 69.3346 77.3 69.5057 77.0839 69.6948C76.8678 69.8838 76.6833 69.9784 76.5302 69.9784C76.3096 69.9784 76.1993 69.769 76.1993 69.3504C76.1993 69.2108 76.2196 68.9812 76.2601 68.6616C76.3006 68.3374 76.3208 68.1078 76.3208 67.9727C76.3208 67.6216 76.1925 67.446 75.9359 67.446C75.7829 67.446 75.6298 67.491 75.4767 67.5811C75.3282 67.6711 75.2134 67.8219 75.1323 68.0335C75.0918 68.1371 75.058 68.2721 75.031 68.4387C75.004 68.6008 74.9725 68.8304 74.9365 69.1275C74.905 69.4246 74.8802 69.6362 74.8622 69.7623C74.8487 69.8433 74.8217 69.8974 74.7812 69.9244C74.7451 69.9514 74.6889 69.9649 74.6123 69.9649C74.4638 69.9649 74.3895 69.9109 74.3895 69.8028ZM80.2527 67.8377C80.2527 67.5045 80.3113 67.1781 80.4283 66.8585C80.5499 66.5389 80.7209 66.2485 80.9415 65.9874C81.1621 65.7262 81.4435 65.5169 81.7857 65.3593C82.1323 65.2018 82.5105 65.123 82.9202 65.123C83.3028 65.123 83.645 65.1883 83.9466 65.3188C84.2528 65.4449 84.4959 65.6159 84.676 65.832C84.856 66.0481 84.9933 66.2912 85.0879 66.5614C85.1824 66.8315 85.2297 67.1174 85.2297 67.419C85.2297 67.7386 85.1757 68.0538 85.0676 68.3644C84.9641 68.6706 84.8088 68.9564 84.6017 69.2221C84.3991 69.4832 84.129 69.6948 83.7913 69.8568C83.4537 70.0144 83.0732 70.0932 82.65 70.0932C81.9297 70.0932 81.349 69.8861 80.9078 69.4719C80.4711 69.0577 80.2527 68.513 80.2527 67.8377ZM80.8335 67.6148C80.8335 68.3081 81.0181 68.8551 81.3872 69.2558C81.7564 69.652 82.1931 69.8501 82.6973 69.8501C83.089 69.8501 83.4356 69.7263 83.7373 69.4787C84.0434 69.2311 84.2685 68.9249 84.4126 68.5603C84.5612 68.1911 84.6354 67.8017 84.6354 67.392C84.6354 66.9958 84.5882 66.6784 84.4936 66.4398C84.3631 66.1022 84.1537 65.832 83.8656 65.6295C83.582 65.4269 83.2353 65.3256 82.8256 65.3256C82.506 65.3256 82.2156 65.3999 81.9545 65.5484C81.6934 65.6925 81.484 65.8793 81.3265 66.1089C81.1689 66.3385 81.0473 66.5839 80.9618 66.845C80.8763 67.1061 80.8335 67.3627 80.8335 67.6148ZM85.8586 71.1939C85.8586 71.1309 85.9036 71.0791 85.9937 71.0386C86.0882 70.9981 86.1422 70.9576 86.1558 70.9171C86.1648 70.8945 86.1783 70.8068 86.1963 70.6537C86.4394 68.7628 86.5857 67.6981 86.6352 67.4595V67.446C86.6352 67.4235 86.624 67.4122 86.6015 67.4122C86.5789 67.4122 86.5227 67.4325 86.4326 67.473C86.3426 67.5135 86.2841 67.5338 86.2571 67.5338C86.1985 67.5338 86.1693 67.5068 86.1693 67.4528V67.4258C86.1693 67.3852 86.185 67.356 86.2165 67.338C86.2706 67.3155 86.3223 67.2952 86.3719 67.2772C86.4259 67.2592 86.4664 67.2457 86.4934 67.2367C86.5249 67.2232 86.5519 67.2142 86.5744 67.2097C86.6015 67.2052 86.6217 67.1962 86.6352 67.1826C86.6487 67.1691 86.66 67.1624 86.669 67.1624C86.6825 67.1624 86.6915 67.1511 86.696 67.1286C86.7005 67.1061 86.7027 67.0926 86.7027 67.0881C86.7073 67.0791 86.7118 67.0543 86.7163 67.0138C86.7253 66.9733 86.732 66.9418 86.7365 66.9193C86.75 66.8472 86.7635 66.7617 86.777 66.6627C86.795 66.5636 86.8063 66.4983 86.8108 66.4668C86.8198 66.4308 86.8311 66.3903 86.8446 66.3453C86.8626 66.2957 86.8828 66.2597 86.9053 66.2372C86.9324 66.2147 86.9661 66.1922 87.0066 66.1697C87.0697 66.1382 87.1349 66.1224 87.2025 66.1224C87.2655 66.1224 87.297 66.1607 87.297 66.2372C87.297 66.3048 87.2655 66.4398 87.2025 66.6424C87.1439 66.845 87.1147 66.9778 87.1147 67.0408V67.0678C87.1147 67.0904 87.1259 67.1016 87.1484 67.1016C87.1575 67.1016 87.1845 67.0994 87.2295 67.0949C87.279 67.0859 87.3465 67.0791 87.4321 67.0746C87.5176 67.0701 87.6144 67.0678 87.7225 67.0678C88.5193 67.0678 88.9177 67.3695 88.9177 67.9727C88.9177 68.3464 88.8299 68.6818 88.6544 68.9789C88.6454 68.997 88.6274 69.0285 88.6003 69.0735C88.5778 69.114 88.5598 69.1433 88.5463 69.1613C88.5373 69.1748 88.5216 69.2018 88.499 69.2423C88.4765 69.2783 88.4563 69.3076 88.4383 69.3301C88.4248 69.3481 88.4023 69.3751 88.3707 69.4111C88.3437 69.4427 88.3167 69.4719 88.2897 69.4989C88.2627 69.5214 88.2289 69.5484 88.1884 69.58C88.1524 69.6115 88.1119 69.643 88.0669 69.6745C87.8012 69.8636 87.5041 69.9581 87.1755 69.9581C87.1394 69.9581 87.0764 69.9536 86.9864 69.9446C86.9008 69.9356 86.8423 69.9311 86.8108 69.9311C86.7703 69.9311 86.7433 69.9424 86.7298 69.9649C86.7208 69.9874 86.7095 70.0527 86.696 70.1607C86.687 70.2328 86.6802 70.2913 86.6757 70.3363C86.6712 70.3858 86.6622 70.4488 86.6487 70.5254C86.6352 70.6064 86.624 70.6717 86.615 70.7212C86.6105 70.7752 86.6082 70.8113 86.6082 70.8293C86.6082 70.9283 86.6555 70.9958 86.75 71.0319C86.8446 71.0724 86.9369 71.0994 87.0269 71.1129C87.1214 71.1264 87.1687 71.1534 87.1687 71.1939C87.1687 71.2525 87.1372 71.2817 87.0742 71.2817C86.9931 71.2817 86.8738 71.2795 86.7163 71.275C86.5632 71.275 86.4574 71.275 86.3989 71.275C86.3448 71.275 86.2751 71.275 86.1895 71.275C86.1085 71.2795 86.0567 71.2817 86.0342 71.2817H85.9734C85.8969 71.2817 85.8586 71.2525 85.8586 71.1939ZM86.7905 69.6137C86.7905 69.6317 86.7995 69.652 86.8175 69.6745C86.8356 69.697 86.8761 69.7195 86.9391 69.742C87.0021 69.7645 87.0809 69.7758 87.1755 69.7758C87.4951 69.7758 87.7832 69.6002 88.0398 69.2491C88.2965 68.8934 88.4248 68.5513 88.4248 68.2226C88.4248 68.047 88.391 67.8962 88.3235 67.7702C88.2604 67.6396 88.1839 67.5428 88.0939 67.4798C88.0083 67.4122 87.907 67.3605 87.79 67.3245C87.6729 67.2839 87.5761 67.2592 87.4996 67.2502C87.4276 67.2412 87.3578 67.2367 87.2903 67.2367C87.2497 67.2367 87.2137 67.2412 87.1822 67.2502C87.1552 67.2547 87.1372 67.2569 87.1282 67.2569C87.0922 67.2569 87.0539 67.4303 87.0134 67.7769L86.9256 68.5265C86.8356 69.2018 86.7905 69.5642 86.7905 69.6137ZM89.8921 68.9654C89.8921 68.6818 89.9596 68.4004 90.0947 68.1213C90.2297 67.8422 90.4165 67.5923 90.6552 67.3717C90.9073 67.1331 91.2202 67.0138 91.5938 67.0138C91.7559 67.0138 91.8932 67.0611 92.0058 67.1556C92.1228 67.2502 92.1813 67.3695 92.1813 67.5135C92.1813 67.6261 92.1543 67.7341 92.1003 67.8377C92.0463 67.9367 91.9787 68.02 91.8977 68.0875C91.8167 68.1551 91.7446 68.2091 91.6816 68.2496C91.6231 68.2856 91.5713 68.3126 91.5263 68.3307C91.2652 68.4477 90.9118 68.5085 90.4661 68.513C90.3895 68.513 90.3513 68.6053 90.3513 68.7899C90.3513 69.051 90.4323 69.2581 90.5944 69.4111C90.7564 69.5597 90.9996 69.634 91.3237 69.634C91.4362 69.634 91.5465 69.6092 91.6546 69.5597C91.7671 69.5102 91.8572 69.4629 91.9247 69.4179C91.9967 69.3684 92.0395 69.3436 92.053 69.3436C92.107 69.3436 92.1341 69.3661 92.1341 69.4111C92.1341 69.5057 92.0035 69.634 91.7424 69.7961C91.4858 69.9581 91.2247 70.0392 90.959 70.0392C90.5584 70.0392 90.2792 69.9446 90.1217 69.7555C89.9686 69.5665 89.8921 69.3031 89.8921 68.9654ZM90.4458 68.2631C90.4458 68.3532 90.4661 68.3982 90.5066 68.3982C90.8262 68.3982 91.1076 68.3081 91.3507 68.1281C91.5938 67.948 91.7154 67.7499 91.7154 67.5338C91.7154 67.4213 91.6749 67.3402 91.5938 67.2907C91.5173 67.2412 91.4385 67.2164 91.3575 67.2164C91.1909 67.2164 91.0063 67.3222 90.8037 67.5338C90.7137 67.6283 90.6304 67.7589 90.5539 67.9255C90.4818 68.092 90.4458 68.2046 90.4458 68.2631ZM93.0953 67.7904C93.0953 67.6554 93.1741 67.4933 93.3317 67.3042C93.4892 67.1151 93.6311 67.0206 93.7571 67.0206C93.8742 67.0206 93.9529 67.0813 93.9935 67.2029C94.034 67.32 94.0542 67.437 94.0542 67.5541C94.0542 67.6711 94.0587 67.7296 94.0677 67.7296C94.0768 67.7296 94.0903 67.7161 94.1083 67.6891C94.1308 67.6621 94.1668 67.6193 94.2163 67.5608C94.2703 67.5023 94.3334 67.446 94.4054 67.392C94.734 67.1354 95.0087 67.0071 95.2293 67.0071C95.6074 67.0071 95.7965 67.2884 95.7965 67.8512C95.7965 68.0313 95.7763 68.2991 95.7357 68.6548C95.6997 69.0105 95.6817 69.2153 95.6817 69.2693C95.6817 69.4314 95.7245 69.5124 95.81 69.5124C95.846 69.5124 95.8866 69.5012 95.9316 69.4787C95.9766 69.4517 96.0126 69.4269 96.0396 69.4044L96.0801 69.3639C96.0936 69.3504 96.1094 69.3278 96.1274 69.2963C96.1499 69.2648 96.1657 69.2446 96.1747 69.2356C96.1882 69.2221 96.2039 69.2108 96.222 69.2018C96.2445 69.1883 96.267 69.1815 96.2895 69.1815C96.33 69.1815 96.3503 69.2085 96.3503 69.2626C96.3503 69.3931 96.2377 69.5484 96.0126 69.7285C95.792 69.9086 95.6074 69.9986 95.4589 69.9986C95.3913 69.9986 95.3328 69.9581 95.2833 69.8771C95.2338 69.7916 95.209 69.6903 95.209 69.5732C95.209 69.3796 95.2315 69.069 95.2765 68.6413C95.3261 68.2136 95.3508 67.9682 95.3508 67.9052C95.3508 67.8422 95.3441 67.7769 95.3306 67.7094C95.3171 67.6373 95.2698 67.5608 95.1887 67.4798C95.1122 67.3942 95.0087 67.3515 94.8781 67.3515C94.725 67.3515 94.5787 67.4505 94.4392 67.6486C94.3761 67.7386 94.3311 67.8039 94.3041 67.8444C94.2771 67.885 94.2523 67.9412 94.2298 68.0133C94.2073 68.0808 94.1916 68.1348 94.1825 68.1753C94.178 68.2159 94.1623 68.3104 94.1353 68.459C94.1128 68.603 94.0903 68.7403 94.0677 68.8709C94.0272 69.0825 93.9957 69.2558 93.9732 69.3909C93.9552 69.5214 93.9439 69.607 93.9394 69.6475C93.9394 69.6835 93.9372 69.715 93.9327 69.742C93.9327 69.7645 93.9327 69.7826 93.9327 69.7961C93.9237 69.8681 93.9012 69.9154 93.8652 69.9379C93.8336 69.9604 93.7729 69.9716 93.6828 69.9716C93.5838 69.9716 93.5185 69.9604 93.487 69.9379C93.46 69.9154 93.4465 69.8568 93.4465 69.7623C93.4465 69.6858 93.496 69.4066 93.595 68.9249C93.6941 68.4432 93.7436 68.1056 93.7436 67.912C93.7436 67.8039 93.7256 67.7161 93.6896 67.6486C93.6581 67.5766 93.6243 67.5406 93.5883 67.5406C93.5118 67.5406 93.4307 67.6036 93.3452 67.7296C93.2641 67.8557 93.2011 67.9187 93.1561 67.9187C93.1156 67.9187 93.0953 67.876 93.0953 67.7904ZM99.141 69.0532C99.141 68.9497 99.177 68.8979 99.249 68.8979C99.2806 68.8979 99.3053 68.9227 99.3233 68.9722C99.3954 69.2063 99.5304 69.4044 99.7285 69.5665C99.9311 69.7285 100.194 69.8096 100.519 69.8096C100.708 69.8096 100.87 69.7826 101.005 69.7285C101.144 69.6745 101.246 69.6047 101.309 69.5192C101.372 69.4336 101.415 69.3549 101.437 69.2828C101.464 69.2063 101.478 69.132 101.478 69.06C101.478 68.9069 101.439 68.7651 101.363 68.6345C101.286 68.504 101.165 68.3554 100.998 68.1888L100.208 67.4055C99.7803 66.9688 99.5664 66.5704 99.5664 66.2102C99.5664 66.0346 99.5912 65.8838 99.6407 65.7578C99.6902 65.6317 99.742 65.5417 99.796 65.4876C99.8501 65.4291 99.9221 65.3706 100.012 65.3121C100.192 65.186 100.422 65.123 100.701 65.123C100.859 65.123 101.057 65.1635 101.295 65.2445C101.538 65.3211 101.669 65.3593 101.687 65.3593C101.691 65.3593 101.721 65.3413 101.775 65.3053C101.833 65.2693 101.874 65.2513 101.896 65.2513C101.955 65.2513 101.984 65.2986 101.984 65.3931C101.984 65.4156 101.982 65.4539 101.977 65.5079C101.977 65.5574 101.977 65.5979 101.977 65.6295V65.7443C101.977 65.8118 101.991 65.9198 102.018 66.0684C102.045 66.217 102.058 66.3025 102.058 66.325C102.058 66.3655 102.045 66.3993 102.018 66.4263C101.995 66.4488 101.973 66.4601 101.95 66.4601C101.91 66.4601 101.878 66.4398 101.856 66.3993C101.833 66.3543 101.815 66.3003 101.802 66.2372C101.788 66.1697 101.75 66.0842 101.687 65.9806C101.628 65.8771 101.55 65.7758 101.451 65.6767C101.23 65.4606 100.962 65.3526 100.647 65.3526C100.521 65.3526 100.413 65.3728 100.323 65.4134C100.233 65.4539 100.167 65.5101 100.127 65.5822C100.091 65.6497 100.064 65.7127 100.046 65.7713C100.032 65.8298 100.026 65.8906 100.026 65.9536C100.026 66.1112 100.068 66.2687 100.154 66.4263C100.244 66.5794 100.339 66.7077 100.438 66.8112C100.537 66.9148 100.685 67.0588 100.883 67.2434C101.081 67.428 101.232 67.5743 101.336 67.6824C101.484 67.8354 101.592 67.957 101.66 68.047C101.732 68.1326 101.797 68.2519 101.856 68.4049C101.919 68.5535 101.95 68.7156 101.95 68.8912C101.95 69.0037 101.925 69.1208 101.876 69.2423C101.831 69.3639 101.752 69.4899 101.64 69.6205C101.532 69.7465 101.367 69.8501 101.147 69.9311C100.926 70.0122 100.665 70.0527 100.363 70.0527C99.8861 70.0527 99.5619 70.0031 99.3909 69.9041C99.3278 69.8681 99.2693 69.7488 99.2153 69.5462C99.1658 69.3436 99.141 69.1793 99.141 69.0532ZM103.013 68.8169C103.013 68.3577 103.158 67.9435 103.446 67.5743C103.738 67.2052 104.125 67.0206 104.607 67.0206C104.927 67.0206 105.17 67.1354 105.337 67.365C105.508 67.5901 105.593 67.8737 105.593 68.2159C105.593 68.5085 105.535 68.7899 105.418 69.06C105.305 69.3301 105.127 69.5597 104.884 69.7488C104.641 69.9334 104.362 70.0257 104.047 70.0257C103.75 70.0257 103.502 69.9221 103.304 69.715C103.11 69.5079 103.013 69.2085 103.013 68.8169ZM103.533 68.8236C103.533 69.1478 103.587 69.3954 103.696 69.5665C103.808 69.7375 103.95 69.8231 104.121 69.8231C104.292 69.8231 104.443 69.7623 104.573 69.6407C104.708 69.5192 104.81 69.3684 104.877 69.1883C104.949 69.0037 105.003 68.8214 105.039 68.6413C105.075 68.4567 105.093 68.2879 105.093 68.1348C105.093 67.8332 105.037 67.6058 104.925 67.4528C104.817 67.2997 104.679 67.2232 104.513 67.2232C104.342 67.2232 104.177 67.2997 104.02 67.4528C103.862 67.6013 103.745 67.8062 103.669 68.0673C103.578 68.3824 103.533 68.6345 103.533 68.8236ZM106.486 67.9727C106.486 67.8017 106.561 67.6081 106.709 67.392C106.862 67.1759 107.042 67.0678 107.25 67.0678C107.322 67.0678 107.378 67.1061 107.418 67.1826C107.463 67.2592 107.488 67.329 107.493 67.392C107.502 67.4505 107.506 67.5068 107.506 67.5608C107.506 67.7634 107.463 68.0853 107.378 68.5265C107.297 68.9632 107.256 69.2626 107.256 69.4246C107.256 69.4787 107.27 69.5237 107.297 69.5597C107.324 69.5912 107.351 69.607 107.378 69.607C107.4 69.607 107.423 69.6047 107.445 69.6002C107.472 69.5912 107.499 69.58 107.526 69.5665C107.553 69.5484 107.578 69.5304 107.601 69.5124C107.623 69.4944 107.65 69.4697 107.682 69.4381C107.718 69.4066 107.745 69.3796 107.763 69.3571C107.785 69.3346 107.815 69.3031 107.851 69.2626C107.891 69.2176 107.923 69.1815 107.945 69.1545C107.968 69.1275 108.001 69.087 108.046 69.033C108.091 68.9789 108.125 68.9384 108.148 68.9114C108.467 68.5242 108.728 67.9412 108.931 67.1624C108.949 67.0904 109.014 67.0543 109.127 67.0543C109.275 67.0543 109.35 67.1039 109.35 67.2029C109.35 67.2479 109.28 67.5878 109.14 68.2226C109.005 68.8574 108.938 69.2378 108.938 69.3639C108.938 69.4719 108.987 69.5259 109.086 69.5259C109.208 69.5259 109.305 69.4854 109.377 69.4044C109.453 69.3188 109.512 69.2356 109.552 69.1545C109.593 69.069 109.631 69.0262 109.667 69.0262C109.73 69.0262 109.762 69.0735 109.762 69.168C109.762 69.2896 109.656 69.4629 109.444 69.688C109.233 69.9086 108.987 70.0189 108.708 70.0189C108.573 70.0189 108.506 69.8974 108.506 69.6542C108.506 69.5282 108.515 69.3841 108.533 69.2221C108.555 69.06 108.575 68.9227 108.593 68.8101C108.616 68.6976 108.627 68.6368 108.627 68.6278C108.627 68.5783 108.616 68.5535 108.593 68.5535C108.584 68.5535 108.571 68.5693 108.553 68.6008C108.535 68.6278 108.506 68.6796 108.465 68.7561C108.425 68.8281 108.375 68.9047 108.317 68.9857C107.826 69.6835 107.394 70.0324 107.02 70.0324C106.867 70.0324 106.79 69.8883 106.79 69.6002C106.79 69.3301 106.84 68.9767 106.939 68.54C107.042 68.1033 107.094 67.8287 107.094 67.7161C107.094 67.6216 107.049 67.5743 106.959 67.5743C106.928 67.5743 106.88 67.6148 106.817 67.6959C106.754 67.7724 106.7 67.8624 106.655 67.966C106.628 68.029 106.595 68.0605 106.554 68.0605C106.509 68.0605 106.486 68.0313 106.486 67.9727ZM110.475 67.9592C110.475 67.8152 110.495 67.6846 110.536 67.5676C110.576 67.4505 110.624 67.3605 110.678 67.2974C110.736 67.2344 110.797 67.1804 110.86 67.1354C110.923 67.0904 110.975 67.0611 111.015 67.0476C111.06 67.0341 111.092 67.0273 111.11 67.0273C111.218 67.0273 111.301 67.1061 111.36 67.2637C111.472 67.5608 111.535 67.7094 111.549 67.7094C111.553 67.7094 111.596 67.6531 111.677 67.5406C111.758 67.4235 111.866 67.3064 112.001 67.1894C112.141 67.0723 112.285 67.0138 112.433 67.0138C112.514 67.0138 112.575 67.0363 112.616 67.0813C112.661 67.1219 112.683 67.1691 112.683 67.2232C112.683 67.2592 112.67 67.3087 112.643 67.3717C112.62 67.4348 112.609 67.4685 112.609 67.473L112.602 67.527C112.593 67.5676 112.584 67.5991 112.575 67.6216C112.566 67.6441 112.55 67.6689 112.528 67.6959C112.51 67.7184 112.487 67.7296 112.46 67.7296C112.42 67.7296 112.386 67.7071 112.359 67.6621C112.332 67.6126 112.298 67.5653 112.258 67.5203C112.217 67.4708 112.163 67.446 112.096 67.446C111.965 67.446 111.855 67.5811 111.765 67.8512C111.675 68.1213 111.616 68.3757 111.589 68.6143L111.555 68.8371C111.474 69.4719 111.416 69.8253 111.38 69.8974C111.335 69.9559 111.267 69.9851 111.177 69.9851H111.144C111.008 69.9851 110.941 69.9266 110.941 69.8096C110.941 69.7375 110.988 69.4719 111.083 69.0127C111.182 68.5535 111.231 68.2294 111.231 68.0403C111.231 67.7341 111.155 67.5811 111.002 67.5811C110.921 67.5811 110.853 67.6148 110.799 67.6824C110.745 67.7454 110.705 67.8197 110.678 67.9052C110.651 67.9863 110.635 68.029 110.63 68.0335C110.603 68.0605 110.579 68.074 110.556 68.074C110.502 68.074 110.475 68.0358 110.475 67.9592ZM113.174 68.9519C113.174 68.4702 113.343 68.0268 113.681 67.6216C114.023 67.2164 114.426 67.0138 114.89 67.0138C114.935 67.0138 115.004 67.0273 115.099 67.0543C115.194 67.0768 115.295 67.1286 115.403 67.2097C115.511 67.2862 115.565 67.383 115.565 67.5C115.565 67.5676 115.542 67.6283 115.497 67.6824C115.452 67.7364 115.401 67.7634 115.342 67.7634C115.279 67.7634 115.216 67.7386 115.153 67.6891C115.094 67.6351 115.043 67.5788 114.998 67.5203C114.953 67.4618 114.887 67.4077 114.802 67.3582C114.721 67.3042 114.626 67.2772 114.518 67.2772C114.482 67.2772 114.419 67.2997 114.329 67.3447C114.244 67.3852 114.16 67.4415 114.079 67.5135C114.034 67.5541 113.982 67.6148 113.924 67.6959C113.865 67.7724 113.802 67.8985 113.735 68.074C113.667 68.2496 113.634 68.4297 113.634 68.6143C113.634 69.3031 113.899 69.6475 114.43 69.6475C114.593 69.6475 114.739 69.6182 114.869 69.5597C115.004 69.4967 115.108 69.4359 115.18 69.3774C115.257 69.3143 115.308 69.2828 115.335 69.2828C115.394 69.2828 115.423 69.3121 115.423 69.3706C115.423 69.4111 115.376 69.4832 115.281 69.5867C115.187 69.6858 115.038 69.7871 114.836 69.8906C114.633 69.9896 114.419 70.0392 114.194 70.0392C113.514 70.0392 113.174 69.6768 113.174 68.9519ZM116.471 68.9654C116.471 68.6818 116.539 68.4004 116.674 68.1213C116.809 67.8422 116.996 67.5923 117.234 67.3717C117.486 67.1331 117.799 67.0138 118.173 67.0138C118.335 67.0138 118.472 67.0611 118.585 67.1556C118.702 67.2502 118.76 67.3695 118.76 67.5135C118.76 67.6261 118.733 67.7341 118.679 67.8377C118.625 67.9367 118.558 68.02 118.477 68.0875C118.396 68.1551 118.324 68.2091 118.261 68.2496C118.202 68.2856 118.15 68.3126 118.105 68.3307C117.844 68.4477 117.491 68.5085 117.045 68.513C116.969 68.513 116.93 68.6053 116.93 68.7899C116.93 69.051 117.011 69.2581 117.174 69.4111C117.336 69.5597 117.579 69.634 117.903 69.634C118.015 69.634 118.126 69.6092 118.234 69.5597C118.346 69.5102 118.436 69.4629 118.504 69.4179C118.576 69.3684 118.619 69.3436 118.632 69.3436C118.686 69.3436 118.713 69.3661 118.713 69.4111C118.713 69.5057 118.583 69.634 118.322 69.7961C118.065 69.9581 117.804 70.0392 117.538 70.0392C117.138 70.0392 116.858 69.9446 116.701 69.7555C116.548 69.5665 116.471 69.3031 116.471 68.9654ZM117.025 68.2631C117.025 68.3532 117.045 68.3982 117.086 68.3982C117.405 68.3982 117.687 68.3081 117.93 68.1281C118.173 67.948 118.295 67.7499 118.295 67.5338C118.295 67.4213 118.254 67.3402 118.173 67.2907C118.096 67.2412 118.018 67.2164 117.937 67.2164C117.77 67.2164 117.585 67.3222 117.383 67.5338C117.293 67.6283 117.21 67.7589 117.133 67.9255C117.061 68.092 117.025 68.2046 117.025 68.2631ZM120.91 66.9936C120.91 66.9575 120.924 66.926 120.951 66.899C120.982 66.872 121.016 66.8472 121.052 66.8247C121.093 66.7977 121.138 66.7527 121.187 66.6897C121.237 66.6266 121.277 66.5524 121.309 66.4668C121.363 66.3363 121.39 66.235 121.39 66.1629C121.39 66.0729 121.372 65.9964 121.336 65.9333C121.3 65.8658 121.259 65.8163 121.214 65.7848C121.174 65.7533 121.135 65.7195 121.099 65.6835C121.063 65.6475 121.045 65.6092 121.045 65.5687C121.045 65.5282 121.093 65.4539 121.187 65.3458C121.286 65.2333 121.367 65.177 121.43 65.177C121.444 65.177 121.462 65.1838 121.484 65.1973C121.511 65.2063 121.543 65.2288 121.579 65.2648C121.615 65.2963 121.646 65.3368 121.673 65.3863C121.705 65.4359 121.732 65.5034 121.754 65.5889C121.777 65.6745 121.788 65.769 121.788 65.8726C121.788 66.0932 121.73 66.3025 121.613 66.5006C121.496 66.6942 121.376 66.8382 121.255 66.9328C121.133 67.0273 121.045 67.0746 120.991 67.0746C120.937 67.0746 120.91 67.0476 120.91 66.9936ZM119.755 66.9936C119.755 66.9575 119.769 66.926 119.796 66.899C119.828 66.872 119.861 66.8472 119.897 66.8247C119.938 66.7977 119.983 66.7527 120.032 66.6897C120.082 66.6266 120.122 66.5524 120.154 66.4668C120.208 66.3363 120.235 66.235 120.235 66.1629C120.235 66.0729 120.217 65.9964 120.181 65.9333C120.145 65.8658 120.104 65.8163 120.059 65.7848C120.019 65.7533 119.981 65.7195 119.945 65.6835C119.909 65.6475 119.891 65.6092 119.891 65.5687C119.891 65.5282 119.938 65.4539 120.032 65.3458C120.131 65.2333 120.212 65.177 120.275 65.177C120.289 65.177 120.307 65.1838 120.33 65.1973C120.357 65.2063 120.388 65.2288 120.424 65.2648C120.46 65.2963 120.492 65.3368 120.519 65.3863C120.55 65.4359 120.577 65.5034 120.6 65.5889C120.622 65.6745 120.633 65.769 120.633 65.8726C120.633 66.0932 120.575 66.3025 120.458 66.5006C120.341 66.6942 120.221 66.8382 120.1 66.9328C119.978 67.0273 119.891 67.0746 119.837 67.0746C119.783 67.0746 119.755 67.0476 119.755 66.9936Z" fill="white" fill-opacity="0.5"/>
</svg>
