<svg width="533" height="786" viewBox="0 0 533 786" fill="none" xmlns="http://www.w3.org/2000/svg">
<g opacity="0.3" clip-path="url(#clip0)">
<path d="M70.6816 249.462C74.2064 253.794 80.5565 254.554 84.8963 251.038C89.1198 247.617 89.8157 241.637 86.6362 237.231C83.3782 232.715 77.1398 231.573 72.5916 234.783C67.869 238.117 67.0328 244.977 70.6816 249.462Z" stroke="#A88771" stroke-width="10.1302" stroke-linecap="round" stroke-linejoin="round"/>
<path d="M70.7547 251.383C70.7547 251.383 31.8947 282.725 14.8128 309.04C2.55621 327.921 -8.73662 338.779 -9.56355 361.274C-10.2764 380.696 -9.38692 396.151 5.43175 408.726C17.8753 419.285 46.0212 418.679 46.0212 418.679" stroke="#A88771" stroke-width="10.1302" stroke-linecap="round" stroke-linejoin="round"/>
<path d="M71.798 305.95C73.7367 305.984 83.19 320.878 68.5031 337.416C53.8176 353.955 13.3153 351.096 4.04635 360.223C-5.22262 369.35 -3.22543 369.863 -7.88458 376.039C-7.88458 376.039 -10.4787 368.486 -5.40801 359.433C-0.337488 350.379 1.24311 347.882 10.1225 343.927C19.0034 339.974 49.0706 332.354 58.2912 324.272C67.5131 316.191 69.8609 305.917 71.798 305.95Z" stroke="#A88771" stroke-width="5.74047" stroke-linecap="round" stroke-linejoin="round"/>
<path d="M72.9419 310.447C74.6863 310.281 81.7196 320.855 66.8322 335.111C51.9462 349.368 15.7262 351.198 6.46047 359.18C-2.80362 367.164 -1.05559 367.361 -5.87021 372.604C-5.87021 372.604 -7.45544 367.02 -1.98164 359.513C3.4935 352.007 5.16619 349.917 13.5645 345.973C21.9614 342.027 49.8226 333.135 58.9404 325.965C68.0583 318.795 71.1991 310.614 72.9419 310.447Z" stroke="#A88771" stroke-width="5.74047" stroke-linecap="round" stroke-linejoin="round"/>
<path d="M72.6941 314.559C74.2912 314.199 79.1927 320.926 63.7976 333.334C48.4027 345.742 15.4469 352.036 5.98744 359.111C-3.47054 366.189 -1.9196 366.091 -6.98641 370.563C-6.98641 370.563 -7.65196 366.72 -1.68073 360.51C4.29049 354.3 6.08809 352.552 14.2122 348.533C22.3349 344.513 48.7096 334.228 57.9248 327.764C67.1401 321.3 71.097 314.92 72.6941 314.559Z" stroke="#A88771" stroke-width="5.74047" stroke-linecap="round" stroke-linejoin="round"/>
<path d="M74.1199 317.167C75.6021 316.597 78.4048 319.484 62.1181 330.263C45.8332 341.044 15.4951 352.124 5.6113 358.423C-4.27234 364.722 -2.88888 364.319 -8.3353 368.096C-8.3353 368.096 -8.06109 365.971 -1.43276 360.963C5.19574 355.955 7.16424 354.519 15.1928 350.327C23.2214 346.135 48.6727 334.161 58.2056 328.278C67.7386 322.395 72.6374 317.737 74.1199 317.167Z" stroke="#A88771" stroke-width="5.74047" stroke-linecap="round" stroke-linejoin="round"/>
<path d="M46.2358 419.274C49.7606 423.606 56.1122 424.368 60.4519 420.852C64.674 417.429 65.3714 411.451 62.1904 407.042C58.9324 402.527 52.6939 401.384 48.1458 404.595C43.4247 407.93 42.5884 414.79 46.2358 419.274Z" stroke="#A88771" stroke-width="10.1302" stroke-linecap="round" stroke-linejoin="round"/>
<path d="M30.2918 289.405C30.2918 289.405 39.8068 273.611 38.3505 262.886C37.1197 253.826 27.2353 242.283 27.2353 242.283" stroke="#A88771" stroke-width="10.1302" stroke-linecap="round" stroke-linejoin="round"/>
<path d="M-34.8735 222.345C-36.6218 221.508 -51.7439 230.589 -46.021 251.954C-40.2984 273.319 -2.80227 288.902 1.39621 301.213C5.5962 313.526 3.58152 313.089 4.98166 320.699C4.98166 320.699 10.6827 315.107 10.2036 304.742C9.72443 294.377 9.43011 291.435 3.26241 283.924C-2.90663 276.41 -26.3771 256.131 -31.0024 244.776C-35.6294 233.42 -33.1252 223.182 -34.8735 222.345Z" stroke="#A88771" stroke-width="5.74047" stroke-linecap="round" stroke-linejoin="round"/>
<path d="M-37.9097 225.853C-39.3948 224.922 -50.4181 231.228 -43.4943 250.641C-36.5692 270.055 -5.00281 287.914 -0.296492 299.2C4.41134 310.488 2.76048 309.881 4.71822 316.724C4.71822 316.724 8.63501 312.443 7.10305 303.279C5.57109 294.115 5.01201 291.498 -0.73053 284.21C-6.47325 276.921 -27.3993 256.493 -32.3409 245.998C-37.2825 235.504 -36.4262 226.782 -37.9097 225.853Z" stroke="#A88771" stroke-width="5.74047" stroke-linecap="round" stroke-linejoin="round"/>
<path d="M-39.5292 229.642C-40.7967 228.603 -48.1919 232.422 -39.9849 250.411C-31.7762 268.402 -5.1297 288.788 0.158832 299.351C5.44736 309.914 4.10217 309.132 6.63011 315.4C6.63011 315.4 8.94578 312.262 6.38871 304.036C3.83013 295.809 3.00674 293.44 -2.45537 286.209C-7.91917 278.977 -26.8941 257.967 -32.2379 248.062C-37.5834 238.155 -38.2632 230.678 -39.5292 229.642Z" stroke="#A88771" stroke-width="5.74047" stroke-linecap="round" stroke-linejoin="round"/>
<path d="M-41.9725 231.335C-43.0436 230.161 -46.8408 231.487 -37.1082 248.418C-27.374 265.351 -5.21204 288.846 0.803777 298.904C6.8196 308.962 5.76298 307.981 8.94082 313.798C8.94082 313.798 9.64838 311.775 5.96393 304.328C2.28117 296.883 1.1642 294.717 -4.13651 287.374C-9.43855 280.029 -26.8318 257.924 -32.7201 248.396C-38.6099 238.867 -40.9031 232.507 -41.9725 231.335Z" stroke="#A88771" stroke-width="5.74047" stroke-linecap="round" stroke-linejoin="round"/>
<path d="M11.331 241.695C14.8558 246.027 21.2059 246.787 25.5456 243.271C29.7692 239.85 30.4651 233.87 27.2856 229.463C24.0276 224.948 17.7891 223.805 13.241 227.016C8.51843 230.349 7.68213 237.209 11.331 241.695Z" stroke="#A88771" stroke-width="10.1302" stroke-linecap="round" stroke-linejoin="round"/>
<path d="M49.8283 370.541C43.5313 371.494 36.4018 377.178 36.4114 378.98C36.4196 380.781 46.0398 383.106 50.7713 382.17C55.2716 381.28 59.1984 378.297 58.3954 374.319C57.7053 370.905 56.1239 369.586 49.8283 370.541Z" stroke="#F74700" stroke-width="4.0521" stroke-linecap="round" stroke-linejoin="round"/>
<path d="M49.4729 372.128C44.791 372.837 39.489 377.063 39.495 378.402C39.5011 379.741 46.6556 381.471 50.173 380.774C53.5207 380.114 56.4399 377.895 55.8425 374.936C55.3293 372.397 54.1549 371.418 49.4729 372.128Z" stroke="#F74700" stroke-width="4.0521" stroke-linecap="round" stroke-linejoin="round"/>
<path d="M49.5616 373.32C46.5993 373.685 42.7891 376.01 42.6134 376.757C42.4378 377.504 46.5872 378.516 48.8335 378.149C50.9724 377.802 53.0557 376.583 53.0858 374.928C53.1123 373.509 52.5224 372.953 49.5616 373.32Z" stroke="#F74700" stroke-width="7.09117" stroke-linecap="round" stroke-linejoin="round"/>
<path d="M44.1461 205.686C43.4394 212.015 47.0844 220.373 48.8254 220.83C50.5679 221.288 55.3034 212.598 55.6241 207.786C55.9287 203.207 54.0645 198.642 50.0127 198.389C46.5375 198.172 44.8543 199.357 44.1461 205.686Z" stroke="#F74700" stroke-width="4.0521" stroke-linecap="round" stroke-linejoin="round"/>
<path d="M45.5862 206.44C45.0606 211.147 47.7713 217.362 49.0663 217.702C50.3612 218.042 53.8823 211.58 54.1216 208.002C54.3482 204.597 52.963 201.204 49.9489 201.014C47.365 200.854 46.1133 201.735 45.5862 206.44Z" stroke="#F74700" stroke-width="4.0521" stroke-linecap="round" stroke-linejoin="round"/>
<path d="M46.7619 206.663C46.3484 209.618 47.6072 213.901 48.2841 214.264C48.961 214.627 51.01 210.88 51.239 208.615C51.4568 206.461 50.819 204.132 49.2276 203.674C47.8631 203.283 47.1753 203.708 46.7619 206.663Z" stroke="#F74700" stroke-width="7.09117" stroke-linecap="round" stroke-linejoin="round"/>
<path d="M42.3678 421.577C42.3678 421.577 32.3725 451.076 45.2611 466.306C80.2137 507.608 144.909 457.538 144.909 457.538" stroke="#A88771" stroke-width="10.1302" stroke-linecap="round" stroke-linejoin="round"/>
<path d="M144.381 420.664C128.081 421.377 146.847 450.324 145.489 451.326C144.132 452.327 130.011 420.184 119.86 434.066C109.708 447.948 143.612 453.797 143.283 455.839C142.953 457.881 111.474 443.956 112.727 461.415C113.98 478.873 144.021 458.448 144.983 460.279C145.945 462.111 113.167 472.8 126.195 485.145C139.222 497.489 146.472 461.518 147.901 462.512C149.331 463.507 136.539 494.763 154.07 493.595C171.601 492.428 150.392 463.198 152.223 462.236C154.055 461.274 168.65 493.456 179.164 480.002C189.678 466.548 154.325 460.898 154.97 458.882C155.616 456.866 186.996 471.022 186.231 453.445C185.466 435.867 156.466 455.265 155.332 453.578C154.199 451.892 184.821 439.794 172.22 428.551C159.619 417.309 152.868 450.666 151.056 450.436C149.245 450.206 160.68 419.951 144.381 420.664Z" stroke="#F74700" stroke-width="2.02605" stroke-linecap="round" stroke-linejoin="round"/>
<path d="M146.41 452.491C146.916 452.118 146.988 451.574 147 451.357C147.014 451.102 146.974 450.862 146.935 450.684C146.853 450.316 146.7 449.881 146.522 449.431C146.168 448.536 145.617 447.333 144.993 445.973L144.954 445.888C143.658 443.061 142.007 439.449 140.81 435.861C139.596 432.22 138.937 428.842 139.413 426.412C139.642 425.241 140.121 424.363 140.87 423.747C141.628 423.125 142.797 422.661 144.61 422.582C146.416 422.503 147.729 422.855 148.698 423.444C149.665 424.031 150.392 424.916 150.921 426.077C152.006 428.46 152.186 431.843 151.897 435.488C151.614 439.056 150.903 442.667 150.35 445.477L150.334 445.561C150.06 446.948 149.819 448.177 149.706 449.065C149.652 449.496 149.614 449.941 149.646 450.314C149.661 450.491 149.699 450.771 149.838 451.05C149.997 451.368 150.35 451.78 150.958 451.858C151.535 451.931 151.95 451.645 152.133 451.49C152.333 451.322 152.482 451.122 152.585 450.966C152.798 450.645 153.003 450.227 153.197 449.786C153.593 448.888 154.062 447.626 154.59 446.205L154.602 446.173C155.67 443.296 157.027 439.644 158.699 436.335C160.402 432.965 162.32 430.188 164.397 428.871C165.395 428.238 166.385 427.971 167.407 428.092C168.444 428.214 169.666 428.753 171.08 430.014C172.491 431.273 173.206 432.461 173.491 433.546C173.774 434.621 173.666 435.717 173.216 436.859C172.287 439.216 169.958 441.614 167.069 443.871C164.343 446.002 161.292 447.877 158.856 449.376C158.742 449.445 158.63 449.514 158.52 449.582C157.298 450.334 156.212 451.007 155.469 451.55C155.109 451.813 154.748 452.102 154.491 452.4C154.366 452.544 154.191 452.775 154.09 453.077C153.975 453.421 153.944 453.923 154.257 454.389C154.572 454.857 155.04 454.999 155.318 455.041C155.595 455.083 155.858 455.056 156.052 455.024C156.45 454.959 156.909 454.811 157.37 454.64C158.309 454.292 159.563 453.729 160.971 453.092C161.072 453.046 161.175 453 161.279 452.953C164.086 451.683 167.584 450.101 171.058 448.968C174.715 447.776 178.087 447.173 180.511 447.752C181.674 448.03 182.572 448.569 183.214 449.423C183.867 450.292 184.346 451.609 184.433 453.595C184.519 455.57 184.149 456.976 183.539 457.984C182.933 458.986 182.024 459.706 180.83 460.199C178.369 461.217 174.855 461.208 171.043 460.677C167.444 460.176 163.793 459.246 160.869 458.5C160.733 458.466 160.599 458.432 160.467 458.398C158.997 458.024 157.689 457.696 156.726 457.528C156.256 457.446 155.779 457.386 155.374 457.403C155.176 457.412 154.897 457.442 154.618 457.559C154.317 457.685 153.914 457.964 153.744 458.494C153.566 459.05 153.757 459.528 153.946 459.807C154.12 460.063 154.343 460.241 154.506 460.355C154.841 460.591 155.282 460.802 155.734 460.993C156.659 461.384 157.976 461.832 159.467 462.331C159.659 462.395 159.854 462.46 160.053 462.526C162.987 463.506 166.619 464.719 169.981 466.231C173.617 467.865 176.705 469.752 178.29 471.881C179.057 472.912 179.431 473.945 179.401 475.015C179.371 476.091 178.926 477.368 177.753 478.869C176.581 480.368 175.437 481.126 174.374 481.434C173.317 481.742 172.194 481.648 170.982 481.179C168.482 480.214 165.84 477.755 163.306 474.708C160.926 471.845 158.775 468.633 157.047 466.053C156.959 465.921 156.871 465.79 156.785 465.661C155.913 464.36 155.136 463.209 154.515 462.415C154.212 462.026 153.896 461.657 153.587 461.392C153.436 461.264 153.218 461.1 152.947 460.992C152.667 460.881 152.177 460.779 151.67 461.046C151.138 461.324 150.949 461.815 150.894 462.14C150.843 462.441 150.879 462.722 150.916 462.915C150.991 463.315 151.158 463.774 151.347 464.229C151.733 465.161 152.357 466.413 153.067 467.823C153.142 467.971 153.218 468.122 153.294 468.275C154.7 471.065 156.447 474.531 157.764 477.992C159.174 481.697 159.987 485.141 159.554 487.642C159.346 488.842 158.862 489.762 158.062 490.424C157.248 491.099 155.977 491.615 154 491.747C152.028 491.879 150.601 491.547 149.56 490.965C148.527 490.386 147.769 489.502 147.229 488.336C146.116 485.934 145.991 482.466 146.393 478.679C146.791 474.938 147.674 471.113 148.387 468.107C148.424 467.951 148.461 467.797 148.497 467.645C148.805 466.352 149.077 465.207 149.241 464.339C149.331 463.86 149.401 463.403 149.415 463.025C149.422 462.84 149.42 462.608 149.371 462.375C149.331 462.182 149.207 461.717 148.753 461.401C148.5 461.224 148.179 461.126 147.836 461.155C147.522 461.183 147.285 461.309 147.139 461.409C146.872 461.593 146.699 461.837 146.609 461.975C146.406 462.285 146.213 462.704 146.033 463.136C145.686 463.968 145.263 465.154 144.779 466.51C144.745 466.606 144.711 466.702 144.676 466.799C143.608 469.794 142.207 473.679 140.465 477.205C138.696 480.785 136.689 483.752 134.516 485.141C133.473 485.809 132.442 486.08 131.381 485.933C130.301 485.784 129.025 485.18 127.552 483.785C126.079 482.389 125.347 481.106 125.073 479.958C124.802 478.823 124.95 477.698 125.459 476.551C126.511 474.176 129.048 471.838 132.187 469.674C135.186 467.606 138.536 465.827 141.199 464.412C141.287 464.366 141.374 464.319 141.461 464.273C142.79 463.567 143.97 462.936 144.786 462.421C145.184 462.17 145.575 461.898 145.86 461.616C145.998 461.479 146.188 461.267 146.315 460.984C146.456 460.671 146.555 460.172 146.287 459.663C146.009 459.133 145.52 458.945 145.208 458.888C144.913 458.834 144.635 458.863 144.44 458.895C144.036 458.961 143.569 459.115 143.103 459.293C142.15 459.656 140.867 460.249 139.419 460.924C139.28 460.988 139.139 461.054 138.996 461.121C136.125 462.46 132.545 464.129 128.969 465.367C125.163 466.684 121.604 467.422 119.002 466.93C117.746 466.692 116.777 466.18 116.081 465.355C115.377 464.522 114.844 463.245 114.703 461.286C114.563 459.323 114.89 457.93 115.461 456.935C116.026 455.949 116.895 455.237 118.053 454.745C120.448 453.727 123.913 453.718 127.691 454.226C131.273 454.709 134.911 455.62 137.802 456.345C137.921 456.375 138.039 456.404 138.155 456.433C139.603 456.796 140.889 457.113 141.824 457.272C142.277 457.349 142.746 457.407 143.145 457.384C143.336 457.373 143.632 457.338 143.925 457.193C144.267 457.025 144.654 456.673 144.746 456.099C144.833 455.559 144.606 455.141 144.435 454.916C144.265 454.692 144.057 454.528 143.895 454.415C143.563 454.184 143.131 453.972 142.683 453.776C141.771 453.378 140.485 452.918 139.037 452.406C138.924 452.366 138.81 452.326 138.695 452.285C135.809 451.264 132.208 449.991 128.891 448.393C125.4 446.711 122.444 444.769 120.929 442.571C120.193 441.504 119.825 440.416 119.859 439.275C119.894 438.128 120.34 436.79 121.475 435.238C122.614 433.681 123.721 432.887 124.736 432.55C125.739 432.217 126.797 432.281 127.944 432.714C130.325 433.612 132.855 436.009 135.28 439.023C137.671 441.994 139.807 445.366 141.457 447.984L141.571 448.166C142.337 449.381 143.011 450.45 143.537 451.193C143.806 451.573 144.084 451.936 144.349 452.196C144.473 452.317 144.675 452.499 144.941 452.623C145.218 452.751 145.83 452.919 146.41 452.491ZM153.443 462.408C153.443 462.409 153.444 462.412 153.444 462.417C153.443 462.411 153.443 462.408 153.443 462.408ZM151.886 463.33C151.886 463.329 151.887 463.331 151.891 463.333C151.888 463.331 151.886 463.33 151.886 463.33ZM148.779 463.366C148.779 463.367 148.775 463.371 148.769 463.38C148.775 463.37 148.779 463.366 148.779 463.366ZM144.888 461.433C144.888 461.433 144.886 461.434 144.88 461.434C144.886 461.433 144.888 461.433 144.888 461.433ZM144.062 459.769C144.062 459.769 144.061 459.772 144.056 459.776C144.06 459.772 144.062 459.769 144.062 459.769ZM142.454 456.553C142.454 456.553 142.453 456.552 142.451 456.55C142.453 456.552 142.454 456.553 142.454 456.553ZM143.009 454.811C143.009 454.811 143.005 454.811 142.998 454.812C143.005 454.811 143.009 454.81 143.009 454.811ZM146.176 450.377C146.176 450.377 146.173 450.375 146.167 450.37C146.172 450.374 146.175 450.377 146.176 450.377ZM155.968 458.233C155.968 458.233 155.971 458.235 155.975 458.239C155.97 458.235 155.968 458.233 155.968 458.233ZM155.461 459.979C155.46 459.979 155.463 459.979 155.469 459.978C155.464 459.979 155.461 459.979 155.461 459.979ZM152.213 450.1C152.215 450.107 152.215 450.111 152.215 450.111C152.215 450.112 152.214 450.108 152.213 450.1ZM155.595 452.486C155.595 452.486 155.597 452.486 155.6 452.486C155.596 452.486 155.595 452.486 155.595 452.486ZM156.439 454.086C156.435 454.092 156.433 454.094 156.433 454.094C156.433 454.094 156.435 454.091 156.439 454.086Z" stroke="#F74700" stroke-width="3.71442" stroke-linecap="round" stroke-linejoin="round"/>
<path d="M148.152 454.845C148.439 454.633 148.675 454.403 148.87 454.166C149.314 454.449 149.855 454.667 150.501 454.749C150.736 454.779 150.962 454.787 151.176 454.779C151.282 455.172 151.457 455.573 151.722 455.967C151.737 455.991 151.754 456.014 151.77 456.037C151.422 456.419 151.112 456.906 150.915 457.521C150.847 457.735 150.798 457.944 150.767 458.147C150.602 458.208 150.435 458.281 150.267 458.369C150.121 458.446 149.986 458.528 149.859 458.614C149.544 458.45 149.202 458.324 148.841 458.248C148.831 458.229 148.821 458.21 148.811 458.191L148.74 458.228L148.811 458.191C148.478 457.556 148.038 457.104 147.585 456.783C147.605 456.695 147.623 456.603 147.638 456.51C147.717 456.022 147.702 455.574 147.632 455.173C147.805 455.081 147.979 454.972 148.152 454.845ZM164.45 471.826C162.603 469.604 160.9 467.135 159.418 464.932C161.977 465.791 164.878 466.794 167.572 468.005C170.928 469.514 173.267 471.053 174.316 472.462C174.765 473.066 174.84 473.463 174.832 473.737C174.824 474.033 174.702 474.698 173.85 475.787C173.001 476.874 172.367 477.18 172.037 477.276C171.723 477.367 171.277 477.388 170.557 477.11C168.891 476.467 166.783 474.631 164.45 471.826ZM134.074 441.751C136.173 444.36 138.073 447.344 139.615 449.79C137.028 448.873 134.051 447.792 131.311 446.471C128.109 444.929 125.887 443.356 124.884 441.902C124.448 441.27 124.338 440.797 124.35 440.402C124.362 439.988 124.524 439.242 125.353 438.108C126.195 436.956 126.817 436.637 127.101 436.542C127.348 436.46 127.703 436.423 128.332 436.66C129.848 437.231 131.84 438.975 134.074 441.751ZM141.885 466.785C140.981 469.274 139.898 472.101 138.62 474.688C136.985 477.996 135.371 480.184 133.996 481.063C133.437 481.421 133.1 481.445 132.854 481.411C132.552 481.37 131.843 481.156 130.731 480.102C129.616 479.046 129.271 478.274 129.164 477.828C129.068 477.421 129.089 476.964 129.37 476.328C130.039 474.819 131.878 472.979 134.754 470.995C137.058 469.407 139.612 467.999 141.885 466.785ZM150.779 468.945C152.076 471.521 153.587 474.546 154.729 477.547C156.035 480.978 156.545 483.613 156.272 485.191C156.161 485.831 155.96 486.07 155.797 486.206C155.59 486.377 154.993 486.741 153.509 486.84C152.041 486.938 151.246 486.676 150.824 486.439C150.425 486.216 150.065 485.854 149.752 485.178C149.029 483.616 148.834 480.983 149.201 477.527C149.513 474.589 150.168 471.56 150.779 468.945ZM128.678 456.966C131.753 457.38 134.899 458.154 137.565 458.821C135.066 459.981 132.204 461.276 129.361 462.26C125.845 463.477 123.086 463.947 121.385 463.625C120.667 463.489 120.359 463.253 120.183 463.045C119.985 462.811 119.617 462.205 119.513 460.758C119.409 459.296 119.671 458.552 119.878 458.192C120.068 457.86 120.386 457.542 121.041 457.264C122.583 456.608 125.213 456.5 128.678 456.966ZM161.02 455.823C161.118 455.779 161.216 455.735 161.313 455.691C161.396 455.654 161.479 455.616 161.562 455.579C164.22 454.376 167.381 452.947 170.495 451.931C173.869 450.832 176.411 450.491 177.911 450.85C178.514 450.994 178.773 451.209 178.937 451.428C179.136 451.692 179.483 452.355 179.549 453.856C179.613 455.323 179.328 456.088 179.092 456.478C178.87 456.846 178.508 457.186 177.812 457.473C176.2 458.14 173.516 458.231 170.023 457.745C166.908 457.311 163.728 456.513 161.02 455.823ZM156.801 447.549C157.799 444.864 159.002 441.654 160.462 438.766C162.031 435.661 163.558 433.637 164.852 432.817C165.379 432.483 165.702 432.454 165.939 432.482C166.22 432.515 166.877 432.694 167.922 433.627C168.958 434.551 169.277 435.237 169.381 435.629C169.477 435.995 169.475 436.439 169.221 437.083C168.626 438.591 166.939 440.47 164.296 442.535C161.862 444.437 159.117 446.125 156.812 447.543C156.808 447.545 156.805 447.547 156.801 447.549ZM147.677 445.524L147.625 445.412C146.403 442.746 144.916 439.487 143.847 436.282C142.726 432.919 142.322 430.328 142.625 428.779C142.751 428.137 142.951 427.922 143.069 427.825C143.212 427.707 143.698 427.391 145.004 427.334C146.286 427.278 146.97 427.535 147.338 427.758C147.702 427.979 148.062 428.352 148.383 429.056C149.106 430.644 149.33 433.242 149.066 436.562C148.818 439.693 148.196 442.89 147.677 445.524Z" stroke="#F74700" stroke-width="11.1433" stroke-linecap="round" stroke-linejoin="round"/>
<path d="M146.828 453.189C147.329 452.819 147.398 452.283 147.41 452.076C147.424 451.832 147.384 451.606 147.349 451.445C147.275 451.111 147.137 450.722 146.982 450.328C146.672 449.544 146.19 448.494 145.649 447.313L145.613 447.235C144.484 444.772 143.049 441.633 142.01 438.518C140.954 435.35 140.394 432.444 140.799 430.373C140.993 429.382 141.394 428.655 142.01 428.149C142.635 427.636 143.615 427.239 145.17 427.171C146.717 427.104 147.826 427.406 148.636 427.898C149.444 428.389 150.057 429.131 150.507 430.118C151.434 432.153 151.594 435.064 151.343 438.232C151.097 441.331 150.48 444.468 149.998 446.917L149.984 446.987C149.746 448.192 149.535 449.27 149.436 450.05C149.388 450.427 149.353 450.829 149.382 451.172C149.396 451.335 149.432 451.603 149.567 451.874C149.722 452.184 150.07 452.591 150.67 452.668C151.24 452.74 151.647 452.458 151.822 452.31C152.013 452.148 152.153 451.96 152.247 451.819C152.44 451.527 152.623 451.151 152.793 450.765C153.14 449.978 153.551 448.873 154.01 447.638L154.019 447.614C154.951 445.106 156.13 441.932 157.582 439.059C159.063 436.127 160.716 433.744 162.484 432.623C163.328 432.088 164.153 431.87 164.998 431.969C165.857 432.07 166.892 432.519 168.106 433.603C169.317 434.683 169.917 435.691 170.155 436.596C170.391 437.493 170.303 438.411 169.922 439.379C169.13 441.388 167.133 443.453 164.62 445.416C162.253 447.266 159.604 448.895 157.48 450.201C157.382 450.261 157.285 450.321 157.19 450.379C156.127 451.033 155.175 451.623 154.522 452.1C154.206 452.331 153.879 452.592 153.642 452.867C153.528 452.999 153.359 453.219 153.261 453.512C153.149 453.847 153.118 454.341 153.427 454.8C153.736 455.261 154.197 455.399 154.463 455.44C154.729 455.48 154.978 455.453 155.155 455.424C155.517 455.365 155.929 455.232 156.333 455.082C157.158 454.776 158.256 454.283 159.48 453.73C159.568 453.69 159.656 453.65 159.746 453.61C162.193 452.503 165.231 451.128 168.249 450.144C171.43 449.107 174.329 448.596 176.391 449.088C177.374 449.323 178.119 449.775 178.651 450.482C179.194 451.205 179.605 452.316 179.68 454.023C179.754 455.72 179.435 456.909 178.925 457.753C178.419 458.589 177.658 459.195 176.644 459.614C174.544 460.483 171.522 460.481 168.207 460.02C165.081 459.584 161.91 458.776 159.362 458.127C159.244 458.097 159.128 458.067 159.014 458.038C157.735 457.712 156.589 457.425 155.743 457.278C155.331 457.206 154.902 457.151 154.53 457.167C154.349 457.175 154.084 457.202 153.814 457.315C153.523 457.437 153.126 457.71 152.959 458.232C152.783 458.78 152.973 459.249 153.156 459.52C153.324 459.767 153.537 459.936 153.685 460.04C153.992 460.256 154.39 460.446 154.786 460.613C155.598 460.956 156.752 461.348 158.049 461.782C158.216 461.838 158.385 461.894 158.558 461.952C161.114 462.806 164.27 463.86 167.191 465.173C170.354 466.595 173.009 468.224 174.362 470.041C175.014 470.917 175.322 471.781 175.297 472.667C175.272 473.56 174.903 474.638 173.897 475.926C172.892 477.212 171.923 477.846 171.039 478.103C170.161 478.359 169.221 478.283 168.191 477.885C166.056 477.061 163.777 474.949 161.573 472.298C159.506 469.812 157.637 467.021 156.131 464.772C156.055 464.658 155.979 464.544 155.904 464.433C155.146 463.301 154.465 462.293 153.92 461.595C153.654 461.255 153.371 460.922 153.088 460.681C152.951 460.564 152.745 460.407 152.485 460.304C152.214 460.197 151.734 460.095 151.233 460.358C150.71 460.633 150.524 461.117 150.471 461.431C150.422 461.721 150.457 461.988 150.491 462.164C150.56 462.53 150.711 462.943 150.876 463.342C151.215 464.16 151.762 465.256 152.379 466.482C152.444 466.612 152.51 466.742 152.577 466.875C153.802 469.306 155.319 472.317 156.463 475.324C157.69 478.548 158.382 481.51 158.013 483.641C157.838 484.656 157.432 485.418 156.772 485.965C156.098 486.523 155.028 486.966 153.329 487.079C151.635 487.192 150.427 486.906 149.555 486.418C148.691 485.934 148.052 485.193 147.594 484.204C146.645 482.155 146.531 479.173 146.88 475.881C147.225 472.634 147.992 469.312 148.614 466.694C148.646 466.558 148.678 466.423 148.71 466.291C148.977 465.166 149.215 464.164 149.358 463.404C149.438 462.985 149.5 462.578 149.513 462.235C149.52 462.069 149.518 461.851 149.472 461.629C149.434 461.447 149.314 460.99 148.866 460.678C148.615 460.504 148.297 460.406 147.957 460.435C147.647 460.462 147.413 460.587 147.271 460.685C147.01 460.864 146.846 461.098 146.764 461.223C146.578 461.507 146.405 461.885 146.248 462.262C145.944 462.99 145.574 464.028 145.154 465.207C145.124 465.29 145.094 465.375 145.064 465.46C144.133 468.07 142.915 471.444 141.403 474.505C139.863 477.621 138.132 480.168 136.281 481.351C135.399 481.916 134.54 482.138 133.663 482.016C132.767 481.893 131.686 481.389 130.42 480.189C129.154 478.989 128.537 477.899 128.308 476.938C128.082 475.991 128.204 475.049 128.634 474.077C129.531 472.054 131.707 470.039 134.437 468.156C137.04 466.361 139.951 464.816 142.272 463.583C142.348 463.543 142.423 463.503 142.497 463.463C143.653 462.849 144.687 462.296 145.404 461.844C145.752 461.624 146.106 461.379 146.367 461.12C146.494 460.995 146.676 460.793 146.799 460.52C146.935 460.216 147.034 459.726 146.77 459.223C146.495 458.701 146.014 458.518 145.713 458.462C145.429 458.41 145.165 458.439 144.987 458.468C144.618 458.528 144.199 458.668 143.79 458.823C142.953 459.142 141.83 459.661 140.571 460.248C140.45 460.304 140.328 460.361 140.204 460.419C137.702 461.586 134.592 463.036 131.485 464.112C128.174 465.258 125.11 465.886 122.89 465.466C121.825 465.265 121.018 464.834 120.442 464.151C119.857 463.46 119.402 462.384 119.281 460.703C119.16 459.017 119.443 457.839 119.919 457.008C120.39 456.186 121.115 455.588 122.098 455.17C124.139 454.303 127.119 454.289 130.404 454.731C133.515 455.149 136.675 455.942 139.195 456.573C139.298 456.598 139.399 456.624 139.5 456.649C140.759 456.964 141.885 457.243 142.707 457.383C143.104 457.45 143.529 457.503 143.896 457.482C144.071 457.472 144.354 457.44 144.639 457.299C144.972 457.135 145.354 456.789 145.445 456.223C145.531 455.691 145.306 455.282 145.142 455.066C144.979 454.851 144.782 454.697 144.634 454.594C144.331 454.383 143.943 454.193 143.551 454.022C142.749 453.672 141.623 453.269 140.363 452.824C140.266 452.789 140.167 452.754 140.068 452.719C137.553 451.83 134.424 450.723 131.544 449.335C128.508 447.873 125.967 446.196 124.674 444.32C124.049 443.414 123.743 442.501 123.771 441.549C123.8 440.591 124.173 439.458 125.147 438.126C126.125 436.789 127.063 436.124 127.906 435.845C128.735 435.569 129.617 435.619 130.588 435.985C132.617 436.75 134.797 438.807 136.907 441.429C138.982 444.008 140.838 446.937 142.275 449.218L142.376 449.378C143.042 450.435 143.631 451.369 144.092 452.02C144.327 452.353 144.577 452.679 144.819 452.916C144.931 453.026 145.123 453.2 145.38 453.32C145.649 453.445 146.254 453.612 146.828 453.189ZM155.156 457.924C155.156 457.924 155.159 457.926 155.164 457.93C155.158 457.926 155.156 457.924 155.156 457.924ZM153.02 461.67C153.02 461.67 153.021 461.673 153.021 461.679C153.02 461.673 153.02 461.669 153.02 461.67ZM151.398 462.627C151.398 462.627 151.401 462.628 151.405 462.632C151.4 462.629 151.398 462.627 151.398 462.627ZM145.422 461.008C145.422 461.008 145.419 461.009 145.413 461.009C145.42 461.008 145.423 461.008 145.422 461.008ZM144.564 459.28C144.564 459.28 144.562 459.282 144.557 459.287C144.561 459.283 144.563 459.28 144.564 459.28ZM143.181 456.722C143.181 456.722 143.179 456.721 143.176 456.718C143.18 456.721 143.181 456.723 143.181 456.722ZM143.746 454.91C143.745 454.91 143.744 454.91 143.743 454.91C143.754 454.909 143.756 454.909 143.746 454.91ZM144.839 452.034C144.839 452.034 144.839 452.032 144.839 452.029C144.839 452.033 144.84 452.035 144.839 452.034ZM146.637 451.09C146.637 451.09 146.634 451.088 146.628 451.082C146.633 451.086 146.636 451.089 146.637 451.09ZM150.082 450.419C150.082 450.419 150.083 450.417 150.086 450.414C150.083 450.417 150.082 450.418 150.082 450.419ZM151.949 450.953C151.951 450.965 151.951 450.967 151.95 450.956C151.95 450.955 151.949 450.954 151.949 450.953ZM154.713 452.885C154.713 452.885 154.716 452.885 154.72 452.884C154.715 452.885 154.713 452.885 154.713 452.885ZM155.594 454.548C155.587 454.557 155.586 454.558 155.592 454.551C155.593 454.55 155.593 454.549 155.594 454.548ZM154.627 459.742C154.627 459.742 154.63 459.741 154.636 459.741C154.63 459.742 154.627 459.742 154.627 459.742Z" stroke="#F74700" stroke-width="3.71442" stroke-linecap="round" stroke-linejoin="round"/>
<path d="M146.816 452.863C147.315 452.495 147.383 451.961 147.394 451.759C147.408 451.518 147.37 451.297 147.336 451.142C147.265 450.821 147.132 450.448 146.985 450.075C146.691 449.331 146.234 448.335 145.722 447.218L145.688 447.143C144.618 444.811 143.262 441.844 142.28 438.898C141.28 435.901 140.755 433.165 141.135 431.223C141.317 430.296 141.69 429.624 142.258 429.157C142.835 428.684 143.747 428.312 145.208 428.248C146.662 428.184 147.698 428.469 148.451 428.926C149.202 429.382 149.774 430.073 150.196 430.997C151.066 432.907 151.218 435.647 150.981 438.644C150.748 441.573 150.164 444.54 149.708 446.859L149.695 446.923C149.471 448.064 149.27 449.086 149.176 449.828C149.131 450.186 149.097 450.572 149.125 450.905C149.138 451.062 149.173 451.326 149.307 451.594C149.46 451.901 149.805 452.307 150.403 452.383C150.971 452.455 151.375 452.174 151.547 452.028C151.735 451.87 151.871 451.685 151.962 451.549C152.149 451.268 152.324 450.908 152.485 450.542C152.814 449.794 153.204 448.746 153.638 447.577L153.646 447.555C154.529 445.181 155.644 442.18 157.016 439.463C158.418 436.689 159.976 434.449 161.633 433.398C162.421 432.898 163.186 432.697 163.967 432.789C164.763 432.883 165.729 433.299 166.871 434.318C168.01 435.334 168.57 436.278 168.791 437.118C169.01 437.951 168.929 438.805 168.572 439.71C167.83 441.594 165.952 443.539 163.576 445.396C161.338 447.145 158.833 448.685 156.822 449.921C156.73 449.978 156.638 450.034 156.548 450.09C155.543 450.708 154.639 451.269 154.018 451.722C153.718 451.941 153.403 452.192 153.173 452.458C153.063 452.586 152.896 452.802 152.799 453.092C152.689 453.424 152.657 453.914 152.964 454.372C153.273 454.83 153.73 454.967 153.993 455.007C154.255 455.046 154.498 455.02 154.669 454.992C155.019 454.935 155.414 454.807 155.797 454.665C156.58 454.374 157.622 453.906 158.78 453.383C158.863 453.345 158.947 453.307 159.031 453.269C161.348 452.221 164.221 450.921 167.074 449.991C170.084 449.01 172.812 448.532 174.745 448.993C175.662 449.213 176.353 449.632 176.845 450.287C177.349 450.957 177.735 451.994 177.805 453.601C177.874 455.197 177.575 456.309 177.1 457.093C176.63 457.87 175.922 458.435 174.974 458.827C173.004 459.642 170.159 459.643 167.023 459.206C164.068 458.795 161.069 458.03 158.656 457.415C158.545 457.387 158.436 457.359 158.327 457.332C157.118 457.024 156.03 456.751 155.226 456.611C154.835 456.543 154.423 456.489 154.063 456.505C153.888 456.512 153.628 456.539 153.362 456.65C153.074 456.771 152.68 457.042 152.513 457.561C152.339 458.106 152.527 458.572 152.708 458.839C152.874 459.083 153.083 459.249 153.227 459.35C153.524 459.559 153.906 459.74 154.281 459.899C155.054 460.225 156.149 460.597 157.375 461.008C157.533 461.06 157.694 461.114 157.857 461.169C160.277 461.977 163.262 462.973 166.023 464.215C169.017 465.561 171.516 467.097 172.785 468.802C173.394 469.621 173.679 470.425 173.656 471.245C173.633 472.072 173.291 473.079 172.345 474.289C171.4 475.498 170.494 476.089 169.675 476.327C168.861 476.563 167.987 476.495 167.022 476.122C165.019 475.349 162.872 473.361 160.786 470.853C158.831 468.502 157.064 465.863 155.639 463.734C155.566 463.626 155.495 463.519 155.424 463.413C154.706 462.342 154.061 461.386 153.543 460.724C153.291 460.401 153.019 460.081 152.746 459.848C152.614 459.735 152.412 459.581 152.155 459.48C151.889 459.374 151.411 459.272 150.913 459.533C150.392 459.807 150.209 460.288 150.156 460.598C150.108 460.885 150.143 461.147 150.175 461.317C150.242 461.671 150.387 462.067 150.543 462.445C150.866 463.223 151.384 464.263 151.968 465.423C152.03 465.545 152.092 465.669 152.155 465.794C153.315 468.095 154.75 470.943 155.832 473.786C156.993 476.837 157.642 479.626 157.296 481.623C157.132 482.571 156.754 483.277 156.145 483.782C155.521 484.298 154.523 484.714 152.924 484.821C151.331 484.927 150.201 484.658 149.39 484.204C148.587 483.754 147.991 483.065 147.562 482.139C146.672 480.217 146.562 477.41 146.893 474.296C147.219 471.228 147.944 468.087 148.533 465.608C148.563 465.479 148.593 465.352 148.623 465.226C148.876 464.162 149.102 463.212 149.238 462.491C149.313 462.094 149.373 461.703 149.386 461.375C149.392 461.214 149.39 461.002 149.345 460.784C149.308 460.606 149.189 460.152 148.743 459.841C148.493 459.667 148.177 459.57 147.839 459.599C147.529 459.626 147.296 459.75 147.155 459.847C146.897 460.024 146.736 460.256 146.657 460.376C146.477 460.65 146.311 461.013 146.163 461.37C145.874 462.062 145.524 463.045 145.126 464.161C145.098 464.24 145.069 464.32 145.04 464.401C144.159 466.872 143.008 470.063 141.578 472.957C140.121 475.904 138.489 478.3 136.754 479.409C135.93 479.937 135.133 480.141 134.322 480.029C133.492 479.914 132.481 479.446 131.29 478.317C130.098 477.188 129.523 476.167 129.311 475.274C129.101 474.394 129.213 473.518 129.615 472.609C130.456 470.712 132.502 468.814 135.084 467.033C137.546 465.336 140.298 463.875 142.495 462.708C142.567 462.67 142.637 462.632 142.708 462.595C143.801 462.014 144.783 461.489 145.464 461.059C145.794 460.851 146.134 460.616 146.388 460.365C146.51 460.244 146.689 460.046 146.81 459.776C146.945 459.476 147.044 458.988 146.781 458.488C146.508 457.968 146.029 457.787 145.732 457.733C145.452 457.681 145.193 457.709 145.021 457.737C144.665 457.796 144.263 457.93 143.875 458.078C143.08 458.381 142.014 458.873 140.823 459.428C140.709 459.481 140.593 459.535 140.476 459.59C138.108 460.694 135.166 462.066 132.228 463.083C129.095 464.167 126.21 464.757 124.127 464.363C123.131 464.174 122.383 463.773 121.85 463.141C121.308 462.501 120.88 461.498 120.767 459.916C120.653 458.33 120.919 457.229 121.362 456.457C121.799 455.695 122.473 455.137 123.391 454.747C125.306 453.933 128.111 453.917 131.219 454.336C134.159 454.731 137.148 455.48 139.534 456.078C139.631 456.103 139.727 456.127 139.822 456.15C141.012 456.449 142.082 456.713 142.863 456.846C143.239 456.91 143.648 456.962 144.003 456.941C144.173 456.931 144.452 456.9 144.734 456.761C145.064 456.598 145.443 456.255 145.534 455.692C145.619 455.162 145.395 454.756 145.234 454.543C145.073 454.332 144.881 454.181 144.738 454.081C144.445 453.878 144.073 453.696 143.7 453.534C142.939 453.201 141.87 452.819 140.678 452.398C140.586 452.365 140.494 452.332 140.4 452.299C138.019 451.457 135.06 450.41 132.336 449.098C129.465 447.714 127.073 446.134 125.86 444.374C125.275 443.525 124.991 442.675 125.018 441.791C125.045 440.902 125.391 439.842 126.307 438.59C127.227 437.332 128.104 436.714 128.884 436.455C129.652 436.2 130.47 436.244 131.378 436.587C133.28 437.304 135.334 439.238 137.33 441.718C139.292 444.156 141.047 446.926 142.407 449.086L142.503 449.239C143.133 450.237 143.691 451.124 144.129 451.741C144.352 452.057 144.591 452.37 144.825 452.599C144.933 452.705 145.122 452.876 145.376 452.994C145.642 453.118 146.244 453.285 146.816 452.863ZM154.7 457.236C154.7 457.236 154.703 457.238 154.708 457.242C154.703 457.238 154.7 457.236 154.7 457.236ZM152.705 460.826C152.705 460.826 152.705 460.83 152.706 460.836C152.705 460.829 152.704 460.826 152.705 460.826ZM151.059 461.796C151.06 461.796 151.062 461.798 151.066 461.802C151.061 461.798 151.059 461.796 151.059 461.796ZM148.812 461.788C148.823 461.772 148.823 461.775 148.811 461.79C148.811 461.789 148.812 461.789 148.812 461.788ZM145.453 460.278C145.453 460.278 145.45 460.279 145.443 460.279C145.449 460.278 145.452 460.278 145.453 460.278ZM144.576 458.533C144.576 458.533 144.576 458.533 144.575 458.533C144.583 458.525 144.585 458.524 144.576 458.533ZM143.281 456.207C143.281 456.207 143.279 456.206 143.275 456.203C143.279 456.206 143.281 456.207 143.281 456.207ZM143.853 454.369C143.852 454.369 143.851 454.369 143.849 454.369C143.86 454.368 143.862 454.368 143.853 454.369ZM144.825 451.726C144.825 451.726 144.825 451.724 144.824 451.72C144.825 451.724 144.825 451.726 144.825 451.726ZM146.641 450.77C146.641 450.771 146.638 450.768 146.631 450.762C146.637 450.767 146.641 450.77 146.641 450.77ZM149.801 450.144C149.801 450.144 149.802 450.143 149.805 450.139C149.802 450.143 149.801 450.144 149.801 450.144ZM151.692 450.684C151.693 450.695 151.693 450.697 151.692 450.688C151.692 450.687 151.692 450.686 151.692 450.684ZM154.232 452.452C154.232 452.452 154.234 452.452 154.24 452.451C154.234 452.452 154.232 452.452 154.232 452.452ZM155.126 454.139C155.12 454.146 155.119 454.147 155.123 454.142C155.124 454.141 155.125 454.14 155.126 454.139Z" stroke="#F74700" stroke-width="3.71442" stroke-linecap="round" stroke-linejoin="round"/>
<path d="M146.985 452.986C147.482 452.62 147.549 452.089 147.56 451.89C147.573 451.655 147.535 451.439 147.503 451.291C147.435 450.984 147.309 450.63 147.171 450.28C146.895 449.582 146.467 448.649 145.989 447.606L145.956 447.534C144.956 445.352 143.689 442.58 142.772 439.83C141.837 437.028 141.353 434.486 141.704 432.693C141.871 431.84 142.212 431.231 142.726 430.809C143.247 430.381 144.081 430.036 145.436 429.977C146.783 429.918 147.735 430.182 148.422 430.599C149.108 431.016 149.633 431.647 150.021 432.5C150.826 434.266 150.971 436.812 150.748 439.612C150.531 442.347 149.986 445.118 149.559 447.288L149.547 447.347C149.337 448.412 149.149 449.372 149.06 450.069C149.018 450.405 148.985 450.773 149.012 451.094C149.025 451.245 149.059 451.505 149.191 451.769C149.343 452.072 149.686 452.477 150.281 452.552C150.845 452.624 151.247 452.344 151.415 452.202C151.599 452.046 151.732 451.866 151.818 451.736C151.997 451.466 152.163 451.124 152.315 450.781C152.624 450.079 152.989 449.095 153.395 448.003L153.402 447.985C154.228 445.763 155.269 442.959 156.551 440.422C157.862 437.829 159.31 435.751 160.84 434.782C161.565 434.322 162.261 434.141 162.969 434.225C163.692 434.31 164.581 434.689 165.64 435.634C166.696 436.577 167.209 437.445 167.41 438.212C167.61 438.971 167.538 439.752 167.209 440.585C166.523 442.325 164.782 444.133 162.561 445.869C160.472 447.501 158.132 448.94 156.251 450.097C156.165 450.15 156.079 450.202 155.995 450.254C155.056 450.832 154.207 451.357 153.623 451.784C153.342 451.989 153.041 452.229 152.819 452.485C152.713 452.609 152.549 452.821 152.454 453.106C152.344 453.435 152.312 453.922 152.618 454.376C152.924 454.832 153.379 454.967 153.636 455.006C153.894 455.045 154.131 455.019 154.294 454.992C154.63 454.937 155.006 454.815 155.365 454.682C156.101 454.409 157.079 453.97 158.161 453.481C158.238 453.446 158.316 453.411 158.394 453.375C160.563 452.395 163.247 451.18 165.911 450.312C168.725 449.394 171.257 448.954 173.04 449.38C173.883 449.581 174.511 449.965 174.958 450.559C175.416 451.168 175.774 452.121 175.839 453.612C175.904 455.093 175.625 456.116 175.192 456.832C174.763 457.541 174.116 458.059 173.242 458.421C171.421 459.174 168.78 459.177 165.848 458.769C163.089 458.385 160.288 457.672 158.03 457.096C157.927 457.07 157.825 457.044 157.724 457.018C156.594 456.73 155.573 456.474 154.817 456.342C154.45 456.279 154.057 456.227 153.711 456.242C153.543 456.249 153.288 456.275 153.026 456.385C152.743 456.504 152.351 456.772 152.186 457.288C152.012 457.83 152.2 458.292 152.379 458.556C152.541 458.796 152.747 458.958 152.884 459.054C153.17 459.255 153.535 459.428 153.886 459.577C154.612 459.883 155.64 460.233 156.786 460.616C156.934 460.665 157.084 460.715 157.236 460.766C159.501 461.523 162.289 462.453 164.868 463.613C167.666 464.871 169.986 466.301 171.16 467.878C171.722 468.633 171.979 469.366 171.958 470.11C171.937 470.861 171.627 471.787 170.75 472.909C169.874 474.03 169.04 474.57 168.294 474.786C167.554 475.002 166.756 474.941 165.866 474.598C164.014 473.882 162.017 472.037 160.067 469.693C158.242 467.498 156.591 465.032 155.257 463.04C155.189 462.939 155.123 462.839 155.057 462.741C154.386 461.74 153.78 460.843 153.294 460.22C153.057 459.917 152.798 459.613 152.537 459.389C152.41 459.28 152.213 459.13 151.961 459.03C151.699 458.927 151.225 458.825 150.73 459.085C150.212 459.357 150.03 459.835 149.978 460.14C149.93 460.422 149.965 460.679 149.996 460.842C150.06 461.182 150.199 461.559 150.345 461.914C150.648 462.645 151.135 463.62 151.681 464.705C151.738 464.818 151.796 464.934 151.855 465.051C152.94 467.204 154.281 469.865 155.291 472.519C156.377 475.372 156.976 477.962 156.656 479.806C156.505 480.678 156.16 481.318 155.609 481.776C155.043 482.244 154.128 482.629 152.644 482.728C151.166 482.827 150.125 482.577 149.384 482.162C148.65 481.751 148.105 481.121 147.709 480.268C146.887 478.492 146.781 475.886 147.091 472.976C147.395 470.112 148.072 467.178 148.622 464.86C148.651 464.739 148.679 464.62 148.707 464.502C148.944 463.507 149.156 462.617 149.283 461.94C149.354 461.567 149.411 461.197 149.423 460.883C149.429 460.731 149.427 460.525 149.383 460.311C149.347 460.138 149.23 459.686 148.786 459.378C148.537 459.205 148.222 459.107 147.885 459.137C147.576 459.163 147.345 459.287 147.206 459.383C146.951 459.558 146.793 459.786 146.717 459.901C146.545 460.164 146.387 460.51 146.248 460.844C145.977 461.493 145.648 462.415 145.277 463.457C145.25 463.532 145.223 463.607 145.196 463.683C144.372 465.995 143.296 468.975 141.961 471.677C140.6 474.433 139.081 476.655 137.479 477.68C136.721 478.165 135.996 478.348 135.26 478.247C134.506 478.143 133.576 477.716 132.47 476.668C131.364 475.62 130.837 474.678 130.642 473.862C130.451 473.06 130.552 472.259 130.922 471.423C131.699 469.671 133.596 467.906 136.009 466.242C138.308 464.657 140.878 463.292 142.935 462.2C143.001 462.165 143.067 462.13 143.132 462.095C144.154 461.552 145.075 461.06 145.716 460.656C146.026 460.46 146.35 460.236 146.593 459.995C146.711 459.879 146.887 459.685 147.007 459.419C147.14 459.123 147.238 458.639 146.977 458.142C146.705 457.625 146.229 457.445 145.937 457.392C145.661 457.341 145.408 457.369 145.243 457.396C144.902 457.452 144.518 457.58 144.155 457.719C143.408 458.003 142.408 458.465 141.295 458.984C141.188 459.034 141.08 459.084 140.971 459.135C138.755 460.168 136.007 461.45 133.263 462.4C130.334 463.413 127.653 463.958 125.729 463.594C124.811 463.42 124.13 463.052 123.646 462.479C123.154 461.897 122.758 460.978 122.653 459.51C122.547 458.038 122.795 457.026 123.198 456.322C123.596 455.627 124.211 455.117 125.057 454.758C126.826 454.006 129.43 453.988 132.335 454.379C135.081 454.748 137.872 455.448 140.105 456.007C140.195 456.03 140.284 456.052 140.373 456.074C141.486 456.353 142.489 456.601 143.224 456.726C143.577 456.786 143.967 456.836 144.31 456.816C144.473 456.807 144.747 456.776 145.025 456.639C145.351 456.478 145.728 456.138 145.818 455.578C145.903 455.052 145.681 454.649 145.522 454.44C145.364 454.232 145.176 454.085 145.039 453.99C144.759 453.795 144.404 453.622 144.055 453.47C143.339 453.157 142.336 452.799 141.223 452.405C141.137 452.375 141.05 452.344 140.963 452.313C138.735 451.525 135.971 450.547 133.428 449.322C130.744 448.029 128.524 446.558 127.402 444.931C126.863 444.149 126.605 443.37 126.629 442.565C126.654 441.754 126.969 440.778 127.819 439.617C128.672 438.45 129.48 437.885 130.189 437.649C130.885 437.418 131.631 437.457 132.466 437.772C134.223 438.434 136.132 440.227 137.998 442.547C139.829 444.823 141.468 447.409 142.742 449.43L142.832 449.574C143.42 450.507 143.944 451.338 144.354 451.918C144.564 452.213 144.791 452.511 145.015 452.731C145.118 452.832 145.303 453.001 145.554 453.117C145.816 453.239 146.416 453.406 146.985 452.986ZM154.367 456.947C154.358 456.941 154.359 456.941 154.368 456.948C154.368 456.948 154.367 456.948 154.367 456.947ZM152.526 460.354C152.526 460.354 152.527 460.358 152.528 460.364L152.527 460.364C152.526 460.357 152.526 460.354 152.526 460.354ZM150.853 461.34C150.853 461.34 150.855 461.342 150.86 461.345C150.856 461.342 150.853 461.34 150.853 461.34ZM148.873 461.312C148.882 461.299 148.881 461.302 148.87 461.317C148.871 461.315 148.872 461.314 148.873 461.312ZM146.849 460.751C146.849 460.751 146.849 460.752 146.849 460.755C146.848 460.753 146.848 460.751 146.849 460.751ZM145.671 459.937C145.671 459.937 145.668 459.938 145.661 459.938C145.668 459.937 145.671 459.937 145.671 459.937ZM144.782 458.163C144.782 458.163 144.781 458.164 144.78 458.165C144.787 458.157 144.788 458.157 144.782 458.163ZM143.579 456.113C143.578 456.113 143.576 456.111 143.573 456.108C143.577 456.112 143.579 456.113 143.579 456.113ZM144.991 451.869C144.991 451.869 144.991 451.867 144.99 451.862C144.991 451.867 144.991 451.869 144.991 451.869ZM146.819 450.892L146.819 450.892C146.825 450.897 146.828 450.9 146.828 450.9C146.828 450.9 146.825 450.898 146.819 450.892ZM149.661 450.326C149.661 450.326 149.662 450.324 149.665 450.321C149.662 450.325 149.661 450.326 149.661 450.326ZM153.863 452.452C153.863 452.452 153.866 452.451 153.871 452.451C153.865 452.452 153.862 452.452 153.863 452.452ZM153.821 458.816C153.822 458.816 153.822 458.816 153.823 458.816C153.813 458.817 153.811 458.817 153.821 458.816Z" stroke="#F74700" stroke-width="3.71442" stroke-linecap="round" stroke-linejoin="round"/>
<path d="M148.181 454.688C148.411 454.519 148.598 454.334 148.75 454.144C149.093 454.368 149.513 454.542 150.018 454.606C150.21 454.63 150.392 454.636 150.565 454.627C150.644 454.936 150.779 455.252 150.987 455.561C151.006 455.589 151.025 455.616 151.044 455.643C150.77 455.936 150.526 456.313 150.372 456.793C150.318 456.964 150.28 457.131 150.256 457.294C150.123 457.341 149.989 457.399 149.853 457.471C149.734 457.533 149.625 457.6 149.522 457.671C149.272 457.537 148.998 457.436 148.708 457.377C148.697 457.357 148.687 457.336 148.676 457.315C148.417 456.823 148.075 456.476 147.722 456.232C147.741 456.155 147.757 456.077 147.77 455.996L147.058 455.881L147.77 455.996C147.831 455.613 147.817 455.263 147.759 454.952C147.9 454.879 148.041 454.792 148.181 454.688ZM141.734 450.898C141.738 450.905 141.743 450.912 141.747 450.919C139.732 450.205 137.392 449.361 135.242 448.325C132.78 447.138 131.062 445.925 130.284 444.798C129.945 444.306 129.857 443.933 129.866 443.619C129.876 443.29 130.004 442.708 130.646 441.831C131.297 440.94 131.781 440.688 132.011 440.612C132.212 440.545 132.495 440.518 132.986 440.703C134.163 441.147 135.7 442.495 137.418 444.63C139.058 446.668 140.54 449.003 141.734 450.898ZM133.243 456.311C135.655 456.635 138.123 457.248 140.197 457.767C138.25 458.672 136.005 459.692 133.776 460.464C131.072 461.4 128.942 461.764 127.622 461.515C127.063 461.409 126.816 461.224 126.673 461.055C126.513 460.866 126.229 460.391 126.148 459.271C126.067 458.142 126.27 457.561 126.434 457.274C126.586 457.009 126.838 456.76 127.349 456.543C128.546 456.034 130.578 455.952 133.243 456.311ZM156.762 462.396C158.758 463.065 161.039 463.849 163.154 464.8C165.735 465.96 167.542 467.148 168.355 468.241C168.705 468.711 168.767 469.025 168.761 469.248C168.754 469.487 168.656 470.006 167.997 470.849C167.34 471.689 166.845 471.931 166.581 472.008C166.329 472.082 165.976 472.096 165.415 471.879C164.124 471.381 162.497 469.962 160.703 467.804C159.252 466.06 157.917 464.116 156.762 462.396ZM150.212 465.436C151.221 467.44 152.409 469.809 153.304 472.16C154.308 474.798 154.704 476.833 154.492 478.059C154.405 478.558 154.247 478.753 154.112 478.865C153.944 479.004 153.475 479.286 152.328 479.362C151.194 479.438 150.574 479.235 150.24 479.049C149.924 478.872 149.642 478.586 149.399 478.06C148.837 476.848 148.688 474.813 148.97 472.155C149.215 469.851 149.734 467.474 150.212 465.436ZM143.468 463.81C142.766 465.75 141.92 467.968 140.918 469.996C139.661 472.54 138.416 474.231 137.348 474.914C136.912 475.194 136.642 475.216 136.441 475.188C136.197 475.155 135.645 474.985 134.785 474.17C133.924 473.354 133.653 472.754 133.569 472.401C133.492 472.078 133.51 471.716 133.729 471.221C134.249 470.049 135.671 468.628 137.883 467.103C139.689 465.858 141.696 464.756 143.468 463.81ZM147.859 447.697C147.842 447.661 147.826 447.625 147.809 447.589L147.763 447.489C146.824 445.44 145.68 442.933 144.857 440.466C143.995 437.88 143.681 435.879 143.916 434.677C144.014 434.175 144.172 434.001 144.272 433.918C144.392 433.82 144.775 433.575 145.785 433.531C146.778 433.488 147.312 433.686 147.604 433.863C147.893 434.039 148.174 434.333 148.424 434.88C148.985 436.111 149.156 438.117 148.953 440.672C148.759 443.127 148.265 445.635 147.862 447.681L147.859 447.697ZM157.97 455.486C158.082 455.436 158.194 455.385 158.307 455.334C158.371 455.305 158.435 455.276 158.499 455.247C160.542 454.323 162.974 453.223 165.37 452.442C167.964 451.596 169.929 451.331 171.094 451.61C171.566 451.723 171.774 451.893 171.908 452.07C172.067 452.282 172.336 452.801 172.387 453.961C172.436 455.095 172.216 455.692 172.029 456.001C171.853 456.292 171.567 456.56 171.025 456.783C169.775 457.3 167.701 457.369 165.015 456.995C162.571 456.655 160.076 456.023 157.97 455.486ZM154.772 449.217C155.548 447.13 156.487 444.607 157.632 442.343C158.838 439.955 160.017 438.39 161.022 437.753C161.434 437.491 161.692 437.465 161.886 437.488C162.113 437.515 162.626 437.658 163.434 438.379C164.235 439.094 164.486 439.628 164.568 439.94C164.645 440.231 164.642 440.582 164.444 441.084C163.982 442.255 162.677 443.705 160.645 445.294C158.772 446.757 156.66 448.056 154.888 449.146C154.849 449.169 154.811 449.193 154.772 449.217Z" stroke="#F74700" stroke-width="8.44187" stroke-linecap="round" stroke-linejoin="round"/>
<path d="M148.582 460.012C146.856 459.403 146 457.35 146.705 455.782C147.38 454.279 149.034 453.565 150.682 454.167C152.323 454.766 153.122 456.349 152.689 457.932C152.236 459.586 150.303 460.62 148.582 460.012Z" stroke="#A88771" stroke-width="9.11722" stroke-linecap="round" stroke-linejoin="round"/>
<path d="M125.992 582.552C127.753 583.364 142.738 574.058 136.698 552.78C130.658 531.502 92.9361 516.478 88.5546 504.23C84.173 491.982 86.1935 492.389 84.6809 484.801C84.6809 484.801 79.0632 490.476 79.6965 500.833C80.3299 511.19 80.667 514.127 86.9464 521.547C93.2257 528.967 116.994 548.896 121.789 560.181C126.583 571.466 124.231 581.741 125.992 582.552Z" stroke="#A88771" stroke-width="5.74047" stroke-linecap="round" stroke-linejoin="round"/>
<path d="M128.976 578.999C130.474 579.907 141.403 573.439 134.191 554.13C126.978 534.821 95.1515 517.434 90.2766 506.218C85.4017 495.002 87.0619 495.584 85.0022 488.77C85.0022 488.77 81.15 493.11 82.8177 502.25C84.4855 511.39 85.0843 513.999 90.9341 521.201C96.7837 528.403 118.011 548.519 123.108 558.939C128.204 569.358 127.478 578.091 128.976 578.999Z" stroke="#A88771" stroke-width="5.74047" stroke-linecap="round" stroke-linejoin="round"/>
<path d="M130.539 575.187C131.821 576.206 139.159 572.277 130.685 554.412C122.211 536.547 95.265 516.557 89.8203 506.074C84.3757 495.591 85.7313 496.352 83.111 490.123C83.111 490.123 80.8422 493.295 83.5218 501.482C86.2014 509.67 87.0598 512.026 92.6296 519.176C98.1992 526.326 117.484 547.051 122.975 556.877C128.466 566.703 129.257 574.169 130.539 575.187Z" stroke="#A88771" stroke-width="5.74047" stroke-linecap="round" stroke-linejoin="round"/>
<path d="M132.957 573.458C134.045 574.615 137.822 573.233 127.839 556.448C117.855 539.662 95.3466 516.499 89.1815 506.531C83.0166 496.563 84.0877 497.528 80.8237 491.759C80.8237 491.759 80.1468 493.792 83.9406 501.183C87.7346 508.574 88.8831 510.722 94.2929 517.987C99.7025 525.251 117.422 547.095 123.452 556.536C129.482 565.976 131.869 572.301 132.957 573.458Z" stroke="#A88771" stroke-width="5.74047" stroke-linecap="round" stroke-linejoin="round"/>
<path d="M42.5829 417.636C42.5829 417.636 17.53 436.543 14.5366 453.841C10.4083 477.697 23.8245 502.705 23.8245 502.705" stroke="#A88771" stroke-width="10.1302" stroke-linecap="round" stroke-linejoin="round"/>
<path d="M14.1561 522.496C10.8743 520.798 11.8919 517.141 9.79919 514.096C7.67233 511.002 3.48113 510.669 3.40648 506.915C3.339 503.434 6.94673 502.741 8.64282 499.701C10.6558 496.091 8.87464 491.907 12.4443 489.825C15.7472 487.901 18.3936 491.105 22.1928 490.695C25.2867 490.362 26.8819 487.754 29.8771 488.595C33.7282 489.675 33.016 494.013 35.4408 497.195C37.6035 500.032 40.9929 500.527 41.4635 504.063C42.0101 508.168 37.5119 509.253 35.7694 513.01C34.3135 516.149 35.7841 519.423 32.9518 521.411C30.0179 523.472 27.3631 520.773 23.7828 520.957C19.9807 521.152 17.5382 524.245 14.1561 522.496Z" stroke="#F74700" stroke-width="8.44187" stroke-linecap="round" stroke-linejoin="round"/>
<path d="M16.1043 518.79C13.5145 517.452 14.3062 514.592 12.6507 512.2C10.9691 509.771 7.66584 509.501 7.59917 506.561C7.5371 503.834 10.3753 503.3 11.7019 500.923C13.2773 498.101 11.8631 494.818 14.6691 493.198C17.2636 491.699 19.3554 494.216 22.3471 493.906C24.7807 493.652 26.0302 491.614 28.3906 492.28C31.4258 493.137 30.8766 496.533 32.7941 499.031C34.5041 501.259 37.1741 501.655 37.5542 504.427C37.9953 507.643 34.4565 508.481 33.0946 511.419C31.9567 513.874 33.123 516.441 30.8985 517.992C28.594 519.598 26.4966 517.476 23.6781 517.611C20.6858 517.754 18.7697 520.171 16.1043 518.79Z" stroke="#F74700" stroke-width="8.44187" stroke-linecap="round" stroke-linejoin="round"/>
<path d="M17.562 515.592C15.5812 514.568 16.1798 512.393 14.908 510.571C13.6191 508.718 11.0946 508.505 11.0364 506.268C10.9826 504.192 13.1515 503.792 14.1614 501.986C15.3584 499.841 14.271 497.34 16.4127 496.114C18.3924 494.979 19.9966 496.898 22.2811 496.667C24.1406 496.48 25.0913 494.931 26.8964 495.443C29.2178 496.101 28.8051 498.684 30.2756 500.59C31.5871 502.289 33.6283 502.596 33.9243 504.705C34.268 507.154 31.5655 507.784 30.5308 510.018C29.6661 511.883 30.5629 513.84 28.866 515.015C27.1083 516.232 25.501 514.614 23.3475 514.71C21.0607 514.813 19.6025 516.647 17.562 515.592Z" stroke="#B8CDB4" stroke-width="4.72745" stroke-linecap="round" stroke-linejoin="round"/>
<path d="M18.7094 513.547C17.1556 512.744 17.6199 511.049 16.6215 509.624C15.6073 508.177 13.6304 508.006 13.5808 506.26C13.5347 504.642 15.2318 504.334 16.0184 502.928C16.9523 501.258 16.0964 499.306 17.7701 498.353C19.3171 497.47 20.5776 498.971 22.3663 498.796C23.8223 498.653 24.5635 497.448 25.9782 497.851C27.7973 498.369 27.4794 500.382 28.635 501.871C29.6654 503.199 31.2643 503.443 31.5005 505.089C31.7747 507 29.6596 507.485 28.854 509.225C28.1808 510.679 28.8869 512.206 27.5606 513.119C26.1865 514.065 24.9246 512.8 23.2384 512.871C21.4477 512.946 20.3093 514.374 18.7094 513.547Z" stroke="#B8CDB4" stroke-width="4.72745" stroke-linecap="round" stroke-linejoin="round"/>
<path d="M19.4378 511.818C18.2221 511.189 18.5863 509.861 17.8054 508.745C17.0121 507.611 15.4646 507.478 15.4265 506.111C15.3911 504.842 16.7198 504.6 17.3363 503.498C18.0682 502.189 17.3985 500.659 18.7092 499.912C19.9216 499.22 20.9073 500.395 22.3077 500.257C23.4476 500.145 24.0284 499.2 25.1356 499.515C26.5594 499.92 26.3095 501.498 27.2134 502.664C28.0196 503.704 29.2712 503.895 29.4554 505.184C29.6691 506.681 28.013 507.063 27.3815 508.426C26.8536 509.565 27.4058 510.762 26.3671 511.478C25.291 512.22 24.3038 511.229 22.9836 511.285C21.5819 511.345 20.6901 512.465 19.4378 511.818Z" stroke="#B8CDB4" stroke-width="4.72745" stroke-linecap="round" stroke-linejoin="round"/>
<path d="M20.8867 509.255C18.8462 508.268 18.0626 505.632 19.1616 503.773C20.2065 502.005 22.3585 501.36 24.2887 502.32C26.2107 503.276 26.9948 505.346 26.2393 507.245C25.444 509.246 22.9206 510.239 20.8867 509.255Z" stroke="#F74700" stroke-width="8.77955" stroke-linecap="round" stroke-linejoin="round"/>
<path d="M21.6227 505.166C21.2963 505.718 21.5302 506.456 22.1079 506.735C22.6826 507.013 23.3993 506.746 23.6352 506.153C23.8536 505.604 23.6143 505.006 23.0853 504.743C22.5529 504.478 21.9251 504.654 21.6227 505.166Z" stroke="#B8CDB4" stroke-width="3.37675" stroke-linecap="round" stroke-linejoin="round"/>
<path d="M103.578 385.009C100.588 382.838 102.141 379.376 100.53 376.051C98.8913 372.673 94.7969 371.716 95.2869 367.993C95.7423 364.543 99.4131 364.397 101.547 361.647C104.077 358.379 102.944 353.975 106.785 352.451C110.34 351.045 112.474 354.608 116.293 354.773C119.401 354.908 121.37 352.57 124.205 353.849C127.851 355.496 126.496 359.677 128.417 363.188C130.129 366.317 133.406 367.315 133.341 370.881C133.266 375.022 128.656 375.419 126.369 378.873C124.46 381.759 125.422 385.216 122.324 386.758C119.114 388.354 116.894 385.287 113.326 384.931C109.539 384.555 106.659 387.247 103.578 385.009Z" stroke="#B8CDB4" stroke-width="8.44187" stroke-linecap="round" stroke-linejoin="round"/>
<path d="M106.059 381.639C103.701 379.928 104.912 377.218 103.634 374.606C102.335 371.952 99.1115 371.188 99.4846 368.271C99.8313 365.565 102.718 365.463 104.386 363.312C106.368 360.761 105.462 357.302 108.479 356.121C111.269 355.027 112.96 357.83 115.963 357.97C118.408 358.086 119.949 356.258 122.182 357.27C125.055 358.573 124.003 361.848 125.524 364.605C126.881 367.065 129.461 367.858 129.421 370.654C129.374 373.9 125.751 374.198 123.963 376.899C122.471 379.156 123.239 381.869 120.807 383.068C118.287 384.31 116.532 381.899 113.724 381.608C110.744 381.301 108.489 383.403 106.059 381.639Z" stroke="#B8CDB4" stroke-width="8.44187" stroke-linecap="round" stroke-linejoin="round"/>
<path d="M107.981 378.697C106.175 377.386 107.092 375.325 106.11 373.332C105.112 371.308 102.649 370.717 102.928 368.498C103.187 366.439 105.389 366.367 106.659 364.734C108.165 362.793 107.465 360.158 109.765 359.264C111.893 358.439 113.191 360.578 115.485 360.692C117.351 360.785 118.523 359.397 120.231 360.174C122.428 361.174 121.632 363.665 122.8 365.769C123.842 367.646 125.814 368.256 125.79 370.385C125.763 372.859 122.997 373.077 121.639 375.129C120.504 376.844 121.097 378.913 119.243 379.82C117.323 380.76 115.977 378.92 113.832 378.691C111.557 378.45 109.839 380.045 107.981 378.697Z" stroke="#F74700" stroke-width="4.72745" stroke-linecap="round" stroke-linejoin="round"/>
<path d="M109.421 376.845C108.006 375.819 108.719 374.212 107.946 372.654C107.159 371.07 105.232 370.605 105.444 368.873C105.641 367.265 107.365 367.214 108.353 365.942C109.528 364.432 108.974 362.373 110.771 361.68C112.435 361.043 113.455 362.714 115.249 362.809C116.71 362.886 117.624 361.806 118.962 362.416C120.682 363.201 120.067 365.145 120.987 366.791C121.806 368.258 123.349 368.738 123.337 370.402C123.32 372.331 121.158 372.495 120.099 374.093C119.216 375.43 119.685 377.046 118.237 377.75C116.736 378.479 115.679 377.039 114 376.855C112.219 376.662 110.88 377.903 109.421 376.845Z" stroke="#F74700" stroke-width="4.72745" stroke-linecap="round" stroke-linejoin="round"/>
<path d="M110.402 375.245C109.293 374.441 109.852 373.182 109.248 371.962C108.633 370.722 107.123 370.358 107.291 369.001C107.446 367.741 108.797 367.702 109.571 366.703C110.491 365.52 110.058 363.907 111.467 363.365C112.768 362.862 113.567 364.172 114.973 364.246C116.116 364.306 116.832 363.458 117.88 363.937C119.226 364.549 118.743 366.072 119.461 367.361C120.102 368.509 121.311 368.885 121.301 370.189C121.287 371.701 119.593 371.831 118.763 373.082C118.071 374.131 118.437 375.396 117.302 375.948C116.128 376.521 115.3 375.393 113.986 375.25C112.591 375.099 111.542 376.072 110.402 375.245Z" stroke="#F74700" stroke-width="4.72745" stroke-linecap="round" stroke-linejoin="round"/>
<path d="M112.218 372.928C110.348 371.645 109.969 368.922 111.334 367.248C112.633 365.658 114.858 365.344 116.621 366.582C118.379 367.816 118.844 369.979 117.812 371.745C116.726 373.603 114.081 374.206 112.218 372.928Z" stroke="#B8CDB4" stroke-width="8.77955" stroke-linecap="round" stroke-linejoin="round"/>
<path d="M113.559 368.996C113.153 369.493 113.275 370.258 113.804 370.621C114.33 370.982 115.078 370.824 115.4 370.273C115.699 369.763 115.553 369.137 115.069 368.798C114.582 368.455 113.936 368.536 113.559 368.996Z" stroke="#F74700" stroke-width="3.37675" stroke-linecap="round" stroke-linejoin="round"/>
<path d="M142.055 598.88C136.433 602.94 138.289 609.709 136.427 616.389C134.717 622.522 129.054 624.036 130.82 630.154C132.489 635.936 137.344 635.219 141.106 639.917C145.424 645.313 144.322 652.316 150.71 654.954C157.428 657.728 159.238 651.262 166.395 649.995C172.584 648.9 178.846 653.149 183.692 649.147C188.685 645.024 184.075 638.84 186.37 632.785C188.468 627.252 194.805 625.717 194.225 619.828C193.591 613.394 186.275 613.468 182.203 608.447C177.774 602.987 178.845 596.32 172.478 594.361C166.11 592.401 163.781 598.536 157.184 599.46C150.384 600.412 147.621 594.859 142.055 598.88Z" stroke="#F74700" stroke-width="7.42885" stroke-linecap="round" stroke-linejoin="round"/>
<path d="M144.733 602.194C139.842 605.726 141.456 611.617 139.836 617.43C138.349 622.767 133.42 624.085 134.957 629.408C136.41 634.44 140.635 633.815 143.907 637.904C147.666 642.6 146.707 648.693 152.266 650.989C158.111 653.403 159.686 647.776 165.914 646.674C171.3 645.721 176.749 649.419 180.967 645.936C185.311 642.348 181.3 636.967 183.297 631.698C185.122 626.883 190.637 625.547 190.132 620.423C189.58 614.824 183.214 614.888 179.67 610.519C175.817 605.768 176.748 599.966 171.207 598.261C165.667 596.556 163.64 601.894 157.899 602.698C151.981 603.526 149.577 598.695 144.733 602.194Z" stroke="#F74700" stroke-width="7.42885" stroke-linecap="round" stroke-linejoin="round"/>
<path d="M147.163 605.227C142.912 608.297 144.315 613.416 142.908 618.466C141.615 623.104 137.333 624.249 138.668 628.874C139.93 633.247 143.602 632.704 146.445 636.257C149.711 640.337 148.877 645.632 153.708 647.626C158.787 649.724 160.156 644.835 165.567 643.877C170.247 643.049 174.982 646.262 178.646 643.236C182.421 640.119 178.936 635.442 180.671 630.864C182.257 626.68 187.049 625.52 186.61 621.067C186.131 616.202 180.6 616.258 177.52 612.462C174.171 608.333 174.981 603.292 170.167 601.81C165.352 600.329 163.591 604.967 158.603 605.666C153.461 606.386 151.372 602.188 147.163 605.227Z" stroke="#F74700" stroke-width="7.42885" stroke-linecap="round" stroke-linejoin="round"/>
<path d="M149.353 608.003C145.716 610.63 146.916 615.01 145.712 619.331C144.606 623.3 140.941 624.28 142.084 628.238C143.164 631.979 146.305 631.515 148.739 634.555C151.533 638.046 150.82 642.576 154.953 644.283C159.3 646.078 160.471 641.895 165.101 641.075C169.106 640.366 173.157 643.116 176.293 640.526C179.523 637.859 176.541 633.857 178.025 629.94C179.382 626.36 183.483 625.367 183.108 621.557C182.697 617.394 177.964 617.442 175.329 614.193C172.464 610.66 173.156 606.347 169.037 605.079C164.917 603.812 163.41 607.781 159.142 608.378C154.742 608.994 152.955 605.402 149.353 608.003Z" stroke="#B53A25" stroke-width="9.4549" stroke-linecap="round" stroke-linejoin="round"/>
<path d="M152.841 612.564C150.226 614.452 151.089 617.601 150.223 620.707C149.428 623.559 146.795 624.264 147.616 627.109C148.392 629.798 150.65 629.464 152.399 631.65C154.408 634.159 153.895 637.415 156.866 638.642C159.99 639.933 160.832 636.926 164.16 636.336C167.039 635.827 169.951 637.803 172.205 635.942C174.527 634.025 172.383 631.148 173.45 628.333C174.426 625.759 177.373 625.045 177.103 622.307C176.808 619.315 173.406 619.349 171.512 617.014C169.453 614.474 169.95 611.374 166.989 610.463C164.028 609.552 162.945 612.405 159.877 612.834C156.714 613.277 155.43 610.695 152.841 612.564Z" stroke="#B53A25" stroke-width="9.4549" stroke-linecap="round" stroke-linejoin="round"/>
<path d="M155.526 616.121C153.631 617.49 154.257 619.772 153.629 622.024C153.053 624.091 151.143 624.602 151.739 626.664C152.301 628.614 153.938 628.372 155.206 629.956C156.662 631.775 156.291 634.136 158.444 635.025C160.709 635.96 161.319 633.78 163.732 633.353C165.818 632.984 167.93 634.417 169.563 633.068C171.246 631.677 169.692 629.592 170.466 627.551C171.173 625.686 173.31 625.168 173.114 623.183C172.9 621.014 170.434 621.039 169.061 619.346C167.568 617.505 167.929 615.258 165.783 614.597C163.636 613.937 162.851 616.005 160.626 616.316C158.334 616.637 157.403 614.765 155.526 616.121Z" stroke="#B53A25" stroke-width="9.4549" stroke-linecap="round" stroke-linejoin="round"/>
<path d="M153.383 620.967C151.14 625.955 153.821 631.984 158.978 633.805C164.109 635.617 169.929 632.675 171.365 627.427C172.695 622.568 170.104 617.734 165.372 616.005C160.613 614.266 155.461 616.345 153.383 620.967Z" stroke="#F74700" stroke-width="6.7535" stroke-linecap="round" stroke-linejoin="round"/>
<path d="M156.892 622.52C155.523 625.564 157.159 629.244 160.307 630.356C163.438 631.461 166.99 629.666 167.867 626.463C168.679 623.497 167.097 620.547 164.209 619.492C161.304 618.43 158.16 619.699 156.892 622.52Z" stroke="#F74700" stroke-width="6.7535" stroke-linecap="round" stroke-linejoin="round"/>
<path d="M161.552 626.668C160.418 626.268 159.856 624.92 160.319 623.891C160.763 622.904 161.848 622.435 162.931 622.83C164.009 623.224 164.534 624.263 164.249 625.302C163.952 626.388 162.683 627.068 161.552 626.668Z" stroke="#B53A25" stroke-width="6.07815" stroke-linecap="round" stroke-linejoin="round"/>
</g>
<defs>
<clipPath id="clip0">
<rect width="754" height="485.557" fill="white" transform="translate(532.36 370.91) rotate(139.76)"/>
</clipPath>
</defs>
</svg>
