<svg width="316" height="286" viewBox="0 0 316 286" fill="none" xmlns="http://www.w3.org/2000/svg">
<path opacity="0.63" d="M217.714 14.5941C181.896 -9.01092 131.56 -4.24056 99.8948 30.7969C82.5817 49.9605 75.5496 76.3208 57.5785 95.0733C37.3456 116.211 13.1649 136.732 3.99427 165.518C-5.75206 196.114 2.80168 231.193 24.5973 254.592C51.1221 283.05 90.1074 274.496 126.954 274.044C277.837 272.152 389.982 171.44 247.282 47.2875C235.356 36.842 229.558 22.3665 217.714 14.5941Z" fill="#5A5A5A"/>
<path d="M285.322 30.9202H30.7658C25.6664 30.9202 21.5129 35.0325 21.5129 40.1319V215.442H294.575V40.1319C294.575 35.0325 290.421 30.9202 285.322 30.9202Z" fill="#D9562E"/>
<path d="M284.993 34.7859H31.0948C27.9283 34.7859 25.3786 37.3356 25.3786 40.5021V212.852H290.709V40.5021C290.709 37.3356 288.159 34.7859 284.993 34.7859Z" fill="#913B21"/>
<path d="M281.168 47.5342H34.9193V206.724H281.168V47.5342Z" fill="black"/>
<path d="M159.442 41.9414C159.442 42.7228 158.825 43.3396 158.044 43.3396C157.262 43.3396 156.646 42.7228 156.646 41.9414C156.646 41.1601 157.262 40.5432 158.044 40.5432C158.825 40.5843 159.442 41.2012 159.442 41.9414Z" fill="#F6F6F6"/>
<path d="M90.4774 56.3347H65.8032V60.6938H90.4774V56.3347Z" fill="#B04814"/>
<path d="M53.6717 56.3347H43.5141V60.6938H53.6717V56.3347Z" fill="#D8D8D8"/>
<path d="M53.6717 64.3127H43.5141V68.6719H53.6717V64.3127Z" fill="#D8D8D8"/>
<path d="M53.6717 73.7712H43.5141V78.1304H53.6717V73.7712Z" fill="#D8D8D8"/>
<path d="M53.6717 83.1885H43.5141V87.5476H53.6717V83.1885Z" fill="#D8D8D8"/>
<path d="M53.6717 92.647H43.5141V97.0061H53.6717V92.647Z" fill="#D8D8D8"/>
<path d="M53.6717 102.064H43.5141V106.423H53.6717V102.064Z" fill="#D8D8D8"/>
<path d="M178.359 56.3347H95.5768V60.6938H178.359V56.3347Z" fill="#D8D8D8"/>
<path d="M99.1957 64.3127H74.5215V68.6719H99.1957V64.3127Z" fill="#B04814"/>
<path d="M187.077 64.3127H104.295V68.6719H187.077V64.3127Z" fill="#D8D8D8"/>
<path d="M113.753 73.7712H89.0793V78.1304H113.753V73.7712Z" fill="#B04814"/>
<path d="M201.635 73.7712H118.853V78.1304H201.635V73.7712Z" fill="#D8D8D8"/>
<path d="M128.27 83.1885H103.596V87.5476H128.27V83.1885Z" fill="#B04814"/>
<path d="M216.152 83.1885H133.37V87.5476H216.152V83.1885Z" fill="#D8D8D8"/>
<path d="M113.753 92.647H89.0793V97.0061H113.753V92.647Z" fill="#B04814"/>
<path d="M245.226 92.647H118.853V97.0061H245.226V92.647Z" fill="#D8D8D8"/>
<path d="M99.1957 102.064H74.5215V106.423H99.1957V102.064Z" fill="#B04814"/>
<path d="M158.044 102.064H104.295V106.423H158.044V102.064Z" fill="#D8D8D8"/>
<path opacity="0.4" d="M90.4774 114.443H65.8032V118.802H90.4774V114.443Z" fill="#B04814"/>
<path opacity="0.4" d="M53.6717 114.443H43.5141V118.802H53.6717V114.443Z" fill="#D8D8D8"/>
<path opacity="0.4" d="M53.6717 122.421H43.5141V126.78H53.6717V122.421Z" fill="#D8D8D8"/>
<path opacity="0.4" d="M53.6717 131.879H43.5141V136.238H53.6717V131.879Z" fill="#D8D8D8"/>
<path opacity="0.4" d="M53.6717 141.296H43.5141V145.656H53.6717V141.296Z" fill="#D8D8D8"/>
<path opacity="0.4" d="M53.6717 150.755H43.5141V155.114H53.6717V150.755Z" fill="#D8D8D8"/>
<path opacity="0.4" d="M53.6717 160.172H43.5141V164.531H53.6717V160.172Z" fill="#D8D8D8"/>
<path opacity="0.4" d="M178.359 114.443H95.5768V118.802H178.359V114.443Z" fill="#D8D8D8"/>
<path opacity="0.4" d="M99.1957 122.421H74.5215V126.78H99.1957V122.421Z" fill="#B04814"/>
<path opacity="0.4" d="M187.077 122.421H104.295V126.78H187.077V122.421Z" fill="#D8D8D8"/>
<path opacity="0.4" d="M113.753 131.879H89.0793V136.238H113.753V131.879Z" fill="#B04814"/>
<path opacity="0.4" d="M201.635 131.879H118.853V136.238H201.635V131.879Z" fill="#D8D8D8"/>
<path opacity="0.4" d="M90.4774 172.509H65.8032V176.868H90.4774V172.509Z" fill="#B04814"/>
<path opacity="0.4" d="M53.6717 172.509H43.5141V176.868H53.6717V172.509Z" fill="#D8D8D8"/>
<path opacity="0.4" d="M53.6717 180.528H43.5141V184.887H53.6717V180.528Z" fill="#D8D8D8"/>
<path opacity="0.4" d="M53.6717 189.946H43.5141V194.305H53.6717V189.946Z" fill="#D8D8D8"/>
<path opacity="0.4" d="M178.359 172.509H95.5768V176.868H178.359V172.509Z" fill="#D8D8D8"/>
<path opacity="0.4" d="M99.1957 180.528H74.5215V184.887H99.1957V180.528Z" fill="#B04814"/>
<path opacity="0.4" d="M187.077 180.528H104.295V184.887H187.077V180.528Z" fill="#D8D8D8"/>
<path opacity="0.4" d="M113.753 189.946H89.0793V194.305H113.753V189.946Z" fill="#B04814"/>
<path opacity="0.4" d="M201.635 189.946H118.853V194.305H201.635V189.946Z" fill="#D8D8D8"/>
<path opacity="0.4" d="M128.27 141.296H103.596V145.656H128.27V141.296Z" fill="#B04814"/>
<path opacity="0.4" d="M259.743 141.296H133.37V145.656H259.743V141.296Z" fill="#D8D8D8"/>
<path opacity="0.4" d="M113.753 150.755H89.0793V155.114H113.753V150.755Z" fill="#B04814"/>
<path opacity="0.4" d="M201.635 150.755H118.853V155.114H201.635V150.755Z" fill="#D8D8D8"/>
<path opacity="0.4" d="M99.1957 160.172H74.5215V164.531H99.1957V160.172Z" fill="#B04814"/>
<path opacity="0.4" d="M187.077 160.172H104.295V164.531H187.077V160.172Z" fill="#D8D8D8"/>
<path d="M312.71 212.317H3.37741C1.60909 212.317 0.128632 213.756 0.128632 215.566V219.76C0.128632 221.529 1.56796 223.009 3.37741 223.009H312.751C314.52 223.009 316 221.57 316 219.76V215.566C315.959 213.756 314.52 212.317 312.71 212.317Z" fill="#D3D3D3"/>
<path d="M184.569 216.964H131.519C130.82 216.964 130.244 217.54 130.244 218.239C130.244 218.938 130.82 219.514 131.519 219.514H184.61C185.309 219.514 185.885 218.938 185.885 218.239C185.843 217.54 185.268 216.964 184.569 216.964Z" fill="#F7F7F7"/>
<path d="M228.201 258.499L228.16 265.12C228.16 265.12 228.982 269.355 229.681 273.879C230.339 278.403 230.874 283.214 230.175 284.325C228.818 286.545 226.145 284.325 225.692 282.104C225.24 279.883 224.582 266.024 224.582 266.024L224.13 257.101L228.201 258.499ZM234.945 257.594L233.917 263.557C233.917 263.557 231.902 279.842 233.012 282.309C234.123 284.777 237.7 283.667 237.495 280.294C237.289 276.963 238.153 265.12 238.153 265.12L240.168 257.964L234.945 257.594Z" fill="#0B4870"/>
<path d="M232.19 185.011L231.696 192.331L250.613 201.46C254.027 203.311 255.671 207.3 254.561 211.001L241.484 259.65L234.986 257.594L240.702 212.852C241.114 210.096 239.222 207.547 236.467 207.094L229.722 206.025L222.567 198.705L230.874 206.149C232.889 207.958 233.876 210.631 233.506 213.304L228.201 258.499L222.32 259.979L219.688 215.525C219.483 212.687 217.591 210.302 214.918 209.438L203.28 205.737C201.429 204.627 200.278 202.612 200.196 200.432L200.689 184.764L232.19 185.011Z" fill="#0B4870"/>
<path d="M199.455 201.419L202.581 140.638C202.581 140.638 215.494 139.857 219.359 139.857C221.457 139.857 225.034 140.844 227.872 141.749C230.545 142.612 232.724 142.53 234.04 144.997L255.219 185.628L242.183 186.861L237.824 181.927L240.044 178.595L232.108 159.925L233.67 193.852L199.455 201.419Z" fill="#D3D3D3"/>
<path opacity="0.08" d="M232.395 152.523L246.46 177.897L242.101 183.037C242.101 183.037 240.332 183.407 238.646 182.831L237.865 181.927L240.086 178.596L232.149 159.925L232.395 152.523Z" fill="#0F0F0F"/>
<path d="M219.894 158.239C215.617 158.239 207.803 147.095 207.803 142.818C207.803 141.954 207.968 141.132 208.215 140.351C212.204 140.145 217.18 139.898 219.359 139.898C220.305 139.898 221.539 140.104 222.896 140.392C223.143 141.173 223.307 141.954 223.307 142.818C223.266 147.095 224.171 158.239 219.894 158.239Z" fill="white"/>
<path opacity="0.08" d="M201.018 151.166L199.455 201.789L220.346 196.772L201.018 151.166Z" fill="#0F0F0F"/>
<path d="M220.634 133.647C220.264 134.387 217.714 144.339 217.714 144.339C217.714 144.339 216.81 145.984 214.63 145.779C212.45 145.614 211.546 142.53 211.546 142.53L215.37 130.028L220.634 133.647Z" fill="#FCD2B1"/>
<path d="M207.228 127.52C207.228 134.388 214.507 141.995 221.374 141.995C228.242 141.995 232.066 134.388 232.066 127.52C232.066 120.652 226.515 115.101 219.647 115.101C212.779 115.059 207.228 120.652 207.228 127.52Z" fill="#FFBCC6"/>
<path d="M222.18 142.315C229.801 141.073 234.972 133.887 233.73 126.266C232.488 118.644 225.302 113.473 217.68 114.716C210.059 115.958 204.888 123.144 206.13 130.765C207.373 138.387 214.558 143.558 222.18 142.315Z" fill="#FFE3CA"/>
<path d="M217.303 195.58C217.838 195.415 222.444 193.153 225.692 193.153C228.941 193.153 232.93 196.608 232.93 196.608C232.93 196.608 233.465 198.417 231.285 198.047C229.106 197.677 231.573 199.404 231.573 199.404C231.573 199.404 231.45 199.486 228.9 199.857C226.35 200.227 216.481 199.692 216.481 199.692L217.303 195.58Z" fill="#FFE3CA"/>
<path d="M202.581 140.679L200.812 180.652L217.262 195.539L216.481 199.733L193.328 187.355C191.107 186.162 189.832 183.695 190.161 181.186L194.397 150.59C194.726 146.766 197.07 143.394 200.483 141.708L202.581 140.679ZM215.617 203.146H257.481V200.062H215.617C214.753 200.062 214.095 200.761 214.095 201.584C214.054 202.447 214.753 203.146 215.617 203.146Z" fill="#D3D3D3"/>
<path d="M227.091 203.146H267.474C269.242 203.146 270.805 201.954 271.299 200.227L278.413 173.373C279.071 170.864 277.179 168.438 274.588 168.438H239.345C237.577 168.438 236.014 169.631 235.521 171.358L227.091 203.146Z" fill="#B04814"/>
<path opacity="0.22" d="M227.091 203.146H267.474C269.242 203.146 270.805 201.954 271.299 200.227L278.413 173.373C279.071 170.864 277.179 168.438 274.588 168.438H239.345C237.577 168.438 236.014 169.631 235.521 171.358L227.091 203.146Z" fill="#F4F0E1"/>
<path d="M250.86 188.177C250.408 189.946 251.518 191.344 253.327 191.344C255.137 191.344 256.946 189.905 257.399 188.177C257.851 186.409 256.741 185.011 254.931 185.011C253.122 184.97 251.312 186.409 250.86 188.177Z" fill="white"/>
<path d="M219.935 114.525C227.132 114.525 233.012 119.953 233.835 126.903C231.408 128.713 228.242 129.494 225.24 129C221.703 128.384 218.537 125.957 217.056 122.709C217.18 124.271 217.262 125.834 217.015 127.356C216.768 128.877 216.11 130.399 214.877 131.386C214.794 130.316 214.671 129.165 214.136 128.219C213.561 127.273 212.368 126.615 211.381 127.027C210.641 127.314 210.189 128.055 210.065 128.836C209.942 129.617 210.147 130.399 210.435 131.139C210.888 132.29 211.546 133.36 212.368 134.223C210.723 134.47 208.955 134.676 207.31 134.511C206.446 132.66 205.912 130.645 205.912 128.466C205.912 120.776 212.204 114.525 219.935 114.525Z" fill="#2B3531"/>
<path d="M207.886 130.81C207.886 133.154 209.777 135.045 212.121 135.045C214.466 135.045 216.357 133.154 216.357 130.81C216.357 128.466 214.466 126.574 212.121 126.574C209.819 126.574 207.886 128.466 207.886 130.81Z" fill="#FFE3CA"/>
<path d="M234.945 257.594L234.205 262.077L238.646 263.475L239.88 259.075L234.945 257.594Z" fill="#FFE3CA"/>
<path d="M228.16 263.475L224.459 264.174L224.253 259.486L228.201 258.499L228.16 263.475Z" fill="#FFE3CA"/>
<path d="M212.121 120.981C215.574 120.981 218.372 118.183 218.372 114.73C218.372 111.278 215.574 108.479 212.121 108.479C208.669 108.479 205.871 111.278 205.871 114.73C205.871 118.183 208.669 120.981 212.121 120.981Z" fill="#2B3531"/>
</svg>
