<svg width="128" height="129" viewBox="0 0 128 129" fill="none" xmlns="http://www.w3.org/2000/svg">
<g filter="url(#filter0_d)">
<g filter="url(#filter1_d)">
<rect x="23" y="18" width="82" height="82" rx="41" fill="#B04814"/>
<rect x="21.2587" y="16.2587" width="85.4825" height="85.4825" rx="42.7413" stroke="#8C2E13" stroke-width="3.48253"/>
</g>
<path d="M70.4608 57.8057C69.6527 57.8057 68.8776 58.1726 68.3061 58.8256C67.7347 59.4786 67.4136 60.3643 67.4136 61.2878C67.4136 62.2113 67.7347 63.097 68.3061 63.75C68.8776 64.403 69.6527 64.7698 70.4608 64.7698C71.269 64.7698 72.0441 64.403 72.6155 63.75C73.187 63.097 73.508 62.2113 73.508 61.2878C73.508 60.3643 73.187 59.4786 72.6155 58.8256C72.0441 58.1726 71.269 57.8057 70.4608 57.8057Z" fill="white"/>
<path d="M79.9982 46.9252C76.2716 43.9298 69.9203 43.1142 69.651 43.081C69.3129 43.0369 68.9894 43.2218 68.8502 43.5321C68.8308 43.5747 68.43 44.4839 68.2482 45.6848C66.7068 45.482 65.3348 45.4256 64.3057 45.4256C63.2433 45.4256 61.8172 45.4844 60.2131 45.7041C60.0328 44.4939 59.6274 43.5739 59.608 43.5313C59.4687 43.221 59.1453 43.0392 58.804 43.0802C58.5433 43.1135 52.3646 43.9306 48.5993 46.9592C46.6161 48.7915 42.6527 59.4505 42.6527 68.6393C42.6527 68.7731 42.6875 68.9055 42.7541 69.0223C45.4059 73.6805 53.2451 75.5469 55.0086 75.6034C55.0171 75.6034 55.0248 75.6034 55.0334 75.6034C55.2678 75.6034 55.4907 75.4966 55.6377 75.3132L58.3421 71.9333C60.0777 72.2784 62.0733 72.5082 64.3374 72.5082C66.5899 72.5082 68.5731 72.2807 70.3002 71.9379L73.0008 75.3132C73.147 75.4966 73.3699 75.6034 73.6043 75.6034C73.6128 75.6034 73.6206 75.6034 73.6291 75.6034C75.3887 75.5469 83.2164 73.6728 85.8821 68.9898C85.9486 68.8737 85.9834 68.7414 85.9834 68.6068C85.9842 59.435 82.0209 48.7908 79.9982 46.9252ZM73.9533 74.0272L71.9724 71.551C76.3327 70.3911 78.6022 68.5751 78.7384 68.4636C79.0681 68.1928 79.1153 67.7069 78.846 67.3764C78.5759 67.0468 78.0892 66.9973 77.758 67.2658C77.7124 67.3029 73.113 70.9606 64.3374 70.9606C55.5696 70.9606 50.9338 67.3091 50.8781 67.265C50.5477 66.9957 50.0602 67.0453 49.7909 67.3772C49.5209 67.7084 49.5704 68.1959 49.9024 68.4659C50.0393 68.5774 52.3174 70.3849 56.6715 71.5449L54.6852 74.028C52.4365 73.778 46.3777 71.9712 44.2026 68.4288C44.263 59.6788 48.0832 49.5444 49.6106 48.1307C52.3553 45.9247 56.7922 44.9891 58.3978 44.7106C58.5007 45.0302 58.6152 45.4689 58.6864 45.9572C56.372 46.4052 53.8317 47.2099 51.532 48.6368C51.1683 48.862 51.0568 49.3386 51.282 49.7015C51.508 50.066 51.9838 50.1782 52.3468 49.9515C56.5252 47.36 61.633 46.9731 64.3057 46.9731C66.9884 46.9731 72.1125 47.36 76.2917 49.9522C76.4186 50.0312 76.5594 50.0683 76.6987 50.0683C76.9572 50.0683 77.211 49.9383 77.3572 49.7023C77.5832 49.3394 77.471 48.8627 77.1073 48.6376C74.7526 47.1766 72.1419 46.3696 69.7772 45.9277C69.8491 45.4495 69.9621 45.0216 70.0627 44.7083C71.6946 44.9806 76.2608 45.9069 78.9876 48.0967C80.5553 49.5444 84.374 59.6649 84.4351 68.3971C82.2491 71.9604 76.1981 73.7772 73.9533 74.0272Z" fill="white"/>
<path d="M58.1303 57.8057C57.3094 57.8057 56.5222 58.1726 55.9417 58.8256C55.3613 59.4786 55.0352 60.3643 55.0352 61.2878C55.0352 62.2113 55.3613 63.097 55.9417 63.75C56.5222 64.403 57.3094 64.7698 58.1303 64.7698C58.9512 64.7698 59.7385 64.403 60.3189 63.75C60.8994 63.097 61.2255 62.2113 61.2255 61.2878C61.2255 60.3643 60.8994 59.4786 60.3189 58.8256C59.7385 58.1726 58.9512 57.8057 58.1303 57.8057Z" fill="white"/>
</g>
<defs>
<filter id="filter0_d" x="0.12886" y="0.963767" width="127.742" height="127.742" filterUnits="userSpaceOnUse" color-interpolation-filters="sRGB">
<feFlood flood-opacity="0" result="BackgroundImageFix"/>
<feColorMatrix in="SourceAlpha" type="matrix" values="0 0 0 0 0 0 0 0 0 0 0 0 0 0 0 0 0 0 127 0" result="hardAlpha"/>
<feOffset dy="5.83488"/>
<feGaussianBlur stdDeviation="9.6943"/>
<feComposite in2="hardAlpha" operator="out"/>
<feColorMatrix type="matrix" values="0 0 0 0 0 0 0 0 0 0 0 0 0 0 0 0 0 0 0.25 0"/>
<feBlend mode="normal" in2="BackgroundImageFix" result="effect1_dropShadow"/>
<feBlend mode="normal" in="SourceGraphic" in2="effect1_dropShadow" result="shape"/>
</filter>
<filter id="filter1_d" x="0.0610943" y="0.896" width="127.878" height="127.878" filterUnits="userSpaceOnUse" color-interpolation-filters="sRGB">
<feFlood flood-opacity="0" result="BackgroundImageFix"/>
<feColorMatrix in="SourceAlpha" type="matrix" values="0 0 0 0 0 0 0 0 0 0 0 0 0 0 0 0 0 0 127 0" result="hardAlpha"/>
<feOffset dy="5.83488"/>
<feGaussianBlur stdDeviation="9.72818"/>
<feComposite in2="hardAlpha" operator="out"/>
<feColorMatrix type="matrix" values="0 0 0 0 0 0 0 0 0 0 0 0 0 0 0 0 0 0 0.25 0"/>
<feBlend mode="normal" in2="BackgroundImageFix" result="effect1_dropShadow"/>
<feBlend mode="normal" in="SourceGraphic" in2="effect1_dropShadow" result="shape"/>
</filter>
</defs>
</svg>
