<svg width="159" height="159" viewBox="0 0 159 159" fill="none" xmlns="http://www.w3.org/2000/svg">
<g filter="url(#filter0_d)">
<rect x="29" y="22" width="101" height="101" rx="50.5" fill="#B04814"/>
<rect x="26.8553" y="19.8553" width="105.289" height="105.289" rx="52.6447" stroke="#8C2E13" stroke-width="4.28945"/>
</g>
<path d="M87.4578 71.029C86.4624 71.029 85.5078 71.4808 84.8039 72.2851C84.1 73.0895 83.7046 74.1804 83.7046 75.3178C83.7046 76.4553 84.1 77.5462 84.8039 78.3505C85.5078 79.1548 86.4624 79.6067 87.4578 79.6067C88.4533 79.6067 89.4079 79.1548 90.1118 78.3505C90.8156 77.5462 91.2111 76.4553 91.2111 75.3178C91.2111 74.1804 90.8156 73.0895 90.1118 72.2851C89.4079 71.4808 88.4533 71.029 87.4578 71.029Z" fill="white"/>
<path d="M99.2051 57.6273C94.615 53.938 86.7921 52.9334 86.4605 52.8924C86.044 52.8381 85.6456 53.0659 85.474 53.4481C85.4502 53.5005 84.9565 54.6204 84.7325 56.0995C82.834 55.8498 81.1442 55.7803 79.8766 55.7803C78.568 55.7803 76.8114 55.8527 74.8357 56.1234C74.6136 54.6327 74.1142 53.4995 74.0904 53.4471C73.9188 53.0649 73.5204 52.841 73.1001 52.8915C72.7789 52.9324 65.1686 53.9389 60.5309 57.6693C58.0881 59.9262 53.2064 73.0549 53.2064 84.3728C53.2064 84.5376 53.2493 84.7006 53.3313 84.8445C56.5975 90.5821 66.2532 92.8809 68.4253 92.9505C68.4357 92.9505 68.4453 92.9505 68.4558 92.9505C68.7445 92.9505 69.019 92.819 69.2001 92.5931L72.5311 88.43C74.6689 88.8551 77.1269 89.1382 79.9156 89.1382C82.6901 89.1382 85.1328 88.858 87.2601 88.4358L90.5864 92.5931C90.7665 92.819 91.041 92.9505 91.3298 92.9505C91.3402 92.9505 91.3498 92.9505 91.3603 92.9505C93.5276 92.8809 103.169 90.5726 106.452 84.8045C106.534 84.6615 106.577 84.4986 106.577 84.3327C106.578 73.0358 101.696 59.9252 99.2051 57.6273ZM91.7596 91.0091L89.3197 87.9592C94.6903 86.5305 97.4857 84.2937 97.6535 84.1564C98.0595 83.8228 98.1176 83.2243 97.7859 82.8173C97.4533 82.4113 96.8538 82.3503 96.4459 82.681C96.3897 82.7268 90.7245 87.232 79.9156 87.232C69.1162 87.232 63.4063 82.7344 63.3377 82.6801C62.9307 82.3484 62.3303 82.4094 61.9986 82.8183C61.666 83.2262 61.727 83.8266 62.1359 84.1593C62.3046 84.2965 65.1104 86.5229 70.4734 87.9516L68.0269 91.01C65.2572 90.7022 57.7946 88.4767 55.1154 84.1135C55.1898 73.3361 59.8952 60.8535 61.7765 59.1122C65.1571 56.395 70.6221 55.2427 72.5998 54.8996C72.7265 55.2932 72.8676 55.8336 72.9553 56.435C70.1046 56.9869 66.9756 57.9781 64.1431 59.7356C63.6951 60.0129 63.5579 60.6 63.8352 61.047C64.1135 61.4959 64.6997 61.6341 65.1467 61.3548C70.2933 58.163 76.5846 57.6864 79.8766 57.6864C83.1809 57.6864 89.4922 58.163 94.6398 61.3558C94.7961 61.453 94.9696 61.4988 95.1411 61.4988C95.4595 61.4988 95.7721 61.3386 95.9522 61.048C96.2305 60.601 96.0923 60.0139 95.6444 59.7365C92.7441 57.9371 89.5284 56.943 86.6158 56.3988C86.7044 55.8098 86.8436 55.2828 86.9675 54.8968C88.9776 55.2322 94.6017 56.3731 97.9604 59.0703C99.8913 60.8535 104.595 73.3189 104.67 84.0744C101.978 88.4634 94.5245 90.7012 91.7596 91.0091Z" fill="white"/>
<path d="M72.2702 71.029C71.2591 71.029 70.2894 71.4808 69.5745 72.2851C68.8595 73.0895 68.4579 74.1804 68.4579 75.3178C68.4579 76.4553 68.8595 77.5462 69.5745 78.3505C70.2894 79.1548 71.2591 79.6067 72.2702 79.6067C73.2813 79.6067 74.251 79.1548 74.9659 78.3505C75.6809 77.5462 76.0826 76.4553 76.0826 75.3178C76.0826 74.1804 75.6809 73.0895 74.9659 72.2851C74.251 71.4808 73.2813 71.029 72.2702 71.029Z" fill="white"/>
<defs>
<filter id="filter0_d" x="0.746027" y="0.932856" width="157.508" height="157.508" filterUnits="userSpaceOnUse" color-interpolation-filters="sRGB">
<feFlood flood-opacity="0" result="BackgroundImageFix"/>
<feColorMatrix in="SourceAlpha" type="matrix" values="0 0 0 0 0 0 0 0 0 0 0 0 0 0 0 0 0 0 127 0" result="hardAlpha"/>
<feOffset dy="7.18686"/>
<feGaussianBlur stdDeviation="11.9823"/>
<feComposite in2="hardAlpha" operator="out"/>
<feColorMatrix type="matrix" values="0 0 0 0 0 0 0 0 0 0 0 0 0 0 0 0 0 0 0.25 0"/>
<feBlend mode="normal" in2="BackgroundImageFix" result="effect1_dropShadow"/>
<feBlend mode="normal" in="SourceGraphic" in2="effect1_dropShadow" result="shape"/>
</filter>
</defs>
</svg>
