<svg width="29" height="38" viewBox="0 0 29 38" fill="none" xmlns="http://www.w3.org/2000/svg">
<g clip-path="url(#clip0)">
<path d="M24.0647 18.1734L20.5679 14.022C19.9133 13.2469 18.7592 13.1435 17.9841 13.7981L10.2326 20.3266L10.0259 18.5179C9.957 17.8978 10.1982 17.2777 10.6977 16.8815L16.5544 12.1789C17.364 11.5243 17.4845 10.353 16.8128 9.56062L12.3169 4.22071C11.9552 3.79007 11.8174 3.22163 11.9207 2.67042L12.3686 0.5L27.3031 18.2078C27.9577 18.983 27.8543 20.1371 27.0792 20.7917L18.1908 28.2848C17.7257 28.6809 17.1056 28.8188 16.5199 28.6465L14.9868 28.2159L23.8408 20.74C24.6159 20.1026 24.7193 18.9485 24.0647 18.1734Z" fill="white"/>
<path d="M5.168 19.8439L8.66478 23.9952C9.31935 24.7704 10.4735 24.8737 11.2486 24.2192L19.0001 17.6907L19.2068 19.4994C19.2757 20.1195 19.0345 20.7396 18.535 21.1358L12.6783 25.8384C11.8687 26.4757 11.7654 27.6643 12.4199 28.4394L16.9158 33.7793C17.2775 34.21 17.4153 34.7784 17.312 35.3296L16.8641 37.5L1.9296 19.8094C1.27503 19.0343 1.37838 17.8802 2.15353 17.2256L11.0419 9.73251C11.507 9.33632 12.1271 9.19852 12.7128 9.37077L14.2458 9.80141L5.3747 17.2601C4.61678 17.9146 4.51343 19.0687 5.168 19.8439Z" fill="white"/>
</g>
<defs>
<clipPath id="clip0">
<rect width="28" height="37" fill="white" transform="translate(0.5 0.5)"/>
</clipPath>
</defs>
</svg>
