<svg width="210" height="210" viewBox="0 0 210 210" fill="none" xmlns="http://www.w3.org/2000/svg">
<path d="M206.037 95.6409L114.346 3.94968C113.09 2.69364 111.6 1.69725 109.959 1.01746C108.319 0.337657 106.56 -0.0122375 104.784 -0.0122375C103.008 -0.0122375 101.25 0.337657 99.6093 1.01746C97.9687 1.69725 96.4781 2.69364 95.2227 3.94968L73.9208 25.2516L89.9464 41.2772C93.622 39.5153 97.7539 38.9378 101.772 39.6242C105.789 40.3106 109.495 42.2272 112.377 45.1094C115.26 47.9915 117.176 51.6973 117.863 55.7151C118.549 59.7329 117.971 63.8647 116.21 67.5403L142.46 93.7903C146.65 91.7886 151.414 91.3328 155.908 92.5036C160.402 93.6743 164.338 96.3963 167.02 100.188C169.701 103.98 170.956 108.598 170.562 113.226C170.168 117.853 168.15 122.192 164.866 125.476C161.582 128.76 157.243 130.778 152.615 131.172C147.988 131.566 143.37 130.311 139.578 127.63C135.786 124.948 133.064 121.013 131.893 116.518C130.723 112.024 131.178 107.26 133.18 103.07L106.93 76.8197C106.301 77.119 105.657 77.3862 105.001 77.6203V132.365C109.379 133.913 113.07 136.959 115.42 140.965C117.77 144.971 118.628 149.678 117.842 154.255C117.057 158.833 114.679 162.985 111.128 165.978C107.577 168.972 103.083 170.614 98.4383 170.614C93.7941 170.614 89.2994 168.972 85.7487 165.978C82.1979 162.985 79.8197 158.833 79.0343 154.255C78.249 149.678 79.1071 144.971 81.457 140.965C83.8069 136.959 87.4972 133.913 91.8758 132.365V77.6203C89.272 76.7008 86.8907 75.2438 84.8866 73.3439C82.8826 71.444 81.3006 69.1438 80.2436 66.5927C79.1865 64.0416 78.6779 61.2966 78.7509 58.5361C78.8238 55.7757 79.4767 53.0614 80.6671 50.5697L64.6414 34.544L3.96457 95.2209C1.43028 97.7603 0.00695801 101.201 0.00695801 104.789C0.00695801 108.377 1.43028 111.818 3.96457 114.357L95.6558 206.048C96.9112 207.304 98.4018 208.301 100.042 208.981C101.683 209.66 103.442 210.01 105.217 210.01C106.993 210.01 108.752 209.66 110.392 208.981C112.033 208.301 113.524 207.304 114.779 206.048L206.037 114.79C208.571 112.251 209.995 108.81 209.995 105.222C209.995 101.635 208.571 98.1934 206.037 95.6541V95.6409Z" fill="white"/>
</svg>
